<svg xmlns="http://www.w3.org/2000/svg" viewBox="0 0 1024 512"><filter id="b"><feGaussianBlur stdDeviation="12" /></filter><path fill="#61741a" d="M0 0h1024v512H0z"/><g filter="url(#b)" transform="matrix(4 0 0 4 2 2)" fill-opacity=".5"><ellipse fill="#fff5f2" cx="205" cy="71" rx="33" ry="43"/><ellipse fill="#395300" cx="120" cy="82" rx="67" ry="67"/><ellipse fill="#ffe8c4" rx="1" ry="1" transform="matrix(-1.60411 -25.49662 33.96856 -2.13712 201.6 55.3)"/><ellipse fill="#523e00" cx="255" cy="83" rx="59" ry="11"/><path fill="#0b1b00" d="M173 106l-11-58-59 22z"/><ellipse fill="#456b00" rx="1" ry="1" transform="matrix(190.6082 -101.34818 26.69078 50.19805 54.8 48)"/><path fill="#ffe8c2" d="M224.2 27.8l7.9 65.8L172.9 37l52.7-9.8z"/><path fill="#b06844" d="M172 109l2-76 22 49z"/><ellipse fill="#436300" rx="1" ry="1" transform="matrix(-27.27668 -68.54328 24.2009 -9.6307 255 38)"/></g></svg>