<svg xmlns="http://www.w3.org/2000/svg" viewBox="0 0 1024 512"><filter id="a"><feGaussianBlur stdDeviation="12"/></filter><rect width="100%" height="100%" fill="#649305"/><g filter="url(#a)"><g fill-opacity=".5" transform="matrix(4 0 0 4 2 2)"><ellipse cx="203" cy="69" fill="#ffd3ff" rx="33" ry="45"/><circle r="1" fill="#3a3f0b" transform="matrix(-15.63473 -164.2155 95.85857 -9.12656 89.7 87.7)"/><path fill="#ffffe6" d="M177.8 42.5l45.9-14 12.5 41-45.9 14z"/><ellipse cx="216" cy="13" fill="#3b4403" rx="69" ry="17"/><path fill="#490300" d="M187.5 82l35.5-6.7-1.3 17.8-48.4-15.7z"/><circle cx="144" cy="79" r="28" fill="#142300"/><path fill="#dd9c6f" d="M206.7 124.5l-26.3-90.3 10.5-9.5L161.7 55z"/><circle r="1" fill="#4f5014" transform="rotate(-166.7 131.8 24.5) scale(20.76744 99.75925)"/><path fill="#ffeec4" d="M175 36l68 40-20-49z"/></g></g></svg>