<svg xmlns="http://www.w3.org/2000/svg" viewBox="0 0 1024 512"><filter id="b"><feGaussianBlur stdDeviation="12" /></filter><path fill="#f5f7f5" d="M0 0h1024v512H0z"/><g filter="url(#b)" transform="matrix(4 0 0 4 2 2)" fill-opacity=".5"><path fill="#a3e99b" d="M77 92h123v9H77z"/><path fill="#849281" d="M57 4h35v4H57z"/><path fill="#7a9476" d="M106 22h48v2h-48z"/><path fill="#b6eab0" d="M61 119h50v4H61z"/><ellipse fill="#fdfbfd" cx="23" cy="61" rx="45" ry="108"/><ellipse fill="#fdfbfd" cx="243" cy="55" rx="52" ry="77"/><ellipse fill="#fbfbfb" rx="1" ry="1" transform="matrix(-26.65666 27.12975 -16.99554 -16.69917 94.6 31.2)"/><path fill="#cef0c8" d="M118 39h21v8h-21z"/><ellipse fill="#fcfbfc" rx="1" ry="1" transform="matrix(-23.83843 -14.99014 19.78094 -31.45711 175.8 45.4)"/></g></svg>