<svg xmlns="http://www.w3.org/2000/svg" viewBox="0 0 320 160"><defs/><filter id="a"><feGaussianBlur stdDeviation="12"/></filter><rect width="100%" height="100%" fill="#689305"/><g filter="url(#a)"><g fill-opacity=".5" transform="matrix(1.25 0 0 1.25 .6 .6)"><circle r="1" fill="#ffd2fc" transform="matrix(32.96914 -.21558 .29452 45.04143 203.2 69.8)"/><ellipse cx="81" cy="121" fill="#333e03" rx="105" ry="210"/><path fill="#ffffe4" d="M222.3 26.4l16.2 42-44.8 17.2-16.2-42z"/><path fill="#563c02" d="M179.4 82.4l59.1-10.6 31.7 55.7-42.1-34.7z"/><circle r="1" fill="#3b5100" transform="matrix(-3.86316 -17.2828 96.17711 -21.49813 218 10)"/><circle r="1" fill="#051700" transform="rotate(32.3 -59.8 288.3) scale(30.1705 21.22019)"/><path fill="#f5b589" d="M170 86.3l11.4-52.8-23 28.2 63.6 10z"/><circle r="1" fill="#405104" transform="matrix(22.035 -8.01112 34.89404 95.97786 255 44)"/><path fill="#ffeabe" d="M241.1 72.8l-43.7 7.1L177 35.4l43.1-7.8z"/></g></g></svg>