<svg xmlns="http://www.w3.org/2000/svg" viewBox="0 0 320 160"><filter id="b"><feGaussianBlur stdDeviation="12" /></filter><path fill="#607416" d="M0 0h320v160H0z"/><g filter="url(#b)" transform="matrix(1.25 0 0 1.25 .6 .6)" fill-opacity=".5"><ellipse fill="#fffefd" rx="1" ry="1" transform="matrix(-30.63203 1.30646 -1.79294 -42.03838 205.7 69.2)"/><ellipse fill="#ffd" cx="209" cy="53" rx="25" ry="25"/><ellipse fill="#3c5c00" cx="83" cy="90" rx="102" ry="133"/><path fill="#530b00" d="M209.9 97.6L203 81.3l1.6-4.3 28.3-4.4z"/><ellipse fill="#ffcda7" cx="191" cy="57" rx="25" ry="25"/><ellipse fill="#031500" rx="1" ry="1" transform="rotate(-57 140.7 -94.7) scale(18.6018 32.37793)"/><path fill="#ffbe8f" d="M182 117l56-13-46-20z"/><path fill="#395d00" d="M167.8 38.7L156.3-11l119.9-27.7L287.7 11z"/><path fill="#b36f46" d="M172.5 104.7l9.1-15.2 17-5L171.3 42z"/></g></svg>