<svg xmlns="http://www.w3.org/2000/svg" viewBox="0 0 320 160"><defs/><filter id="a"><feGaussianBlur stdDeviation="12"/></filter><rect width="100%" height="100%" fill="#709206"/><g filter="url(#a)"><g fill-opacity=".5" transform="matrix(1.25 0 0 1.25 .6 .6)"><circle r="1" fill="#ffd8ff" transform="matrix(32.5049 -2.34065 3.09774 43.01862 205.9 70)"/><circle r="1" fill="#2f400a" transform="matrix(85.50099 83.72875 -69.06958 70.53153 75.9 66.3)"/><circle r="1" fill="#ffeecd" transform="matrix(-1.04174 23.59593 -33.37485 -1.47346 201 55.5)"/><path fill="#4a3d04" d="M269 66l-79 14 81 35z"/><path fill="#2e4407" d="M262.5 29.6l-106 1.8-1-59 106-1.8z"/><circle r="1" fill="#0c1c00" transform="matrix(-10.69065 16.97647 -27.1803 -17.11634 143.3 74)"/><ellipse cx="179" cy="77" fill="#a55e39" rx="9" ry="31"/><path fill="#ffecc3" d="M174 75l48-52 15 46z"/><path fill="#ffbe93" d="M201.3 92.4l38.6-.3-52.8 25.3-.8-36.8z"/></g></g></svg>