<svg xmlns="http://www.w3.org/2000/svg" viewBox="0 0 320 160"><filter id="a"><feGaussianBlur stdDeviation="12"/></filter><rect width="100%" height="100%" fill="#709206"/><g filter="url(#a)"><g fill-opacity=".5" transform="matrix(1.25 0 0 1.25 .6 .6)"><circle r="1" fill="#ffe1ff" transform="rotate(178.3 103.3 37.1) scale(29.79153 42.89128)"/><circle r="1" fill="#30400b" transform="rotate(172.9 35.5 42.3) scale(107.67396 198.21484)"/><ellipse cx="199" cy="55" fill="#ffeed6" rx="33" ry="24"/><path fill="#513903" d="M210.8 91.7l60.2.3V63.6l-82.1 18.3z"/><circle r="1" fill="#2a3f06" transform="rotate(-73.5 115.8 -142.8) scale(19.16489 100.81642)"/><circle r="1" fill="#0b1c00" transform="matrix(-27.59327 -16.88472 10.0783 -16.4701 143 76.3)"/><path fill="#b56946" d="M193 76l-21 35V38z"/><path fill="#ffedc6" d="M220.9 25.7l15.8 36.1 6 15.9L175 38.6z"/><circle r="1" fill="#40590d" transform="matrix(24.1226 4.4784 -15.23377 82.05572 255 100.9)"/></g></g></svg>