<svg xmlns="http://www.w3.org/2000/svg" viewBox="0 0 320 160"><filter id="a"><feGaussianBlur stdDeviation="12"/></filter><rect width="100%" height="100%" fill="#709206"/><g filter="url(#a)"><g fill-opacity=".5" transform="matrix(1.25 0 0 1.25 .6 .6)"><circle r="1" fill="#ffd4fd" transform="rotate(175.9 101.4 38.4) scale(32.58731 44.9561)"/><circle r="1" fill="#2f4009" transform="rotate(-47.8 121 -55.2) scale(95.84519 114.21332)"/><ellipse cx="199" cy="56" fill="#ffeecb" rx="34" ry="24"/><circle r="1" fill="#314903" transform="matrix(5.7837 29.83277 -69.8418 13.54029 204.8 0)"/><path fill="#4c4006" d="M193.1 82.5l9.9-3.9 68-14.7v50.8z"/><path fill="#1a2101" d="M158 111l25-60-78 7z"/><circle r="1" fill="#3e5509" transform="matrix(-22.534 -43.2099 16.37584 -8.54002 250.1 44.8)"/><circle r="1" fill="#fff0c7" transform="matrix(17.20306 9.57301 -12.74456 22.90244 208.1 53.9)"/><path fill="#c47b4c" d="M195 79l-23-44v67z"/></g></g></svg>