<svg xmlns="http://www.w3.org/2000/svg" viewBox="0 0 1024 512"><filter id="a"><feGaussianBlur stdDeviation="12"/></filter><rect width="100%" height="100%" fill="#5e452d"/><g filter="url(#a)"><g fill-opacity=".5" transform="matrix(4 0 0 4 2 2)"><circle cx="101" r="162" fill="#ffe6c8"/><circle r="1" transform="matrix(38.31467 35.9424 -30.34253 32.3452 67 70.6)"/><ellipse cx="152" cy="8" fill="#fff" rx="255" ry="19"/><path fill="#9e3600" d="M242.9 69.7l-27.5 84.6-92.3-30 27.5-84.6z"/><circle r="1" fill="#fff" transform="rotate(-98.3 57.2 52.6) scale(192.23985 14.3158)"/><circle r="1" fill="#fffffa" transform="matrix(-81.02932 -32.07172 13.6148 -34.39782 228 24)"/><path fill="#346511" d="M232 35l-54 108 93-31z"/><circle r="1" fill="#fff" transform="matrix(19.0329 -41.50025 9.59035 4.39834 120.7 89)"/><circle r="1" fill="#f26822" transform="matrix(-27.55504 -13.20077 32.57509 -67.99664 162.9 90.8)"/></g></g></svg>