<svg xmlns="http://www.w3.org/2000/svg" viewBox="0 0 1080 1080"><filter id="a"><feGaussianBlur stdDeviation="12"/></filter><rect width="100%" height="100%" fill="#467b97"/><g fill-opacity=".5" filter="url(#a)"><circle r="1" fill="#b4bbb7" transform="matrix(-468.94517 -148.75817 115.12105 -362.90754 336.8 143.5)"/><path fill="#154900" d="M827.7 684l-548.4-9.6 2.6-147.6 548.3 9.6z"/><path fill="#502300" d="M1145.4 355.2L669.5 559l33-8.9.8-211.3z"/><circle r="1" fill="#674825" transform="rotate(158.9 446.3 489.6) scale(72.70075 389.13356)"/><path fill="#2c0800" d="M398.7 221.5h476.7v33.7H398.7z"/><path fill="#75bad3" d="M935 840.6L332 830l2.9-164.5L938 676.1z"/><path fill="#bdc8d3" d="M605.4-6.3v185.6H132.9V-6.3z"/><path fill="#25180b" d="M246.3 407.4l-43.6 189-90.4-20.8 43.6-189.1z"/><path fill="#7cb7c8" d="M44.3 770l362.8-17L14.8 457.7z"/></g></svg>