<svg xmlns="http://www.w3.org/2000/svg" viewBox="0 0 1024 1024"><filter id="a"><feGaussianBlur stdDeviation="12"/></filter><rect width="100%" height="100%" fill="#533c38"/><g filter="url(#a)"><g fill-opacity=".5" transform="matrix(4 0 0 4 2 2)"><circle cx="87" cy="89" r="244" fill="#ffffd0"/><circle r="1" fill="#fff" transform="matrix(3.69515 68.22896 -54.5118 2.95225 55.9 48.2)"/><path fill="#49626e" d="M191 69l57 131-238-41z"/><circle r="1" fill="#3a0b00" transform="rotate(174.9 79.1 20.4) scale(49.51364 12.0666)"/><circle r="1" fill="#0de2ff" transform="matrix(33.37547 7.84143 -4.17405 17.76602 61.4 144)"/><path fill="#260b00" d="M28 203l59 1-63 33z"/><path fill="#ffd38e" d="M271-6l-77-8 77 266z"/><path fill="#fffdf0" d="M170.8 245.2l-2.5-47.9 49-2.5 2.4 47.9z"/><ellipse cy="214" fill="#f8c783" rx="27" ry="224"/></g></g></svg>