<svg xmlns="http://www.w3.org/2000/svg" viewBox="0 0 1024 680"><filter id="a"><feGaussianBlur stdDeviation="12"/></filter><rect width="100%" height="100%" fill="#3e3f42"/><g filter="url(#a)"><g fill-opacity=".5" transform="matrix(4 0 0 4 2 2)"><circle r="1" fill="#fff" transform="matrix(-95.91866 236.27232 -40.71385 -16.52846 4 91.8)"/><path fill="#97d1e0" d="M82 0l187-16-1 201z"/><circle r="1" fill="#fff" transform="matrix(-20.44771 -.12497 1.19119 -194.89762 10 63)"/><circle r="1" fill="#fff" transform="matrix(-10.0671 -229.20998 15.86954 -.697 255 47)"/><ellipse cx="177" cy="116" fill="#040000" rx="68" ry="16"/><path fill="#236f86" d="M66 15l183 63-225 57z"/><path fill="#fffae9" d="M108.1 95l-37-2 .8-14 37 2z"/><path fill="#fff" d="M263.2 92.7l-27.1 73.5-115 3L255.4 185z"/><path fill="#e6dfd4" d="M78.6 146.4l-.2-14 41-.8.2 14z"/></g></g></svg>