<svg xmlns="http://www.w3.org/2000/svg" viewBox="0 0 1024 680"><filter id="a"><feGaussianBlur stdDeviation="12"/></filter><rect width="100%" height="100%" fill="#373d41"/><g filter="url(#a)"><g fill-opacity=".5" transform="matrix(4 0 0 4 2 2)"><circle r="1" fill="#61aac5" transform="matrix(-31.99438 -79.79018 59.9979 -24.05804 169 22.5)"/><path fill="#fff" d="M13 71l-2-37 56-3 2 37z"/><circle r="1" transform="matrix(-20.22704 -88.48614 24.00765 -5.4879 9.4 121.6)"/><circle r="1" fill="#588da3" transform="matrix(34.90399 -13.18776 26.8617 71.09474 80.3 75.3)"/><path fill="#f9fafa" d="M130 37h79v17h-79z"/><ellipse cx="250" cy="83" rx="8" ry="169"/><path fill="#fff3ed" d="M12 33h48v35H12z"/><ellipse cx="158" cy="117" fill="#060000" rx="71" ry="12"/><path d="M-5.2-1.3l34-2.3 2.4 34.9-34 2.3z"/></g></g></svg>