<svg xmlns="http://www.w3.org/2000/svg" viewBox="0 0 320 160"><filter id="a"><feGaussianBlur stdDeviation="12"/></filter><rect width="100%" height="100%" fill="#44443c"/><g filter="url(#a)"><g fill-opacity=".5" transform="matrix(1.25 0 0 1.25 .6 .6)"><circle r="1" fill="#fff2c9" transform="rotate(154.8 57.5 30.4) scale(249.65838 88.02125)"/><circle r="1" fill="#080000" transform="matrix(30.8246 -32.15867 36.85503 35.32614 65.6 71.7)"/><ellipse cx="174" cy="8" fill="#fff" rx="255" ry="19"/><circle r="1" fill="#fe4e00" transform="matrix(-31.99045 55.89083 -32.61995 -18.6708 161.3 106.5)"/><circle r="1" fill="#fff" transform="rotate(-98.6 35.9 41.7) scale(236.81507 22.46528)"/><circle r="1" fill="#fffcf5" transform="matrix(16.86114 -34.11593 69.79472 34.4947 218.3 20)"/><path fill="#476e0a" d="M190 64h59v64h-59z"/><path fill="#fff" d="M115 60h25v39h-25z"/><path fill="#e36c3b" d="M103 21h103v36H103z"/></g></g></svg>