<svg xmlns="http://www.w3.org/2000/svg" viewBox="0 0 1024 512"><defs/><filter id="a"><feGaussianBlur stdDeviation="12"/></filter><rect width="100%" height="100%" fill="#465530"/><g filter="url(#a)"><g fill-opacity=".5" transform="matrix(4 0 0 4 2 2)"><circle r="1" fill="#d6c65c" transform="matrix(1.29333 50.0785 -254.88952 6.5828 121.9 41)"/><circle r="1" fill="#fffff9" transform="matrix(-31.90502 36.06206 -12.90814 -11.42016 69.2 59)"/><circle r="1" fill="#fff" transform="matrix(26.56036 -.42766 .27715 17.21292 205.9 68.8)"/><ellipse cx="182" cy="127" fill="#7d7106" rx="141" ry="46"/><circle r="1" fill="#616100" transform="rotate(27.3 -86.5 61) scale(28.19599 72.16669)"/><path fill="#292500" d="M136.8 63.7L86.4 80.1l-7.2-21.8 50.4-16.4z"/><circle r="1" fill="#6a7000" transform="matrix(62.20374 -22.33043 7.29984 20.33447 222.6 22.8)"/><path fill="#e2ddd1" d="M158.1 22.2L127 11.7l27.6 35.7 12.3-25.3z"/><path fill="#fffeeb" d="M121.9 83.3l-12.7 10.9-10.7-20.3 13.9-2.1z"/></g></g></svg>