<svg xmlns="http://www.w3.org/2000/svg" viewBox="0 0 1024 512"><defs/><filter id="a"><feGaussianBlur stdDeviation="12"/></filter><rect width="100%" height="100%" fill="#465530"/><g filter="url(#a)"><g fill-opacity=".5" transform="matrix(4 0 0 4 2 2)"><circle r="1" fill="#d3c858" transform="rotate(-1.4 1256 -4552.5) scale(255 61.90429)"/><circle r="1" fill="#fffff3" transform="matrix(33.53429 -38.57678 12.74197 11.07643 69.2 57.1)"/><ellipse cx="206" cy="68" fill="#fff" rx="25" ry="18"/><ellipse cx="203" cy="120" fill="#7a7203" rx="162" ry="39"/><circle r="1" fill="#5c5f00" transform="matrix(-26.85887 -9.039 33.51939 -99.60084 20.1 44.3)"/><path fill="#2a2b00" d="M128.1 68.8l-50.2 9.6 43.6-47.7 20.9 14.5z"/><circle r="1" fill="#6a7200" transform="matrix(8.12765 22.04062 -65.31936 24.08703 227.5 21.5)"/><path fill="#e2dfd4" d="M134 12l32 12-10 26z"/><path fill="#f2eacc" d="M121.3 82.9l-11.5-19.4-17.6 26.6 26.9-.2z"/></g></g></svg>