<svg xmlns="http://www.w3.org/2000/svg" viewBox="0 0 320 160"><filter id="a"><feGaussianBlur stdDeviation="12"/></filter><rect width="100%" height="100%" fill="#7b8315"/><g filter="url(#a)"><g fill-opacity=".5" transform="matrix(1.25 0 0 1.25 .6 .6)"><circle r="1" fill="#fff" transform="rotate(-137.9 45.2 15.3) scale(19.4773 49.96101)"/><circle r="1" fill="#fff" transform="matrix(.06962 -17.6737 29.4845 .11615 205.3 68.7)"/><circle r="1" fill="#9b917b" transform="matrix(50.0985 -45.42655 19.98748 22.04311 138.4 41.9)"/><ellipse cx="21" cy="114" fill="#39341f" rx="158" ry="23"/><path fill="#1c1c00" d="M82 56h50v16H82z"/><circle r="1" fill="#fff7e8" transform="matrix(20.06712 -16.08478 9.80316 12.23026 58.6 74.7)"/><path fill="#e6e2c9" d="M126.8 10.1l33.9 13.5 11-13.3-15.5 38.3z"/><path fill="#ffffed" d="M100.5 76.4l13.7-8.2 9.3 15.4-13.7 8.2z"/><ellipse cx="255" cy="98" fill="#534e25" rx="164" ry="17"/></g></g></svg>