<svg xmlns="http://www.w3.org/2000/svg" viewBox="0 0 320 160"><defs/><filter id="a"><feGaussianBlur stdDeviation="12"/></filter><rect width="100%" height="100%" fill="#847c4c"/><g filter="url(#a)"><g fill-opacity=".5" transform="matrix(1.25 0 0 1.25 .6 .6)"><circle r="1" fill="#ffffea" transform="matrix(-33.63234 36.1855 -13.23476 -12.30095 67.7 57.7)"/><circle r="1" fill="#384300" transform="matrix(214.56285 -16.13306 1.46796 19.52323 100.5 108.7)"/><ellipse cx="205" cy="68" fill="#fffffd" rx="27" ry="18"/><circle r="1" fill="#667000" transform="rotate(-73.7 35.2 -.9) scale(79.13229 28.21177)"/><circle r="1" fill="#768300" transform="matrix(6.26616 20.1183 -63.05537 19.63956 223 25.8)"/><path fill="#252b00" d="M81 54h51v17H81z"/><path fill="#e5e7c7" d="M166.4 59.5l-.3-5.7-7.5-31.1-30-11.9z"/><path fill="#f7f0bf" d="M118.7 68.4l2 21.7-27.5 1.5 4.7-17.5z"/><path fill="#ffffe2" d="M50.6 39.7l23.7-3.8 7 44.4-23.6 3.8z"/></g></g></svg>