<svg xmlns="http://www.w3.org/2000/svg" viewBox="0 0 320 160"><defs/><filter id="a"><feGaussianBlur stdDeviation="12"/></filter><rect width="100%" height="100%" fill="#8c844c"/><g fill-opacity=".5" filter="url(#a)"><circle r="1" fill="#333e00" transform="matrix(-1.7154 -27.28924 218.06215 -13.70732 143 138)"/><circle r="1" fill="#fffff2" transform="matrix(15.82187 13.94885 -41.37793 46.93404 87 73.9)"/><circle r="1" fill="#fff" transform="matrix(-.90558 -20.9562 33.1009 -1.43039 256.6 86.6)"/><circle r="1" fill="#5c6600" transform="matrix(-33.9518 -11.43615 40.85625 -121.29464 30.7 38)"/><path fill="#1e2500" d="M167.6 83l-63 10-3.5-22.3 63-10z"/><circle r="1" fill="#6f7c00" transform="matrix(67.66813 -23.56454 8.7158 25.02835 268.3 33.7)"/><circle r="1" fill="#fbf9e2" transform="rotate(70.7 -12.3 96.2) scale(31.13431 16.75136)"/><path fill="#faf1c0" d="M116.3 100.9l27.9-14.2 10.7 21.2-27.8 14.1z"/><path fill="#dfe2bb" d="M195.9 62.1l-37.1-47 44 13.6 10.6-9.3z"/></g></svg>