<svg xmlns="http://www.w3.org/2000/svg" viewBox="0 0 320 160"><filter id="a"><feGaussianBlur stdDeviation="12"/></filter><rect width="100%" height="100%" fill="#747434"/><g filter="url(#a)"><g fill-opacity=".5" transform="matrix(1.25 0 0 1.25 .6 .6)"><circle r="1" fill="#fff" transform="matrix(-32.64068 36.16319 -14.07945 -12.70802 69.6 58.2)"/><ellipse cx="206" cy="68" fill="#fff" rx="28" ry="17"/><ellipse cx="42" cy="113" fill="#3c4000" rx="134" ry="22"/><path fill="#ceca8a" d="M178 15L134-4l1 83z"/><circle cx="110" cy="80" r="11" fill="#ffe"/><circle r="1" fill="#fffbce" transform="rotate(96.7 5.6 57) scale(23.34845 16.61784)"/><path fill="#2d2b00" d="M91.2 76.8L73.3 50.3l7.5-5 17.9 26.4z"/><path fill="#fff" d="M187.1 49.7l4.7 36.6 20.9-39 16 30.5z"/><path fill="#ffffde" d="M143.6 18.5l-25.3 14-4-7 25.4-14z"/></g></g></svg>