<svg xmlns="http://www.w3.org/2000/svg" viewBox="0 0 1024 512"><filter id="b"><feGaussianBlur stdDeviation="12" /></filter><path fill="#d6d5d6" d="M0 0h1024v512H0z"/><g filter="url(#b)" transform="matrix(4 0 0 4 2 2)" fill-opacity=".5"><ellipse rx="1" ry="1" transform="rotate(-82.8 101.9 -70) scale(46.33917 33.70338)"/><ellipse rx="1" ry="1" transform="matrix(27.969 11.5227 -12.41034 30.12358 160.4 43.5)"/><ellipse fill="#fff" rx="1" ry="1" transform="matrix(62.0931 17.10329 -38.70415 140.51452 63.5 37.5)"/><ellipse fill="#fff" cx="226" cy="74" rx="37" ry="166"/><path fill="#161110" d="M191 106l47-44-25 6z"/><ellipse rx="1" ry="1" transform="rotate(27 -21.5 357) scale(32.68418 25.13758)"/><path fill="#fff" d="M205 85L190-16l81 32z"/><ellipse fill="#f3f1f1" rx="1" ry="1" transform="matrix(69.22755 39.25124 -17.19572 30.32816 164.3 118.8)"/><ellipse fill="#fff" rx="1" ry="1" transform="matrix(39.79922 53.6642 -78.81148 58.44931 45.2 46.1)"/></g></svg>