<svg xmlns="http://www.w3.org/2000/svg" viewBox="0 0 1024 512"><filter id="a"><feGaussianBlur stdDeviation="12"/></filter><rect width="100%" height="100%" fill="#342723"/><g filter="url(#a)"><g fill-opacity=".5" transform="matrix(4 0 0 4 2 2)"><circle cx="38" cy="85" r="255" fill="#fff"/><circle cx="136" cy="95" r="167" fill="#fff"/><circle r="1" transform="matrix(-9.60385 39.25981 -31.84879 -7.79094 159 42.8)"/><path d="M191.6 16l-5.4 60.8-55.8-4.9 5.4-60.7z"/><circle r="1" fill="#fff" transform="matrix(42.71285 -138.84029 62.97176 19.37264 56.5 60.5)"/><path fill="#fff" d="M282.8 5.6l-43.3 161.3-76.3-20.5 43.3-161.3z"/><path d="M185.8 113l39.1-37.9 13.8-17.3-31.3 23.4z"/><circle cx="32" cy="77" r="95" fill="#fff"/><circle r="1" transform="matrix(-14.90575 -21.87424 26.8063 -18.2666 157.2 44.4)"/></g></g></svg>