<svg xmlns="http://www.w3.org/2000/svg" viewBox="0 0 1024 512"><filter id="b"><feGaussianBlur stdDeviation="12" /></filter><path fill="#bad7de" d="M0 0h1024v512H0z"/><g filter="url(#b)" transform="matrix(4 0 0 4 2 2)" fill-opacity=".5"><path fill="#241a1b" d="M224.2 116.7l-37.9.4-21.7-7.5L224 92.8z"/><path fill="#4b92ac" d="M22 10h146v9H22z"/><path fill="#488ca7" d="M22 9h25v19H22z"/><ellipse fill="#cbebf0" rx="1" ry="1" transform="rotate(-122.5 151 -27) scale(133.49447 33.52824)"/><ellipse fill="#719aaf" cx="89" cy="87" rx="66" ry="3"/><path fill="#484b4e" d="M181 118l-22-22 48 21z"/><ellipse fill="#d8f4f7" rx="1" ry="1" transform="matrix(-4.37652 -14.32057 36.396 -11.123 116.8 37.4)"/><path fill="#5d87a0" d="M24 64h51v6H24z"/><ellipse fill="#ddf8f9" cx="114" rx="165" ry="11"/></g></svg>