<svg xmlns="http://www.w3.org/2000/svg" viewBox="0 0 1024 512"><filter id="b"><feGaussianBlur stdDeviation="12" /></filter><path fill="#e6e5e5" d="M0 0h1024v512H0z"/><g filter="url(#b)" transform="matrix(4 0 0 4 2 2)" fill-opacity=".5"><path fill="#8093a0" d="M40 50h134v13H40z"/><path fill="#008" d="M52.6 31.7l-19 .6-.2-4 19-.6z"/><ellipse fill="#b6b7b8" rx="1" ry="1" transform="rotate(110.4 42.4 44.8) scale(7.99754 37.88126)"/><path fill="#f5f1ef" d="M142 54h114v74H142z"/><path fill="#fff" d="M43 55h124v4H43z"/><path fill="#5e7687" d="M59 50h136v4H59z"/><ellipse fill="#d4d2d0" cx="108" cy="5" rx="255" ry="11"/><ellipse fill="#fff" rx="1" ry="1" transform="matrix(-.15676 -5.84615 51.50289 -1.38099 173.5 36.6)"/><path fill="#6a6b6a" d="M95.5 20.7l71-2.4v1l-71 2.4z"/></g></svg>