<svg xmlns="http://www.w3.org/2000/svg" viewBox="0 0 320 160"><filter id="a"><feGaussianBlur stdDeviation="12"/></filter><rect width="100%" height="100%" fill="#504a4e"/><g filter="url(#a)"><g fill-opacity=".5" transform="matrix(1.25 0 0 1.25 .6 .6)"><circle cx="82" cy="61" r="189" fill="#fff"/><circle r="1" transform="rotate(21.8 -39.6 438.7) scale(32.69626 36.94616)"/><path fill="#fff" d="M126.5-29.5v159H-.5v-159zm24.1 169.1l64.8-160.4 102 41.2-64.8 160.4z"/><circle r="1" transform="matrix(-23.81208 11.20206 -16.363 -34.78266 161.4 41)"/><circle r="1" fill="#fff" transform="rotate(128.1 11.5 59.1) scale(58.80908 255.00001)"/><ellipse cx="228" cy="46" fill="#fff" rx="38" ry="127"/><path d="M223.5 67.3l18.2-9.3-37.4 39.1-14.1 3z"/><path fill="#fff" d="M141-14l-40 157L-16 7z"/></g></g></svg>