<svg xmlns="http://www.w3.org/2000/svg" viewBox="0 0 320 160"><filter id="b"><feGaussianBlur stdDeviation="12" /></filter><path fill="#d5d5d5" d="M0 0h320v160H0z"/><g filter="url(#b)" transform="matrix(1.25 0 0 1.25 .6 .6)" fill-opacity=".5"><ellipse rx="1" ry="1" transform="matrix(13.12886 -44.0399 29.39596 8.76332 159.8 42.4)"/><ellipse cx="160" cy="45" rx="32" ry="34"/><ellipse fill="#fff" cx="50" rx="78" ry="208"/><ellipse fill="#fff" cx="223" cy="76" rx="34" ry="176"/><ellipse fill="#020000" rx="1" ry="1" transform="matrix(-2.8831 -2.88253 21.89632 -21.90063 215.6 80.7)"/><path d="M190.8 15.8l-9.3 59.3-56.3-9L134.5 7z"/><ellipse fill="#f2eeee" rx="1" ry="1" transform="matrix(51.88565 8.59297 -4.7485 28.67212 143.2 101.7)"/><ellipse fill="#fff" cx="43" cy="22" rx="84" ry="120"/><path fill="#af8f85" d="M132 0h59v12h-59z"/></g></svg>