<svg xmlns="http://www.w3.org/2000/svg" viewBox="0 0 1024 512"><filter id="b"><feGaussianBlur stdDeviation="12" /></filter><path fill="#7f9293" d="M0 0h1024v512H0z"/><g filter="url(#b)" transform="matrix(4 0 0 4 2 2)" fill-opacity=".5"><path d="M65 130.5l2-112 62 1-2 112z"/><ellipse fill="#fff" rx="1" ry="1" transform="matrix(-12.28214 51.23704 -32.98608 -7.90717 163 63.4)"/><ellipse fill="#fbffff" cx="20" cy="44" rx="45" ry="62"/><ellipse rx="1" ry="1" transform="rotate(93.8 -3.3 116) scale(18.62668 144.67905)"/><ellipse cx="210" rx="150" ry="14"/><ellipse fill="#e2ffff" rx="1" ry="1" transform="rotate(-171.5 103 9.6) scale(80.40009 20.90793)"/><path fill="#f2ffff" d="M126 90h130v25H126z"/><path d="M126.8 24l1.4 77-59 1-1.4-77zm.2 95h129v9H127z"/></g></svg>