<svg xmlns="http://www.w3.org/2000/svg" viewBox="0 0 2048 1024"><filter id="b"><feGaussianBlur stdDeviation="12" /></filter><path fill="#f7f8fb" d="M0 0h2048v1024H0z"/><g filter="url(#b)" transform="matrix(8 0 0 8 4 4)" fill-opacity=".5"><path fill="#000cb7" d="M106 26h40v25h-40z"/><path fill="#0036ff" d="M131 32h17v14h-17z"/><path fill="#fff" d="M-16-2L8.5 143l104-111.1 45-32.4z"/><path fill="#1745ff" d="M114 28l13.5 6-7.5 10.3-15 6z"/><path fill="#fff" d="M271-15l-40 158L129 12z"/><path fill="#6dff3b" d="M123.8 44.9l.3 1.9-11.3 4 33.2-.4z"/><ellipse fill="#bfc1c3" cx="123" cy="67" rx="52" ry="4"/><path fill="#ff841c" d="M125 24h6v16h-6z"/><path fill="#6b6967" d="M72 80h29v2H72z"/></g></svg>