<svg xmlns="http://www.w3.org/2000/svg" viewBox="0 0 2048 1024"><filter id="b"><feGaussianBlur stdDeviation="12" /></filter><path fill="#f7f8fb" d="M0 0h2048v1024H0z"/><g filter="url(#b)" transform="matrix(8 0 0 8 4 4)" fill-opacity=".5"><path fill="#000bbb" d="M106 27h42v24h-42z"/><ellipse fill="#164bff" rx="1" ry="1" transform="matrix(7.08652 10.44395 -6.65418 4.51505 139.3 38.7)"/><path fill="#e69735" d="M125 24h6v26h-6z"/><path fill="#fff" d="M105.7 40.6L5.1 143-16 2.7 150.7-16zm22.6-26l29.5 34L249 143l22-159z"/><ellipse fill="#c0c1c3" cx="124" cy="67" rx="52" ry="4"/><path fill="#1349ff" d="M115.1 30.6l11.4 9.3L144 36l-37.7 16.5z"/><path fill="#2fff15" d="M117 47h21v4h-21z"/><ellipse fill="#b6b5b2" cx="121" cy="99" rx="51" ry="2"/></g></svg>