<svg xmlns="http://www.w3.org/2000/svg" viewBox="0 0 1024 512"><filter id="b"><feGaussianBlur stdDeviation="12" /></filter><path fill="#ebeef9" d="M0 0h1024v512H0z"/><g filter="url(#b)" transform="matrix(4 0 0 4 2 2)" fill-opacity=".5"><ellipse fill="#0008b5" cx="126" cy="79" rx="43" ry="27"/><path fill="#245bf0" d="M84 69h89v31H84z"/><path fill="#ffc053" d="M123 44h12v61h-12z"/><path fill="#fff" d="M5 143L-16-4l211-12z"/><ellipse fill="#72ff36" cx="127" cy="100" rx="23" ry="6"/><path fill="#fff" d="M271 22l-92 115-28-153z"/><path fill="#fff" d="M261.6 126.2L15 143l-31-32.3 148.1-10.1z"/><path fill="#1c42ff" d="M172.3 106L165 79.6l-26.4-26.8-7.8 36.7z"/><path fill="#1846ff" d="M132 86l-48 18 9-37z"/></g></svg>