<svg xmlns="http://www.w3.org/2000/svg" viewBox="0 0 2048 1024"><filter id="b"><feGaussianBlur stdDeviation="12" /></filter><path fill="#f8f9fc" d="M0 0h2048v1024H0z"/><g filter="url(#b)" transform="matrix(8 0 0 8 4 4)" fill-opacity=".5"><path fill="#0004b7" d="M107 15h40v24h-40z"/><path fill="#2366dd" d="M106 24h43v16h-43z"/><path fill="#f58f3b" d="M126 13h6v24h-6z"/><path fill="#fff" d="M-16 .2L5.5 143 87 49.9l51.2-58.2z"/><path fill="#57ff00" d="M117 36h22v3h-22z"/><ellipse fill="#bebfc1" cx="123" cy="55" rx="51" ry="4"/><path fill="#fff" d="M271 29l-99 36-48-81z"/><path fill="#1e49ff" d="M143 16l-16 15 24 8z"/><path fill="#706e6c" d="M74 68h40v2H74z"/></g></svg>