<svg xmlns="http://www.w3.org/2000/svg" viewBox="0 0 320 160"><filter id="c"><feGaussianBlur stdDeviation="55" /></filter><path fill="#f7f8fb" d="M0 0h320v160H0z"/><g filter='url(#c)' fill-opacity='.5'><ellipse fill="#0000b4" fill-opacity=".5" rx="1" ry="1" transform="matrix(25.55584 .40146 -.2543 16.18826 155.5 47.2)"/><path fill="#054ee0" fill-opacity=".5" d="M131.9 46.9h55V63h-55z"/><path fill="#ffbb47" fill-opacity=".5" d="M156.9 31.9h7.5v33.7h-7.5z"/><path fill="#c5c4c2" fill-opacity=".5" d="M97.3 91.6l135-9.3-49.8-1.8-83.5.9z"/><path fill="#4fff16" fill-opacity=".5" d="M150.8 65.1l26-3.9-21.3-1.9-8.9 2.8z"/><ellipse fill="#fff" fill-opacity=".5" rx="1" ry="1" transform="matrix(98.16923 174.22231 -65.91884 37.14336 269.8 49.7)"/><path fill="#979694" fill-opacity=".5" d="M84.4 99.4H138v3.7H84.4z"/><path fill="#fff" fill-opacity=".5" d="M19.4 179.4l160-187.5L-19.4.6z"/><path fill="#a5a3a1" fill-opacity=".5" d="M90.6 123.1h128.8v2.5H90.6z"/></g></svg>