<svg xmlns="http://www.w3.org/2000/svg" viewBox="0 0 46300 10000">
  <path fill="none" stroke="#063656" stroke-linecap="round" stroke-linejoin="round" stroke-width="666" d="M26668 4924h-1359l525-532 6 2418c0 724 723 690 921 449m1181-2247v2245m3-3460v20m4563 2001c333-676 1019-898 1158-898m-1158 90v2247m-3328-1146h2083c0-1097-745-1187-1053-1187-307 0-1036 129-1038 1224-3 1211 1316 1341 2091 819m-6998 290V5820c0-1408-1606-898-2069-314m-5-584v2335m-3385-1146h2082c0-1097-745-1187-1052-1187-308 0-1036 129-1039 1224-3 1211 1317 1341 2091 819m-2990 290l-1126-1464m1008-871l-1752 1507m-2 828V3725m-2212 2093c334-676 1021-898 1160-898m-1161 90v2247m-1366-1176h-1004c-1851 0-1013 2509 1005 556m-1834-1587s1840-708 1840 768v1439M4648 4922v2334-1436s0-809 720-809c718 0 718 809 718 809v1369-1369s0-809 719-809c718 0 718 809 718 809v1302-1302s0-809 719-809 719 809 719 809 11 505 11 987c-2 265 20 644-270 1056a4690 4690 0 01-5918 1246 4673 4673 0 01-175-8122 4653 4653 0 013163-588 4674 4674 0 013907 4590m24814 2256l-1 11m2396-2338h-1359l525-533 6 2418c0 724 723 690 921 449m911-1144h2083c0-1097-745-1187-1053-1187-307 0-1036 129-1038 1224-3 1211 1316 1341 2091 819m2725-1792c-592-281-1602-288-1602 1012-3 1210 971 1157 1674 858m3195 217V5822c0-1408-1606-898-2069-314m-5-1783v3534"/>
</svg>
