<svg xmlns="http://www.w3.org/2000/svg" viewBox="0 0 34000 10000">
  <path fill="none" stroke="#063656" stroke-linecap="round" stroke-linejoin="round" stroke-width="665.8" d="M26669 4925h-1359l525-533 6 2419c0 724 723 690 921 449m1181-2247v2245m3-3461v20m4563 2002c333-676 1019-898 1158-898m-1158 90v2247m-3328-1146h2083c0-1097-745-1187-1053-1187-307 0-1036 129-1038 1224-3 1211 1316 1341 2091 819m-6998 290V5821c0-1409-1606-898-2069-314m-5-584v2335m-3385-1146h2082c0-1097-745-1187-1052-1187-308 0-1036 129-1039 1224-3 1211 1317 1341 2091 819m-2990 290l-1126-1464m1008-871l-1752 1507m-2 828V3725m-2212 2094c334-676 1021-898 1160-898m-1161 90v2247m-1366-1176h-1004c-1851 0-1013 2509 1005 556m-1834-1587s1840-709 1840 768v1439M4650 4923v2334-1436s0-809 719-809c718 0 718 809 718 809v1369-1369s0-809 719-809c718 0 718 809 718 809v1302-1302s0-809 719-809 719 809 719 809 11 505 11 987c-2 265 20 644-270 1056a4690 4690 0 01-5917 1246A4674 4674 0 01586 3486 4652 4652 0 015773 399a4674 4674 0 013907 4591"/>
</svg>
