<svg xmlns="http://www.w3.org/2000/svg" viewBox="0 0 1024 512"><filter id="a"><feGaussianBlur stdDeviation="12"/></filter><rect width="100%" height="100%" fill="#574827"/><g fill-opacity=".5" filter="url(#a)"><circle r="1" fill="#758b9b" transform="rotate(.3 -51114.7 80749.6) scale(605.8765 377.48872)"/><circle r="1" transform="matrix(19.97606 -20.90888 341.0426 325.82745 812.5 260)"/><circle r="1" transform="matrix(151.1471 183.2052 -26.32034 21.71468 143.2 353.7)"/><path d="M202 18l508 548-176-340z"/><path fill="#afb7b6" d="M954.4 363.2l-230-290.8L860 15.2l226 180z"/><path fill="#fff" d="M834 426l148 148H618z"/><circle r="1" fill="#ffdf85" transform="matrix(-16.93947 15.83108 -364.19925 -389.69814 492.9 386.4)"/><path fill="#ffffc8" d="M-1.2 246.8L230 527.6l-.4 46.4L-62 216.8z"/><path fill="#f7e4f3" d="M941.2 422.4L820.8 420 710 340.4l-81.2 72.4z"/></g></svg>