<svg xmlns="http://www.w3.org/2000/svg" viewBox="0 0 1024 512"><filter id="b"><feGaussianBlur stdDeviation="12" /></filter><path fill="#64675f" d="M0 0h1024v512H0z"/><g filter="url(#b)" transform="matrix(4 0 0 4 2 2)" fill-opacity=".5"><ellipse rx="1" ry="1" transform="rotate(-45.4 165.6 -203.8) scale(7.73828 156.14928)"/><ellipse rx="1" ry="1" transform="rotate(140 -.5 43.5) scale(6.96004 107.47663)"/><ellipse fill="#a8b3b4" rx="1" ry="1" transform="rotate(40 50.6 338.8) scale(54.62657 24.9807)"/><ellipse rx="1" ry="1" transform="matrix(-81.2954 -87.31974 4.43124 -4.12552 117.6 71.5)"/><ellipse fill="#ffd487" rx="1" ry="1" transform="matrix(-6.55392 5.73115 -52.36367 -59.88103 121 95.6)"/><ellipse fill="#fff" cx="205" cy="127" rx="21" ry="17"/><ellipse rx="1" ry="1" transform="matrix(-5.19796 5.2764 -46.93307 -46.23544 225.7 0)"/><path fill="#ffffde" d="M45.3 128l-58.5-75 4-3 58.4 74.8z"/><path fill="#fff0ff" d="M154 102l30-20 20 21z"/></g></svg>