<svg xmlns="http://www.w3.org/2000/svg" viewBox="0 0 2000 1979"><filter id="b"><feGaussianBlur stdDeviation="12" /></filter><path d="M0 0h2000v1976H0z"/><g filter="url(#b)" transform="translate(4 4) scale(7.8125)" fill-opacity=".5"><ellipse cx="80" cy="174" rx="3" ry="3"/><path d="M136 153.7l-14.5-6.8 10.5-22.6 14.5 6.8z"/><ellipse cx="71" cy="177" rx="22" ry="16"/><ellipse cx="147" cy="36" rx="27" ry="25"/><ellipse cx="250" cy="148" rx="26" ry="26"/><path d="M109 202.9l5.3-18.9.6 7.6-10 18zm135.6 19.6l-.2 4-27-1 .2-4zM212 167l-8-15 18 18zM97.7 101.6l.7-7 16 1.8-.8 7z"/></g></svg>