<svg xmlns="http://www.w3.org/2000/svg" viewBox="0 0 320 160"><filter id="c"><feGaussianBlur stdDeviation="55" /></filter><path fill="#63675e" d="M0 0h320v160H0z"/><g filter='url(#c)' fill-opacity='.5'><path fill-opacity=".5" d="M194.4-19.4l96.2 138.8-112.5-93.8z"/><ellipse fill="#aeb2b0" fill-opacity=".5" rx="1" ry="1" transform="rotate(48.9 69.3 373.2) scale(122.02345 27.51682)"/><ellipse fill-opacity=".5" rx="1" ry="1" transform="rotate(137.3 61.4 85.6) scale(9.03403 201.70998)"/><ellipse fill="#ffdb85" fill-opacity=".5" rx="1" ry="1" transform="matrix(-108.46493 -117.54231 5.8932 -5.43809 139 103.5)"/><ellipse fill-opacity=".5" rx="1" ry="1" transform="rotate(49.5 -95.3 101) scale(71.73582 9.26382)"/><path fill="#fff" fill-opacity=".5" d="M247 138.2l-43.6 41.2 97.7-7.8 29 7.8z"/><path fill="#ffffc3" fill-opacity=".5" d="M17 115.2l61.3 64.2L39 122.6l-58.5-64.3z"/><path fill-opacity=".5" d="M329.4 168.1l-21.3-60-78.7-43.7z"/><ellipse fill-opacity=".5" rx="1" ry="1" transform="matrix(7.48979 -6.8545 40.95003 44.74535 286 .6)"/></g></svg>