<svg xmlns="http://www.w3.org/2000/svg" viewBox="0 0 320 160"><filter id="a"><feGaussianBlur stdDeviation="12"/></filter><rect width="100%" height="100%" fill="#594c2c"/><g fill-opacity=".5" filter="url(#a)"><circle r="1" fill="#748797" transform="rotate(-2.9 1981.8 -2754) scale(186.24099 121.0238)"/><circle r="1" transform="rotate(44.2 32.6 338) scale(137.42349 10.1193)"/><circle r="1" transform="matrix(-7.29623 6.144 -61.05784 -72.50852 42 106.7)"/><path d="M216.9 170.6L163 68.1 70.6 15.6z"/><circle r="1" fill="#ffcd80" transform="matrix(80.36291 88.00862 -7.4804 6.83054 143.4 109.6)"/><circle r="1" fill="#bbc7d1" transform="matrix(-57.3643 -49.2342 10.82673 -12.61456 291.8 70.9)"/><path fill="#fff" d="M298.4 167.9l-74.9 1.3-21.7 10.2 54.2-45.7z"/><circle r="1" fill="#ffffba" transform="matrix(-3.67535 2.88184 -59.64045 -76.0623 30 120.4)"/><path fill="#fff7ff" d="M254.4 128.1l-63.8 1.3 37.5-23.8z"/></g></svg>