<svg xmlns="http://www.w3.org/2000/svg" viewBox="0 0 320 160"><filter id="a"><feGaussianBlur stdDeviation="12"/></filter><rect width="100%" height="100%" fill="#594c2c"/><g filter="url(#a)"><g fill-opacity=".5" transform="matrix(1.25 0 0 1.25 .6 .6)"><circle cx="121" cy="114" r="150" fill="#738796"/><circle r="1" transform="matrix(-5.44629 5.58865 -110.08652 -107.28228 177.7 40.2)"/><circle r="1" transform="rotate(140 4.2 57.8) scale(7.53339 97.1979)"/><path fill="#000b12" d="M148 108L30-16l93 53z"/><path fill="#bdc5cb" d="M271 38l-87-18 59 67z"/><path fill="#ffd797" d="M85 50l72 72-21 21z"/><path fill="#fff" d="M171.3 143h-12.9l43.6-34.6 51.2 34.6z"/><circle r="1" fill="#ffffd2" transform="matrix(2.5266 -2.08167 58.59603 71.12016 33.6 108.7)"/><path fill="#9faeb3" d="M113.1 62.2L84-1.3l48.2 42.9L164.3 30z"/></g></g></svg>