<svg xmlns="http://www.w3.org/2000/svg" viewBox="0 0 320 160"><defs/><filter id="a"><feGaussianBlur stdDeviation="12"/></filter><rect width="100%" height="100%" fill="#2f4747"/><g fill-opacity=".5" filter="url(#a)"><circle r="1" fill="#9b8a78" transform="rotate(-85.3 131.9 -37.4) scale(131.41464 174.7635)"/><circle r="1" transform="matrix(6.72955 -6.87967 117.76148 115.19186 248.4 75.9)"/><circle r="1" transform="matrix(-7.6939 6.71535 -74.4853 -85.33922 20.2 81.3)"/><path d="M58.1.6l160 171.3-55-106.3z"/><path fill="#ffe292" d="M74.7 22l124.7 143.3-10.4 9L64.4 31z"/><path fill="#b6bec4" d="M225.6 21.9l92.5 20L337 145.6z"/><path fill="#fff" d="M248.9 186.3l-22-27.2 33-26.7 22 27.2z"/><path fill="#ffffd4" d="M-15 72.9l6.9-5.5 81.8 101-6.8 5.5z"/><path fill="#fff" d="M196.4 109.9l20.6 24.5 48.5-10-85.8-7z"/></g></svg>