<svg xmlns="http://www.w3.org/2000/svg" viewBox="0 0 320 160"><defs/><filter id="a"><feGaussianBlur stdDeviation="12"/></filter><rect width="100%" height="100%" fill="#594c2c"/><g filter="url(#a)"><g fill-opacity=".5" transform="matrix(1.25 0 0 1.25 .6 .6)"><circle cx="119" cy="117" r="153" fill="#738796"/><circle r="1" transform="matrix(133.58992 130.82092 -5.2028 5.31293 179.3 42.6)"/><circle r="1" transform="matrix(-4.16217 3.89254 -107.48992 -114.93562 111 64)"/><circle r="1" fill="#aeb4b5" transform="matrix(15.3687 -17.92493 47.8343 41.01275 239.5 53.2)"/><circle r="1" transform="matrix(-5.05425 4.24102 -53.22094 -63.42624 37 87.8)"/><circle r="1" fill="#ffda86" transform="rotate(137.7 41 67.8) scale(5.93227 157.25537)"/><path fill="#fffcff" d="M160.9 92.8L263.4 143h-88.9l25.2-45.5z"/><circle r="1" fill="#ffffc9" transform="rotate(-39.3 146.8 15.4) scale(3.46632 100.11828)"/><path d="M140.2 142.3l74.3-38.3-36.8.8-.7 31.6z"/></g></g></svg>