<svg xmlns="http://www.w3.org/2000/svg" viewBox="0 0 144 144"><path d="M71 23.7a47.3 47.3 0 10.2 94.7 47.3 47.3 0 00-.2-94.7zm0 4.2a3.1 3.1 0 013 3 3.1 3.1 0 01-6.2 0 3.1 3.1 0 013.2-3zM78 33a38.3 38.3 0 0126.2 18.7l-3.7 8.2c-.6 1.5 0 3.1 1.5 3.8l7 3.1a38.3 38.3 0 01.1 6.7h-4c-.3 0-.5.2-.5.6v1.8c0 4.2-2.4 5.2-4.5 5.4-2 .2-4.2-.8-4.4-2-1.2-6.7-3.2-8.1-6.3-10.6 3.9-2.4 7.9-6 7.9-10.8 0-5.2-3.6-8.5-6-10.1A17 17 0 0083 45H42.5A38.3 38.3 0 0164 33l4.7 5c1.1 1.1 3 1.2 4 .1zM33.9 56a3.1 3.1 0 013 3.1 3.1 3.1 0 01-6.2 0 3.1 3.1 0 013.2-3zm74.2.2a3.1 3.1 0 013 3 3.1 3.1 0 01-6.2 0 3.1 3.1 0 013.2-3zm-68.3.5h5.4V81h-11A38.3 38.3 0 0133 66.5l6.7-3c1.4-.6 2-2.3 1.4-3.7zm22.6.2h12.9c.7 0 4.7.8 4.7 3.8 0 2.5-3.1 3.4-5.7 3.4h-12zm0 17.6h9.9c.9 0 4.8.2 6 5.3.4 1.5 1.3 6.5 1.9 8.1.6 1.8 3 5.4 5.5 5.4H102a38.3 38.3 0 01-3.6 4.1L91.8 96c-1.6-.3-3 .7-3.4 2.2l-1.6 7.3a38.3 38.3 0 01-31.9-.2l-1.5-7.2a2.8 2.8 0 00-3.4-2.2l-6.4 1.3a38.3 38.3 0 01-3.4-3.9h31.3c.4 0 .6 0 .6-.4V82c0-.3-.2-.4-.6-.4h-9.1zM48 99.8a3.1 3.1 0 013 3.1 3.1 3.1 0 01-6.2 0 3.1 3.1 0 013.2-3zm46 .1a3.1 3.1 0 013 3.2 3.1 3.1 0 01-6.2 0 3.1 3.1 0 013.2-3.2z"/><path d="M115.7 71A44.6 44.6 0 0171 115.6 44.6 44.6 0 0126.4 71a44.6 44.6 0 0144.7-44.7A44.6 44.6 0 01115.7 71zm-.9-4.4l7 4.4-7 4.3 6 5.6-7.6 2.8 4.7 6.7-8 1.3 3.4 7.5-8.2-.3 1.8 8-8-2 .4 8.3-7.5-3.4-1.3 8-6.7-4.7-2.8 7.6-5.6-6-4.3 7-4.4-7-5.5 6-3-7.6-6.6 4.7-1.3-8-7.4 3.4.2-8.2-8 1.8 2-8-8.2.4 3.4-7.5-8.1-1.3 4.7-6.7-7.6-2.8 6-5.6-7-4.3 7-4.4-6-5.5 7.6-3-4.7-6.6 8-1.3-3.3-7.5 8.1.3-1.8-8 8 2-.3-8.2 7.4 3.4 1.3-8.1 6.7 4.7 2.9-7.6 5.5 6 4.4-7 4.3 7 5.6-6 2.8 7.6 6.7-4.7 1.3 8 7.5-3.3-.3 8.1 8-1.8-2 8 8.3-.3-3.4 7.4 8 1.3-4.7 6.7 7.6 2.9z" fill-rule="evenodd" stroke="#000" stroke-linecap="round" stroke-linejoin="round" stroke-width="3"/></svg>
