<svg xmlns="http://www.w3.org/2000/svg" viewBox="0 0 1024 512"><filter id="b"><feGaussianBlur stdDeviation="12" /></filter><path fill="#93949c" d="M0 0h1024v512H0z"/><g filter="url(#b)" transform="matrix(4 0 0 4 2 2)" fill-opacity=".5"><ellipse rx="1" ry="1" transform="rotate(-99 109.8 -26.9) scale(32.78261 85.70556)"/><ellipse fill="#edffff" rx="1" ry="1" transform="rotate(-13.9 110.9 -691.7) scale(140.43554 38.32046)"/><ellipse cx="195" cy="66" rx="43" ry="36"/><ellipse fill="#fff" cx="181" cy="120" rx="255" ry="11"/><ellipse rx="1" ry="1" transform="matrix(-4.7137 20.11685 -60.48764 -14.1732 111.8 88.7)"/><ellipse fill="#fff" rx="1" ry="1" transform="matrix(-29.64605 -127.39633 22.10747 -5.14457 251.1 36.6)"/><path d="M55 38l15 52-36-40z"/><ellipse fill="#ebffff" cx="91" cy="42" rx="34" ry="26"/><ellipse fill="#83d0ff" rx="1" ry="1" transform="rotate(-100.4 21 -17.5) scale(40.70634 214.57048)"/></g></svg>