<svg xmlns="http://www.w3.org/2000/svg" viewBox="0 0 1024 1000"><filter id="b"><feGaussianBlur stdDeviation="12" /></filter><path fill="#d1d0cf" d="M0 0h1024v1000H0z"/><g filter="url(#b)" transform="matrix(4 0 0 4 2 2)" fill-opacity=".5"><ellipse fill="#050000" rx="1" ry="1" transform="matrix(.83292 -19.59778 148.03635 6.29166 175.4 72)"/><path fill="#040000" d="M197 116l-26 43 100-6z"/><ellipse rx="1" ry="1" transform="matrix(-.16605 -7.53505 111.64857 -2.46039 180 0)"/><ellipse fill="#fff" rx="1" ry="1" transform="rotate(-67.1 197.2 36.2) scale(92.33485 212.72158)"/><path fill="#171d1c" d="M32 52h50v40H32z"/><ellipse fill="#fff" cx="106" cy="31" rx="255" ry="22"/><path fill="#58381e" d="M187 118h65v39h-65z"/><ellipse fill="#fff" cx="137" cy="113" rx="69" ry="23"/><ellipse rx="1" ry="1" transform="matrix(-.01968 5.639 -135.24343 -.4721 198.3 1.5)"/></g></svg>