<svg xmlns="http://www.w3.org/2000/svg" viewBox="0 0 1024 512"><filter id="b"><feGaussianBlur stdDeviation="12" /></filter><path fill="#e7eae0" d="M0 0h1024v512H0z"/><g filter="url(#b)" transform="matrix(4 0 0 4 2 2)" fill-opacity=".5"><path fill="#26541c" d="M200.8 75.4l-61 3.2-2.6-50 61-3.2z"/><ellipse fill="#a5a980" rx="1" ry="1" transform="matrix(46.72791 -13.9302 7.40642 24.84434 91.6 69.6)"/><ellipse fill="#fff" rx="1" ry="1" transform="matrix(-254.17927 -20.44254 1.9249 -23.934 114.5 11)"/><ellipse fill="#fff" rx="1" ry="1" transform="matrix(1.45181 40.15775 -244.69465 8.84637 182 127)"/><path fill="#235017" d="M166.6 30.4l-8.6 37-16.6-3.8 8.6-37z"/><ellipse fill="#000400" cx="187" cy="50" rx="3" ry="24"/><ellipse fill="#fff" rx="1" ry="1" transform="matrix(-98.3806 164.14817 -29.56116 -17.7172 30.1 46.2)"/><ellipse rx="1" ry="1" transform="matrix(1.92073 -.2413 2.35487 18.74507 139.6 43)"/><path fill="#fff" d="M151.6 22.8l4.5 24.8 2.3 10.4 4.2-56z"/></g></svg>