<svg xmlns="http://www.w3.org/2000/svg" viewBox="0 0 320 160"><filter id="a"><feGaussianBlur stdDeviation="12"/></filter><rect width="100%" height="100%" fill="#44343c"/><g filter="url(#a)"><g fill-opacity=".5" transform="matrix(1.25 0 0 1.25 .6 .6)"><circle cx="175" cy="29" r="205" fill="#e5f7ff"/><circle r="1" transform="matrix(4.03926 31.97401 -87.0066 10.99149 155.8 78.3)"/><circle r="1" fill="#efffff" transform="rotate(-9.9 188 -836.8) scale(114.61113 29.66901)"/><circle r="1" transform="matrix(-10.84432 -29.58524 71.60493 -26.24642 162 72.8)"/><circle r="1" fill="#fff" transform="matrix(243.56264 -6.22864 .32319 12.63777 141 122.2)"/><circle r="1" fill="#fff" transform="rotate(73.3 85.7 200.6) scale(175.58489 18.5991)"/><circle r="1" transform="matrix(6.2774 -8.15793 49.96668 38.44861 71.5 75)"/><circle r="1" fill="#d8f9ff" transform="rotate(-109.7 69.4 -25.8) scale(32.10641 63.17745)"/><circle r="1" transform="matrix(20.33325 -31.53985 26.8009 17.27812 196.7 66)"/></g></g></svg>