<svg xmlns="http://www.w3.org/2000/svg" viewBox="0 0 320 160"><filter id="b"><feGaussianBlur stdDeviation="12" /></filter><path fill="#92949c" d="M0 0h320v160H0z"/><g filter="url(#b)" transform="matrix(1.25 0 0 1.25 .6 .6)" fill-opacity=".5"><ellipse rx="1" ry="1" transform="matrix(4.93139 32.22678 -83.84276 12.82974 158.4 77.7)"/><ellipse fill="#fff" rx="1" ry="1" transform="matrix(-14.54286 -29.47917 108.41843 -53.48568 172.2 4.2)"/><ellipse cx="147" cy="81" rx="92" ry="27"/><ellipse fill="#fff" rx="1" ry="1" transform="rotate(87.1 -11 122) scale(15.9272 215.90336)"/><ellipse fill="#fff" rx="1" ry="1" transform="matrix(-37.3293 -75.53011 28.14964 -13.91242 255 32.4)"/><ellipse rx="1" ry="1" transform="rotate(-113.8 116.4 -32.5) scale(28.30399 40.37435)"/><ellipse fill="#b7f4ff" rx="1" ry="1" transform="matrix(-24.48858 27.38898 -54.96239 -49.14205 60 12.4)"/><ellipse rx="1" ry="1" transform="rotate(-142.2 37.1 21.6) scale(40.43238 7.00209)"/><ellipse fill="#fffffb" rx="1" ry="1" transform="matrix(10.62812 23.75947 -112.14547 50.1651 226.8 119.1)"/></g></svg>