<svg xmlns="http://www.w3.org/2000/svg" viewBox="0 0 320 160"><defs/><filter id="a"><feGaussianBlur stdDeviation="12"/></filter><rect width="100%" height="100%" fill="#4c3444"/><g filter="url(#a)"><g fill-opacity=".5" transform="matrix(1.25 0 0 1.25 .6 .6)"><circle cx="130" cy="25" r="173" fill="#ddf6f7"/><circle r="1" transform="matrix(82.26145 -14.75253 5.73287 31.96704 160.8 78.7)"/><path fill="#edffff" d="M84 70l-98-86L271 4z"/><ellipse cx="143" cy="81" rx="89" ry="27"/><circle r="1" fill="#fff" transform="matrix(.7695 16.9459 -254.73758 11.56757 131 127)"/><circle r="1" fill="#fff" transform="rotate(-106.1 144.7 -73) scale(163.37441 24.09768)"/><ellipse cx="198" cy="65" rx="39" ry="35"/><path d="M82.2 103.2L10.1 29.4 43 47.6l107.9 67.1z"/><circle r="1" fill="#ffd9c6" transform="matrix(18.49373 -15.59785 59.08897 70.05936 32.5 90)"/></g></g></svg>