<svg xmlns="http://www.w3.org/2000/svg" viewBox="0 0 1024 360"><filter id="a"><feGaussianBlur stdDeviation="12"/></filter><rect width="100%" height="100%" fill="#474747"/><g filter="url(#a)"><g fill-opacity=".5" transform="matrix(4 0 0 4 2 2)"><circle cx="138" cy="36" r="159" fill="#fff"/><circle r="1" fill="#fff" transform="matrix(-228.37444 41.06313 -14.34574 -79.78446 129.2 74)"/><circle r="1" fill="#fff" transform="rotate(78.8 32 111.2) scale(62.03606 249.74451)"/><path fill="#0008b8" d="M57.9 19.6l-66-1.2.2-12 66 1.2z"/><ellipse cx="107" cy="53" fill="#b8b9ba" rx="42" ry="33"/><path fill="#fff" d="M-24.6-23.8L229 3l-2.4 22.9L-27-1z"/><path fill="#000093" d="M27 81h-42v-8h42z"/><path fill="#5f6569" d="M87 51h135v4H87z"/><path fill="#fff" d="M-12 16l77 6-14 83z"/></g></g></svg>