<svg xmlns="http://www.w3.org/2000/svg" viewBox="0 0 1024 570"><filter id="b"><feGaussianBlur stdDeviation="12" /></filter><path fill="#f1f2f4" d="M0 0h1024v568H0z"/><g filter="url(#b)" transform="matrix(4 0 0 4 2 2)" fill-opacity=".5"><path fill="#343341" d="M5 19h21v18H5z"/><ellipse fill="#c0c2bf" rx="1" ry="1" transform="matrix(144.4244 .91564 -.04356 6.8708 120.6 0)"/><ellipse fill="#fffffe" cx="140" cy="87" rx="82" ry="82"/><path fill="#bdbcbe" d="M170 58h26v36h-26z"/><path fill="#c8cfe2" d="M221 43h24v99h-24z"/><path fill="#848482" d="M42 34l16 .4 27.7 1.8-42.1 2.4z"/><path fill="#c8cfdf" d="M19 117h-35l32-95z"/><path fill="#cf0000" d="M6 19h6v16H6z"/><ellipse fill="#fff" cx="219" cy="33" rx="133" ry="27"/></g></svg>