<svg xmlns="http://www.w3.org/2000/svg" viewBox="0 0 1024 512"><filter id="b"><feGaussianBlur stdDeviation="12" /></filter><path fill="#6b3a9d" d="M0 0h1024v512H0z"/><g filter="url(#b)" transform="matrix(4 0 0 4 2 2)" fill-opacity=".5"><ellipse fill="#cabbd4" cx="140" cy="73" rx="108" ry="5"/><path fill="#dcd4df" d="M35 50.1l62 1.2-5.1 7.3-57.8 1z"/><path fill="#5e2893" d="M78 60h26v68H78z"/><ellipse fill="#8d41d9" cx="168" cy="90" rx="38" ry="7"/><path fill="#622d96" d="M248.4 143L271-16-16 38l242 28z"/><path fill="#b9a4ca" d="M36 69h36v9H36z"/><path fill="#dfd9e1" d="M109.5 64.7l-1.9-20.4-2 3.5-1.6 7z"/><ellipse fill="#e1dbe2" cx="19" cy="110" rx="3" ry="8"/><path fill="#c6b7d3" d="M26 51h34v8H26z"/></g></svg>