<?xml version="1.0" standalone="no"?>
<!DOCTYPE svg PUBLIC "-//W3C//DTD SVG 1.1//EN" "http://www.w3.org/Graphics/SVG/1.1/DTD/svg11.dtd" >
<svg xmlns="http://www.w3.org/2000/svg">
<metadata></metadata>
<defs>
<font id="lusitanabold" horiz-adv-x="1529" >
<font-face units-per-em="2048" ascent="1638" descent="-410" />
<missing-glyph horiz-adv-x="405" />
<glyph horiz-adv-x="2048" />
<glyph horiz-adv-x="2048" />
<glyph unicode="&#xd;" horiz-adv-x="681" />
<glyph unicode=" "  horiz-adv-x="405" />
<glyph unicode="&#x09;" horiz-adv-x="405" />
<glyph unicode="&#xa0;" horiz-adv-x="405" />
<glyph unicode="!" horiz-adv-x="653" d="M160 1356q166 66 248 82q41 0 55 -31q6 -10 6 -51l-4 -74l-84 -856q0 -6 -6 -13t-13 -7l-81 -5q-8 0 -9 21zM215 90q0 51 35 84t81 33t78.5 -30t32.5 -80t-30.5 -86t-85 -36t-83 32t-28.5 83z" />
<glyph unicode="&#x22;" horiz-adv-x="604" d="M94 1364q111 99 187 115q12 0 12 -37t-19.5 -242t-27.5 -217q-25 -33 -53.5 -33t-53.5 11q-4 84 -45 403zM358 1374q111 98 187 115q16 0 12 -21q0 -53 -19.5 -258t-27.5 -217q-25 -33 -53.5 -32.5t-53.5 10.5q-4 84 -45 403z" />
<glyph unicode="#" horiz-adv-x="927" d="M-59 515q0 30 39 83h20l174 -2l51 240l-180 6q-30 45 29 127l73 -2h105l65 313q29 18 69 18t65 -12l-68 -321h164l65 315q29 18 69 18t64 -12l-69 -323h235q10 -16 10.5 -36t-29.5 -49.5t-65.5 -43t-44.5 -13.5l-135 4l-51 -233h221q10 -16 10 -35.5t-29.5 -49.5 t-65.5 -43t-44 -13l-121 2l-67 -318q-6 -10 -21 -10q-57 0 -98 37l61 295l-168 4l-69 -326q-6 -10 -21 -10q-57 0 -98 37l61 303l-196 6q-10 14 -10 44zM303 594h168l47 233l-164 7z" />
<glyph unicode="$" horiz-adv-x="1124" d="M49 444l154 29q39 -172 110.5 -251t194.5 -89v471q-72 35 -91.5 43t-83 42t-86 52.5t-66.5 55.5t-62 67q-47 88 -47 172q0 176 125 271.5t309 107.5v207q16 12 70.5 23.5t80.5 11.5v-246q174 -16 328 -84q20 -41 20.5 -173t-10.5 -206l-129 4q-14 256 -209 310v-455 q256 -119 336 -213q90 -111 90 -245t-109.5 -242.5t-316.5 -126.5v-170q-10 -10 -60 -18.5t-87 -8.5l-2 194q-180 14 -402 95q-10 33 -29.5 159.5t-27.5 212.5zM342 1094q0 -121 164 -211v389q-68 -10 -116 -54t-48 -124zM657 139q156 31 156 174q0 117 -156 213v-387z" />
<glyph unicode="%" horiz-adv-x="1429" d="M41 1117.5q0 150.5 119 268t260 117.5t226 -99t85 -249.5t-118.5 -267.5t-260 -117t-226.5 98.5t-85 249zM131 -4q0 2 930 1466q49 18 103.5 18.5t88.5 -14.5l-931 -1468q-12 -8 -67.5 -15.5t-76 -7.5h-29t-13.5 8.5t-5 12.5zM250 1161q-1 -266 149 -266q123 0 123 219 q0 115 -41 192.5t-110 77.5q-121 0 -121 -223zM731 343.5q0 150.5 119 268t260 117.5t226 -99.5t85 -250t-118.5 -267t-260 -116.5t-226.5 98.5t-85 249zM940 387q0 -266 150 -266q123 0 122 219q0 115 -41 192.5t-110 77.5q-121 0 -121 -223z" />
<glyph unicode="&#x26;" horiz-adv-x="1683" d="M55 339q0 140 67.5 245.5t223.5 208.5q-49 51 -77.5 88t-55.5 100t-28 103t-1 51q0 141 117 242.5t275.5 101.5t252 -74t93.5 -197q0 -178 -256 -364l385 -346q31 68 52 149.5t21 125.5t-143 44l-35 107l307 -6l279 6l27 -107q-178 0 -211 -63l-174 -342l296 -236 q111 -86 181 -86l16 -94l-223 6q-90 0 -184 -4l-238 178q-195 -201 -467 -201q-213 0 -356.5 112t-143.5 252zM319 414q0 -117 80 -203t197 -86q201 0 311 147l-454 426q-53 -49 -93.5 -131.5t-40.5 -152.5zM426 1199.5q0 -62.5 42 -136.5t99 -131q150 143 150 266 q0 66 -37 115t-106.5 49t-108.5 -50t-39 -112.5z" />
<glyph unicode="'" horiz-adv-x="393" d="M92 1473q111 98 187 114q16 0 12 -20q0 -53 -19.5 -258t-27.5 -217q-25 -33 -53.5 -33t-53.5 10q-4 84 -45 404z" />
<glyph unicode="(" horiz-adv-x="739" d="M80 575.5q0 264.5 142.5 539t357.5 464.5q8 6 26.5 6t62.5 -20.5t44 -36.5q-385 -428 -385 -932q0 -256 110.5 -522.5t280.5 -456.5q0 -16 -46 -42t-63.5 -26t-25.5 7q-238 199 -371 477t-133 542.5z" />
<glyph unicode=")" horiz-adv-x="739" d="M18 -383q170 190 281 456.5t111 522.5q0 504 -385 932q0 16 44 36.5t62.5 20.5t26.5 -6q215 -190 357 -464.5t142 -539t-133 -543t-370 -476.5q-8 -6 -25.5 -6.5t-64 25.5t-46.5 42z" />
<glyph unicode="*" horiz-adv-x="741" d="M47 940q0 10 2 17.5t5 18.5t5 15q6 12 15 37l207 43l-193 158q16 45 109 57l149 -133q23 98 31 203q49 35 84 35t45 -17q0 -2 -10 -39q-29 -111 -43 -198q184 51 227 69q16 -25 16 -43q0 -51 -24 -82q-2 -4 -31 -10q-121 -27 -156 -37l213 -166q-12 -18 -50 -31.5 t-56.5 -13.5t-179.5 131q-41 -205 -41 -247q-49 8 -105 73l49 215l-241 -92q-27 27 -27 37z" />
<glyph unicode="+" horiz-adv-x="1163" d="M72 519.5q0 25.5 8 51.5q184 -4 409 -4q0 250 -4 346q20 20 79 37t95 17q-4 -113 -4 -400q152 0 365 4q23 -23 38 -77t15 -95q-242 4 -418 4q0 -174 4 -383q-18 -20 -64 -32.5t-69.5 -12.5t-40.5 2q4 209 4 426q-182 0 -378 -4q-20 18 -29.5 56.5t-9.5 64z" />
<glyph unicode="," horiz-adv-x="495" d="M-6 -354q113 104 137 145q45 78 45 139.5t-47 73.5q-23 4 -41.5 4t-32.5 -6q-29 27 -28 148q0 43 10 49q45 43 128 43t136 -57.5t53 -150.5t-66.5 -217t-191.5 -212h-16t-43 12t-43 29z" />
<glyph unicode="-" horiz-adv-x="768" d="M100 496q0 27 6 45l314 -2l217 2q14 -16 27.5 -85t13.5 -102l-260 2l-289 -2q-14 14 -21.5 64.5t-7.5 77.5z" />
<glyph unicode="." horiz-adv-x="471" d="M100 111.5q0 58.5 41 97.5t95.5 39t93.5 -35t39 -94.5t-37 -101.5t-99.5 -42t-97.5 39t-35 97.5z" />
<glyph unicode="/" horiz-adv-x="925" d="M53 -125l621 1641q55 18 115.5 18t95.5 -12l-621 -1616q-14 -23 -70.5 -31t-87 -8t-53.5 8z" />
<glyph unicode="0" horiz-adv-x="1247" d="M51 670.5q0 314.5 155.5 530.5t413 216t417 -197.5t159.5 -511t-156.5 -523.5t-415.5 -210t-416 190.5t-157 505zM319 764q0 -254 66 -436q37 -98 108 -155.5t169 -57.5q129 0 197.5 155.5t68.5 374.5q0 244 -68 428q-37 98 -104.5 155.5t-159.5 57.5q-123 0 -200 -161.5 t-77 -360.5z" />
<glyph unicode="1" horiz-adv-x="696" d="M0 1346q152 27 244 53l194 57q37 0 45.5 -10t8.5 -60l2 -1212q0 -70 129 -70h14l27 -110l-289 6l-297 -2l-23 106q76 2 113 15.5t42 24t5 30.5v989q0 88 -104 88q-27 0 -70 -6z" />
<glyph unicode="2" horiz-adv-x="1112" d="M20 68l97 75q166 135 309 312q254 313 254 557q0 106 -66 167.5t-168 61.5q-170 0 -296 -180q-23 0 -49.5 17.5t-30.5 43.5q168 293 462 293q190 0 317.5 -97t127.5 -269q0 -119 -62 -226q-55 -96 -103 -155.5t-93 -111.5t-76 -89t-79 -87t-110.5 -110.5t-68.5 -66.5h334 q84 0 118.5 40t71.5 165l101 -50q0 -76 -19 -190q-2 -14 -57 -201q-92 33 -338 33h-150q-248 0 -405 -12q-20 51 -21 80z" />
<glyph unicode="3" horiz-adv-x="925" d="M8 1176q57 96 169 168.5t270.5 72.5t262 -73.5t103.5 -198.5q0 -231 -326 -365q377 -129 377 -370q0 -205 -181 -320t-439 -115q-164 0 -217 31q-14 12 -6 44t22 32q119 -4 125 -4q178 0 297 97t119 235q0 96 -81 154.5t-175.5 58.5t-159.5 -17q-12 20 -21.5 58t-9.5 51 q2 2 56.5 27.5t90 45t94 56.5t95.5 69q92 86 92 165t-51 121t-133 42t-170 -40t-133 -97q-41 0 -70 72z" />
<glyph unicode="4" horiz-adv-x="1218" d="M8 515q0 15 12 32l744 846q18 20 39.5 22t40.5 2h39q35 -49 32 -84q-29 -47 -28 -162v-532h49q129 0 188 37q33 -37 33 -68q0 -80 -61 -172q-92 29 -209 31v-492q-162 4 -250 48v444h-543q-39 0 -62.5 16.5t-23.5 31.5zM295 639h350v422z" />
<glyph unicode="5" horiz-adv-x="927" d="M35 791l147 544q14 55 39 80q90 -22 182 -22h191q72 0 104.5 25.5t67.5 117.5l90 -57q0 -125 -72 -308q-98 25 -508 25q-10 -35 -26.5 -90t-26.5 -92q293 -37 452 -163t159 -288q0 -131 -64.5 -240.5t-167.5 -179.5q-213 -141 -465 -141q-8 0 -19.5 20.5t-11.5 40 t21 25.5q190 33 319 138.5t129 254t-158.5 229.5t-381.5 81z" />
<glyph unicode="6" horiz-adv-x="1075" d="M49 461.5q0 240.5 193.5 507t482.5 448.5q2 0 14.5 -5l17.5 -7t16 -7t17.5 -10.5t12.5 -11.5q14 -12 14 -26q-80 -63 -192.5 -184.5t-143.5 -161.5q-88 -121 -127 -222q133 52 244 52q168 0 300 -108t132 -298t-129 -321.5t-362.5 -131.5t-361.5 123t-128 363.5zM317 427 q0 -146 66 -229t172.5 -83t156.5 77.5t50 201.5t-61.5 217.5t-165.5 93.5q-52 0 -104 -24t-83 -66t-31 -188z" />
<glyph unicode="7" horiz-adv-x="1052" d="M29 1092v49q0 39 4 54t9 41t13 49.5t19.5 58t25.5 75.5q78 -23 277 -26h438q147 0 232 20q10 -16 10 -84l-613 -1356l-32.5 6.5t-37 7.5t-30.5 9q-29 8 -25 37l453 1161h-446q-72 0 -113 -37t-76 -135z" />
<glyph unicode="8" horiz-adv-x="1044" d="M51 344q0 137 96 234q76 72 185 145q-109 76 -158 127q-94 96 -94 205q0 164 124 264t324.5 100t308 -87t107.5 -216q0 -193 -254 -373q227 -129 283 -258q27 -63 26 -139q0 -168 -131 -269.5t-338.5 -101.5t-343 92.5t-135.5 276.5zM299 350q0 -96 64.5 -165.5 t166 -69.5t162 59t60.5 153.5t-86 175.5t-242 165q-51 -53 -88 -137.5t-37 -180.5zM328 1100q0 -176 268 -307q45 57 72.5 140t27.5 163t-51 136t-137 56t-133 -59t-47 -129z" />
<glyph unicode="9" horiz-adv-x="1075" d="M45 963.5q0 191.5 129 321.5t362.5 130t361.5 -123t128 -364.5t-168 -501.5t-444 -451q-84 25 -95 66q133 96 251 248.5t149 271.5q-88 -37 -247 -37t-293 124t-134 315.5zM313 998q0 -124 61.5 -211t178.5 -87t168 70q37 51 37 196.5t-66.5 233.5t-171 88t-156 -83 t-51.5 -207z" />
<glyph unicode=":" horiz-adv-x="497" d="M147 112.5q0 59.5 42 99.5t96.5 40t94.5 -35t40 -95.5t-37 -103.5t-101.5 -43t-99.5 39t-35 98.5zM147 661.5q0 59.5 42 99.5t96.5 40t94.5 -35t40 -95.5t-37 -103.5t-101.5 -43t-99.5 39t-35 98.5z" />
<glyph unicode=";" horiz-adv-x="610" d="M152 -354q113 104 137 145q45 78 45 139.5t-47 73.5q-23 4 -41.5 4t-32.5 -6q-29 27 -29 148q0 43 11 49q47 43 129 43t135 -57.5t53 -150.5t-66.5 -217t-191.5 -212h-16.5t-43 12t-42.5 29zM154 661.5q0 59.5 42 99.5t96 40t94 -35t40 -95.5t-37 -103.5t-101.5 -43 t-99 39t-34.5 98.5z" />
<glyph unicode="&#x3c;" horiz-adv-x="1024" d="M111 634.5q0 22.5 2 27.5l864 452q8 -10 8 -97t-8 -112l-637 -342v-8l637 -344q6 -43 6 -117t-6 -94l-838 436q-10 10 -19 93t-9 105.5z" />
<glyph unicode="=" horiz-adv-x="1079" d="M70 700.5q0 24.5 6 42.5l461 -4l424 4q14 -16 27 -78.5t13 -93.5l-466 4l-437 -4q-14 14 -21 59.5t-7 70zM80 401.5q0 24.5 6 42.5l461 -4l424 4q14 -16 27.5 -78.5t13.5 -93.5l-467 4l-436 -4q-14 14 -21.5 59.5t-7.5 70z" />
<glyph unicode="&#x3e;" horiz-adv-x="1120" d="M109 1017q0 87 8 97l864 -452q2 -4 2 -27t-9 -106t-20 -93l-837 -436q-6 20 -6 53q0 115 6 158l637 344v8l-637 342q-8 25 -8 112z" />
<glyph unicode="?" horiz-adv-x="778" d="M170 602.5q0 59.5 39 127t117 116.5l47 31v-3q53 33 73.5 44.5t40 24.5t29.5 20.5t24.5 18.5t20.5 20.5t12 19.5q15 18 15 43q0 53 -57.5 93t-140.5 40t-126 -9t-45 -9q-16 0 -30.5 64.5t-14.5 118.5t115 54q82 0 147 -28q147 -63 224 -159.5t77 -205.5t-41 -182.5 t-143 -141.5q-119 -74 -141.5 -94t-34.5 -33q-18 -25 -18.5 -61.5t38.5 -81.5q-8 -39 -35 -43q-14 -2 -58 22.5t-89 79t-45 114zM227 90q0 51 35 84t81 33t79 -30t33 -80t-31 -86t-85 -36t-83 32t-29 83z" />
<glyph unicode="@" horiz-adv-x="1734" d="M123 246q0 266 144.5 484t381 337t502.5 119t417.5 -135.5t151.5 -331.5q0 -137 -72.5 -277.5t-179 -240t-224.5 -163t-205 -63.5t-87 74q0 49 39 199q-51 -72 -88 -118t-98.5 -96t-108.5 -50q-78 0 -118 57q-43 61 -43 147q0 328 223 537q106 98 248 98q84 0 110 -59 l17 72q61 33 172 32q-131 -717 -131 -729t-5 -12q86 0 196 164t110 407q0 195 -100.5 292t-274.5 97q-178 0 -361 -116q-100 -66 -182 -159t-135 -241.5t-53 -328.5q0 -252 141 -409t356 -157q10 -10 11 -12q0 -47 -127 -47q-158 0 -316 92q-86 51 -154.5 121t-112.5 178.5 t-44 237.5zM727 244q0 -106 39 -107q30 0 98 72q211 219 211 430q0 31 -21.5 62.5t-56.5 31.5q-104 0 -187 -158.5t-83 -330.5z" />
<glyph unicode="A" d="M0 104q72 6 117 35t65.5 63t44.5 101l428 1151h179l483 -1184q37 -92 77 -130t113 -38l23 -108q-94 6 -309 6t-312 -6l-18 108q109 0 135.5 15.5t26.5 36t-13 47.5l-137 307h-444l-86 -246q-8 -23 -8 -43q0 -43 51 -78t157 -37l21 -112l-330 8l-250 -8zM504 639h342 l-184 444z" />
<glyph unicode="B" horiz-adv-x="1337" d="M61 1460q246 -6 287 -6l328 8q481 0 481 -336q0 -225 -272 -331q156 -29 265.5 -126.5t109.5 -236.5q0 -209 -148.5 -324.5t-435.5 -115.5l-291 8q-139 0 -297 -6l-25 110q98 2 130 20.5t32 53.5v1098q0 37 -27.5 55.5t-109.5 18.5zM508 236q0 -115 148.5 -115t226.5 83 t78 195q0 160 -101.5 231.5t-225.5 71.5t-126 -2v-464zM508 815q4 -2 84 -2q129 0 202.5 74t73.5 197.5t-71.5 185t-180 61.5t-108.5 -14v-502z" />
<glyph unicode="C" horiz-adv-x="1572" d="M82 698q0 369 234.5 575t601.5 206q162 0 350 -45q96 -18 174 -31q23 -46 23 -157q0 -115 -13 -238l-147 16q-14 121 -58 184q-88 127 -358 127q-236 0 -362 -164.5t-126 -426t147.5 -441.5t383.5 -180q313 0 440 313l139 -30q0 -18 -53 -167t-65 -147 q-213 -117 -502 -117q-356 0 -582.5 199t-226.5 524z" />
<glyph unicode="D" horiz-adv-x="1703" d="M61 1458q246 -6 287 -6l410 4q406 0 635 -183t229 -526.5t-234.5 -548t-664.5 -204.5l-369 10q-109 0 -266 -6l-25 111q98 2 130 20t32 53v1092q0 37 -27.5 55.5t-109.5 18.5zM502 258q0 -53 10 -75.5t71.5 -41t194.5 -18.5q256 0 391.5 153.5t135.5 445.5t-155 452.5 t-441 160.5h-154q-53 0 -53 -14v-1063z" />
<glyph unicode="E" horiz-adv-x="1370" d="M61 1460q246 -6 287 -6h531l319 -2q25 -55 25 -178t-11 -219l-90 14q-23 141 -75 202.5t-150 61.5l-256 -2h-49q-84 -4 -84 -8v-506h340q24 0 24 182v15l115 18l-6 -282q0 -117 6 -252l-119 -23q0 117 -4 149.5t-20 32.5h-336v-421q0 -68 37 -88.5t125 -20.5h192 q276 0 377 295l111 -23q0 -35 -59.5 -217t-88.5 -182l-473 -2l-375 2q-109 0 -266 -6l-25 110q98 2 130 20.5t32 53.5v1098q0 37 -27.5 55.5t-109.5 18.5z" />
<glyph unicode="F" horiz-adv-x="1243" d="M61 1460q246 -6 287 -6h850q25 -70 25 -191.5t-11 -207.5l-90 14q-23 141 -75 202.5t-150 61.5h-305q-84 -4 -84 -10v-506h340q24 0 24 182v15l115 18l-6 -282q0 -117 6 -252l-119 -23q0 117 -4 149.5t-20 32.5h-336v-479q0 -39 38 -56.5t161 -17.5l26 -110 q-246 6 -366.5 6t-278.5 -6l-25 110q98 2 130 20.5t32 53.5v1098q0 37 -27.5 55.5t-109.5 18.5z" />
<glyph unicode="G" horiz-adv-x="1679" d="M82 716q0 341 236.5 552t594.5 211q133 0 283 -32t238 -44q25 -50 25 -160q0 -112 -13 -235l-103 18q-29 160 -150.5 235.5t-307.5 75.5q-227 0 -355.5 -166.5t-128.5 -430t134.5 -440.5t377.5 -177q113 0 197 37t84 123v217q0 27 -14 41q-32 32 -215 32h-11l-26 111 q246 -6 388 -6t298 6l24 -111q-98 -2 -129.5 -20t-31.5 -53v-219q0 -156 -54 -175l15 3q-236 -133 -553 -134q-375 0 -589 200t-214 541z" />
<glyph unicode="H" horiz-adv-x="1714" d="M72 1460q246 -6 337 -6t246 6l25 -110q-98 -2 -130 -20.5t-32 -53.5v-459h678v459q0 37 -27.5 55.5t-109.5 18.5l-27 110q246 -6 336 -6t248 6l24 -110q-98 -2 -129.5 -20.5t-31.5 -53.5v-1098q0 -37 27.5 -55.5t109.5 -18.5l26 -110q-246 6 -335.5 6t-247.5 -6l-25 110 q98 2 130 20.5t32 53.5v481h-678v-481q0 -37 27.5 -55.5t109.5 -18.5l27 -110q-246 6 -336 6t-248 -6l-24 110q98 2 130 20.5t32 53.5v1098q0 37 -28 55.5t-110 18.5z" />
<glyph unicode="I" horiz-adv-x="733" d="M61 1460q246 -6 337 -6t247 6l25 -110q-98 -2 -130 -20.5t-32 -53.5v-1098q0 -37 27.5 -55.5t109.5 -18.5l27 -110q-246 6 -336 6t-248 -6l-25 110q98 2 130 20.5t32 53.5v1098q0 37 -27.5 55.5t-109.5 18.5z" />
<glyph unicode="J" horiz-adv-x="761" d="M53 -449q100 74 146.5 219.5t48.5 393.5l8 1112q0 37 -27.5 55.5t-109.5 18.5l-27 110q246 -6 337 -6t247 6l24 -110q-98 -2 -129.5 -20.5t-31.5 -53.5v-1141q0 -242 -136.5 -408.5t-320.5 -250.5q-18 2 -29 14q-23 30 -23 39q0 8 23 22z" />
<glyph unicode="K" horiz-adv-x="1478" d="M61 1460q246 -6 337 -6t247 6l25 -110q-98 -2 -130 -20.5t-32 -53.5v-490q125 119 307 315.5t182 222.5t-135 26l-26 110q246 -6 336 -6t247 6l25 -110q-209 -6 -266 -68l-455 -485l571 -619q78 -74 189 -74l26 -110l-260 6q-88 0 -143 -2q-78 94 -323.5 367.5 t-272.5 273.5h-2v-461q0 -37 27.5 -55.5t109.5 -18.5l27 -110q-246 6 -336 6t-248 -6l-25 110q98 2 130 20.5t32 53.5v1098q0 37 -27.5 55.5t-109.5 18.5z" />
<glyph unicode="L" horiz-adv-x="1294" d="M61 104q98 2 130 20.5t32 53.5l8 1098q0 37 -27.5 55.5t-109.5 18.5l-26 110q246 -6 337 -6t246 6l25 -110q-98 -2 -130 -20.5t-32 -53.5v-1043q0 -108 98 -108h2h193q276 0 377 295l110 -23q0 -35 -59 -216t-88 -181l-473 -4l-322 4q-111 0 -266 -6z" />
<glyph unicode="M" horiz-adv-x="2031" d="M61 1460q246 -6 332 -6t139 6q39 -115 142.5 -316.5t132.5 -269.5q47 -125 246 -479q82 184 144.5 330.5t108.5 247t87 194.5q116 256 116 295l203 -8q76 0 232 6l24 -110q-98 -2 -130 -20.5t-32 -53.5v-1098q0 -37 28 -55.5t110 -18.5l26 -110q-246 6 -336 6t-248 -6 l-24 110q98 2 130 20.5t32 53.5v852q-59 -125 -229.5 -480t-258.5 -542l-53 -24l-541 1089v-895q0 -37 28 -55.5t110 -18.5l26 -110q-246 6 -303 6t-215 -6l-25 110q176 4 177 74v1098q0 74 -152 74z" />
<glyph unicode="N" horiz-adv-x="1691" d="M61 1460q246 -6 332 -6t139 6q0 -25 29 -66.5t48.5 -71.5t51 -72t55 -72.5t60.5 -75.5q135 -170 165 -207t166 -214t167 -214l-2 809q0 37 -27.5 55.5t-109.5 18.5l-27 110q246 -6 304 -6t214 6l25 -110q-176 -4 -176 -74l2 -1284q-41 8 -89.5 8t-78.5 -6l-867 1100v-916 q0 -37 28 -55.5t110 -18.5l26 -110q-246 6 -303 6t-215 -6l-25 110q176 4 177 74v1098q0 74 -152 74z" />
<glyph unicode="O" horiz-adv-x="1726" d="M82 701.5q0 322.5 231.5 550t568.5 227.5t550 -204t213 -529.5t-226.5 -548t-564.5 -222.5t-555 202t-217 524.5zM399 784q1 -383 222 -563q119 -98 301 -98t293.5 155.5t111.5 389.5q0 289 -129 479t-373 190q-193 0 -309.5 -159.5t-116.5 -393.5z" />
<glyph unicode="P" horiz-adv-x="1226" d="M61 1460q270 -6 287 -6q260 8 301 8q242 0 394.5 -100t152.5 -301q0 -109 -45 -192t-123 -130q-152 -94 -356 -94q-57 0 -105 10q-23 18 -23 56q0 41 17 59q33 -6 86 -6q123 0 199 81t76 226q0 258 -301 258q-113 0 -113 -14v-1137q0 -39 38 -56.5t161 -17.5l26 -110 q-246 6 -366.5 6t-278.5 -6l-25 110q98 2 130 20.5t32 53.5v1098q0 37 -27.5 55.5t-109.5 18.5z" />
<glyph unicode="Q" horiz-adv-x="1738" d="M82 707q0 317 231.5 544.5t568.5 227.5t550 -204t213 -536q0 -252 -147.5 -453.5t-407.5 -281.5q176 -18 331 -94q309 -145 500 -146q45 0 125 10.5t116 24t48 7t22 -20.5l39 -51q-94 -61 -231 -102.5t-265 -41.5t-267.5 38t-220.5 76t-187 97l2 -2q-94 53 -181 94 t-303 115l-22 6l2 -2q-240 68 -378 252.5t-138 442.5zM399 784q1 -383 222 -563q119 -98 300 -98t292.5 154.5t111.5 390.5q0 289 -128 479t-372 190q-193 0 -309.5 -159.5t-116.5 -393.5z" />
<glyph unicode="R" horiz-adv-x="1464" d="M61 1460q246 -6 287 -6l305 8q242 0 394.5 -99t152.5 -302q0 -272 -287 -387q86 -113 125 -170h-2q225 -309 246 -328q74 -70 174 -76l39 -106l-203 6q-66 0 -233 -4q-18 25 -46 66.5t-68 102t-145.5 220.5t-160.5 233q0 2 2 3h-133v-443q0 -37 27.5 -55.5t109.5 -18.5 l27 -110q-246 6 -336 6t-248 -6l-25 110q98 2 130 20.5t32 53.5v1098q0 37 -27.5 55.5t-109.5 18.5zM508 733q35 -2 86 -2q162 0 245 88t83 230.5t-84 212t-207 69.5t-123 -14v-584z" />
<glyph unicode="S" horiz-adv-x="1198" d="M82 444l154 29q45 -190 126.5 -270t213 -80t190.5 62.5t59 154.5t-72.5 161.5t-176 121t-207 108.5t-176 150.5t-72.5 216.5q0 188 143.5 284.5t363.5 96.5t410 -90q20 -41 20 -173q0 -6 1 -13q0 -123 -10 -193l-129 4q-14 323 -320 323h-2q-82 0 -135 -48t-53 -123.5 t52 -133t131 -97.5t170 -92t170 -104.5t131 -138.5t52 -190q0 -184 -138 -309.5t-355 -125.5t-484 97q-10 33 -29.5 159.5t-27.5 212.5z" />
<glyph unicode="T" horiz-adv-x="1398" d="M45 1274q0 106 25 196q80 -16 180 -16h889q137 0 207 16q12 -141 12 -224t-23 -191l-96 14q-23 164 -74 201q-65 47 -233 47h-113v-1139q0 -39 31 -56.5t127 -17.5l27 -110q-246 6 -356.5 6t-268.5 -6l-25 110q113 2 148 20.5t35 53.5v1139h-68q-186 0 -236 -47 q-43 -35 -73 -207l-94 -2q-21 103 -21 213z" />
<glyph unicode="U" horiz-adv-x="1613" d="M61 1460q246 -6 337 -6t247 6l25 -110q-98 -2 -130 -20.5t-32 -53.5v-733q0 -420 391 -420q147 0 220 102.5t73 288.5v762q0 37 -27.5 55.5t-109.5 18.5l-27 110q246 -6 305.5 -6t214.5 6l25 -110q-98 -2 -130 -20.5t-32 -53.5v-744q0 -557 -528 -557q-330 0 -494 129 t-164 414v758q0 37 -27.5 55.5t-109.5 18.5z" />
<glyph unicode="V" horiz-adv-x="1478" d="M0 1460q94 -6 325.5 -6t295.5 6l18 -108q-109 0 -134.5 -15.5t-25.5 -38t10 -47.5l334 -868l283 809q8 23 8 43q0 43 -51 79t-158 38l-20 108l329 -6l250 6l15 -108q-109 -12 -156 -66q-39 -47 -72 -135l-428 -1151h-174l-436 1182q-35 92 -76 131t-114 39z" />
<glyph unicode="W" horiz-adv-x="2207" d="M0 1460q94 -6 336 -6l285 6l18 -110q-109 0 -134.5 -14.5t-25.5 -37t10 -47.5l334 -868l201 575l-82 224q-35 92 -76 130t-114 38l-23 108q205 -4 317.5 -4t303.5 6l18 -110q-109 0 -134.5 -14.5t-25.5 -37t11 -47.5l333 -868l283 809q8 23 8 43q0 43 -51 78t-158 37 l-20 110l330 -6l249 6l15 -110q-72 -6 -117 -35t-65.5 -62.5t-45.5 -101.5l-428 -1151h-174l-276 748l-279 -748h-174l-436 1182q-35 92 -76 130t-114 38z" />
<glyph unicode="X" horiz-adv-x="1546" d="M0 106q10 0 30.5 4.5t38 7.5t25.5 6t23.5 8t26 11.5t22.5 14.5q20 14 45 43l412 501l-371 482q-59 88 -107.5 126t-115.5 38l-23 112q94 -6 345 -6t317 6l24 -112q-88 0 -121.5 -19.5t-33.5 -37t12 -36.5l239 -331l252 303q23 33 23 52t-10 32q-27 27 -117 37l-23 112 l314 -6l266 8l25 -114q-160 0 -238 -99l-387 -463l407 -536q61 -82 103.5 -113t112.5 -31l30 -112q-125 8 -338 8t-321 -10l-29 114q96 0 126 10.5t30 30.5q0 14 -10 33l-254 387l-293 -360q-15 -19 -15 -36q0 -24 31 -44q27 -14 102 -23l33 -110l-315 6l-264 -6z" />
<glyph unicode="Y" horiz-adv-x="1562" d="M0 1460q94 -6 336 -6t305 6l18 -108q-135 0 -135 -41q0 -23 27 -58l278 -460l285 399q41 51 41 84t-32.5 54.5t-112.5 21.5l-21 108l309 -6l250 6l15 -108q-55 0 -110.5 -33t-87.5 -66.5t-87 -101.5l-342 -467l2 -506q0 -37 27.5 -55.5t109.5 -18.5l27 -110 q-246 6 -336 6t-248 -6l-24 110q98 2 129.5 20.5t31.5 53.5v457l-381 549q-125 168 -251 168z" />
<glyph unicode="Z" horiz-adv-x="1402" d="M31 37l911 1288h-405q-168 0 -222 -51q-43 -37 -73 -205l-109 -4q-18 94 -18 214t24 200q84 -25 176 -25h824q94 0 180 25q27 -51 27 -62q-463 -639 -805 -1143q-70 -106 -82 -133h602q78 0 115.5 62.5t56.5 214.5l117 14q12 -121 12 -233.5t-21 -206.5q-204 8 -456 8 h-615q-129 0 -207 -23q-33 55 -32 60z" />
<glyph unicode="[" horiz-adv-x="688" d="M197 -635v2261q0 53 51 53q178 0 514 13l16 -127h-117.5t-128 -3t-81 -10.5t-17.5 -25.5v-2058q0 -25 72 -32t272 -7l-14 -127l-68 2q-168 10 -446 10q-53 0 -53 51z" />
<glyph unicode="\" horiz-adv-x="763" d="M-104 1522q35 12 65 12q90 0 145 -18l621 -1641q-23 -8 -53.5 -8t-87 8t-70.5 31z" />
<glyph unicode="]" horiz-adv-x="688" d="M-53 -571q201 0 272.5 7t71.5 32v2058q0 18 -17 26q-35 12 -154.5 12.5t-172.5 0.5l16 127q334 -12 514 -13q51 0 51 -53v-2261q0 -51 -53 -51q-278 0 -446 -10l-68 -2z" />
<glyph unicode="^" horiz-adv-x="1705" d="M84 633l385 782l125 4q25 0 43 -35l383 -725q0 -20 -23.5 -37.5t-97.5 -43.5l-356 618l-336 -641q-90 31 -106.5 48.5t-16.5 29.5z" />
<glyph unicode="_" horiz-adv-x="1228" d="M2 -47q0 23 6 43l621 -4l553 4q20 -20 33.5 -69.5t13.5 -84.5l-602 6l-592 -6q-16 16 -24.5 52t-8.5 59z" />
<glyph unicode="`" horiz-adv-x="544" d="M49 1349.5q0 4.5 8 10.5q125 80 224 80l178 -371q-12 -45 -74 -59l-334 333q-2 2 -2 6.5z" />
<glyph unicode="a" horiz-adv-x="935" d="M66 178q0 117 93 173.5t351 111.5v74q0 119 -26.5 177t-93 58t-103.5 -20v-131q0 -12 -65.5 -24.5t-96.5 -12.5t-31 73q0 35 12.5 74t26.5 55q37 41 159 86.5t185 45.5q133 0 208 -82t75 -242v-416q0 -39 33 -39l55 2h51l16 -84q-35 -14 -144 -48t-136 -34t-39 6.5 t-22.5 22.5t-14.5 25.5t-12 35t-10 31.5q-111 -121 -252 -121q-92 0 -155.5 58.5t-63.5 144.5zM293 228q0 -48 33.5 -76.5t89 -28.5t104.5 45l-4 207q-129 -27 -176 -63t-47 -84z" />
<glyph unicode="b" horiz-adv-x="1138" d="M0 1460q186 47 342 109q39 0 50 -15.5t11 -44.5l3 -708q123 117 282.5 117t272 -128t112.5 -313q0 -225 -132 -363.5t-347 -138.5q-121 0 -268 72l-62 -57q-18 -16 -45 -10l-24 6q-34 9 -34 45v6q3 41 3 227l-4 1004q0 76 -24.5 96t-56.5 20t-52 -2zM406 219 q0 -49 62 -83t138 -34q100 0 149.5 91.5t49.5 218.5q0 356 -211 356q-45 0 -102.5 -16.5t-85.5 -38.5v-494z" />
<glyph unicode="c" horiz-adv-x="940" d="M72 424q0 236 135 365t328 129q96 0 207.5 -37t150.5 -76q2 -4 2 -10q0 -33 -74 -138q-8 -8 -22.5 -8t-53.5 35q-113 109 -209 109t-147 -82t-51 -224.5t68.5 -254t203.5 -111.5t242 96q14 14 25 2l32 -45q-70 -88 -172 -143.5t-211 -55.5q-209 0 -331.5 128t-122.5 321z " />
<glyph unicode="d" horiz-adv-x="1163" d="M72 406q0 238 136 375t302 137q102 0 207 -39v389q0 76 -26.5 96t-64.5 20t-63 -2l-26 78q221 49 372 109q39 0 50.5 -15.5t11.5 -44.5v-1278q0 -47 8 -63q12 -29 82 -29h31l43 2l18 -106q-219 -12 -383 -60q-39 0 -39 23v92q-106 -115 -266 -115t-276.5 118t-116.5 313z M340 469q0 -156 64.5 -245t146.5 -89t166 60v419q0 74 -48 116t-128 42q-201 0 -201 -303z" />
<glyph unicode="e" horiz-adv-x="974" d="M72 441q0 214 135 345.5t309 131.5t285.5 -100.5t111.5 -303.5q0 -31 -18 -31h-557q0 -119 45 -223q27 -61 87 -100t138 -39t144.5 31.5t90 55t34.5 11.5l32 -45q-70 -86 -173 -142.5t-201 -56.5q-221 0 -342 126t-121 340zM346 606h332q0 186 -154 187q-76 0 -123 -57.5 t-55 -129.5z" />
<glyph unicode="f" horiz-adv-x="765" d="M51 92q84 2 114 17.5t30 46.5v583h-103q-27 57 -26 84q39 4 129 29v37q0 166 62 320.5t183 257t269 102.5q78 0 152.5 -29t107.5 -72q2 -4 2 -15t-23.5 -57t-58.5 -75q-8 -8 -23 -8q-12 6 -55 37q-109 80 -190 80q-170 0 -170 -295v-267h237q4 -18 4 -51t-26 -78h-215 l-2 -583q0 -33 23.5 -48.5t96.5 -15.5l23 -98q-215 6 -299 6t-221 -6z" />
<glyph unicode="g" horiz-adv-x="1075" d="M41 -250q0 63 43 107q16 16 176 123q-45 20 -83 68t-38 81t16.5 49.5t93.5 62.5t79 48q-82 29 -142.5 107.5t-60.5 174.5q0 143 103.5 245t271.5 102q49 0 170 -17.5t222 -17.5t140 6v-23q0 -90 -28 -141l-177 33q29 -16 48.5 -66.5t19.5 -89.5q0 -158 -111.5 -256 t-275.5 -98h-92q-64 -16 -64 -49t72 -45q61 -18 211 -29q182 -18 229 -37q152 -57 152 -224t-164 -289t-365.5 -122t-323.5 70.5t-122 226.5zM285 -242q0 -80 64.5 -127t176 -47t174 55.5t62.5 139.5q0 162 -318 162q-37 0 -61 -15q-98 -63 -98 -168zM348 602 q0 -88 50.5 -152.5t126 -64.5t115.5 61.5t40 146.5t-48 146.5t-128 61.5t-118 -55.5t-38 -143.5z" />
<glyph unicode="h" horiz-adv-x="1245" d="M47 1460q186 47 342 109q39 0 50.5 -15.5t11.5 -44.5v-714q156 82 227.5 102.5t122.5 20.5q119 0 192.5 -86.5t73.5 -249.5v-426q0 -33 23.5 -48.5t97.5 -15.5l22 -98q-215 6 -299 6t-221 -6l-20 98q84 2 113.5 17.5t29.5 46.5v364q0 109 -36 161t-126 52t-200 -47v-530 q0 -63 131 -64l22 -98q-215 6 -299 6t-221 -6l-21 98q84 2 114 17.5t30 46.5v1112q0 76 -24.5 96t-56.5 20t-52 -2z" />
<glyph unicode="i" horiz-adv-x="653" d="M47 829q184 43 365 105q43 0 55 -9t12 -38v-731q0 -33 23.5 -48.5t97.5 -15.5l23 -98q-215 6 -298 6t-221 -6l-20 98q84 2 112.5 17.5t28.5 46.5v491q0 47 -24.5 72.5t-98.5 25.5h-26zM211 1259.5q0 57.5 44 100.5t99.5 43t96.5 -37t41 -94.5t-44.5 -100.5t-99.5 -43 t-96 37t-41 94.5z" />
<glyph unicode="j" horiz-adv-x="557" d="M0 -486.5q0 7.5 10 15.5q113 102 146.5 245.5t36.5 354.5l4 520q0 53 -23.5 76t-99.5 23h-27l-29 83q184 43 365 105q43 0 55.5 -9t12.5 -38l-2 -762q0 -219 -114 -417t-272 -257q-23 0 -43 26.5t-20 34zM174 1259.5q0 57.5 44 100.5t99.5 43t96.5 -37t41 -94.5 t-44 -100.5t-99.5 -43t-96.5 37t-41 94.5z" />
<glyph unicode="k" horiz-adv-x="1130" d="M47 1460q217 55 352 109q39 0 50.5 -15.5t11.5 -44.5v-983q145 129 221 224q16 23 -1 30.5t-52 7.5l-23 99q215 -6 257 -6t181 6l21 -99q-20 2 -41 3q-84 0 -131 -43l-227 -234q47 -68 138 -170t154 -162q104 -90 185 -90h16l23 -98q-61 6 -162.5 6t-224.5 -6 q-47 72 -168 231.5t-166 175.5v-245q0 -33 23.5 -48.5t97.5 -15.5l22 -98q-215 6 -299 6t-221 -6l-21 98q84 2 114 17.5t30 46.5v1112q0 76 -24.5 96t-56.5 20t-52 -2z" />
<glyph unicode="l" horiz-adv-x="665" d="M47 1460q217 55 352 109q39 0 50.5 -15.5t11.5 -44.5v-1353q0 -33 23.5 -48.5t97.5 -15.5l22 -98q-215 6 -299 6t-221 -6l-21 98q84 2 114 17.5t30 46.5v1112q0 76 -24.5 96t-56.5 20t-52 -2z" />
<glyph unicode="m" horiz-adv-x="1740" d="M31 817q127 31 344 117q27 0 34 -11.5t11 -19.5t6 -22.5t2 -24.5t2 -30.5t2 -30.5l34 17t51.5 25.5t58 27t65.5 26.5q74 27 141.5 27t132 -39t78.5 -78q18 8 60.5 29.5t67 32.5t61.5 26q66 29 137 29q129 0 203.5 -83t74.5 -243v-436q0 -18 3.5 -29.5t24 -23t58.5 -11.5 l23 -98q-215 6 -270.5 6t-192.5 -6l-20 98q70 2 94 17.5t26 46.5v368q0 113 -38.5 161t-120.5 48t-164 -37q6 -37 6 -104l-4 -436q0 -18 3 -29.5t23.5 -23t59.5 -11.5l22 -98q-215 6 -270 6t-192 -6l-21 98q70 2 94.5 17.5t26.5 46.5v368q0 150 -63 189q-33 20 -92.5 20 t-170.5 -47v-530q0 -18 3.5 -29.5t23.5 -23t59 -11.5l23 -98q-215 6 -270.5 6t-192.5 -6l-20 98q70 2 94 17.5t26 46.5v491q0 49 -22.5 68.5t-56 19.5t-50.5 -2z" />
<glyph unicode="n" horiz-adv-x="1191" d="M31 817q127 31 344 117q27 0 34 -11.5t11 -19.5t6 -22.5t2 -24.5t2 -30.5t2 -30.5q156 82 227.5 102.5t122.5 20.5q119 0 193 -86.5t74 -249.5v-426q0 -18 3 -29.5t23.5 -23t59.5 -11.5l22 -98q-215 6 -270.5 6t-192.5 -6l-20 98q70 2 94.5 17.5t26.5 46.5v364 q0 109 -36 161t-121 52t-196 -47v-530q0 -18 3.5 -29.5t23.5 -23t59 -11.5l23 -98q-215 6 -270.5 6t-192.5 -6l-20 98q70 2 94 17.5t26 46.5v491q0 49 -22.5 68.5t-56 19.5t-50.5 -2z" />
<glyph unicode="o" horiz-adv-x="1146" d="M72 426q0 211 143 351.5t361.5 140.5t358.5 -126t140 -339t-143.5 -345.5t-362.5 -132.5t-358 120t-139 331zM338 465q0 -139 64.5 -251t183.5 -112t171 93.5t52 234.5t-62.5 253t-184.5 112t-173 -95.5t-51 -234.5z" />
<glyph unicode="p" horiz-adv-x="1138" d="M0 817q127 31 344 117q27 0 34 -11.5t11 -17.5q8 -16 8 -45l4 -57v-8q113 123 277 123t276.5 -128t112.5 -331t-126 -343.5t-314 -140.5q-125 0 -215 60v-402q0 -33 30.5 -48t130.5 -15l23 -98q-215 6 -318.5 6t-240.5 -6l-21 98q84 2 113 17.5t29 45.5v1014 q0 49 -22.5 68.5t-56.5 19.5t-50 -2zM412 219q0 -49 56 -83t130 -34q100 0 150.5 91.5t50.5 239t-52.5 241.5t-156 94t-178.5 -55v-494z" />
<glyph unicode="q" horiz-adv-x="1110" d="M74 399q0 242 137 380.5t301 138.5q129 0 303 -68l92 80q12 10 27 10q14 0 76 -10q14 -2 8 -25q-31 -133 -31 -250v-1022q0 -33 23.5 -48t97.5 -15l22 -98q-215 6 -318 6t-243 -6l-20 98q184 2 184 63v457q-88 -115 -257 -115t-285.5 117t-116.5 307zM342 469 q0 -156 64.5 -245t158.5 -89q68 0 152 60v419q0 74 -47 116t-127 42q-201 0 -201 -303z" />
<glyph unicode="r" horiz-adv-x="829" d="M31 817q127 31 344 117q33 0 36 -24.5t6 -71.5t5 -64q29 43 98.5 93.5t132.5 50.5q125 0 170 -62q0 -27 -25.5 -74t-52 -81.5t-32.5 -34.5l-172 63h-9q-39 -4 -64.5 -48t-25.5 -112v-413q0 -33 31 -48.5t131 -15.5l23 -98q-215 6 -318.5 6t-240.5 -6l-21 98 q84 2 112.5 17.5t28.5 46.5v491q0 49 -22.5 68.5t-56 19.5t-50.5 -2z" />
<glyph unicode="s" horiz-adv-x="837" d="M72 293v31l118 -7q14 -113 67.5 -164t127.5 -51q164 0 164 107q0 70 -168 133q-70 27 -138.5 61.5t-117.5 98t-49 149.5q0 123 101.5 195t232.5 72t284 -58q27 -25 27 -101.5t-16 -150.5l-91 8q-12 80 -63 129.5t-122 49.5t-106.5 -30t-35.5 -69t49 -69.5t119.5 -57 t141.5 -61.5t120 -98.5t49 -149.5q0 -131 -100.5 -207t-255 -76t-301.5 48q-12 10 -24.5 111.5t-12.5 156.5z" />
<glyph unicode="t" horiz-adv-x="737" d="M35 827q113 37 171 99.5t109 165.5h50q20 0 26 -8.5t6 -28.5l9 -174h260q4 -18 4 -51t-27 -78h-235l-2 -455q0 -82 31.5 -129t82.5 -47t121 53q16 12 25 2l41 -55q-53 -51 -84 -76q-88 -68 -209 -68t-194 81t-73 182v512h-102z" />
<glyph unicode="u" horiz-adv-x="1159" d="M45 887l182 -6q82 0 181 12v-535q0 -198 157 -198h2q98 0 166 57v508q0 18 -3 29.5t-23.5 22.5t-59.5 11l-22 99l182 -6q82 0 180 12v-662q0 -72 13.5 -82t35.5 -10h31l43 2l18 -106q-145 -8 -323 -60q-39 0 -39 23l-12 92q-172 -115 -281 -115q-322 0 -321 318l2 432 q0 18 -3.5 29.5t-24 22.5t-58.5 11z" />
<glyph unicode="v" horiz-adv-x="1046" d="M-20 887q215 -6 287.5 -6t211.5 6l21 -99q-74 -2 -95.5 -17t-9.5 -48l185 -447l200 449q6 13 6 23q0 40 -88 40l-22 99l190 -6q43 0 181 6l20 -99q-90 -2 -119 -63l-332 -725h-151l-322 698q-41 90 -141 90z" />
<glyph unicode="w" horiz-adv-x="1662" d="M0 887q215 -6 287.5 -6t212.5 6l20 -99q-74 -2 -95.5 -17t-8.5 -48l184 -447l184 410l-24 47q-27 55 -127 55l-23 99q215 -6 271.5 -6t193.5 6l21 -99q-74 -2 -95.5 -17t-9.5 -48l185 -447l200 449q6 13 6 23q0 40 -88 40l-22 99l190 -6q41 0 180 6l21 -99 q-90 -2 -119 -63l-332 -725h-151l-213 461l-211 -461h-152l-321 698q-41 90 -141 90z" />
<glyph unicode="x" horiz-adv-x="1146" d="M10 887q215 -6 299 -6t221 6l21 -99q-86 -2 -88 -22q0 -10 18 -33l125 -149l117 147q16 20 16 35q0 23 -47 22l-22 99l211 -6q41 0 180 6l20 -99q-53 -2 -109.5 -20t-80.5 -49l-184 -256l272 -307q51 -63 135 -64l23 -98q-215 6 -300 6t-225 -6l-20 98q119 2 119 41 q0 12 -11 23l-161 178l-156 -199q-23 -31 10 -39l80 -4l23 -98q-215 6 -267.5 6t-189.5 -6l-21 98q57 0 94.5 13.5t43.5 21.5q6 4 270 322l-215 249q-29 33 -79 61.5t-99 28.5z" />
<glyph unicode="y" horiz-adv-x="1024" d="M-20 887q215 -6 287.5 -6t211.5 6l21 -99q-74 -2 -95.5 -17t-9.5 -48l170 -442l172 444q12 31 -5 47t-77 16l-22 99l190 -6q41 0 181 6l20 -99q-49 -2 -75.5 -14t-43.5 -49q-455 -1051 -460 -1062t-36.5 -63.5t-57 -76t-72 -47t-111 -23.5t-117.5 45q0 33 27.5 95.5 t42.5 62.5q41 -10 104 -10q51 0 118 125t112 252l-312 675q-41 90 -141 90z" />
<glyph unicode="z" horiz-adv-x="923" d="M39 41q309 489 485 717h-16h-66.5t-80 -1t-68.5 -10.5t-55 -29.5q-41 -55 -62 -158l-98 27q6 139 10 179t27 140q90 -28 221 -28l110 2h148q104 0 225 10q23 -45 23 -64l-496 -698h207q92 0 128 52t58 198l107 12q12 -115 12 -211t-20 -186q-152 8 -371 8q-276 0 -412 -6 q-16 27 -16 47z" />
<glyph unicode="{" horiz-adv-x="876" d="M92 596q0 6 10 10q168 12 213 82q33 53 33 109.5t-32.5 236.5t-32.5 199q0 164 138 243.5t316 79.5q31 0 36 -9t7 -21q0 -4 8 -31q2 -20 -14 -22q-123 -20 -189.5 -69.5t-66.5 -164.5q0 -47 39 -178t39 -191.5t-23.5 -120t-94 -115.5t-177.5 -67q-2 -2 6 -10 q143 -39 216 -128t73 -180t-37 -210t-39 -145.5t-2 -40.5q0 -199 242 -224q16 -2 14 -22q-10 -55 -14 -63.5t-10 -10.5q-215 25 -340 130.5t-125 238.5q0 57 31.5 182t31.5 167t-5 72.5t-28 69.5q-39 74 -206 115q-10 4 -13.5 11t-3.5 77z" />
<glyph unicode="|" horiz-adv-x="520" d="M172 -547v2060q27 20 81 38t95 18v-2067q-18 -23 -72.5 -36t-103.5 -13z" />
<glyph unicode="}" horiz-adv-x="876" d="M96 1509q2 4 4 17q4 27 17 30h26q178 0 316.5 -79.5t138.5 -243.5q0 -18 -33 -198.5t-33 -221.5t6.5 -65.5t26.5 -59.5q45 -70 213 -82q10 -4 10 -10q0 -70 -3 -77t-13 -11q-168 -41 -207 -115q-33 -57 -33 -120.5t32 -188.5t32 -182q0 -133 -125 -238.5t-340 -130.5 q-12 4 -14 23l-11 51q-2 20 15 22q242 25 241 224q0 14 -2 40.5t-38.5 145.5t-36.5 210t72.5 180t215.5 128q8 8 7 10q-106 10 -179 68q-117 92 -116 229q0 66 38.5 197t38.5 178q0 115 -66.5 164t-189.5 70q-20 2 -10 36z" />
<glyph unicode="~" horiz-adv-x="1267" d="M143 360q0 143 95 240q63 66 147 66t156.5 -36t124 -78t111 -78t104.5 -36t69.5 66.5t24.5 104.5t-2 53q76 0 137 -37q14 -20 14 -76q0 -106 -64.5 -200.5t-180.5 -94.5q-80 0 -173.5 56.5t-175 112.5t-135.5 56q-94 0 -94 -168v-28q-29 -8 -82 -8.5t-67 4.5q-8 39 -9 81 z" />
<glyph unicode="&#xa1;" horiz-adv-x="653" d="M188 -432l5 74l83 856q0 6 6.5 13t12.5 7l82 4q8 0 8 -20l113 -934q-166 -66 -248 -82q-41 0 -55 31q-7 10 -7 51zM215 822q0 50 30.5 86t85 36t83 -31.5t28.5 -83t-34.5 -84t-80.5 -32.5t-79 29.5t-33 79.5z" />
<glyph unicode="&#xa2;" horiz-adv-x="905" d="M78 551q0 236 135 364.5t328 128.5q14 0 43 -4l22 177q14 8 38 8t65 -19l-23 -182q147 -35 213 -92q2 -4 2 -10q0 -33 -74 -138q-8 -8 -21 -8t-31.5 15.5t-49.5 42t-57 43.5l-76 -629h22q137 0 244 96q14 14 25 2l32 -45q-139 -174 -340 -199l-26 -219q-27 -33 -60.5 -33 t-58.5 7l31 247q-178 23 -280.5 147t-102.5 300zM324 633q0 -270 159 -354l84 639l-30 2q-104 0 -158.5 -81t-54.5 -206z" />
<glyph unicode="&#xa3;" horiz-adv-x="1153" d="M31 770h205q-16 143 -17 180q0 193 125 331t367 138q76 0 150.5 -35.5t74.5 -70.5q-14 -61 -88 -146q-14 -14 -25 -14q-12 0 -73 35q-109 70 -170.5 69.5t-87 -36t-25.5 -98t10 -148.5q9 -66 19 -205l327 2h27q20 -20 20 -60t-4 -69h-358q2 -55 2 -63q0 -92 -50 -203 t-112 -158q47 25 107 25q86 0 183 -58.5t169 -58.5q57 0 110.5 50t75.5 136q4 16 11 19q4 2 81 -21q-49 -371 -366 -370q-98 0 -281 104q-131 72 -154.5 72t-35.5 -8q-8 -14 -4 -43v-35q-18 -37 -39 -39q-33 -14 -111 -21q-25 8 -24.5 80t24.5 101q96 96 130 164.5t34 156.5 t-8 170h-166q-53 6 -53 127z" />
<glyph unicode="&#xa4;" horiz-adv-x="1056" d="M14 240l166 176q-66 102 -65.5 261t106.5 290l-137 163q8 35 47 89.5t72 80.5q39 -72 100.5 -140t73.5 -85q78 29 162 29t172 -37q96 109 119.5 137.5t27.5 32.5q37 0 94.5 -26.5t91.5 -57.5l-186 -201q90 -119 90.5 -268t-71.5 -258q121 -145 124 -150q0 -31 -41.5 -80 t-89.5 -65q-51 66 -82.5 103.5t-44.5 56.5q-94 -57 -213.5 -57.5t-218.5 55.5l-133 -150q-6 -2 -24.5 -2t-69.5 29t-70 74zM324 655.5q0 -114.5 53 -179t142 -64.5t154.5 85t65.5 193.5t-56 174t-141 65.5t-151.5 -80t-66.5 -194.5z" />
<glyph unicode="&#xa5;" horiz-adv-x="1249" d="M-49 1397q94 -6 305 -6t274 6l19 -109q-102 0 -123 -18q-6 -8 -6 -25.5t20 -54.5l217 -397l168 333q39 76 31 107t-41 42t-94 11l-21 109l289 -6l250 6l14 -109q-170 0 -284 -201l-205 -340h278v3q8 -8 16.5 -50.5t8.5 -61t-2 -26.5h-301v-80h291v2q8 -8 16 -50t8 -59 t-2 -28h-313l2 -217q0 -37 27.5 -55.5t109.5 -18.5l27 -110q-246 6 -336 6t-248 -6l-24 110q98 2 129.5 20.5t31.5 53.5v217h-262q-14 2 -26.5 52.5t-12.5 82.5h301v80h-274q-14 2 -26.5 52.5t-12.5 82.5h281l-246 375q-57 88 -108.5 128t-123.5 40z" />
<glyph unicode="&#xa6;" horiz-adv-x="520" d="M168 340q25 20 85 37.5t101 17.5v-846q-18 -20 -76.5 -34.5t-109.5 -14.5v840zM168 623v839q25 20 85 38t101 18v-846q-18 -20 -76.5 -34.5t-109.5 -14.5z" />
<glyph unicode="&#xa7;" horiz-adv-x="1024" d="M43 703.5q0 136.5 53.5 217t147.5 142.5v24q0 160 125 293t293 133q96 0 174.5 -38.5t78.5 -118.5q0 -33 -27.5 -101.5t-68.5 -68.5q-20 0 -78 67q-20 25 -61 45.5t-94.5 20.5t-93 -34t-39.5 -99q0 -100 264 -318q106 -86 173.5 -151.5t130 -164.5t62.5 -190 q0 -246 -202 -376v-2q0 -172 -123 -300t-332 -128q-102 0 -211 60t-109 116.5t27 124t72 67.5q18 0 53 -43q102 -131 215 -131q84 0 132 38t48 108q0 35 -41 88t-84 94t-124.5 112.5t-131 118.5t-108.5 117q-121 141 -121 277.5zM238 825q0 -141 294 -397q238 -207 302 -311 q51 43 51 131q0 141 -299 389q-223 190 -291 293q-23 -6 -40 -40t-17 -65z" />
<glyph unicode="&#xa8;" horiz-adv-x="1003" d="M170 1238q0 60 41 103t102.5 43t101.5 -36.5t40 -98t-41 -104.5t-103.5 -43t-101.5 38t-39 98zM543 1238q0 60 41 103t102.5 43t100 -36.5t38.5 -98t-41 -104.5t-102 -43t-100 38t-39 98z" />
<glyph unicode="&#xa9;" horiz-adv-x="1517" d="M92 817.5q0 280.5 196.5 477t475 196.5t471 -195.5t192.5 -473t-197.5 -474t-474 -196.5t-470 192.5t-193.5 473zM225 823.5q0 -243.5 147.5 -393t394.5 -149.5t386 146t139 393t-146.5 393.5t-387 146.5t-387 -146.5t-146.5 -390zM354 816q0 179 121 286.5t309 107.5 q86 0 163 -18t108 -23q12 -23 12 -89t-6 -128l-76 6q-8 63 -31 97q-43 68 -174 67.5t-186 -78t-55 -214t66.5 -222.5t187.5 -86q162 0 227 164l72 -16q0 -12 -27 -95t-35 -81q-111 -61 -277.5 -61.5t-282.5 102t-116 281.5z" />
<glyph unicode="&#xaa;" horiz-adv-x="710" d="M102 1020.5q0 64.5 59.5 100.5t221.5 71v47q0 147 -78 147q-41 0 -65 -12v-82q0 -8 -41 -16t-59.5 -8t-18.5 52t23.5 76.5t100.5 53.5t117 29q82 0 130.5 -52.5t48.5 -152.5v-262q-1 -27 22 -27l33 2h33q4 -31 10 -53q-170 -51 -183.5 -51t-23.5 9t-14 16t-10.5 26.5 t-8.5 23.5q-76 -76 -146.5 -75.5t-110.5 37t-40 101zM246 1044q0 -33 21.5 -51t54 -18t65.5 29v131q-141 -30 -141 -91z" />
<glyph unicode="&#xab;" horiz-adv-x="1042" d="M27 494.5q0 15.5 2 23.5q193 96 454 322q23 20 56 47q23 -47 22.5 -91t-2.5 -55l-326 -270q43 -41 163 -133t161 -131q2 -6 2 -23q0 -86 -18 -137q-37 37 -231.5 185.5t-254.5 162.5q-12 10 -20 47t-8 52.5zM438 498.5q0 15.5 2 21.5q156 90 249.5 161t238.5 204 q23 -49 22.5 -92t-2.5 -52l-325 -270q47 -43 167.5 -133t165.5 -131q2 -4 2 -17.5t-10 -64.5t-18 -78q-47 47 -228.5 190.5t-238.5 157.5q-12 10 -18.5 49t-6.5 54.5z" />
<glyph unicode="&#xac;" horiz-adv-x="1343" d="M143 703.5q0 21.5 7 37.5l602 -4l391 4q20 0 20 -30l-4 -412l4 -258q-12 -12 -52 -19.5t-61.5 -7.5t-37.5 6l4 281l-4 274q0 14 -15 15l-247 4l-580 -4q-12 12 -19.5 52t-7.5 61.5z" />
<glyph unicode="&#xad;" horiz-adv-x="571" d="M20.5 445.5q0.5 21.5 6.5 37.5l235 -4l236 4q14 -14 25.5 -67.5t11.5 -83.5l-275 4l-213 -4q-12 12 -19.5 52t-7 61.5z" />
<glyph unicode="&#xae;" horiz-adv-x="620" d="M-4 1174.5q0 132.5 94 226.5t225 94t223.5 -93t92.5 -224t-94.5 -225.5t-225.5 -94.5t-223 92t-92 224.5zM82 1178.5q0 -107.5 67.5 -173t168 -65.5t163 62.5t62.5 173t-65.5 173t-164 62.5t-165 -62.5t-66.5 -170zM154 1065q37 0 36 14v205q0 25 -32 25l-4 24h151 q137 0 137 -82q0 -53 -61 -75l74 -97q8 -14 32 -16l9 -21h-111l-82 121h-18v-84q0 -14 32 -14l5 -23h-164zM285 1186h16q57 0 57 59.5t-57 59.5l-16 -5v-114z" />
<glyph unicode="&#xaf;" horiz-adv-x="851" d="M164 1200q0 28 8 55l340 -6q84 0 141 6q23 -25 40.5 -81t17.5 -93q-68 4 -156 4l-350 -4q-41 41 -41 119z" />
<glyph unicode="&#xb0;" horiz-adv-x="602" d="M43 1164.5q0 111.5 69.5 183t185.5 71.5t187.5 -66.5t71.5 -178t-70.5 -183t-182 -71.5t-186.5 66.5t-75 178zM176 1168.5q0 -62.5 41 -96.5t92 -34t83 35t32 88q0 137 -131 137q-51 0 -84 -33.5t-33 -96z" />
<glyph unicode="&#xb1;" horiz-adv-x="1179" d="M72 88q0 27 8 53l495 -6l445 6q25 -25 39 -66.5t14 -60v-26.5q-442 8 -491 8l-471 -8q-39 31 -39 100zM72 775.5q0 25.5 8 51.5q184 -4 409 -4q0 250 -4 346q20 20 79 37t95 17q-4 -113 -4 -400q152 0 365 4q23 -23 38 -77t15 -95q-242 4 -418 4q0 -174 4 -383 q-18 -20 -64 -32.5t-69.5 -12.5t-40.5 2q4 209 4 426q-182 0 -378 -4q-20 18 -29.5 56.5t-9.5 64z" />
<glyph unicode="&#xb2;" horiz-adv-x="593" d="M35 924l49 41q96 68 187 180t91 207q1 106 -108 106q-68 0 -125 -84q-12 0 -28.5 9.5t-18.5 23.5q27 63 83 107.5t143 44.5t147.5 -43t60.5 -123q0 -88 -41 -146.5t-59.5 -81t-71.5 -80t-72 -77.5h123q35 0 47 4q31 6 50 75l59 -26q0 -55 -6 -88t-31 -109q-72 14 -182 15 h-78q-119 0 -209 -9q-10 31 -10 54z" />
<glyph unicode="&#xb3;" horiz-adv-x="573" d="M78 1434q29 49 87 87t140 38t138.5 -38t56.5 -104q0 -111 -174 -186q80 0 138 -40t58 -135t-92 -150.5t-202.5 -55.5t-139.5 16q-8 6 -4 34t12 28q31 -2 64 -2q207 0 207 135q0 49 -41 71.5t-87 22.5t-79 -6q-16 33 -17 47q209 104 209 188q0 72 -92 72t-145 -72 q-14 0 -37 50z" />
<glyph unicode="&#xb4;" horiz-adv-x="520" d="M68 1108l178 371q98 0 223 -80q8 -6 8 -10.5t-2 -6.5l-334 -333q-61 14 -73 59z" />
<glyph unicode="&#xb6;" horiz-adv-x="1118" d="M16 522q0 414 527 414l391 2h35q31 2 131 2l24 -147q-129 -14 -163.5 -21.5t-34.5 -23.5v-957h-181l3 967q-109 0 -109 -56l-10 -913h-180v332h-5q-182 0 -305 101.5t-123 299.5z" />
<glyph unicode="&#xb7;" horiz-adv-x="471" d="M100 445.5q0 58.5 41 97.5t95.5 39t93.5 -35t39 -94.5t-37 -101.5t-99.5 -42t-97.5 39t-35 97.5z" />
<glyph unicode="&#xb8;" horiz-adv-x="1705" d="M600 -100q0 20 50 77.5t61 69.5h-2l43 64l79 -115l-77 -68q88 -4 145 -51t57 -100q0 -102 -88 -146.5t-225 -44.5h-22.5t-10.5 28t6 28q150 18 150 116q0 47 -29.5 68.5t-69.5 26t-44 8.5q-10 12 -23 39z" />
<glyph unicode="&#xb9;" horiz-adv-x="477" d="M41 958q123 4 123 35v404q0 47 -33 47t-55 -4l-23 73q59 6 101 19q123 37 134 37t15 -5t4 -32v-539q0 -18 32 -26.5t62 -8.5l13 -79l-168 4h-193z" />
<glyph unicode="&#xba;" horiz-adv-x="724" d="M10 1164q0 134 92.5 224.5t231.5 90.5t228 -81t89 -217.5t-91 -220t-231.5 -83.5t-229.5 76.5t-89 210.5zM180 1190q0 -90 41 -161t117 -71t109.5 59.5t33.5 149.5t-40 162t-118.5 72t-110.5 -60.5t-32 -150.5z" />
<glyph unicode="&#xbb;" horiz-adv-x="1042" d="M69.5 170q0.5 33 2.5 37q45 41 165.5 131t168.5 133l-326 270q-2 8 -2 23q0 72 22 121q145 -133 238.5 -204t249.5 -161q2 -6 2 -21.5t-6 -54t-19 -49.5q-57 -14 -238.5 -157.5t-228.5 -190.5q-29 90 -28.5 123zM467 768q0 72 22 119q33 -27 55.5 -46.5t56.5 -47t70 -55 t80 -59.5t85 -61q92 -63 163 -100q2 -8 2 -23.5t-8 -52t-20 -47.5q-59 -14 -254 -162.5t-232 -185.5q-18 51 -18 102.5t2 57.5q41 39 161 131t163 133l-326 270q-2 10 -2 27z" />
<glyph unicode="&#xbc;" horiz-adv-x="1634" d="M205 1309q92 10 127 20q119 35 129 35t14 -5t4 -32v-598q0 -18 32 -26.5t62 -8.5l13 -80l-168 4h-193l-12 76q74 0 98.5 13.5t24.5 21.5v463q0 47 -53 47q-33 0 -56 -4zM221 -90l946 1509q8 8 36 8t62.5 -1t63.5 -21l-936 -1487q-14 -23 -72.5 -22.5t-99.5 14.5zM815 262 l387 451q16 14 84 14q16 -25 17 -43q-14 -25 -15 -86v-270h25q72 0 100 16q16 -20 17 -35q0 -57 -33 -106q-48 16 -109 16v-244q-111 6 -151 25v219h-281q-18 0 -35.5 12.5t-5.5 30.5zM981 328h162v190z" />
<glyph unicode="&#xbd;" horiz-adv-x="1630" d="M205 1309q92 10 127 20q119 35 129 35t14 -5t4 -32v-598q0 -18 32 -26.5t62 -8.5l13 -80l-168 4h-193l-12 76q74 0 98.5 13.5t24.5 21.5v463q0 47 -53 47q-33 0 -56 -4zM221 -90l946 1509q8 8 36 8t62.5 -1t63.5 -21l-936 -1487q-14 -23 -72.5 -22.5t-99.5 14.5zM897 66 l49 40q98 70 195.5 194t97.5 228q0 101 -111 101q-90 0 -153 -92q-10 0 -23.5 12t-15.5 26q88 160 235 160q98 0 164 -49t66 -137q0 -76 -31 -127t-48 -77t-54 -61.5t-56 -52.5q-92 -82 -116 -102h174q47 0 63.5 14.5t32.5 73.5l59 -27q0 -86 -36 -200q-49 18 -183 18h-78 q-131 0 -221 -8q-10 31 -10 66z" />
<glyph unicode="&#xbe;" horiz-adv-x="1708" d="M205 1223q29 49 87 87t140 38t138.5 -38t56.5 -104q0 -119 -158 -188q82 -12 137.5 -59.5t55.5 -141.5t-100.5 -153.5t-209 -59.5t-137.5 17q-8 6 -4 30.5t12 24.5q31 -2 64 -2q94 0 150.5 42t56.5 101.5t-41 86t-87.5 26.5t-78.5 -6q-16 33 -17 61q209 105 209 189 q0 63 -92 63t-145 -72q-12 0 -37 58zM258 -137l946 1509q8 8 36 8t62.5 -1t63.5 -21l-936 -1487q-14 -23 -72.5 -23t-99.5 15zM885 247q0 7 4 15l387 451q16 14 84 14q16 -25 16 -43q-14 -25 -14 -86v-270h24q72 0 101 16q16 -20 16 -35q0 -57 -33 -106q-47 16 -108 16v-244 q-111 6 -152 25v219h-280q-18 0 -31.5 10.5t-13.5 17.5zM1055 328h162v190z" />
<glyph unicode="&#xbf;" horiz-adv-x="724" d="M-12 -118.5q0 108.5 41 182t143 141.5q119 74 141.5 94t34.5 33q18 25 18.5 61.5t-38.5 81.5q8 39 34 43q14 2 58.5 -22.5t89.5 -79t45 -113.5t-39 -126.5t-117 -117.5l-47 -30v2q-53 -33 -73.5 -44.5t-40 -24.5t-29.5 -20.5t-24.5 -18.5t-20.5 -20t-12 -20 q-15 -18 -15 -43q0 -53 57.5 -93t140.5 -40t126 9.5t45 9.5q16 0 30.5 -64.5t14.5 -119t-115 -54.5q-82 0 -147 29q-147 63 -224 159.5t-77 205zM270 808q0 50 31 86t85 36t83 -32t29 -83t-35 -84t-81 -33t-79 30t-33 80z" />
<glyph unicode="&#xc0;" d="M0 104q72 6 117 35t65.5 63t44.5 101l428 1151h179l483 -1184q37 -92 77 -130t113 -38l23 -108q-94 6 -309 6t-312 -6l-18 108q109 0 135.5 15.5t26.5 36t-13 47.5l-137 307h-444l-86 -246q-8 -23 -8 -43q0 -43 51 -78t157 -37l21 -112l-330 8l-250 -8zM436 1685.5 q0 4.5 4 10.5q59 131 146 186l348 -217q4 -10 4 -32.5t-33 -57.5l-463 104q-6 2 -6 6.5zM504 639h342l-184 444z" />
<glyph unicode="&#xc1;" d="M0 104q72 6 117 35t65.5 63t44.5 101l428 1151h179l483 -1184q37 -92 77 -130t113 -38l23 -108q-94 6 -309 6t-312 -6l-18 108q109 0 135.5 15.5t26.5 36t-13 47.5l-137 307h-444l-86 -246q-8 -23 -8 -43q0 -43 51 -78t157 -37l21 -112l-330 8l-250 -8zM504 639h342 l-184 444zM623 1649q0 8 2 16l338 213q102 -56 155 -158q2 -6 2 -11t-4 -7l-457 -125q-37 35 -36 72z" />
<glyph unicode="&#xc2;" d="M0 104q72 6 117 35t65.5 63t44.5 101l428 1151h179l483 -1184q37 -92 77 -130t113 -38l23 -108q-94 6 -309 6t-312 -6l-18 108q109 0 135.5 15.5t26.5 36t-13 47.5l-137 307h-444l-86 -246q-8 -23 -8 -43q0 -43 51 -78t157 -37l21 -112l-330 8l-250 -8zM422 1634l217 271 q123 4 168 4t55 -25l205 -250q0 -33 -74 -59l-250 170l-247 -170q-57 14 -74 59zM504 639h342l-184 444z" />
<glyph unicode="&#xc3;" d="M0 104q72 6 117 35t65.5 63t44.5 101l428 1151h179l483 -1184q37 -92 77 -130t113 -38l23 -108q-94 6 -309 6t-312 -6l-18 108q109 0 135.5 15.5t26.5 36t-13 47.5l-137 307h-444l-86 -246q-8 -23 -8 -43q0 -43 51 -78t157 -37l21 -112l-330 8l-250 -8zM406 1620 q0 6 4 12q89 178 165 178l338 -8q104 0 160 66q14 0 47 -31q2 -4 2 -10t-4 -15q-111 -184 -200 -184l-328 4q-76 0 -137 -51q-10 -2 -43 27q-4 6 -4 12zM504 639h342l-184 444z" />
<glyph unicode="&#xc4;" d="M0 104q72 6 117 35t65.5 63t44.5 101l428 1151h179l483 -1184q37 -92 77 -130t113 -38l23 -108q-94 6 -309 6t-312 -6l-18 108q109 0 135.5 15.5t26.5 36t-13 47.5l-137 307h-444l-86 -246q-8 -23 -8 -43q0 -43 51 -78t157 -37l21 -112l-330 8l-250 -8zM436 1811 q0 60 41 103t102.5 43t101.5 -36.5t40 -98t-41 -104.5t-103.5 -43t-101.5 38t-39 98zM504 639h342l-184 444zM809 1811q0 60 41 103t102.5 43t100 -36.5t38.5 -98t-41 -104.5t-102 -43t-100 38t-39 98z" />
<glyph unicode="&#xc5;" d="M0 104q72 6 117 35t65.5 63t44.5 101l428 1151h179l483 -1184q37 -92 77 -130t113 -38l23 -108q-94 6 -309 6t-312 -6l-18 108q109 0 135.5 15.5t26.5 36t-13 47.5l-137 307h-444l-86 -246q-8 -23 -8 -43q0 -43 51 -78t157 -37l21 -112l-330 8l-250 -8zM504 639h342 l-184 444zM528 1717.5q0 72.5 53.5 128t135.5 55.5t138 -49.5t56 -124t-59 -132t-135 -57.5t-132.5 53.5t-56.5 126zM649 1722.5q0 -26.5 22.5 -45t51.5 -18.5t49.5 20.5t20.5 46.5q0 61 -68 62q-31 0 -53.5 -19.5t-22.5 -46z" />
<glyph unicode="&#xc6;" horiz-adv-x="2156" d="M-39 -6l10 112h45q74 6 124 53.5t116 145.5l641 1006q31 39 -170 39l-27 110q362 -6 449 -6h530l320 -2q25 -55 24.5 -178t-10.5 -219l-90 14q-23 141 -75 202.5t-150 61.5l-256 -2h-49q-84 -4 -84 -8v-506h340q25 0 24 197l115 18l-6 -282q0 -117 6 -252l-119 -23 q0 117 -4 149.5t-20 32.5h-336v-421q0 -68 36.5 -88.5t124.5 -20.5h193q276 0 377 295l110 -23q0 -35 -59 -217t-88 -182l-473 -2l-375 2q-111 0 -266 -6l-25 110q98 2 130 20.5t32 53.5v295h-465l-164 -262l-14 -35q0 -29 49 -48t100 -24l-2 -110l-315 8zM676 653h350v561z " />
<glyph unicode="&#xc7;" horiz-adv-x="1572" d="M82 698q0 369 234.5 575t601.5 206q162 0 350 -45q96 -18 174 -31q23 -47 22.5 -162t-12.5 -233l-147 16q-14 121 -58 184q-88 127 -358 127q-236 0 -362 -164.5t-126 -426t147.5 -441.5t383.5 -180q313 0 440 313l139 -30q0 -25 -57 -170.5t-86 -145.5l25 2 q-195 -109 -465 -117l-54 -47q88 -4 145.5 -51t57.5 -100q0 -102 -88 -146.5t-225 -44.5h-22.5t-10.5 28t6 28q150 18 150 116q0 47 -30 68.5t-69.5 26t-44.5 8.5q-10 12 -22 39q0 18 55 82q-311 33 -502.5 226t-191.5 490z" />
<glyph unicode="&#xc8;" horiz-adv-x="1370" d="M61 1460q246 -6 287 -6h531l319 -2q25 -55 25 -178t-11 -219l-90 14q-23 141 -75 202.5t-150 61.5l-256 -2h-49q-84 -4 -84 -8v-506h340q25 0 24 197l115 18l-6 -282q0 -117 6 -252l-119 -23q0 117 -4 149.5t-20 32.5h-336v-421q0 -68 37 -88.5t125 -20.5h192 q276 0 377 295l111 -23q0 -35 -59.5 -217t-88.5 -182l-473 -2l-375 2q-109 0 -266 -6l-25 110q98 2 130 20.5t32 53.5v1098q0 37 -27.5 55.5t-109.5 18.5zM334 1685.5q0 4.5 4 10.5q59 131 145 186l348 -217q4 -10 4.5 -32.5t-32.5 -57.5l-463 104q-6 2 -6 6.5z" />
<glyph unicode="&#xc9;" horiz-adv-x="1370" d="M61 1460q246 -6 287 -6h531l319 -2q25 -55 25 -178t-11 -219l-90 14q-23 141 -75 202.5t-150 61.5l-256 -2h-49q-84 -4 -84 -8v-506h340q25 0 24 197l115 18l-6 -282q0 -117 6 -252l-119 -23q0 117 -4 149.5t-20 32.5h-336v-421q0 -68 37 -88.5t125 -20.5h192 q276 0 377 295l111 -23q0 -35 -59.5 -217t-88.5 -182l-473 -2l-375 2q-109 0 -266 -6l-25 110q98 2 130 20.5t32 53.5v1098q0 37 -27.5 55.5t-109.5 18.5zM543 1649q0 8 2 16l338 213q102 -56 155 -158q2 -6 2 -11t-4 -7l-456 -125q-37 35 -37 72z" />
<glyph unicode="&#xca;" horiz-adv-x="1370" d="M61 1460q246 -6 287 -6h531l319 -2q25 -55 25 -178t-11 -219l-90 14q-23 141 -75 202.5t-150 61.5l-256 -2h-49q-84 -4 -84 -8v-506h340q25 0 24 197l115 18l-6 -282q0 -117 6 -252l-119 -23q0 117 -4 149.5t-20 32.5h-336v-421q0 -68 37 -88.5t125 -20.5h192 q276 0 377 295l111 -23q0 -35 -59.5 -217t-88.5 -182l-473 -2l-375 2q-109 0 -266 -6l-25 110q98 2 130 20.5t32 53.5v1098q0 37 -27.5 55.5t-109.5 18.5zM401 1634l217 271q123 4 168 4t56 -25l205 -250q0 -33 -74 -59l-250 170l-248 -170q-57 14 -74 59z" />
<glyph unicode="&#xcb;" horiz-adv-x="1370" d="M61 1460q246 -6 287 -6h531l319 -2q25 -55 25 -178t-11 -219l-90 14q-23 141 -75 202.5t-150 61.5l-256 -2h-49q-84 -4 -84 -8v-506h340q25 0 24 197l115 18l-6 -282q0 -117 6 -252l-119 -23q0 117 -4 149.5t-20 32.5h-336v-421q0 -68 37 -88.5t125 -20.5h192 q276 0 377 295l111 -23q0 -35 -59.5 -217t-88.5 -182l-473 -2l-375 2q-109 0 -266 -6l-25 110q98 2 130 20.5t32 53.5v1098q0 37 -27.5 55.5t-109.5 18.5zM356 1715.5q0 60.5 41 103.5t102.5 43t101.5 -37t40 -98.5t-41 -104.5t-103.5 -43t-101.5 38t-39 98.5zM729 1715.5 q0 60.5 41 103.5t102.5 43t100.5 -37t39 -98.5t-41 -104.5t-102.5 -43t-100.5 38t-39 98.5z" />
<glyph unicode="&#xcc;" horiz-adv-x="733" d="M16.5 1685.5q-0.5 4.5 3.5 10.5q59 131 146 186l348 -217q4 -10 4 -32.5t-33 -57.5l-462 104q-6 2 -6.5 6.5zM61 1460q246 -6 337 -6t247 6l25 -110q-98 -2 -130 -20.5t-32 -53.5v-1098q0 -37 27.5 -55.5t109.5 -18.5l27 -110q-246 6 -336 6t-248 -6l-25 110 q98 2 130 20.5t32 53.5v1098q0 37 -27.5 55.5t-109.5 18.5z" />
<glyph unicode="&#xcd;" horiz-adv-x="733" d="M61 1460q246 -6 337 -6t247 6l25 -110q-98 -2 -130 -20.5t-32 -53.5v-1098q0 -37 27.5 -55.5t109.5 -18.5l27 -110q-246 6 -336 6t-248 -6l-25 110q98 2 130 20.5t32 53.5v1098q0 37 -27.5 55.5t-109.5 18.5zM231 1649q0 8 2 16l338 213q103 -56 156 -158q2 -6 2 -11 t-4 -7l-457 -125q-37 35 -37 72z" />
<glyph unicode="&#xce;" horiz-adv-x="733" d="M61 1460q246 -6 337 -6t247 6l25 -110q-98 -2 -130 -20.5t-32 -53.5v-1098q0 -37 27.5 -55.5t109.5 -18.5l27 -110q-246 6 -336 6t-248 -6l-25 110q98 2 130 20.5t32 53.5v1098q0 37 -27.5 55.5t-109.5 18.5zM63 1634l218 271q123 4 168 4t55 -25l205 -250 q0 -12 -16.5 -28.5t-57.5 -30.5l-250 170l-248 -170q-57 14 -74 59z" />
<glyph unicode="&#xcf;" horiz-adv-x="733" d="M39 1715.5q0 60.5 41 103.5t102.5 43t101.5 -37t40 -98.5t-41 -104.5t-103.5 -43t-101.5 38t-39 98.5zM61 1460q246 -6 337 -6t247 6l25 -110q-98 -2 -130 -20.5t-32 -53.5v-1098q0 -37 27.5 -55.5t109.5 -18.5l27 -110q-246 6 -336 6t-248 -6l-25 110q98 2 130 20.5 t32 53.5v1098q0 37 -27.5 55.5t-109.5 18.5zM412 1715.5q0 60.5 41 103.5t102 43t100 -37t39 -98.5t-41 -104.5t-102.5 -43t-100 38t-38.5 98.5z" />
<glyph unicode="&#xd0;" horiz-adv-x="1708" d="M61.5 757q0.5 38 6.5 56l161 -2v463q0 37 -27.5 55.5t-109.5 18.5l-26 110q246 -6 286 -6l410 4q406 0 635 -183t229 -526.5t-234.5 -548t-664.5 -204.5l-369 10q-109 0 -266 -6l-24 111q98 2 129.5 20t31.5 53v510q-61 -2 -139 -2q-29 29 -28.5 67zM506 258 q0 -53 10 -75.5t71.5 -41t194.5 -18.5q256 0 391.5 153.5t135.5 445.5t-155 452.5t-441 160.5h-154q-53 0 -53 -14v-512l311 4q16 -18 28.5 -57t12.5 -66q-102 0 -352 4v-436z" />
<glyph unicode="&#xd1;" horiz-adv-x="1691" d="M61 1460q246 -6 332 -6t139 6q0 -25 29 -66.5t48.5 -71.5t51 -72t55 -72.5t60.5 -75.5q135 -170 165 -207t166 -214t167 -214l-2 809q0 37 -27.5 55.5t-109.5 18.5l-27 110q246 -6 304 -6t214 6l25 -110q-176 -4 -176 -74l2 -1284q-41 8 -89.5 8t-78.5 -6l-867 1100v-916 q0 -37 28 -55.5t110 -18.5l26 -110q-246 6 -303 6t-215 -6l-25 110q176 4 177 74v1098q0 74 -152 74zM557 1614q0 6 4 12q90 178 166 178l338 -8q104 0 160 66q14 0 47 -31q2 -4 2 -10t-4 -15q-111 -184 -201 -184l-328 4q-76 0 -137 -51h-6t-37 27q-4 6 -4 12z" />
<glyph unicode="&#xd2;" horiz-adv-x="1726" d="M82 701.5q0 322.5 231.5 550t568.5 227.5t550 -204t213 -529.5t-226.5 -548t-564.5 -222.5t-555 202t-217 524.5zM399 784q1 -383 222 -563q119 -98 301 -98t293.5 155.5t111.5 389.5q0 289 -129 479t-373 190q-193 0 -309.5 -159.5t-116.5 -393.5zM494 1685.5 q0 4.5 4 10.5q59 131 145 186l348 -217q4 -10 4 -32.5t-32 -57.5l-463 104q-6 2 -6 6.5z" />
<glyph unicode="&#xd3;" horiz-adv-x="1726" d="M82 701.5q0 322.5 231.5 550t568.5 227.5t550 -204t213 -529.5t-226.5 -548t-564.5 -222.5t-555 202t-217 524.5zM399 784q1 -383 222 -563q119 -98 301 -98t293.5 155.5t111.5 389.5q0 289 -129 479t-373 190q-193 0 -309.5 -159.5t-116.5 -393.5zM725 1649q0 8 2 16 l338 213q103 -56 156 -158q2 -6 2 -11t-4 -7l-457 -125q-37 35 -37 72z" />
<glyph unicode="&#xd4;" horiz-adv-x="1726" d="M82 701.5q0 322.5 231.5 550t568.5 227.5t550 -204t213 -529.5t-226.5 -548t-564.5 -222.5t-555 202t-217 524.5zM399 784q1 -383 222 -563q119 -98 301 -98t293.5 155.5t111.5 389.5q0 289 -129 479t-373 190q-193 0 -309.5 -159.5t-116.5 -393.5zM549 1634l217 271 q123 4 168 4t55 -25l205 -250q0 -33 -74 -59l-250 170l-247 -170q-57 14 -74 59z" />
<glyph unicode="&#xd5;" horiz-adv-x="1726" d="M82 701.5q0 322.5 231.5 550t568.5 227.5t550 -204t213 -529.5t-226.5 -548t-564.5 -222.5t-555 202t-217 524.5zM399 784q1 -383 222 -563q119 -98 301 -98t293.5 155.5t111.5 389.5q0 289 -129 479t-373 190q-193 0 -309.5 -159.5t-116.5 -393.5zM504 1620q0 6 4 12 q90 178 166 178l338 -8q104 0 159 66q14 0 48 -31q2 -4 2 -10t-4 -15q-111 -184 -201 -184l-328 4q-76 0 -137 -51h-6t-37 27q-4 6 -4 12z" />
<glyph unicode="&#xd6;" horiz-adv-x="1726" d="M82 701.5q0 322.5 231.5 550t568.5 227.5t550 -204t213 -529.5t-226.5 -548t-564.5 -222.5t-555 202t-217 524.5zM399 784q1 -383 222 -563q119 -98 301 -98t293.5 155.5t111.5 389.5q0 289 -129 479t-373 190q-193 0 -309.5 -159.5t-116.5 -393.5zM535 1715.5 q0 60.5 40.5 103.5t102 43t101.5 -37t40 -98.5t-41 -104.5t-103.5 -43t-101 38t-38.5 98.5zM907 1715.5q0 60.5 41 103.5t102.5 43t100.5 -37t39 -98.5t-41 -104.5t-102.5 -43t-100.5 38t-39 98.5z" />
<glyph unicode="&#xd7;" horiz-adv-x="1122" d="M106 201l355 344l-295 280q0 39 18.5 89.5t63.5 72.5l321 -325l273 274q37 -2 95 -18.5t89 -40.5q-233 -221 -346 -334q72 -72 301 -291q0 -31 -17.5 -91.5t-37.5 -88.5q-51 37 -357 354l-299 -305q-39 0 -91 18.5t-73 61.5z" />
<glyph unicode="&#xd8;" horiz-adv-x="1665" d="M82 703.5q0 320.5 231.5 548t554.5 227.5q209 0 381 -80l135 172q4 2 16.5 2t58.5 -14.5t77 -36.5l-158 -203q266 -205 267 -580q0 -319 -226.5 -541.5t-550.5 -222.5q-252 0 -444 109l-139 -178q-18 -4 -61.5 -4t-125.5 28l197 250q-213 203 -213 523.5zM399 793.5 q0 -224.5 74 -383.5l645 823q-121 104 -303 104t-299 -159.5t-117 -384zM565 268q133 -145 336 -145t314.5 155.5t111.5 404.5t-108 429z" />
<glyph unicode="&#xd9;" horiz-adv-x="1613" d="M61 1460q246 -6 337 -6t247 6l25 -110q-98 -2 -130 -20.5t-32 -53.5v-733q0 -420 391 -420q147 0 220 102.5t73 288.5v762q0 37 -27.5 55.5t-109.5 18.5l-27 110q246 -6 305.5 -6t214.5 6l25 -110q-98 -2 -130 -20.5t-32 -53.5v-744q0 -557 -528 -557q-330 0 -494 129 t-164 414v758q0 37 -27.5 55.5t-109.5 18.5zM444.5 1685.5q-0.5 4.5 4.5 10.5q59 131 145 186l348 -217q4 -10 4 -32.5t-33 -57.5l-462 104q-6 2 -6.5 6.5z" />
<glyph unicode="&#xda;" horiz-adv-x="1613" d="M61 1460q246 -6 337 -6t247 6l25 -110q-98 -2 -130 -20.5t-32 -53.5v-733q0 -420 391 -420q147 0 220 102.5t73 288.5v762q0 37 -27.5 55.5t-109.5 18.5l-27 110q246 -6 305.5 -6t214.5 6l25 -110q-98 -2 -130 -20.5t-32 -53.5v-744q0 -557 -528 -557q-330 0 -494 129 t-164 414v758q0 37 -27.5 55.5t-109.5 18.5zM733 1649q0 8 2 16l338 213q103 -56 156 -158q2 -6 2 -11t-4 -7l-457 -125q-37 35 -37 72z" />
<glyph unicode="&#xdb;" horiz-adv-x="1613" d="M61 1460q246 -6 337 -6t247 6l25 -110q-98 -2 -130 -20.5t-32 -53.5v-733q0 -420 391 -420q147 0 220 102.5t73 288.5v762q0 37 -27.5 55.5t-109.5 18.5l-27 110q246 -6 305.5 -6t214.5 6l25 -110q-98 -2 -130 -20.5t-32 -53.5v-744q0 -557 -528 -557q-330 0 -494 129 t-164 414v758q0 37 -27.5 55.5t-109.5 18.5zM549 1634l217 271q123 4 168 4t55 -25l205 -250q0 -33 -74 -59l-250 170l-247 -170q-57 14 -74 59z" />
<glyph unicode="&#xdc;" horiz-adv-x="1613" d="M61 1460q246 -6 337 -6t247 6l25 -110q-98 -2 -130 -20.5t-32 -53.5v-733q0 -420 391 -420q147 0 220 102.5t73 288.5v762q0 37 -27.5 55.5t-109.5 18.5l-27 110q246 -6 305.5 -6t214.5 6l25 -110q-98 -2 -130 -20.5t-32 -53.5v-744q0 -557 -528 -557q-330 0 -494 129 t-164 414v758q0 37 -27.5 55.5t-109.5 18.5zM532 1715.5q0 60.5 41 103.5t102.5 43t101.5 -37t40 -98.5t-41 -104.5t-103.5 -43t-101.5 38t-39 98.5zM905 1715.5q0 60.5 41 103.5t102.5 43t100.5 -37t39 -98.5t-41 -104.5t-102.5 -43t-100.5 38t-39 98.5z" />
<glyph unicode="&#xdd;" horiz-adv-x="1441" d="M-61 1460q94 -6 335.5 -6t305.5 6l18 -108q-135 0 -135 -41q0 -23 26 -58l279 -460l285 399q41 51 41 84t-33 54.5t-113 21.5l-20 108l309 -6l250 6l14 -108q-55 0 -110.5 -33t-87 -66.5t-86.5 -101.5l-343 -467l3 -506q0 -37 27.5 -55.5t109.5 -18.5l26 -110 q-246 6 -336 6t-247 -6l-25 110q98 2 130 20.5t32 53.5v457l-381 549q-125 168 -252 168zM729 1649q0 8 2 16l338 213q103 -56 156 -158q2 -6 2 -11t-4 -7l-457 -125q-37 35 -37 72z" />
<glyph unicode="&#xde;" horiz-adv-x="1161" d="M33 1460q246 -6 337 -6t246 6l25 -110q-98 -2 -130 -20.5t-32 -53.5v-113q88 4 150 4q242 0 394.5 -100t152.5 -301q0 -109 -45.5 -191.5t-122.5 -130.5q-152 -94 -357 -94q-57 0 -104 10q-23 18 -23 57.5t17 57.5q33 -6 86 -6q123 0 198.5 81t75.5 218t-80 205.5 t-221 68.5q-115 0 -121 -30v-6v-828q0 -37 28 -55.5t109 -18.5l27 -110q-246 6 -337 6t-247 -6l-24 110q98 2 130 20.5t32 53.5v1098q0 37 -28 55.5t-110 18.5z" />
<glyph unicode="&#xdf;" horiz-adv-x="1230" d="M51 92q84 2 114 17.5t30 46.5v583h-103q-27 57 -26 84q39 4 129 29v37q0 258 148.5 470t365.5 212q150 0 276.5 -86t126.5 -238q0 -70 -40 -136.5t-89 -108t-89 -94t-40 -94.5t37 -84t90 -83t105.5 -89t89 -118.5t36.5 -152.5q0 -131 -88 -221.5t-237.5 -90.5t-253.5 62 q-8 10 -8 30.5t10 68.5t45 77q6 4 18.5 4t18.5 -8q86 -106 174 -107q57 0 92 34t35 81t-18.5 78t-40 48t-63.5 49t-56.5 43t-55.5 46t-53 46.5t-42 42t-42 48.5q-33 59 -33 96.5t7.5 61t28 50t31.5 40t44 44t59.5 57t50 53.5t48 75t24.5 93q0 109 -67.5 186.5t-177.5 77.5 q-211 0 -211 -317l-2 -979q0 -33 23.5 -48.5t96.5 -15.5l23 -98q-215 6 -299 6t-221 -6z" />
<glyph unicode="&#xe0;" horiz-adv-x="935" d="M66 178q0 117 93 173.5t351 111.5v74q0 119 -26.5 177t-93 58t-103.5 -20v-131q0 -12 -65.5 -24.5t-96.5 -12.5t-31 73q0 35 12.5 74t26.5 55q37 41 159 86.5t185 45.5q133 0 208 -82t75 -242v-416q0 -39 33 -39l55 2h51l16 -84q-35 -14 -144 -48t-136 -34t-39 6.5 t-22.5 22.5t-14.5 25.5t-12 35t-10 31.5q-111 -121 -252 -121q-92 0 -155.5 58.5t-63.5 144.5zM162 1349.5q0 4.5 8 10.5q125 80 223 80l178 -371q-12 -45 -73 -59l-334 333q-2 2 -2 6.5zM293 228q0 -48 33.5 -76.5t89 -28.5t104.5 45l-4 207q-129 -27 -176 -63t-47 -84z " />
<glyph unicode="&#xe1;" horiz-adv-x="935" d="M66 178q0 117 93 173.5t351 111.5v74q0 119 -26.5 177t-93 58t-103.5 -20v-131q0 -12 -65.5 -24.5t-96.5 -12.5t-31 73q0 35 12.5 74t26.5 55q37 41 159 86.5t185 45.5q133 0 208 -82t75 -242v-416q0 -39 33 -39l55 2h51l16 -84q-35 -14 -144 -48t-136 -34t-39 6.5 t-22.5 22.5t-14.5 25.5t-12 35t-10 31.5q-111 -121 -252 -121q-92 0 -155.5 58.5t-63.5 144.5zM293 228q0 -48 33.5 -76.5t89 -28.5t104.5 45l-4 207q-129 -27 -176 -63t-47 -84zM365 1108l178 371q98 0 223 -80q8 -6 8 -10.5t-2 -6.5l-334 -333q-61 14 -73 59z" />
<glyph unicode="&#xe2;" horiz-adv-x="935" d="M66 178q0 117 93 173.5t351 111.5v74q0 119 -26.5 177t-93 58t-103.5 -20v-131q0 -12 -65.5 -24.5t-96.5 -12.5t-31 73q0 35 12.5 74t26.5 55q37 41 159 86.5t185 45.5q133 0 208 -82t75 -242v-416q0 -39 33 -39l55 2h51l16 -84q-35 -14 -144 -48t-136 -34t-39 6.5 t-22.5 22.5t-14.5 25.5t-12 35t-10 31.5q-111 -121 -252 -121q-92 0 -155.5 58.5t-63.5 144.5zM166 1047l176 372q123 4 168 4t55 -24l164 -352q0 -12 -16.5 -30t-57.5 -30l-209 252l-206 -252q-57 14 -74 60zM293 228q0 -48 33.5 -76.5t89 -28.5t104.5 45l-4 207 q-129 -27 -176 -63t-47 -84z" />
<glyph unicode="&#xe3;" horiz-adv-x="935" d="M66 178q0 117 93 173.5t351 111.5v74q0 119 -26.5 177t-93 58t-103.5 -20v-131q0 -12 -65.5 -24.5t-96.5 -12.5t-31 73q0 35 12.5 74t26.5 55q37 41 159 86.5t185 45.5q133 0 208 -82t75 -242v-416q0 -39 33 -39l55 2h51l16 -84q-35 -14 -144 -48t-136 -34t-39 6.5 t-22.5 22.5t-14.5 25.5t-12 35t-10 31.5q-111 -121 -252 -121q-92 0 -155.5 58.5t-63.5 144.5zM68 1122q0 6 4 13q88 178 166 178l337 -8q104 0 160 65q14 0 47 -31q2 -4 2 -10t-4 -14q-111 -184 -200 -185l-328 5q-76 0 -137 -52h-7q-6 0 -36 27q-4 6 -4 12zM293 228 q0 -48 33.5 -76.5t89 -28.5t104.5 45l-4 207q-129 -27 -176 -63t-47 -84z" />
<glyph unicode="&#xe4;" horiz-adv-x="935" d="M66 178q0 117 93 173.5t351 111.5v74q0 119 -26.5 177t-93 58t-103.5 -20v-131q0 -12 -65.5 -24.5t-96.5 -12.5t-31 73q0 35 12.5 74t26.5 55q37 41 159 86.5t185 45.5q133 0 208 -82t75 -242v-416q0 -39 33 -39l55 2h51l16 -84q-35 -14 -144 -48t-136 -34t-39 6.5 t-22.5 22.5t-14.5 25.5t-12 35t-10 31.5q-111 -121 -252 -121q-92 0 -155.5 58.5t-63.5 144.5zM123 1238q0 60 41 103t102.5 43t101.5 -36.5t40 -98t-41 -104.5t-103.5 -43t-101.5 38t-39 98zM293 228q0 -48 33.5 -76.5t89 -28.5t104.5 45l-4 207q-129 -27 -176 -63t-47 -84 zM496 1238q0 60 41 103t102 43t100 -36.5t39 -98t-41 -104.5t-102.5 -43t-100 38t-38.5 98z" />
<glyph unicode="&#xe5;" horiz-adv-x="935" d="M66 178q0 117 93 173.5t351 111.5v74q0 119 -26.5 177t-93 58t-103.5 -20v-131q0 -12 -65.5 -24.5t-96.5 -12.5t-31 73q0 35 12.5 74t26.5 55q37 41 159 86.5t185 45.5q133 0 208 -82t75 -242v-416q0 -39 33 -39l55 2h51l16 -84q-35 -14 -144 -48t-136 -34t-39 6.5 t-22.5 22.5t-14.5 25.5t-12 35t-10 31.5q-111 -121 -252 -121q-92 0 -155.5 58.5t-63.5 144.5zM254 1246q0 83 57.5 145.5t145.5 62.5t148.5 -55.5t60.5 -138t-62.5 -148t-145.5 -65.5t-143.5 58t-60.5 141zM293 228q0 -48 33.5 -76.5t89 -28.5t104.5 45l-4 207 q-129 -27 -176 -63t-47 -84zM379 1253.5q0 -34.5 24.5 -56t60.5 -21.5t59.5 24.5t23.5 59.5q0 74 -80 73q-39 0 -63.5 -22.5t-24.5 -57z" />
<glyph unicode="&#xe6;" horiz-adv-x="1427" d="M66 178q0 117 103 183.5t357 113.5q0 16 4 41v21q0 236 -143 235q-63 0 -100 -20v-131q0 -12 -65.5 -24.5t-96.5 -12.5t-31 73q0 35 12.5 74t26.5 55q37 41 159 86.5t185 45.5q147 0 215 -103q127 102 285 102.5t270.5 -93t112.5 -269.5q0 -31 -19 -31l-565 -110 q-2 -102 76 -197.5t211 -95.5q70 0 136.5 31.5t90 55t33.5 11.5l33 -45q-70 -86 -173.5 -142.5t-201.5 -56.5q-213 0 -336 134q-141 -133 -311 -134q-129 0 -198.5 56.5t-69.5 146.5zM293 231q0 -53 39 -80.5t108.5 -27.5t145.5 67q-41 76 -56 185q-238 -55 -237 -144z M768 557q0 -20 2 -41l354 90q0 70 -46 130.5t-131 60.5t-132 -78t-47 -162z" />
<glyph unicode="&#xe7;" horiz-adv-x="940" d="M72 424q0 236 135 365t328 129q96 0 207.5 -37t150.5 -76q2 -4 2 -10q0 -33 -74 -138q-8 -8 -22.5 -8t-53.5 35q-113 109 -209 109t-147 -82t-51 -224.5t68.5 -254t203.5 -111.5t242 96q14 14 25 2l32 -45q-123 -154 -299 -190l6 -9l-77 -67q88 -4 145 -51t57 -101 q0 -102 -88 -146t-225 -44h-22.5t-10.5 27.5t6 27.5q150 18 150 117q0 47 -29.5 68.5t-69.5 25.5t-44 8q-10 12 -23 39q0 20 72 101q-178 20 -281.5 144t-103.5 300z" />
<glyph unicode="&#xe8;" horiz-adv-x="974" d="M72 441q0 214 135 345.5t309 131.5t285.5 -100.5t111.5 -303.5q0 -31 -18 -31h-557q0 -119 45 -223q27 -61 87 -100t138 -39t144.5 31.5t90 55t34.5 11.5l32 -45q-70 -86 -173 -142.5t-201 -56.5q-221 0 -342 126t-121 340zM242 1349.5q0 4.5 8 10.5q125 80 223 80 l178 -371q-12 -45 -73 -59l-334 333q-2 2 -2 6.5zM346 606h332q0 186 -154 187q-76 0 -123 -57.5t-55 -129.5z" />
<glyph unicode="&#xe9;" horiz-adv-x="974" d="M72 441q0 214 135 345.5t309 131.5t285.5 -100.5t111.5 -303.5q0 -31 -18 -31h-557q0 -119 45 -223q27 -61 87 -100t138 -39t144.5 31.5t90 55t34.5 11.5l32 -45q-70 -86 -173 -142.5t-201 -56.5q-221 0 -342 126t-121 340zM346 606h332q0 186 -154 187q-76 0 -123 -57.5 t-55 -129.5zM393 1108l178 371q99 0 224 -80q8 -6 8 -10.5t-2 -6.5l-334 -333q-61 14 -74 59z" />
<glyph unicode="&#xea;" horiz-adv-x="974" d="M72 441q0 214 135 345.5t309 131.5t285.5 -100.5t111.5 -303.5q0 -31 -18 -31h-557q0 -119 45 -223q27 -61 87 -100t138 -39t144.5 31.5t90 55t34.5 11.5l32 -45q-70 -86 -173 -142.5t-201 -56.5q-221 0 -342 126t-121 340zM248 1047l176 372q123 4 168 4t55 -24 l164 -352q0 -12 -17.5 -30t-56.5 -30l-209 252l-206 -252q-57 14 -74 60zM346 606h332q0 186 -154 187q-76 0 -123 -57.5t-55 -129.5z" />
<glyph unicode="&#xeb;" horiz-adv-x="974" d="M72 441q0 214 135 345.5t309 131.5t285.5 -100.5t111.5 -303.5q0 -31 -18 -31h-557q0 -119 45 -223q27 -61 87 -100t138 -39t144.5 31.5t90 55t34.5 11.5l32 -45q-70 -86 -173 -142.5t-201 -56.5q-221 0 -342 126t-121 340zM201 1238q0 60 41 103t102.5 43t101 -36.5 t39.5 -98t-41 -104.5t-103 -43t-101 38t-39 98zM346 606h332q0 186 -154 187q-76 0 -123 -57.5t-55 -129.5zM573 1238q0 60 41 103t102.5 43t100.5 -36.5t39 -98t-41 -104.5t-102.5 -43t-100.5 38t-39 98z" />
<glyph unicode="&#xec;" horiz-adv-x="653" d="M0 1349.5q0 4.5 8 10.5q125 80 223 80l179 -371q-12 -45 -74 -59l-334 333q-2 2 -2 6.5zM47 829q184 43 365 105q43 0 55 -9t12 -38v-731q0 -33 23.5 -48.5t97.5 -15.5l23 -98q-215 6 -298 6t-221 -6l-20 98q84 2 112.5 17.5t28.5 46.5v491q0 47 -24.5 72.5t-98.5 25.5 h-26z" />
<glyph unicode="&#xed;" horiz-adv-x="653" d="M47 829q184 43 365 105q43 0 55 -9t12 -38v-731q0 -33 23.5 -48.5t97.5 -15.5l23 -98q-215 6 -298 6t-221 -6l-20 98q84 2 112.5 17.5t28.5 46.5v491q0 47 -24.5 72.5t-98.5 25.5h-26zM223 1108l178 371q99 0 224 -80q8 -6 8 -10.5t-2 -6.5l-334 -333q-61 14 -74 59z" />
<glyph unicode="&#xee;" horiz-adv-x="653" d="M25 1047l176 372q123 4 168 4t55 -24l164 -352q0 -12 -17.5 -30t-56.5 -30l-209 252l-207 -252q-57 14 -73 60zM47 829q184 43 365 105q43 0 55 -9t12 -38v-731q0 -33 23.5 -48.5t97.5 -15.5l23 -98q-215 6 -298 6t-221 -6l-20 98q84 2 112.5 17.5t28.5 46.5v491 q0 47 -24.5 72.5t-98.5 25.5h-26z" />
<glyph unicode="&#xef;" horiz-adv-x="653" d="M-20 1238q0 60 40.5 103t102 43t101.5 -36.5t40 -98t-41 -104.5t-103.5 -43t-101 38t-38.5 98zM47 829q184 43 365 105q43 0 55 -9t12 -38v-731q0 -33 23.5 -48.5t97.5 -15.5l23 -98q-215 6 -298 6t-221 -6l-20 98q84 2 112.5 17.5t28.5 46.5v491q0 47 -24.5 72.5 t-98.5 25.5h-26zM352 1238q0 60 41 103t102.5 43t100.5 -36.5t39 -98t-41 -104.5t-102.5 -43t-100.5 38t-39 98z" />
<glyph unicode="&#xf0;" horiz-adv-x="1060" d="M37 426q0 211 143.5 351.5t354.5 140.5q100 0 190 -29q-20 78 -129 235l-215 -139q-16 0 -46 35t-38 63l227 142q-102 125 -186 192q-14 12 6.5 45t36.5 41q139 -82 268 -200l215 133q23 -4 49.5 -31t34.5 -51l-215 -140q141 -178 185 -253q123 -213 122 -482 q0 -229 -142 -366.5t-362.5 -137.5t-359.5 120t-139 331zM303 465q0 -139 64.5 -251t183.5 -112t171 93.5t52 234.5t-62.5 253t-184 112t-173 -95.5t-51.5 -234.5z" />
<glyph unicode="&#xf1;" horiz-adv-x="1191" d="M31 817q127 31 344 117q27 0 34 -11.5t11 -19.5t6 -22.5t2 -24.5t2 -30.5t2 -30.5q156 82 227.5 102.5t122.5 20.5q119 0 193 -86.5t74 -249.5v-426q0 -18 3 -29.5t23.5 -23t59.5 -11.5l22 -98q-215 6 -270.5 6t-192.5 -6l-20 98q70 2 94.5 17.5t26.5 46.5v364 q0 109 -36 161t-121 52t-196 -47v-530q0 -18 3.5 -29.5t23.5 -23t59 -11.5l23 -98q-215 6 -270.5 6t-192.5 -6l-20 98q70 2 94 17.5t26 46.5v491q0 49 -22.5 68.5t-56 19.5t-50.5 -2zM299 1122q0 6 4 13q90 178 166 178l338 -8q104 0 160 65q14 0 47 -31q2 -4 2 -10t-4 -14 q-111 -184 -201 -185l-328 5q-76 0 -137 -52h-6t-37 27q-4 6 -4 12z" />
<glyph unicode="&#xf2;" horiz-adv-x="1146" d="M72 426q0 211 143 351.5t361.5 140.5t358.5 -126t140 -339t-143.5 -345.5t-362.5 -132.5t-358 120t-139 331zM287 1349.5q0 4.5 8 10.5q125 80 223 80l178 -371q-12 -45 -73 -59l-334 333q-2 2 -2 6.5zM338 465q0 -139 64.5 -251t183.5 -112t171 93.5t52 234.5t-62.5 253 t-184.5 112t-173 -95.5t-51 -234.5z" />
<glyph unicode="&#xf3;" horiz-adv-x="1146" d="M72 426q0 211 143 351.5t361.5 140.5t358.5 -126t140 -339t-143.5 -345.5t-362.5 -132.5t-358 120t-139 331zM338 465q0 -139 64.5 -251t183.5 -112t171 93.5t52 234.5t-62.5 253t-184.5 112t-173 -95.5t-51 -234.5zM451 1108l178 371q98 0 223 -80q8 -6 8 -10.5t-2 -6.5 l-334 -333q-61 14 -73 59z" />
<glyph unicode="&#xf4;" horiz-adv-x="1146" d="M72 426q0 211 143 351.5t361.5 140.5t358.5 -126t140 -339t-143.5 -345.5t-362.5 -132.5t-358 120t-139 331zM291 1047l176 372q123 4 168 4t55 -24l164 -352q0 -12 -17.5 -30t-56.5 -30l-209 252l-206 -252q-57 14 -74 60zM338 465q0 -139 64.5 -251t183.5 -112 t171 93.5t52 234.5t-62.5 253t-184.5 112t-173 -95.5t-51 -234.5z" />
<glyph unicode="&#xf5;" horiz-adv-x="1146" d="M72 426q0 211 143 351.5t361.5 140.5t358.5 -126t140 -339t-143.5 -345.5t-362.5 -132.5t-358 120t-139 331zM215 1122q0 6 4 13q88 178 166 178l338 -8q104 0 160 65q14 0 47 -31q2 -4 2 -10t-4 -14q-111 -184 -201 -185l-328 5q-76 0 -137 -52h-6t-37 27q-4 6 -4 12z M338 465q0 -139 64.5 -251t183.5 -112t171 93.5t52 234.5t-62.5 253t-184.5 112t-173 -95.5t-51 -234.5z" />
<glyph unicode="&#xf6;" horiz-adv-x="1146" d="M72 426q0 211 143 351.5t361.5 140.5t358.5 -126t140 -339t-143.5 -345.5t-362.5 -132.5t-358 120t-139 331zM246 1238q0 60 41 103t102.5 43t101 -36.5t39.5 -98t-40.5 -104.5t-103 -43t-101.5 38t-39 98zM338 465q0 -139 64.5 -251t183.5 -112t171 93.5t52 234.5 t-62.5 253t-184.5 112t-173 -95.5t-51 -234.5zM618 1238q0 60 41 103t102.5 43t100.5 -36.5t39 -98t-41 -104.5t-102.5 -43t-100.5 38t-39 98z" />
<glyph unicode="&#xf7;" horiz-adv-x="1163" d="M72 569q0 27 8 54l495 -7l445 7q25 -25 39 -66t14 -60.5v-27.5q-442 8 -491 8l-471 -8q-39 31 -39 100zM442 242.5q0 54.5 38 94.5t94.5 40t93.5 -34t37 -90t-38 -96t-96.5 -40t-93.5 35.5t-35 90zM442 833.5q0 55.5 38 95.5t94.5 40t93.5 -35t37 -91.5t-38 -95 t-95.5 -38.5t-93.5 34.5t-36 90z" />
<glyph unicode="&#xf8;" horiz-adv-x="1083" d="M31 428q0 209 143 349.5t354 140.5q133 0 248 -50l80 113q41 0 84 -59l-74 -107q168 -131 168 -353t-143 -354.5t-354 -132.5q-127 0 -228 37l-80 -116q-14 -4 -28 -5q-43 0 -90 39l96 136q-176 120 -176 362zM297 475q0 -129 43 -221l334 471q-63 70 -169 70t-157 -95.5 t-51 -224.5zM410 156q59 -54 141 -54q113 0 165 93.5t52 215t-35 212.5z" />
<glyph unicode="&#xf9;" horiz-adv-x="1159" d="M45 887l182 -6q82 0 181 12v-535q0 -199 159 -198q98 0 166 57v508q0 18 -3 29.5t-23.5 22.5t-59.5 11l-22 99l182 -6q82 0 180 12v-662q0 -72 13.5 -82t35.5 -10h31l43 2l18 -106q-145 -8 -323 -60q-39 0 -39 23l-12 92q-172 -115 -281 -115q-322 0 -321 318l2 432 q0 18 -3.5 29.5t-24 22.5t-58.5 11zM217 1349.5q0 4.5 8 10.5q125 80 224 80l178 -371q-12 -45 -74 -59l-334 333q-2 2 -2 6.5z" />
<glyph unicode="&#xfa;" horiz-adv-x="1159" d="M45 887l182 -6q82 0 181 12v-535q0 -199 159 -198q98 0 166 57v508q0 18 -3 29.5t-23.5 22.5t-59.5 11l-22 99l182 -6q82 0 180 12v-662q0 -72 13.5 -82t35.5 -10h31l43 2l18 -106q-145 -8 -323 -60q-39 0 -39 23l-12 92q-172 -115 -281 -115q-322 0 -321 318l2 432 q0 18 -3.5 29.5t-24 22.5t-58.5 11zM414 1108l178 371q98 0 223 -80q8 -6 8 -10.5t-2 -6.5l-334 -333q-61 14 -73 59z" />
<glyph unicode="&#xfb;" horiz-adv-x="1159" d="M45 887l182 -6q82 0 181 12v-535q0 -199 159 -198q98 0 166 57v508q0 18 -3 29.5t-23.5 22.5t-59.5 11l-22 99l182 -6q82 0 180 12v-662q0 -72 13.5 -82t35.5 -10h31l43 2l18 -106q-145 -8 -323 -60q-39 0 -39 23l-12 92q-172 -115 -281 -115q-322 0 -321 318l2 432 q0 18 -3.5 29.5t-24 22.5t-58.5 11zM246 1047l176 372q123 4 168 4t55 -24l164 -352q0 -12 -17.5 -30t-56.5 -30l-209 252l-207 -252q-57 14 -73 60z" />
<glyph unicode="&#xfc;" horiz-adv-x="1159" d="M45 887l182 -6q82 0 181 12v-535q0 -199 159 -198q98 0 166 57v508q0 18 -3 29.5t-23.5 22.5t-59.5 11l-22 99l182 -6q82 0 180 12v-662q0 -72 13.5 -82t35.5 -10h31l43 2l18 -106q-145 -8 -323 -60q-39 0 -39 23l-12 92q-172 -115 -281 -115q-322 0 -321 318l2 432 q0 18 -3.5 29.5t-24 22.5t-58.5 11zM211 1238q0 60 41 103t102.5 43t101.5 -36.5t40 -98t-41 -104.5t-103.5 -43t-101.5 38t-39 98zM584 1238q0 60 41 103t102 43t100 -36.5t39 -98t-41 -104.5t-102 -43t-100 38t-39 98z" />
<glyph unicode="&#xfd;" horiz-adv-x="968" d="M-20 887q215 -6 287.5 -6t211.5 6l21 -99q-74 -2 -95.5 -17t-9.5 -48l170 -442l172 444q12 31 -5 47t-77 16l-22 99l190 -6q41 0 181 6l20 -99q-49 -2 -75.5 -14t-43.5 -49q-455 -1051 -460 -1062t-36.5 -63.5t-57 -76t-72 -47t-111 -23.5t-117.5 45q0 33 27.5 95.5 t42.5 62.5q41 -10 104 -10q51 0 118 125t112 252l-312 675q-41 90 -141 90zM451 1108l178 371q98 0 223 -80q8 -6 8 -10.5t-2 -6.5l-334 -333q-61 14 -73 59z" />
<glyph unicode="&#xfe;" horiz-adv-x="1112" d="M0 1364q127 31 344 117q25 0 37 -17v-669q162 123 311.5 123t262 -128t112.5 -331t-126 -343.5t-314 -140.5q-125 0 -215 60v-402q0 -33 30.5 -48t130.5 -15l23 -98q-215 6 -318.5 6t-240.5 -6l-21 98q84 2 113 17.5t29 45.5v1561q0 49 -22.5 68.5t-56.5 19.5t-50 -2z M412 219q0 -49 56 -83t130 -34q100 0 150.5 91.5t50.5 239t-52.5 241.5t-156 94t-178.5 -55v-494z" />
<glyph unicode="&#xff;" horiz-adv-x="1024" d="M-20 887q215 -6 287.5 -6t211.5 6l21 -99q-74 -2 -95.5 -17t-9.5 -48l170 -442l172 444q12 31 -5 47t-77 16l-22 99l190 -6q41 0 181 6l20 -99q-49 -2 -75.5 -14t-43.5 -49q-455 -1051 -460 -1062t-36.5 -63.5t-57 -76t-72 -47t-111 -23.5t-117.5 45q0 33 27.5 95.5 t42.5 62.5q41 -10 104 -10q51 0 118 125t112 252l-312 675q-41 90 -141 90zM246 1238q0 60 41 103t102.5 43t101 -36.5t39.5 -98t-40.5 -104.5t-103 -43t-101.5 38t-39 98zM618 1238q0 60 41 103t102.5 43t100.5 -36.5t39 -98t-41 -104.5t-102.5 -43t-100.5 38t-39 98z" />
<glyph unicode="&#x152;" horiz-adv-x="2287" d="M82 701.5q0 322.5 231.5 550t554.5 227.5q78 0 209 -12.5t211 -12.5h531l319 -2q25 -55 25 -178t-11 -219l-90 14q-23 141 -75 202.5t-150 61.5l-256 -2h-49q-84 -4 -84 -8v-506h340q25 0 24 197l115 18l-6 -282q0 -117 6 -252l-119 -23q0 117 -4 149.5t-20 32.5h-336 v-421q0 -68 37 -88.5t125 -20.5h192q276 0 377 295l111 -23q0 -35 -59.5 -217t-88.5 -182l-473 -2l-375 2q-63 0 -207.5 -12.5t-218.5 -12.5q-352 0 -569 202t-217 524.5zM399 784q1 -387 222 -577q119 -102 291.5 -102.5t232.5 26.5q20 14 20 47v1063q0 57 -59 83t-229 26 q-240 0 -359 -160t-119 -406z" />
<glyph unicode="&#x153;" horiz-adv-x="1681" d="M72 426q0 211 143 351.5t365.5 140.5t363.5 -136q129 135 308.5 135.5t291 -100t111.5 -303.5q-1 -31 -19 -31h-557q0 -119 45 -223q27 -61 87.5 -100t138 -39t144.5 31.5t90.5 55t33.5 11.5l33 -45q-70 -86 -173.5 -142.5t-201.5 -56.5q-223 0 -346 129 q-141 -129 -360.5 -129t-358.5 120t-139 331zM338 465q0 -139 64.5 -251t183.5 -112t171 93.5t52 234.5t-62.5 253t-184.5 112t-173 -95.5t-51 -234.5zM1087 606h332q0 186 -153 187q-76 0 -123 -57.5t-56 -129.5z" />
<glyph unicode="&#x2c6;" horiz-adv-x="1087" d="M270 1071l176 373q123 4 168 4t56 -25l164 -352q0 -12 -17.5 -29.5t-56.5 -29.5l-209 252l-207 -252q-57 14 -74 59z" />
<glyph unicode="&#x2dc;" horiz-adv-x="862" d="M100 1132.5q0 6.5 4 12.5q88 178 166 178l338 -8q104 0 160 65q14 0 47 -30q2 -4 2 -10.5t-4 -14.5q-111 -184 -201 -184l-327 4q-76 0 -138 -51h-6t-37 26q-4 6 -4 12.5z" />
<glyph unicode="&#x2000;" horiz-adv-x="978" />
<glyph unicode="&#x2001;" horiz-adv-x="1957" />
<glyph unicode="&#x2002;" horiz-adv-x="978" />
<glyph unicode="&#x2003;" horiz-adv-x="1957" />
<glyph unicode="&#x2004;" horiz-adv-x="652" />
<glyph unicode="&#x2005;" horiz-adv-x="489" />
<glyph unicode="&#x2006;" horiz-adv-x="326" />
<glyph unicode="&#x2007;" horiz-adv-x="326" />
<glyph unicode="&#x2008;" horiz-adv-x="244" />
<glyph unicode="&#x2009;" horiz-adv-x="391" />
<glyph unicode="&#x200a;" horiz-adv-x="108" />
<glyph unicode="&#x2010;" horiz-adv-x="768" d="M100 496q0 27 6 45l314 -2l217 2q14 -16 27.5 -85t13.5 -102l-260 2l-289 -2q-14 14 -21.5 64.5t-7.5 77.5z" />
<glyph unicode="&#x2011;" horiz-adv-x="768" d="M100 496q0 27 6 45l314 -2l217 2q14 -16 27.5 -85t13.5 -102l-260 2l-289 -2q-14 14 -21.5 64.5t-7.5 77.5z" />
<glyph unicode="&#x2012;" horiz-adv-x="768" d="M100 496q0 27 6 45l314 -2l217 2q14 -16 27.5 -85t13.5 -102l-260 2l-289 -2q-14 14 -21.5 64.5t-7.5 77.5z" />
<glyph unicode="&#x2013;" horiz-adv-x="1150" d="M29 476.5q0 23.5 6 41.5l543 -4l507 4q14 -16 27.5 -74.5t13.5 -89.5l-551 4l-518 -4q-14 14 -21 56.5t-7 66z" />
<glyph unicode="&#x2014;" horiz-adv-x="2238" d="M100 496q0 27 21 45l1113 -2l769 2q49 -16 97 -85t48 -102l-921 2l-1024 -2q-50 14 -76.5 64.5t-26.5 77.5z" />
<glyph unicode="&#x2022;" horiz-adv-x="1064" d="M207 461q0 127 86 219t215 92t212 -75.5t83 -203.5t-89 -225.5t-216 -97.5t-209 82t-82 209z" />
<glyph unicode="&#x2026;" horiz-adv-x="1372" d="M100 111.5q0 58.5 41 97.5t95.5 39t93.5 -35t39 -94.5t-37 -101.5t-99.5 -42t-97.5 39t-35 97.5zM551 111.5q0 58.5 41 97.5t95 39t93 -35t39 -94.5t-37 -101.5t-99 -42t-97 39t-35 97.5zM1001 111.5q0 58.5 41 97.5t95.5 39t93.5 -35t39 -94.5t-37 -101.5t-99.5 -42 t-97.5 39t-35 97.5z" />
<glyph unicode="&#x202f;" horiz-adv-x="391" />
<glyph unicode="&#x2039;" horiz-adv-x="808" d="M109 476.5q0 15.5 2 23.5q176 90 348 204.5t182 122.5q23 -47 23 -91t-2 -54l-347 -229q47 -45 178.5 -120t165.5 -104q2 -6 3 -22q0 -86 -19 -137q-25 25 -235.5 158.5t-270.5 148.5q-12 10 -20 47t-8 52.5z" />
<glyph unicode="&#x203a;" horiz-adv-x="808" d="M152 709q0 72 22 118q55 -45 246.5 -162.5t284.5 -164.5q2 -8 2 -23.5t-8.5 -52.5t-20.5 -47q-59 -14 -270 -148t-236 -159q-18 51 -18 102t2 57q35 29 166 104t178 120l-346 229q-2 10 -2 27z" />
<glyph unicode="&#x205f;" horiz-adv-x="489" />
<glyph unicode="&#x20ac;" horiz-adv-x="1200" d="M-51 881h172q55 229 219 383.5t369.5 154.5t375.5 -73q20 -49 20.5 -137.5t-11.5 -176.5l-111 12q-78 219 -268 220q-150 0 -233.5 -111.5t-108.5 -271.5l352 2q14 -16 25.5 -51t11.5 -55.5t-4 -37.5h-396v-92h371q12 -10 20.5 -43t8.5 -53.5t-4 -38.5h-377 q33 -176 128 -276.5t260 -100.5t241 207l118 -12q0 -20 -27.5 -123t-43.5 -127q-106 -102 -312 -103q-264 0 -428.5 145.5t-201.5 389.5h-80q-27 2 -46.5 46t-19.5 89h133q0 72 2 92h-90q-27 2 -46 49.5t-19 92.5z" />
<glyph unicode="&#xe000;" horiz-adv-x="890" d="M0 0v891h891v-891h-891z" />
</font>
</defs>
</svg>
