<?xml version="1.0" standalone="no"?>
<!DOCTYPE svg PUBLIC "-//W3C//DTD SVG 1.1//EN" "http://www.w3.org/Graphics/SVG/1.1/DTD/svg11.dtd" >
<svg xmlns="http://www.w3.org/2000/svg">
<metadata></metadata>
<defs>
<font id="lusitanaregular" horiz-adv-x="1724" >
<font-face units-per-em="2048" ascent="1638" descent="-410" />
<missing-glyph horiz-adv-x="405" />
<glyph horiz-adv-x="2048" />
<glyph horiz-adv-x="2048" />
<glyph unicode="&#xd;" horiz-adv-x="681" />
<glyph unicode=" "  horiz-adv-x="405" />
<glyph unicode="&#x09;" horiz-adv-x="405" />
<glyph unicode="&#xa0;" horiz-adv-x="405" />
<glyph unicode="!" horiz-adv-x="653" d="M199 1348q18 8 90.5 32.5t95.5 28.5q31 0 41 -23q4 -5 4 -38l-65 -910q0 -14 -15 -14l-61 -4q-6 0 -6 16zM221 80q0 43 31 74.5t75 31.5t73.5 -27.5t29.5 -70.5t-30.5 -75.5t-74.5 -32.5t-74 28.5t-30 71.5z" />
<glyph unicode="&#x22;" horiz-adv-x="604" d="M102 1370q125 94 168 100q4 0 9 -4q0 -49 -23 -262t-29 -227q-18 -23 -39.5 -23t-35.5 9q-2 47 -12.5 125.5t-22 166.5t-15.5 115zM356 1378q125 94 168 101q4 0 8 -4q0 -51 -24.5 -263.5t-32.5 -226.5q-20 -25 -38.5 -24.5t-33.5 10.5q0 4 -47 407z" />
<glyph unicode="#" horiz-adv-x="927" d="M-20 518.5q0 18.5 32 63.5l193 -2l57 278q-182 4 -188 9t-6 23.5t32 61.5q96 0 181 -2l63 314q25 14 44.5 14t33.5 -10l-68 -320q78 0 221 -4l66 320q25 14 44.5 14t33.5 -10l-68 -324q78 -2 142.5 -2t80.5 4q8 -10 9 -22q0 -35 -90 -70q-2 0 -23 -4q-68 0 -139 2 l-58 -279q74 -2 135.5 -2t77.5 4q8 -12 9 -22q0 -37 -90 -72q-2 0 -23 -4q-66 0 -129 2l-66 -321q-6 -10 -19 -10.5t-46 32.5l59 299q-76 0 -223 4l-68 -325q-6 -10 -19 -10.5t-46 32.5l61 303q-193 4 -199.5 10.5t-6.5 25zM279 578q76 0 223 -5l55 279l-221 4z" />
<glyph unicode="$" horiz-adv-x="1124" d="M82 418l94 14q43 -184 131 -268t221 -86v551q-225 96 -278 145q-31 29 -66 68q-63 72 -63 196q0 176 116.5 272.5t290.5 104.5v211q43 35 111 35v-248q207 -12 322 -74q14 -31 14 -160.5t-8 -195.5l-64 4q-6 121 -75.5 211t-188.5 115v-496q231 -88 311 -186 q84 -100 84 -250t-102.5 -267.5t-292.5 -133.5v-166q-23 -27 -111 -27v188q-203 8 -391 84q-10 31 -28.5 153t-26.5 206zM305 1106q0 -90 56.5 -142.5t166.5 -101.5v457q-104 -8 -163.5 -65.5t-59.5 -147.5zM639 88q102 23 156.5 88.5t54.5 153.5t-54.5 144t-156.5 106v-492 z" />
<glyph unicode="%" horiz-adv-x="1429" d="M72 1116q0 137 109.5 247t237.5 110t204.5 -90.5t76.5 -228.5t-109.5 -245.5t-237.5 -107.5t-204.5 89t-76.5 226zM178 -8q227 324 918 1468q12 12 102 13h16q8 -2 9 -17q-33 -63 -426.5 -696t-485.5 -754q-6 -10 -54.5 -20.5t-66.5 -10.5q-12 0 -12 17zM219 1153 q0 -111 44 -189.5t133 -78.5t123 59.5t34 177t-48 195.5t-128 78t-119 -65.5t-39 -176.5zM762 342q0 137 108.5 246.5t237.5 109.5t206 -90t77 -228t-110 -245.5t-238 -107.5t-204.5 89t-76.5 226zM909 378.5q0 -110.5 44 -189t133.5 -78.5t123 59t33.5 177t-48 196t-128 78 t-119 -66t-39 -176.5z" />
<glyph unicode="&#x26;" horiz-adv-x="1683" d="M92 336q0 141 72 242.5t239 205.5q-57 61 -84.5 93t-60.5 102q-37 74 -37 158q0 141 106.5 240.5t249 99.5t225.5 -73t83 -181.5t-61.5 -193.5t-200.5 -181l424 -381q94 193 94 285q0 82 -129 82l-19 90l240 -6l246 6l16 -90q-145 0 -190 -84q-27 -51 -64 -123 q-74 -150 -117 -224l336 -258q109 -68 170 -79l27 -72q-166 6 -214 6t-143 -4l-282 229q-227 -250 -488 -250q-195 0 -316.5 110t-121.5 251zM303 414q0 -131 80 -218t213 -87q98 0 193.5 58t148.5 130l-481 428q-66 -51 -110 -139t-44 -172zM410 1198q0 -162 155 -297 q168 141 168 303q0 76 -42 125t-116.5 49t-119.5 -53t-45 -127z" />
<glyph unicode="'" horiz-adv-x="393" d="M102 1481q125 94 168 100q4 0 9 -4q0 -49 -23 -262.5t-29 -227.5q-18 -23 -39.5 -22.5t-35.5 8.5q-2 47 -12.5 126t-22 167t-15.5 115z" />
<glyph unicode="(" horiz-adv-x="739" d="M123 588q0 285 119.5 541.5t335.5 447.5q6 4 21 4t57 -14.5t42 -24.5q-207 -195 -304 -425t-97 -525t100.5 -524.5t300.5 -434.5q0 -10 -42 -24.5t-57 -14.5t-21 5q-455 407 -455 989z" />
<glyph unicode=")" horiz-adv-x="739" d="M41 -367q201 205 301 434.5t100 524.5t-97 525.5t-304 424.5q0 10 42 24.5t57.5 14.5t21.5 -4q215 -190 334.5 -447t119.5 -542q0 -582 -454 -989q-6 -4 -21.5 -4.5t-57.5 14t-42 24.5z" />
<glyph unicode="*" horiz-adv-x="741" d="M51 938q0 14 4 27q12 37 19 49q31 8 98.5 27.5t112.5 31.5l-185 150q0 20 41 30.5t47 12.5l166 -140q43 201 45 226q51 33 65.5 32.5t18.5 -6.5q0 -10 -49 -264q211 59 246 74q4 -14 4 -21.5t-2 -15.5t-15.5 -29.5t-16.5 -25.5t-189 -60l215 -172q0 -10 -37 -19t-50.5 -9 t-182.5 139q-47 -227 -48 -254q-25 0 -38 13.5t-25 26.5t-16 17l47 219l-267 -79q-8 6 -8 20z" />
<glyph unicode="+" horiz-adv-x="1163" d="M75.5 510q0.5 37 4.5 53l440 -4l-4 377q14 14 51 25.5t62 11.5l-4 -414l401 4q37 -37 37 -110l-438 4l4 -447q-20 -25 -58.5 -24.5t-54.5 4.5l4 467l-420 -4q-25 20 -24.5 57z" />
<glyph unicode="," horiz-adv-x="495" d="M4 -332q170 170 170 281q0 39 -20.5 55t-44 12t-41.5 -4q-27 23 -27 131q0 39 10 43q39 39 112 39t112.5 -49t39.5 -133t-56 -197.5t-165 -214.5h-13t-38 11.5t-39 25.5z" />
<glyph unicode="-" horiz-adv-x="768" d="M131 442q0 38 6 56l273 -2l196 2q16 -18 28.5 -57.5t12.5 -65.5l-239 2l-248 -2q-29 29 -29 67z" />
<glyph unicode="." horiz-adv-x="471" d="M117 102.5q0 49.5 34.5 85t86 35.5t83 -29.5t31.5 -80t-34.5 -87t-85 -36.5t-83 31.5t-32.5 81z" />
<glyph unicode="/" horiz-adv-x="925" d="M98 -106l613 1609q35 12 73.5 12.5t59.5 -8.5l-613 -1595q-16 -23 -96 -23q-23 0 -37 5z" />
<glyph unicode="0" horiz-adv-x="1214" d="M72 686q0 186 61.5 351t185 273.5t283.5 108.5q238 0 389.5 -203.5t151.5 -505.5t-147.5 -518.5t-387 -216.5t-388 198t-148.5 513zM287 764q0 -686 358 -686q76 0 132.5 47t86.5 129q63 164 64 391q0 256 -68 453q-35 104 -106.5 164.5t-170 60.5t-165.5 -86 q-131 -164 -131 -473z" />
<glyph unicode="1" horiz-adv-x="696" d="M68 1323q84 0 213 47l137 49q27 0 34 -5t7 -28l2 -1222q0 -43 28.5 -57.5t126.5 -22.5l19 -90l-260 6q-8 0 -279 -6l-16 90q129 12 157.5 23.5t28.5 56.5v999q0 55 -29.5 79t-83 24t-67.5 -2z" />
<glyph unicode="2" horiz-adv-x="1050" d="M41 43q20 18 98 84q156 127 301 305q258 319 258 580q0 123 -73.5 194.5t-179 71.5t-173 -48t-139.5 -151q-16 0 -36.5 11.5t-10.5 31.5q55 129 172 212t272.5 83t265 -97t109.5 -251q0 -254 -256 -553q-147 -174 -305 -340q0 -10 8 -10h332q100 0 143 44t78 159l53 -31 q0 -139 -63 -358q-63 23 -313 22h-150q-250 0 -381 -10q-10 25 -10 51z" />
<glyph unicode="3" horiz-adv-x="899" d="M31 1163q55 94 163.5 174t250 80t236.5 -80t95 -192q0 -63 -18.5 -99t-28.5 -55.5t-34.5 -43t-38 -37t-46 -37t-45.5 -33.5q-43 -31 -100 -66l10 -8q145 -39 248.5 -126t103.5 -221t-94 -236.5t-226 -155t-281.5 -52.5t-182.5 29q-12 6 -8 34t8 28q94 -4 125 -5 q197 0 325 99.5t128 249.5q0 113 -92.5 181t-196 68t-148.5 -12q-10 16 -10 60q240 111 311 165q115 92 116 197t-60.5 157t-153.5 52t-175 -50t-134 -116q-12 0 -29.5 17.5t-17.5 33.5z" />
<glyph unicode="4" horiz-adv-x="1181" d="M51 518q0 10 6 21l707 852q16 25 102 28q14 -18 15 -33l-2 -6q-29 -47 -29 -209v-548h86q78 0 91 3t34.5 11t48.5 16q10 -16 10 -55t-7 -63.5t-36 -73.5q-69 22 -219 22h-8v-508q-16 2 -51 4.5t-51 4.5q-45 2 -74 18v481h-580q-14 0 -28.5 12.5t-14.5 22.5zM258 623h424 v520z" />
<glyph unicode="5" horiz-adv-x="901" d="M82 827l137 535q6 29 25 47q71 -18 159 -18h172q86 0 124 23.5t69 105.5l51 -29q0 -35 -16 -129q-2 -10 -45 -148q-74 18 -469 19l-70 -250q295 -27 431 -143.5t136 -278.5t-102 -293t-248.5 -197.5t-298.5 -70.5q-14 0 -14 34t10 34q201 33 340 142t139 290 q0 152 -155.5 239.5t-374.5 87.5z" />
<glyph unicode="6" horiz-adv-x="1060" d="M72 467q0 231 187 506.5t456 445.5q18 -6 43.5 -27.5t15.5 -31.5q-172 -154 -303 -322t-147 -284q27 27 103.5 52t156.5 25q150 0 272.5 -113.5t122.5 -291.5t-120 -314.5t-333 -136.5t-333.5 130.5t-120.5 361.5zM266 425q0 -161 76 -254t200 -93t183 89t59 228.5 t-71.5 242.5t-192.5 103q-59 0 -120.5 -28.5t-90.5 -69.5q-43 -57 -43 -218z" />
<glyph unicode="7" horiz-adv-x="1052" d="M51 1094q0 131 43 245q20 49 29 74q51 -14 319 -18h328q195 0 260 16q10 -16 10 -39l-614 -1397q-18 2 -30.5 6.5t-33 6.5t-27.5 5t-5 9l489 1198q4 8 -1 15.5t-13 7.5h-494q-88 0 -132 -34t-77 -124z" />
<glyph unicode="8" horiz-adv-x="1040" d="M84 344q0 131 72.5 220t189.5 161q-233 137 -233 330q0 152 115.5 257t294.5 105t279.5 -91t100.5 -210q0 -207 -233 -377q137 -68 212.5 -155.5t75.5 -240.5t-122.5 -260.5t-310 -107.5t-314.5 99.5t-127 269.5zM258 349.5q0 -109.5 74 -190.5t192.5 -81t189 69.5 t70.5 182.5q0 61 -21.5 94t-34.5 52.5t-42 41t-46 35.5t-54 35.5t-56 32.5q-92 51 -120 65q-63 -57 -107.5 -142t-44.5 -194.5zM287 1110q0 -74 22.5 -123t75.5 -90t91 -61.5t120 -61.5q133 150 133 316q0 100 -60.5 167.5t-164 67.5t-160.5 -70.5t-57 -144.5z" />
<glyph unicode="9" horiz-adv-x="1060" d="M82 966.5q0 178.5 120 314.5t333 136t333.5 -130t120.5 -363.5t-161.5 -502.5t-419.5 -448q-14 4 -32 27t-7 33q152 139 250 307t110 299q-29 -29 -100.5 -53.5t-151.5 -24.5q-150 0 -272.5 113.5t-122.5 292zM276 998.5q0 -140.5 72 -237.5t193 -97q63 0 122.5 23.5 t88.5 62.5q43 57 43 217.5t-78 260t-199 99.5t-181.5 -94t-60.5 -234.5z" />
<glyph unicode=":" horiz-adv-x="497" d="M156 106.5q0 53.5 36.5 92.5t93 39t91.5 -32t35 -87.5t-39 -95t-92.5 -39.5t-89 34.5t-35.5 88zM156 659.5q0 53.5 36.5 92.5t93 39t91.5 -32t35 -87.5t-39 -95t-92.5 -39.5t-89 34.5t-35.5 88z" />
<glyph unicode=";" horiz-adv-x="610" d="M162 659.5q0 53.5 37 92.5t93 39t91 -32t35 -87.5t-39 -95t-92.5 -39.5t-89 34.5t-35.5 88zM164 -332q170 170 170 281q0 39 -20.5 55t-44.5 12t-42 -4q-27 23 -26 131q0 39 10 43q39 39 111.5 39t112.5 -49t40 -133t-56.5 -197.5t-164.5 -214.5h-13.5t-38 11.5 t-38.5 25.5z" />
<glyph unicode="&#x3c;" horiz-adv-x="1024" d="M131 601q0 15 2 20l823 452q9 -10 9 -66.5t-9 -80.5l-637 -363v-8l637 -365q10 -57 10.5 -95t-10.5 -54l-796 436q-10 10 -19.5 59.5t-9.5 64.5z" />
<glyph unicode="=" horiz-adv-x="1079" d="M90 360q0 38 6 56l441 -4l403 4q16 -18 28.5 -57.5t12.5 -65.5l-446 4l-416 -4q-29 29 -29 67zM90 663q0 38 6 56l441 -4l403 4q16 -18 28.5 -57t12.5 -66l-446 4l-416 -4q-29 29 -29 67z" />
<glyph unicode="&#x3e;" horiz-adv-x="1120" d="M127 95q0 38 10 95l637 365v8l-637 363q-8 25 -8 81t8 66l824 -452q2 -6 2 -20.5t-8.5 -63t-20.5 -60.5l-797 -436q-10 16 -10 54z" />
<glyph unicode="?" horiz-adv-x="778" d="M207 592q0 139 137 223q170 102 207 137t37 102.5t-57.5 117t-147.5 49.5l-145 -13q-27 12 -27 156q0 27 15.5 39t74.5 12t121 -26q133 -57 205.5 -160t72.5 -204t-36.5 -166.5t-133 -128t-134.5 -107.5t-38 -104.5t33 -94.5q-12 -27 -29 -27q-12 0 -77 41 q-20 14 -49 56.5t-29 97.5zM236 80q0 43 30.5 74.5t74.5 31.5t73.5 -27.5t29.5 -70.5t-30.5 -75.5t-74.5 -32.5t-73.5 28.5t-29.5 71.5z" />
<glyph unicode="@" horiz-adv-x="1726" d="M137 268.5q0 151.5 79 322.5t211 302t314.5 213t376.5 82q250 0 386 -134t136 -333q0 -135 -65.5 -274.5t-161.5 -241t-208.5 -166t-207.5 -64.5q-59 0 -59 68q0 47 59 274q-35 -61 -81 -127.5t-122.5 -136t-144 -69.5t-111.5 46t-44 126t24.5 180t52.5 164 q59 129 162 226t234 97q59 0 127 -61l24 80q57 27 125 26q-131 -719 -131 -732t21 -13q90 0 209.5 166t119.5 411q0 197 -107.5 294.5t-293.5 97.5q-176 0 -365 -125q-102 -66 -183 -160t-134 -242.5t-53 -322.5q0 -258 134 -415t351 -157q2 -2 2 -10q0 -45 -102 -45 q-150 0 -295 94q-172 111 -240 299q-39 109 -39 260.5zM664 244q0 -111 62 -111t212 193q96 127 113 290v17q0 43 -25 73.5t-68 30.5q-113 0 -203.5 -160.5t-90.5 -332.5z" />
<glyph unicode="A" horiz-adv-x="1486" d="M10 94h13q94 10 144 52t85 139l434 1169h98l484 -1202q43 -100 76.5 -131t109.5 -31l23 -90q-160 10 -288 10t-249 -10l-18 88h8q162 2 162 57q0 27 -148 365h-510l-100 -279q-6 -25 -6 -43q0 -43 39 -65.5t133 -28.5l24 -94l-280 8l-213 -8zM473 616h424l-227 541z" />
<glyph unicode="B" horiz-adv-x="1271" d="M61 1460l252 -6l338 8q442 0 443 -325q0 -236 -250 -340q-4 0 -4 -4.5t4 -4.5q127 -14 241.5 -114.5t114.5 -249.5q0 -207 -140 -319.5t-411 -112.5l-334 8l-227 -6l-16 90q115 12 140.5 23.5t25.5 56.5v1126q0 41 -30 56.5t-128 23.5zM424 221q0 -137 191.5 -137 t274.5 89t83 216q0 176 -106.5 243.5t-280.5 67.5h-142q-20 0 -20 -22v-457zM424 817q0 -20 20 -22h119q156 0 236 79.5t80 220t-79 206t-210 65.5t-148.5 -11.5t-17.5 -23.5v-514z" />
<glyph unicode="C" horiz-adv-x="1560" d="M106 698q0 360 222.5 570.5t574.5 210.5q129 0 306 -36t196 -38q14 -31 14 -137.5t-10 -218.5l-57 6q-16 119 -68 184q-111 141 -394.5 141t-425.5 -177t-142 -456.5t165.5 -474t430.5 -194.5q362 0 491 313l59 -12q0 -23 -39.5 -155t-58.5 -132q-207 -117 -493 -117 q-342 0 -556.5 203t-214.5 520z" />
<glyph unicode="D" horiz-adv-x="1644" d="M57 1458l252 -6l424 4q391 0 610.5 -186.5t219.5 -522t-225.5 -544.5t-639.5 -209l-387 6l-227 -6l-16 90q115 12 140 23.5t25 56.5v1124q0 41 -29.5 56.5t-127.5 23.5zM420 264q0 -41 3 -59.5t18.5 -44t50.5 -35.5q90 -27 264 -27q286 0 439 161t153 463t-173.5 470 t-492.5 168h-158q-104 0 -104 -41v-1055z" />
<glyph unicode="E" horiz-adv-x="1329" d="M61 1460l256 -6h330l506 -2q14 -31 14 -137.5t-10 -218.5l-65 6q-25 145 -90.5 203.5t-198.5 58.5l-232 -2q-143 -6 -143 -33v-512q0 -20 21 -20h325q49 0 66.5 46t17.5 171l68 10l-4 -272l4 -252l-68 -11q0 121 -14.5 156t-69.5 35h-325q-20 0 -21 -18v-431 q0 -90 37 -113.5t162 -23.5h198q156 0 244 73t139 224l70 -12q0 -37 -53.5 -208t-75.5 -171l-522 -4q-53 0 -312 4l-227 -6l-16 90q115 12 140.5 23.5t29.5 56.5v1126q0 43 -29 57.5t-133 22.5z" />
<glyph unicode="F" horiz-adv-x="1177" d="M61 1460l256 -6h310l506 -2q14 -31 14 -137.5t-10 -218.5l-66 6q-25 145 -90.5 203.5t-198.5 58.5l-211 -2q-143 -6 -143 -33v-512q0 -20 21 -20h305q49 0 66.5 46t17.5 171l67 10l-4 -272l4 -252l-67 -11q0 121 -14.5 156t-69.5 35h-305q-20 0 -21 -18v-480 q0 -61 42 -79.5t177 -18.5l21 -88l-283 4q-27 0 -297 -6l-16 90q115 12 140.5 23.5t29.5 56.5v1126q0 43 -29 57.5t-133 22.5z" />
<glyph unicode="G" horiz-adv-x="1654" d="M102 716q0 341 227.5 552t573.5 211q123 0 295 -36t197 -38q14 -31 14 -137.5t-10 -218.5l-58 6q-16 119 -67 184.5t-155 104t-245 38.5q-262 0 -409.5 -179t-147.5 -439q0 -305 154 -495.5t432 -190.5q190 0 285 74q57 45 57 116v160q0 88 -45 113.5t-215 25.5l-18 90 q117 -8 298 -8t302 8l16 -90q-100 0 -126.5 -25.5t-26.5 -113.5v-162q0 -158 -13 -157q-236 -133 -543 -134q-360 0 -566 200t-206 541z" />
<glyph unicode="H" horiz-adv-x="1611" d="M61 84q115 12 140.5 23.5t25.5 56.5v1126q0 39 -25.5 55.5t-107.5 24.5l-18 90l239 -6l246 6l17 -90q-115 -12 -139.5 -23.5t-24.5 -56.5v-495h778v495q0 39 -27.5 55.5t-109.5 24.5l-19 90l246 -6l252 6l16 -90q-117 -12 -144.5 -23.5t-27.5 -56.5v-1126q0 -41 28 -56.5 t112 -23.5l18 -90l-242 6l-256 -6l-16 90q135 16 152.5 29.5t17.5 44.5v524h-778v-518q0 -41 26.5 -56.5t110.5 -23.5l18 -90l-239 6l-252 -6z" />
<glyph unicode="I" horiz-adv-x="722" d="M82 84q129 12 157.5 23.5t28.5 56.5v1126q0 43 -28.5 57.5t-126.5 22.5l-19 90l258 -6q2 0 273 6l16 -90q-129 -12 -157.5 -23.5t-28.5 -56.5v-1126q0 -43 28.5 -57.5t126.5 -22.5l19 -90l-258 6q-2 0 -273 -6z" />
<glyph unicode="J" horiz-adv-x="679" d="M0 -475q0 6 8 12q164 117 216 232.5t52 375.5v1145q0 43 -28.5 57.5t-126.5 22.5l-19 90l258 -6q2 0 273 6l16 -90q-129 -12 -157.5 -23.5t-28.5 -56.5v-1175q0 -217 -109.5 -384t-302.5 -255q-16 0 -28 14q-23 29 -23 35z" />
<glyph unicode="K" horiz-adv-x="1437" d="M61 84q115 12 140.5 23.5t25.5 56.5v1126q0 39 -25.5 55.5t-107.5 24.5l-18 90l239 -6l246 6l17 -90q-115 -12 -139.5 -23.5t-24.5 -56.5v-561q109 88 312.5 304t227.5 241q29 35 29 47q0 45 -119 53l-24 88l280 -8l213 8l21 -88h-13q-68 0 -139.5 -25.5t-114.5 -72.5 l-450 -479l604 -654q78 -72 170 -80l27 -69q-111 4 -152 4l-205 -4l-524 588q-82 96 -143 108v-526q0 -41 26.5 -56.5t110.5 -23.5l18 -90l-239 6l-252 -6z" />
<glyph unicode="L" horiz-adv-x="1257" d="M61 1458l263 -6l254 6l16 -90q-115 -12 -140.5 -23.5t-25.5 -56.5v-1057q0 -84 35 -110.5t102 -26.5h199q156 0 244 73t139 224l70 -12q0 -37 -53.5 -208t-76.5 -171l-522 -4l-250 4l-227 -6l-16 90q117 12 143.5 24.5t26.5 55.5v1124q0 43 -29 57.5t-133 22.5z" />
<glyph unicode="M" horiz-adv-x="2015" d="M61 1460l252 -6q111 0 150 6q20 -57 140 -307t141.5 -302t134 -267t149.5 -271q18 35 126 281t124 285q53 104 156.5 328.5t103.5 250.5q39 -4 95.5 -4t301.5 6l19 -86q-195 -12 -195 -100v-1110q0 -43 32 -57.5t144 -22.5l19 -90q-264 6 -303 6l-232 -6l-16 90 q117 12 143.5 24.5t26.5 55.5v1077l-586 -1241l-29 -6l-598 1239v-1055q0 -45 34 -65.5t143 -28.5l18 -90l-240 6l-231 -6l-16 90q109 12 139.5 29.5t30.5 64.5v1114q0 41 -30 56.5t-128 23.5z" />
<glyph unicode="N" horiz-adv-x="1628" d="M61 1462l252 -6q55 0 115 6q0 -33 424 -563q338 -414 422 -547v940q0 43 -32 57.5t-144 22.5l-19 90l240 -6l231 6l17 -90q-117 -12 -143.5 -24.5t-26.5 -55.5l2 -1298q-14 2 -53 2t-54 -2l-932 1202v-1034q0 -43 31 -57.5t144 -22.5l18 -90l-238 6l-231 -6l-16 90 q117 12 143.5 24.5t26.5 55.5v1130q0 41 -30 56.5t-128 23.5z" />
<glyph unicode="O" horiz-adv-x="1665" d="M82 700.5q0 323.5 222 551t546 227.5t528.5 -204t204.5 -529.5t-217 -548t-541.5 -222.5t-533.5 201t-209 524.5zM297 786q0 -283 137 -487q68 -102 184 -161.5t263 -59.5q227 0 357 167t130 421q0 424 -254 616q-131 100 -319 100q-227 0 -362.5 -172t-135.5 -424z" />
<glyph unicode="P" horiz-adv-x="1146" d="M61 1460l252 -6q270 8 308 8q231 0 371.5 -92t140.5 -301t-154 -312.5t-395 -103.5q-57 0 -88 11q-25 20 -25 69q0 12 6 19q18 -6 80 -7q176 0 278.5 88.5t102.5 241t-94 222t-252 69.5q-133 0 -150.5 -11.5t-17.5 -23.5v-1149q0 -61 42 -79.5t177 -18.5l21 -88l-283 4 q-27 0 -297 -6l-16 90q115 12 140 23.5t30 56.5v1126q0 41 -30 56.5t-128 23.5z" />
<glyph unicode="Q" d="M82 707q0 317 222 544.5t546 227.5t528.5 -204t204.5 -536q0 -256 -144.5 -454.5t-375.5 -274.5q-27 -8 -74 -12q227 -45 445 -160q76 -41 189.5 -71.5t199.5 -30.5q168 0 288 49q2 2 7.5 2t9.5 -4l41 -51q-201 -127 -457 -127q-123 0 -239.5 29.5t-186 63.5t-174 91 t-210 106.5t-330 117t-357.5 251t-133 443.5zM297 786q0 -283 137 -487q68 -102 184 -161.5t263 -59.5q227 0 357 167t130 421q0 424 -254 616q-131 100 -319 100q-227 0 -362.5 -172t-135.5 -424z" />
<glyph unicode="R" horiz-adv-x="1429" d="M61 1460l246 -6l314 8q225 0 368.5 -96t143.5 -295q0 -293 -297 -395q43 -57 135 -184q199 -283 269.5 -348.5t162.5 -73.5l27 -72l-152 6l-205 -4q-39 53 -206 307t-224 324q-8 8 -22 8h-197v-475q0 -41 37 -56.5t141 -23.5l19 -90q-264 6 -271 6l-262 -6l-16 90 q115 12 140.5 23.5t25.5 56.5v1126q0 41 -30 56.5t-128 23.5zM424 737q47 -6 135 -6q379 0 379 338q0 147 -96.5 222t-249.5 75q-133 0 -150.5 -11.5t-17.5 -23.5v-594z" />
<glyph unicode="S" horiz-adv-x="1124" d="M82 418l94 14q82 -354 379 -354q141 0 218 71.5t77 174t-75 175t-182.5 126t-215 111t-182 152.5t-74.5 222q0 182 131 275.5t311 93.5q231 0 398 -78q14 -31 14 -161t-8 -196l-64 5q-8 143 -99 238t-247 95q-111 0 -181.5 -56t-70.5 -157q0 -119 146 -206 q63 -39 141 -78t155.5 -83t141.5 -97q145 -119 145 -302.5t-127 -305.5t-336 -122t-434 84q-10 31 -28.5 153t-26.5 206z" />
<glyph unicode="T" horiz-adv-x="1396" d="M68 1293.5q0 125.5 14 174.5q45 -14 162 -14h919q119 0 160 14q8 -88 8 -188t-16 -184l-62 6q-18 143 -85.5 201.5t-219.5 58.5h-164v-1194q0 -43 34 -57.5t155 -22.5l18 -90q-264 6 -282.5 6t-288.5 -6l-17 90q137 12 166 23.5t29 56.5v1194h-127q-102 0 -152 -10 q-141 -29 -180 -252l-57 -4q-14 72 -14 197.5z" />
<glyph unicode="U" horiz-adv-x="1544" d="M47 1460l240 -6l245 6l17 -90q-115 -12 -140.5 -23.5t-25.5 -56.5v-753q0 -459 461 -459q180 0 270 112.5t90 315.5v782q0 43 -31.5 57.5t-144.5 22.5l-18 90l239 -6l232 6l16 -90q-117 -12 -143.5 -24.5t-26.5 -55.5v-762q0 -551 -522 -551q-299 0 -453.5 128 t-154.5 409v778q0 41 -25 56.5t-106 23.5z" />
<glyph unicode="V" horiz-adv-x="1474" d="M25 1454q160 -10 287.5 -10t248.5 10l19 -88h-9q-161 -2 -161 -56q0 -21 14 -53l367 -960l335 926q6 25 7 43q0 90 -172 100l-25 88l281 -8l213 8l20 -88h-12q-92 -10 -143.5 -54t-86.5 -143l-434 -1169h-98l-443 1202q-47 100 -79.5 131t-106.5 31z" />
<glyph unicode="W" horiz-adv-x="2166" d="M25 1454q160 -10 287.5 -10t248.5 10l19 -88h-9q-161 -2 -161 -56q0 -21 14 -53l367 -960l233 639l-98 266q-47 100 -80 131t-107 31l-22 90q160 -10 288 -10t248 10l19 -88h-8q-162 -2 -162 -57q0 -20 14 -52l367 -960l336 926q6 25 6 43q0 43 -39 65.5t-133 28.5 l-25 94l281 -8l213 8l20 -94h-12q-94 -10 -144.5 -52t-84.5 -139l-435 -1169h-98l-295 801l-299 -801h-98l-443 1202q-47 100 -79.5 131t-106.5 31z" />
<glyph unicode="X" horiz-adv-x="1445" d="M14 82h13q145 0 202 88l402 532l-348 506q-61 90 -105.5 123t-111.5 33l-23 90q160 -10 288 -10t249 10l18 -90h-8q-147 0 -148 -53q0 -23 19 -54l287 -423l282 395q27 39 27 65q0 57 -139 70l-25 90l266 -8l227 8l21 -90h-12q-137 0 -203 -88l-385 -516l385 -522 q72 -94 111.5 -125t105.5 -31l23 -90q-160 10 -288 10t-249 -10l-18 90h8q147 0 147 53q0 23 -18 53l-326 437l-297 -408q-29 -35 -29 -61q0 -57 142 -74l24 -90l-266 8l-227 -8z" />
<glyph unicode="Y" horiz-adv-x="1441" d="M0 1454q160 -10 288 -10t249 10l18 -90h-8q-147 0 -148 -53q0 -23 19 -54l352 -495l295 467q27 39 27 65q0 57 -140 70l-24 90l266 -8l227 8l21 -90h-12q-141 0 -203 -88l-402 -594v-518q0 -43 31 -57.5t137 -22.5l19 -90l-258 6q-2 0 -273 -6l-16 90q125 12 149.5 23.5 t24.5 56.5v481l-399 563q-61 90 -105.5 123t-111.5 33z" />
<glyph unicode="Z" horiz-adv-x="1470" d="M102 18q942 1333 942 1338.5t-14 5.5h-459q-102 0 -153 -10q-139 -29 -178 -252l-58 -4q-14 72 -14 197.5t14 174.5q43 -14 162 -14h846q92 0 151 16q10 -16 11 -36q-508 -700 -712 -1001.5t-208 -323.5q0 -4 4 -5h613q106 0 156 66t69 223l84 6q10 -113 10 -226.5 t-14 -178.5q-158 6 -426 6h-631q-119 0 -184 -18q-10 16 -11 36z" />
<glyph unicode="[" horiz-adv-x="688" d="M205 -657v2316q0 20 18 20q227 0 518 13l17 -99q-322 -16 -348 -26q-18 -8 -21 -21v-2093q0 -18 53 -26q88 -10 314 -19l-15 -98q-242 12 -516 12q-20 0 -20 21z" />
<glyph unicode="\" horiz-adv-x="763" d="M-61 1516q14 4 32 4q86 0 103 -23l612 -1595q-18 -8 -39 -8q-57 0 -88 12z" />
<glyph unicode="]" horiz-adv-x="688" d="M-70 1593l17 99q291 -12 518 -13q18 0 18 -20v-2316q0 -20 -20 -21q-270 0 -516 -12l-15 98q315 10 355 29q12 6 12 16v2093q0 20 -41 27q-51 8 -328 20z" />
<glyph unicode="^" horiz-adv-x="1705" d="M109 637l374 778l113 4q8 0 14 -16l383 -741q0 -8 -8 -17.5t-63 -28.5l-383 633l-359 -657q-55 18 -63 27.5t-8 17.5z" />
<glyph unicode="_" horiz-adv-x="1136" d="M2 -76q0 37 4 53l582 -4l528 4q37 -37 37 -110l-567 4l-559 -4q-25 20 -25 57z" />
<glyph unicode="`" horiz-adv-x="544" d="M82 1395q0 14 78.5 42.5t113.5 28.5l179 -370q0 -8 -12.5 -21.5t-34.5 -19.5z" />
<glyph unicode="a" horiz-adv-x="921" d="M94 190.5q0 104.5 97.5 161t383.5 109.5v123q0 221 -165 221q-57 0 -109 -29v-139q0 -10 -54 -20.5t-71.5 -10.5t-34.5 4q-16 16 -16 73.5t33 94.5q31 41 147.5 84t181.5 43q258 0 258 -291v-409q0 -66 26 -84.5t65 -18.5h43q10 0 14 2q8 -53 14 -65q-25 -12 -111.5 -38 t-127.5 -26t-57.5 30t-24.5 106q-35 -49 -103.5 -90t-138.5 -46h-10q-98 0 -169 55.5t-71 160zM281 213q4 -63 43 -93t96 -30q104 0 155 70v229q-176 -31 -235 -68.5t-59 -107.5z" />
<glyph unicode="b" horiz-adv-x="1085" d="M4 1444q59 14 157.5 50t129.5 56q37 0 37 -16l2 -760q37 51 114.5 91t173.5 40q176 0 283 -119.5t107 -327.5t-117 -345.5t-328 -137.5q-158 0 -268 62l-74 -55q-10 -6 -16 -7q-8 0 -35 7q-10 4 -7 19t3 345v907q0 80 -33 105.5t-65.5 25.5t-47.5 -2zM340 256 q0 -90 62.5 -140t182.5 -50t178 98t58 261t-75.5 265.5t-191.5 102.5t-214 -82v-455z" />
<glyph unicode="c" horiz-adv-x="905" d="M78 422q0 238 132 360.5t331 122.5q86 0 175 -24.5t134 -61.5q2 -4 2 -8q0 -29 -64 -121q-8 -8 -21 -8t-49 34t-97.5 68.5t-141.5 34.5t-147.5 -87t-67.5 -244.5t82 -271.5t244 -114q129 0 213 84q4 4 10 4t10 -4l41 -47q-152 -164 -351.5 -164t-317 127t-117.5 320z" />
<glyph unicode="d" horiz-adv-x="1110" d="M78 403q0 242 131 372t315 130q125 0 224 -47v412q0 121 -111 121q-27 0 -53 -7l-19 62q211 61 320 110q37 0 37 -38v-1282q0 -133 90 -134h24l35 2l14 -65l-145 -25q-51 -10 -149 -39q-27 0 -27 17l-6 123q-37 -51 -121 -95.5t-178 -44.5q-168 0 -274.5 116t-106.5 312z M264 458q0 -165 77 -266.5t198 -101.5q49 0 91 15.5t56 25.5q18 12 62 43v451q0 90 -63.5 142t-182.5 52t-178.5 -98t-59.5 -263z" />
<glyph unicode="e" horiz-adv-x="940" d="M78 441q0 212 131 338t299 126t264 -101.5t96 -283.5q0 -22 -10 -22h-594v-27q0 -150 84 -259.5t223.5 -109.5t229.5 91q6 6 10 6t10 -6l45 -52q-154 -166 -355.5 -166t-317 127t-115.5 339zM270 594h394q0 225 -175 225q-92 0 -149 -64.5t-70 -160.5z" />
<glyph unicode="f" horiz-adv-x="811" d="M82 819q100 12 135 25q10 2 10 26v45q0 375 215 547q115 94 283 94q61 0 124.5 -27.5t63.5 -47.5q-16 -66 -69 -146q-8 -8 -21 -8q-147 98 -244.5 98t-137.5 -93t-40 -353v-100q0 -27 27 -27l219 6q6 -14 6 -37.5t-14 -64.5h-215q-20 0 -21 -31v-4v-574q0 -35 34 -49 t116 -20l18 -82l-221 6q-2 0 -241 -6l-17 82q98 8 117.5 17t19.5 52v572q0 37 -22 37h-111q-14 29 -14 63z" />
<glyph unicode="g" horiz-adv-x="978" d="M25 -270q0 66 29.5 95.5t63.5 56t79 59t53 39.5q-51 20 -92 64t-41 79t16 51q41 41 152 117q-82 37 -137.5 108.5t-55.5 167.5q0 145 102.5 241.5t247.5 96.5q80 0 148 -20q90 -18 180 -19h20q79 0 148 4q0 -20 -8 -66t-23 -65l-155 29q49 -76 49 -170 q0 -152 -102.5 -243t-247.5 -91q-33 0 -67 3h-9q-29 0 -59 -17q-35 -21 -35 -49q0 -49 84 -74q49 -12 198.5 -26.5t206.5 -39.5q125 -53 125 -212.5t-142.5 -278.5t-346.5 -119q-152 0 -266.5 68.5t-114.5 210.5zM188 -225q0 -94 77 -157.5t192.5 -63.5t189.5 62t74 156.5 t-84 138.5t-262 44q-47 0 -80 -20.5t-49.5 -33t-37 -47t-20.5 -79.5zM248 604.5q0 -108.5 61.5 -179.5t153.5 -71q182 0 182 209q0 117 -54 186.5t-148.5 69.5t-144.5 -53t-50 -161.5z" />
<glyph unicode="h" horiz-adv-x="1150" d="M31 1448q160 41 293 108q25 0 31.5 -7t9.5 -31v-732q72 41 110 62q104 57 215 57q291 0 291 -305v-455q0 -37 18.5 -50t90.5 -19l18 -82l-201 6l-221 -6l-16 82q98 8 117.5 17t19.5 52v385q0 131 -52.5 184.5t-166 53.5t-223.5 -53v-570q0 -37 18 -50t90 -19l19 -82 l-201 6l-221 -6l-17 82q98 8 117.5 17t19.5 52v1115q0 74 -26.5 102.5t-83.5 28.5l-31 -2z" />
<glyph unicode="i" horiz-adv-x="600" d="M61 825q133 33 170 47l125 50q27 0 33 -5.5t6 -27.5v-744q0 -37 18.5 -50t90.5 -19l18 -82l-200 6l-222 -6l-16 82q98 8 117.5 17t19.5 52v521q0 102 -102 102q-25 0 -39 -2zM190 1278q0 51 35 88t87.5 37t86 -31t33.5 -83t-36 -89t-87 -37t-85 32t-34 83z" />
<glyph unicode="j" horiz-adv-x="528" d="M-33 -499q0 5 10 12q127 115 179.5 260t52.5 338v555q0 102 -111 102q-39 0 -69 -8l-19 65q162 35 215.5 49.5t120.5 47.5q27 0 33 -5.5t6 -27.5l-2 -780q0 -215 -109 -395.5t-254 -262.5q-16 0 -34.5 22.5t-18.5 27.5zM168 1278q0 51 35 88t87 37t86 -31t34 -83t-36 -89 t-87 -37t-85 32t-34 83z" />
<glyph unicode="k" horiz-adv-x="1044" d="M31 1448q158 47 297 108q37 0 37 -38v-1024q63 35 185 161.5t122 147t-14.5 26t-71.5 5.5l-19 77l207 -6q39 0 187 6l16 -75h-8q-68 0 -103 -12.5t-67 -47.5l-238 -250q-6 -6 0 -14q49 -72 150.5 -186.5t179.5 -183t166 -76.5l26 -72l-151 6q-70 0 -164 -4 q-70 92 -165 210t-124 154q-66 84 -114 95v-310q0 -37 15 -50t73 -19l18 -82l-180 6l-221 -6l-17 82q98 8 117.5 17t19.5 52v1127q0 68 -23.5 92.5t-63.5 24.5t-54 -3z" />
<glyph unicode="l" horiz-adv-x="540" d="M31 1448q158 47 297 108q37 0 37 -38v-1373q0 -37 20.5 -50t91.5 -19l19 -82l-205 6l-221 -6l-17 82q98 8 117.5 17t19.5 52v1127q0 68 -23.5 92.5t-63.5 24.5t-54 -3z" />
<glyph unicode="m" horiz-adv-x="1720" d="M59 813q143 35 211 70t76 39q27 0 31 -4q8 -8 12 -132q164 119 297 119q176 0 246 -123q172 123 319 123q297 0 297 -305v-455q0 -37 18.5 -50t90.5 -19l18 -82l-200 6l-222 -6l-16 82q98 8 117.5 17t19.5 52v385q0 131 -51 183.5t-158.5 52.5t-203.5 -68q10 -51 10 -98 v-455q0 -37 18.5 -50t89.5 -19l19 -82l-201 6l-221 -6l-17 82q98 8 118 17t20 52v385q0 131 -50.5 184.5t-148.5 53.5t-205 -57v-566q0 -37 18.5 -50t90.5 -19l18 -82l-201 6l-221 -6l-16 82q98 8 117.5 17t19.5 52v480q0 74 -26.5 102.5t-83.5 28.5l-31 -2z" />
<glyph unicode="n" horiz-adv-x="1181" d="M59 813q143 35 211 70t76 39q27 0 31 -4q8 -8 12 -132q98 59 173 89t163 30q285 0 285 -305v-455q0 -37 18.5 -50t89.5 -19l19 -82l-201 6l-221 -6l-17 82q98 8 118 17t20 52v385q0 131 -51.5 182.5t-162 51.5t-229.5 -57v-562q0 -37 18.5 -50t90.5 -19l18 -82l-201 6 l-221 -6l-16 82q98 8 117.5 17t19.5 52v480q0 74 -26.5 102.5t-83.5 28.5l-31 -2z" />
<glyph unicode="o" horiz-adv-x="1083" d="M78 425q0 202 132 341t333.5 139t332 -126t130.5 -327.5t-134.5 -339t-335 -137.5t-329.5 124t-129 326zM264 468q0 -161 79 -280.5t213 -119.5t198.5 92t64.5 259t-85 283.5t-216 116.5t-192.5 -95t-61.5 -256z" />
<glyph unicode="p" horiz-adv-x="1112" d="M31 815q59 14 157.5 50t128.5 57q35 0 39 -17v-131q37 51 115 91t174 40q176 0 282.5 -119.5t106.5 -306.5q0 -231 -111.5 -367.5t-322.5 -136.5q-131 0 -233 58v-410q0 -37 30.5 -53t126.5 -16l19 -82l-238 6l-233 -6l-17 82q98 8 118 17t20 52v1002q0 72 -29 101.5 t-86 29.5l-31 -2zM367 260q0 -90 63.5 -141t182 -51t178 97t59.5 260t-77 265.5t-189.5 102.5t-216.5 -86v-447z" />
<glyph unicode="q" horiz-adv-x="1085" d="M78 403q0 242 131 372t315 130q137 0 273 -65l84 75q10 6 16 7h1q8 0 56 -7q8 -2 7 -16q-23 -113 -25 -258v-1018q0 -37 18.5 -50t89.5 -19l19 -82l-225 6l-238 -6l-16 82q109 4 143.5 17t34.5 52v490q-37 -51 -118 -94.5t-175 -43.5q-168 0 -279.5 117t-111.5 311z M264 458q0 -165 77 -267.5t198 -102.5q49 0 94 16.5t60.5 27.5t54.5 42v444q0 92 -63.5 146.5t-183.5 54.5t-178.5 -98t-58.5 -263z" />
<glyph unicode="r" horiz-adv-x="776" d="M61 813q143 35 211 70t76 39q27 0 33 -4q2 -4 12 -156q121 143 240 143t143 -47q0 -45 -71 -137q-23 -31 -27 -31l-164 60h-12q-45 0 -76 -45.5t-31 -126.5v-433q0 -37 31 -53t127 -16l18 -82l-237 6l-234 -6l-16 82q98 8 117.5 17t19.5 52v480q0 74 -26.5 102.5 t-83.5 28.5l-31 -2z" />
<glyph unicode="s" horiz-adv-x="804" d="M78 274v11l96 8q32 -225 227 -225q168 0 168 135q0 57 -50 95t-120.5 63.5t-142.5 56.5t-122 92t-50 164.5t91 168t218 64.5t277 -47q20 -12 20 -90t-12 -139l-82 8q-10 82 -63.5 132t-130 50t-120.5 -32.5t-44 -86t50 -90.5t121.5 -60.5t144.5 -51t123 -91t50 -172 t-89 -185.5t-228.5 -77t-305.5 62q-10 6 -18 94t-8 143z" />
<glyph unicode="t" horiz-adv-x="667" d="M31 838q86 27 140 86t105 159h23q14 0 14 -12l9 -164q0 -27 26 -26h234l18 -103h-256q-20 0 -20 -30v-3v-4l-2 -452q0 -99 34.5 -151t95 -52t111.5 33q8 4 17 -4l36 -56q-113 -84 -232.5 -84t-178 75t-58.5 177v514q0 25 -7 31t-19 6h-72z" />
<glyph unicode="u" horiz-adv-x="1142" d="M31 887q55 -6 150 -6t151 6v-533q0 -237 215 -237h2q57 0 116.5 23.5t94.5 58.5v540q0 37 -19.5 49.5t-89.5 20.5l-18 78q51 -6 150.5 -6t150.5 6v-658q0 -68 21.5 -98.5t70.5 -30.5h74l14 -65q-25 -4 -89 -13.5t-89 -13.5t-69 -17.5t-66 -17.5q-27 0 -27 15l-6 127 q-33 -33 -45 -42.5t-33.5 -25.5t-45 -26.5t-54.5 -20.5q-61 -25 -139 -25q-293 0 -293 310v454q0 35 -20.5 48.5t-92.5 21.5z" />
<glyph unicode="v" horiz-adv-x="985" d="M-45 889q106 -8 235 -8t236 8l16 -74h-8q-137 -2 -137 -49q0 -18 12 -43l213 -510l232 514q12 29 12 39q0 41 -107 43l-18 78l180 -6l142 6l16 -76h-8q-59 -6 -82 -29.5t-53 -91.5l-316 -690h-84l-305 676q-39 86 -66.5 111.5t-91.5 25.5z" />
<glyph unicode="w" horiz-adv-x="1562" d="M-45 889q106 -8 227 -8t228 8l16 -74h-8q-137 -2 -137 -49q0 -18 12 -43l219 -522l207 450q-49 117 -70.5 139.5t-85.5 22.5l-18 76q106 -8 220 -8t220 8l16 -74h-8q-137 -2 -137 -49q0 -10 12 -43l219 -522l244 526q12 29 12 39q0 41 -106 43l-18 78l180 -6l141 6 l16 -76h-8q-59 -6 -81.5 -29.5t-53.5 -91.5l-315 -690h-84l-246 543l-248 -543h-84l-305 676q-39 86 -66.5 111.5t-91.5 25.5z" />
<glyph unicode="x" horiz-adv-x="1067" d="M16 889q106 -8 239.5 -8t240.5 8l16 -80h-37q-43 0 -54 -19.5t13 -54.5l146 -178l165 205q16 23 17 31q0 16 -49 16h-19l-18 78l180 -6q14 0 162 6l16 -78h-24q-121 0 -158 -61l-203 -273l301 -350q51 -53 107 -53l18 -78q-80 6 -239.5 6t-239.5 -6l-16 78q84 0 104.5 9 t32.5 17q9 8 9 21q0 18 -19 45l-183 225l-198 -258q-12 -16 -13 -27q0 -32 77 -32h5h11l18 -78q-215 6 -225.5 6t-157.5 -6l-16 78h8q72 0 103.5 12t66.5 59l254 322l-219 258q-45 57 -84 71.5t-109 14.5h-10z" />
<glyph unicode="y" horiz-adv-x="968" d="M-41 889q106 -8 235.5 -8t235.5 8l16 -74h-8q-137 -2 -137 -49q0 -18 12 -43l203 -510l211 514q12 29 12 39q0 41 -106 43l-19 78l191 -6l141 6l17 -76h-9q-59 -8 -86.5 -31.5t-52.5 -87.5l-414 -983q-92 -190 -172 -233q-43 -23 -111.5 -23t-109.5 35q0 29 26.5 85 t35.5 56q31 -6 99.5 -6t140 123t120.5 260l-295 670q-39 86 -66.5 111.5t-91.5 25.5z" />
<glyph unicode="z" horiz-adv-x="923" d="M61 31q443 667 531 755q0 8 -8 9h-78q-145 0 -200.5 -12.5t-76.5 -37.5q-43 -53 -65 -170l-74 15q0 39 11.5 142.5t31.5 172.5q83 -26 322 -26h18h123q141 0 238 8q10 -16 10 -37l-520 -735q-4 -10 8 -11h209q127 0 162.5 44.5t62.5 201.5l70 6q10 -113 10 -208t-15 -154 q-238 6 -411 6l-348 -6q-10 16 -11 37z" />
<glyph unicode="{" horiz-adv-x="876" d="M113 584q0 6 10 10q246 16 246 211q0 49 -33 229t-33 199q0 164 127 243.5t289 79.5h24q18 -8 25 -53q2 -20 -14 -22q-276 -45 -277 -242q0 -47 39 -178t39 -191.5t-23.5 -120t-94 -115.5t-177.5 -67q-2 -2 6 -10q143 -39 216 -128t73 -180t-37 -210t-38 -144.5t-1 -35.5 q0 -88 58.5 -162t201.5 -88q16 -2 15 -23q-6 -45 -25 -53q-199 23 -311.5 129.5t-112.5 239.5q0 57 32 182t32 167t-5.5 74.5t-27.5 73.5q-41 80 -207 121q-10 4 -13 11.5t-3 52.5z" />
<glyph unicode="|" horiz-adv-x="520" d="M205 -545v2067q43 35 110 34v-2074q-22 -27 -110 -27z" />
<glyph unicode="}" horiz-adv-x="876" d="M115 1503q6 45 24 53h25q162 0 289 -79.5t127 -243.5q0 -18 -33 -198.5t-33 -229.5q0 -195 246 -211q10 -4 10 -10q0 -45 -4 -52.5t-12 -11.5q-166 -41 -209 -121q-31 -61 -31 -125.5t33 -189.5t33 -182q0 -133 -114 -239.5t-312 -129.5q-18 8 -25 53q-2 20 14 23 q143 16 203 89t60 165q0 8 -1.5 32.5t-39 143.5t-37.5 210t72.5 180t215.5 128q6 8 7 10q-106 10 -177 68q-119 92 -118 229q0 66 39 197t39 178q0 197 -277 242q-16 2 -14 22z" />
<glyph unicode="~" horiz-adv-x="1267" d="M170 328q0 123 57.5 221t184.5 98q84 0 177 -61.5t175 -123t135 -61.5q100 0 100 242q49 0 97 -29q6 -8 6 -57q0 -100 -58.5 -191.5t-146.5 -91.5t-182 61.5t-176 123t-131.5 61.5t-79 -20.5t-41.5 -59.5q-18 -59 -19 -143q-29 -10 -52 -10t-44 6q-2 6 -2 35z" />
<glyph unicode="&#xa1;" horiz-adv-x="653" d="M221 -438l66 909q0 14 14 14l61 4q6 0 7 -16l84 -911q-18 -8 -91 -33t-96 -29q-31 0 -41 23q-4 6 -4 39zM221 821q0 43 31 76t75 33t73.5 -29t29.5 -72t-30.5 -74.5t-74.5 -31.5t-74 27.5t-30 70.5z" />
<glyph unicode="&#xa2;" horiz-adv-x="905" d="M78 543q0 233 139 358t338 125l23 180q10 10 35.5 10.5t43.5 -6.5l-24 -188q240 -27 239 -72q0 -18 -26.5 -72.5t-57.5 -54.5q-14 0 -65 39t-102 58l-86 -693q12 -4 66 -4t119.5 23.5t102.5 60.5q4 4 10.5 4t10.5 -4l41 -47q-72 -78 -171.5 -120t-195.5 -44l-24 -209 q-8 -23 -45 -22.5t-41 2.5l28 235q-168 25 -263 145t-95 296zM264 630q0 -138 48 -237.5t143 -142.5l88 688q-14 2 -43 2q-94 0 -165 -86t-71 -224z" />
<glyph unicode="&#xa3;" horiz-adv-x="1153" d="M51 754h215q-16 182 -16 211q0 174 106 303q125 150 349 149q63 0 125.5 -22.5t62.5 -44.5q-16 -66 -70 -146q-8 -8 -20 -8q-147 98 -234 98q-109 0 -135 -94q-10 -39 -10 -119q0 -68 35 -327l358 2q8 -8 18.5 -41t4.5 -56h-367l4 -124q0 -61 -23.5 -122t-45 -92.5 t-37 -51t-37 -45t-33.5 -42.5q84 37 160 37q43 0 156.5 -64.5t179.5 -64.5h14q131 23 166 217q0 16 18 8l58 -24q-23 -168 -116 -260t-224 -92q-61 0 -147.5 38.5t-143.5 77.5q-90 59 -143.5 59.5t-65.5 -24t-12 -88.5q-4 -10 -11 -10q-33 -14 -100 -21q-8 2 -14 27t2 61.5 t37 65.5q94 96 131 166q43 80 43 176t-13 192h-186q-16 2 -27.5 34t-11.5 61z" />
<glyph unicode="&#xa4;" horiz-adv-x="1056" d="M57 233l168 181q-74 100 -73 243q0 190 120 308l-147 176q4 23 26.5 56.5t41.5 47.5q6 -12 36 -49q84 -100 136 -166q78 37 175 37t181 -47q125 152 153 180q55 0 117 -51l-182 -199q102 -106 102 -263t-82 -265l136 -160q0 -18 -27 -48t-55 -40q-123 158 -131 168 q-96 -72 -223.5 -72t-221.5 68l-149 -166h-14.5t-42 17.5t-44.5 43.5zM287 656q0 -130 63.5 -205.5t169 -75.5t181 95t75.5 220t-66.5 201t-167 76t-178 -90.5t-77.5 -220.5z" />
<glyph unicode="&#xa5;" horiz-adv-x="1249" d="M8 1395q150 -10 276 -10.5t238 10.5l19 -88h-9q-143 0 -143 -50q0 -20 19 -51l251 -411l207 385q18 39 18.5 60.5t-7.5 33.5q-23 29 -119 33l-25 88l256 -9l217 9l21 -88h-13q-152 0 -198 -82l-287 -492h305v2q8 -8 18.5 -40.5t4.5 -55.5h-338v-135h315v2q8 -8 18.5 -41 t4.5 -55h-338v-254q0 -37 29.5 -53.5t130.5 -20.5l18 -88l-248 6l-262 -6l-16 88q117 8 142.5 19.5t25.5 54.5v254h-297q-16 2 -27.5 33.5t-11.5 60.5h336v135h-297q-16 2 -27.5 34t-11.5 60h301l-266 426q-53 84 -97.5 116t-111.5 32z" />
<glyph unicode="&#xa6;" horiz-adv-x="520" d="M205 324q43 35 112 34v-794q-22 -27 -112 -27v787zM205 659v787q43 35 112 35v-795q-22 -27 -112 -27z" />
<glyph unicode="&#xa7;" horiz-adv-x="1024" d="M78 731q0 186 205 313q-4 29 -4 43q0 145 113.5 268.5t269.5 123.5q82 0 150.5 -30t68.5 -93q0 -27 -17.5 -81t-44.5 -54q-10 0 -35.5 32.5t-73.5 66.5t-120 34t-122 -44t-50 -113t47 -135.5t116.5 -123.5t151.5 -128t151.5 -136.5t117 -147.5t47.5 -164 q0 -236 -205 -358q2 -4 2 -20q0 -158 -114 -276t-306 -118q-96 0 -190.5 43t-94.5 94.5t17.5 106.5t46.5 55q14 0 49 -43t93.5 -87t141 -44t141 45t58.5 111t-45 130.5t-112.5 123.5t-147.5 131t-147.5 139.5t-112.5 150.5t-45 185zM223 808q0 -85 81 -185.5t181.5 -181.5 t204 -184t137.5 -185q76 76 76 192q0 82 -79 177.5t-177 170t-202.5 175t-141.5 186.5q-80 -80 -80 -165z" />
<glyph unicode="&#xa8;" horiz-adv-x="1003" d="M195 1239q0 51 35.5 88t88 37t86 -32t33.5 -84t-34.5 -89t-88 -37t-87 33t-33.5 84zM557 1239q0 51 35 88t87 37t86 -32t34 -84t-36 -89t-87 -37t-85 33t-34 84z" />
<glyph unicode="&#xa9;" horiz-adv-x="1517" d="M102 818.5q0 279.5 191.5 470t470 190.5t465 -189.5t186.5 -467t-191.5 -468t-468 -190.5t-465 187.5t-188.5 467zM184 824.5q0 -242.5 167 -406.5t416 -164t407.5 160.5t158.5 406.5t-167 409t-407.5 163t-407.5 -163t-167 -405.5zM375 817q0 176 114.5 283.5 t294.5 107.5q68 0 159 -17t104 -20q6 -16 6 -88.5t-6 -107.5l-52 6q0 86 -67 127q-59 39 -135 39q-109 0 -176.5 -93t-67.5 -223.5t73.5 -230.5t179 -100t159 35.5t86.5 111.5l30 -4q0 -12 -20.5 -80.5t-30.5 -68.5q-104 -59 -268 -59.5t-273.5 103t-109.5 279.5z" />
<glyph unicode="&#xaa;" horiz-adv-x="698" d="M104 1018.5q0 66.5 62.5 104.5t245.5 71v78q0 141 -105 141q-37 0 -69 -16v-90q-4 -4 -37 -12.5t-46.5 -8.5t-20.5 6t-7 41t18 64q18 25 94 53.5t119 28.5q166 0 166 -187v-264q0 -29 10.5 -45t19.5 -18t26 -2h26q8 0 10 2q4 -39 11 -45q-12 -6 -70.5 -21.5t-85.5 -15.5 q-43 0 -51 86q-20 -33 -64.5 -58.5t-89.5 -27.5h-8q-61 0 -107.5 34.5t-46.5 101zM223 1034q8 -78 83 -78t106 43v150q-113 -23 -151 -47.5t-38 -67.5z" />
<glyph unicode="&#xab;" horiz-adv-x="1042" d="M41 475q0 35 2 39q100 39 346 229q57 45 107.5 83t52.5 40q4 -10 4 -48t-4 -58l-305 -283v-4l305 -285q4 -12 4 -52t-4 -54q-35 35 -230.5 179.5t-259.5 160.5q-18 18 -18 53zM438.5 475q-0.5 35 1.5 39q94 35 383 268q100 82 103 84q4 -10 4 -48t-4 -58l-305 -283v-4 l317 -285q2 -10 -3 -52t-9 -54q-45 45 -225.5 184.5t-243.5 155.5q-18 18 -18.5 53z" />
<glyph unicode="&#xac;" horiz-adv-x="1343" d="M165.5 667.5q0.5 37.5 4.5 53.5l582 -4l370 4q20 0 21 -31l-4 -371l4 -258q-20 -25 -57.5 -24.5t-53.5 4.5l4 281l-4 274q0 14 -14 14l-268 4l-560 -4q-25 20 -24.5 57.5z" />
<glyph unicode="&#xad;" horiz-adv-x="571" d="M43 409.5q0 37.5 4 53.5l215 -4l215 4q37 -37 37 -111l-254 4l-192 -4q-25 20 -25 57.5z" />
<glyph unicode="&#xae;" horiz-adv-x="620" d="M10 1176q0 129 88 216t215 87t212 -86t85 -215t-87 -214t-216 -85t-213 84t-84 213zM70 1178.5q0 -103.5 70.5 -171t175 -67.5t172 65.5t67.5 172t-70.5 174t-172 67.5t-172 -68.5t-70.5 -172zM174 1333l53 -2l95 2q51 0 84.5 -20.5t33.5 -57.5q0 -59 -67 -77l80 -103 q23 -12 34 -14l7 -21q-14 2 -33 2h-62q-12 14 -45 64q-41 63 -45 63h-28v-92q0 -12 36 -16l7 -21l-72 2l-74 -2l-2 21q37 8 37 16v213q0 10 -35 15zM281 1200q6 -4 28 -4q63 0 64 59q0 49 -60 50q-32 -1 -32 -7v-98z" />
<glyph unicode="&#xaf;" horiz-adv-x="851" d="M198.5 1175q0.5 38 6.5 56l303 -4q82 0 123 4q16 -18 28.5 -57t12.5 -66h-445q-29 29 -28.5 67z" />
<glyph unicode="&#xb0;" horiz-adv-x="602" d="M72 1170.5q0 105.5 63.5 177t163.5 71.5t165.5 -66.5t65.5 -171t-65.5 -175t-164.5 -70.5t-163.5 64.5t-64.5 170zM164 1191q0 -69 41 -113t101.5 -44t95 33t34.5 103.5t-42 110.5t-100 40t-94 -30.5t-36 -99.5z" />
<glyph unicode="&#xb1;" horiz-adv-x="1179" d="M75.5 710.5q0.5 37.5 4.5 53.5l440 -4l-4 377q37 37 111 37l-4 -414l403 4q37 -37 37 -111l-440 4l4 -446q-20 -25 -57.5 -25t-53.5 4l4 467l-420 -4q-25 20 -24.5 57.5zM110.5 63q0.5 38 6.5 56l440 -4l404 4q16 -18 28 -57t12 -66l-446 4l-416 -4q-29 29 -28.5 67z" />
<glyph unicode="&#xb2;" horiz-adv-x="591" d="M61 913q10 10 36 31t42 35q45 39 109 115q123 145 123 262q0 47 -29 78.5t-82 31.5q-80 0 -139 -80q-8 0 -19.5 8.5t-11.5 20.5q27 63 82 102t135 39t137.5 -48t57.5 -136t-119 -221q-92 -111 -133 -154q-2 -2 0 -8l51 2h76q45 0 68.5 19.5t41.5 62.5l33 -16 q0 -43 -11 -100.5t-24 -88.5q-31 10 -155 11h-76q-137 0 -180 -5q-12 16 -13 39z" />
<glyph unicode="&#xb3;" horiz-adv-x="573" d="M96 1415q27 49 88.5 95t133 46t115.5 -36.5t44 -97t-41 -110.5t-102 -77l6 -6q47 -14 79 -29.5t59.5 -50.5t27.5 -84q0 -94 -94.5 -154.5t-191.5 -60.5t-114 16q-4 4 -4 23v18h58q94 0 154.5 45t60.5 113q0 100 -137 104q-51 0 -62 -4q-4 6 -4 45q193 84 193 170 q0 45 -26 67.5t-67 22.5q-78 0 -153 -79q-4 0 -13.5 9t-9.5 15z" />
<glyph unicode="&#xb4;" horiz-adv-x="520" d="M82 1096l178 370q35 0 92 -20q100 -37 101 -51l-324 -340q-23 6 -35 19.5t-12 21.5z" />
<glyph unicode="&#xb6;" horiz-adv-x="1118" d="M76 543.5q0 191.5 138 294t351 102.5h275l209 4l16 -90q-164 -16 -186.5 -31.5t-22.5 -48.5v-979h-123l2 1028h-14q-88 0 -88 -75l-10 -955h-123v338h-41q-168 0 -275.5 110.5t-107.5 302z" />
<glyph unicode="&#xb7;" horiz-adv-x="471" d="M117 442.5q0 49.5 34.5 85t86 35.5t83 -29.5t31.5 -80t-34.5 -87t-85 -36.5t-83 31.5t-32.5 81z" />
<glyph unicode="&#xb8;" horiz-adv-x="1705" d="M621 -412.5q0 19.5 6 19.5q205 20 204 121q0 45 -36.5 79.5t-122.5 40.5q-4 0 -15 27q0 27 99 162l63 -60l-45 -49q88 -23 132 -74t44 -108q0 -178 -321 -178q-8 0 -8 19.5z" />
<glyph unicode="&#xb9;" horiz-adv-x="477" d="M72 948q74 8 92 15.5t18 29.5l2 430q0 27 -14 38.5t-55 11.5h-19l-8 38q4 2 43 9q14 2 141 36q14 0 17.5 -3t3.5 -13v-547q0 -23 18.5 -31t75.5 -14l19 -71q-98 4 -154.5 4t-159.5 -4z" />
<glyph unicode="&#xba;" horiz-adv-x="724" d="M41 1169q0 129 86 219.5t215 90.5t212 -81t83 -211t-86 -218t-215 -88t-212 79.5t-83 208.5zM162 1202q0 -109 50 -185.5t138 -76.5q166 0 166 217q0 115 -54 190.5t-136 75.5q-164 0 -164 -221z" />
<glyph unicode="&#xbb;" horiz-adv-x="1042" d="M104 188l318 285v4l-305 283q-6 18 -6 57t6 49q2 -2 104 -84q287 -233 381 -268q2 -4 2 -13t-6 -38t-12 -41q-63 -16 -243.5 -155.5t-225.5 -184.5q-4 12 -9.5 54t-3.5 52zM487.5 817q-0.5 39 6.5 49q2 -2 52 -40t108.5 -83t125.5 -94q145 -106 219 -135q2 -4 2 -13 t-6 -38t-12 -41q-63 -16 -259 -160.5t-230 -179.5q-4 14 -4.5 54t4.5 52l305 285v4l-305 283q-6 18 -6.5 57z" />
<glyph unicode="&#xbc;" horiz-adv-x="1443" d="M131 692q76 4 94.5 10.5t18.5 24.5l2 483q0 47 -74 47h-31l-6 39q82 16 104.5 25.5t50 20t38.5 14.5q25 0 28.5 -4t3.5 -21l2 -602q0 -27 95 -35l10 -78l-160 2l-166 -2zM154 -74l936 1489q86 0 106 -20l-928 -1475q-10 -10 -26 -10q-59 0 -88 16zM735 274q2 10 2 13 l359 422q12 10 78 14q4 -25 4 -29q-12 -20 -13 -96v-281h52q33 0 81 17q8 -12 9 -39q0 -27 -23 -86q-43 14 -127 14v-248q-45 4 -57 5l-49 6l2 252h-281q-37 0 -37 36zM864 317h195v242z" />
<glyph unicode="&#xbd;" horiz-adv-x="1462" d="M131 692q76 4 94.5 10.5t18.5 24.5l2 483q0 47 -74 47h-31l-6 39q82 16 104.5 25.5t50 20t38.5 14.5q25 0 28.5 -4t3.5 -21l2 -602q0 -27 95 -35l10 -78l-160 2l-166 -2zM154 -74l936 1489q86 0 106 -20l-928 -1475q-10 -10 -26 -10q-59 0 -88 16zM811 41q115 92 205 195 q117 154 117 290q0 115 -117 115q-80 0 -144 -90q-6 -6 -25.5 -1t-12.5 17q31 70 92 119t144 49t142.5 -51t59.5 -131q0 -131 -125 -277q-53 -63 -152 -165h150q45 0 65.5 22.5t34.5 81.5l60 -20q0 -53 -9 -103q-16 -61 -28 -98q-33 6 -176 6h-76q-131 0 -195 -2 q-14 6 -10 43z" />
<glyph unicode="&#xbe;" horiz-adv-x="1525" d="M123 640.5q0 18.5 2 21.5h10q37 -4 55 -5q98 0 163 50.5t65 113t-42 93t-94.5 30.5t-74.5 -10q-8 33 -8 57l2 4q137 70 169.5 106t32.5 76t-25.5 60t-66.5 20q-88 0 -153 -81q-8 0 -18.5 16t-10.5 27q27 49 83 91t133 42t127 -41t50 -91.5t-22.5 -87t-45 -55t-65.5 -49.5 l-12 -12q178 -49 178 -182q0 -102 -105.5 -165t-206 -63t-108.5 8q-12 8 -12 26.5zM236 -74l935 1489q86 0 107 -20l-928 -1475q-10 -10 -26 -10q-59 0 -88 16zM817 274q2 10 2 13l359 422q11 10 77 14q4 -25 5 -29q-12 -20 -13 -96v-281h51q33 0 82 17q8 -12 9 -39 q0 -27 -23 -86q-43 14 -127 14v-248q-45 4 -57 5l-49 6l2 252h-281q-37 0 -37 36zM946 317h195v242z" />
<glyph unicode="&#xbf;" horiz-adv-x="724" d="M18 -117.5q0 101.5 37 167t133.5 128t134 107.5t37.5 104.5t-32 93.5q12 27 28 27q12 0 78 -43q20 -12 49 -54t29 -98q0 -139 -137 -223q-170 -102 -207 -137t-37 -102.5t57.5 -116.5t147.5 -49l145 12q27 -14 27 -156q0 -27 -15.5 -39t-75 -12t-120.5 27 q-133 57 -206 159.5t-73 204zM274 819q0 43 31 76t75 33t73.5 -29t29.5 -72t-30.5 -74.5t-74.5 -31.5t-74 27.5t-30 70.5z" />
<glyph unicode="&#xc0;" horiz-adv-x="1583" d="M59 94h13q94 10 144 52t85 139l434 1169h99l483 -1202q43 -100 76.5 -131t109.5 -31l23 -90q-160 10 -288 10t-249 -10l-18 88h8q162 2 162 57q0 27 -148 365h-510l-100 -279q-6 -25 -6 -43q0 -43 39 -65.5t133 -28.5l24 -94l-280 8l-213 -8zM451 1731q4 20 52 64t64 44 l316 -223q0 -8 -12.5 -21.5t-34.5 -19.5zM522 616h424l-227 541z" />
<glyph unicode="&#xc1;" horiz-adv-x="1583" d="M59 94h13q94 10 144 52t85 139l434 1169h99l483 -1202q43 -100 76.5 -131t109.5 -31l23 -90q-160 10 -288 10t-249 -10l-18 88h8q162 2 162 57q0 27 -148 365h-510l-100 -279q-6 -25 -6 -43q0 -43 39 -65.5t133 -28.5l24 -94l-280 8l-213 -8zM522 616h424l-227 541z M692 1620l316 223q18 0 63 -44t53 -64l-385 -156q-23 6 -35 19.5t-12 21.5z" />
<glyph unicode="&#xc2;" horiz-adv-x="1583" d="M59 94h13q94 10 144 52t85 139l434 1169h99l483 -1202q43 -100 76.5 -131t109.5 -31l23 -90q-160 10 -288 10t-249 -10l-18 88h8q162 2 162 57q0 27 -148 365h-510l-100 -279q-6 -25 -6 -43q0 -43 39 -65.5t133 -28.5l24 -94l-280 8l-213 -8zM494 1622l217 285 q98 4 141 4q4 0 12 -15l213 -274q0 -8 -12 -21.5t-35 -19.5l-246 180l-243 -180q-23 6 -35 19.5t-12 21.5zM522 616h424l-227 541z" />
<glyph unicode="&#xc3;" horiz-adv-x="1583" d="M59 94h13q94 10 144 52t85 139l434 1169h99l483 -1202q43 -100 76.5 -131t109.5 -31l23 -90q-160 10 -288 10t-249 -10l-18 88h8q162 2 162 57q0 27 -148 365h-510l-100 -279q-6 -25 -6 -43q0 -43 39 -65.5t133 -28.5l24 -94l-280 8l-213 -8zM424 1583q0 6 17.5 40 t65.5 94.5t83 60.5l371 -9q70 0 118 62q14 0 47 -31q2 -4 2 -10t-4 -14q-96 -160 -159 -160l-344 8q-104 0 -150 -80h-6t-37 27q-4 6 -4 12zM522 616h424l-227 541z" />
<glyph unicode="&#xc4;" horiz-adv-x="1548" d="M102 94h13q94 10 144 52t85 139l434 1169h99l483 -1202q43 -100 76.5 -131t109.5 -31l23 -90q-160 10 -288 10t-249 -10l-18 88h8q162 2 162 57q0 27 -148 365h-510l-100 -279q-6 -25 -6 -43q0 -43 39 -65.5t133 -28.5l24 -94l-280 8l-213 -8zM522 1698q0 51 36 88t88 37 t86 -32t34 -84t-35 -89t-88 -37t-87 33t-34 84zM565 616h424l-227 541zM885 1698q0 51 34.5 88t87 37t86 -32t33.5 -84t-35.5 -89t-87 -37t-85 33t-33.5 84z" />
<glyph unicode="&#xc5;" horiz-adv-x="1486" d="M10 94h13q94 10 144 52t85 139l434 1169h98l484 -1202q43 -100 76.5 -131t109.5 -31l23 -90q-160 10 -288 10t-249 -10l-18 88h8q162 2 162 57q0 27 -148 365h-510l-100 -279q-6 -25 -6 -43q0 -43 39 -65.5t133 -28.5l24 -94l-280 8l-213 -8zM473 616h424l-227 541z M545 1717.5q0 66.5 49 117.5t124 51t126 -46t51 -113.5t-54.5 -120t-124 -52.5t-120.5 48.5t-51 115zM637 1723.5q0 -31.5 25.5 -53t60.5 -21.5t58.5 23.5t23.5 53.5q0 74 -80 74q-35 0 -61.5 -22.5t-26.5 -54z" />
<glyph unicode="&#xc6;" horiz-adv-x="2156" d="M0 0l6 94h12q92 8 147.5 50t121.5 141l641 1005q12 18 12 32.5t-28.5 27t-145.5 20.5l-18 90q264 -6 303 -6h424l505 -2q14 -31 14.5 -137.5t-9.5 -218.5l-66 6q-25 145 -90.5 203.5t-198.5 58.5l-231 -2q-143 -6 -144 -33v-512q0 -20 21 -20h326q49 0 66.5 46t17.5 171 l67 10l-4 -272l4 -252l-67 -11q0 121 -14.5 156t-69.5 35h-326q-20 0 -21 -18v-431q0 -90 37 -113.5t162 -23.5h199q156 0 244 73t139 224l69 -12q0 -37 -53 -208t-76 -171l-522 -4q-53 0 -311 4l-228 -6l-16 90q115 12 140.5 23.5t29.5 56.5v346h-528l-174 -279 q-20 -41 -20.5 -66.5t27 -45t122.5 -25.5l-2 -94l-279 8zM608 616h461v738z" />
<glyph unicode="&#xc7;" horiz-adv-x="1460" d="M76 698q0 360 222 570.5t574 210.5q129 0 306.5 -36t195.5 -38q14 -31 14.5 -137.5t-10.5 -218.5l-57 6q-16 119 -68 184q-111 141 -394.5 141t-425.5 -177t-142 -456.5t166 -474t430 -194.5q362 0 491 313l60 -12q0 -23 -40 -155t-59 -132q-206 -117 -493 -117l-19 2 l-43 -49q88 -23 132.5 -74t44.5 -108q0 -178 -322 -178q-8 0 -8 19.5t6 19.5q205 20 205 121q0 45 -37 79.5t-123 40.5q-4 0 -14 27q0 25 57 109q-295 37 -472 231.5t-177 482.5z" />
<glyph unicode="&#xc8;" horiz-adv-x="1382" d="M76 1460l256 -6h330l505 -2q14 -31 14.5 -137.5t-10.5 -218.5l-65 6q-25 145 -90.5 203.5t-198.5 58.5l-231 -2q-143 -6 -144 -33v-512q0 -20 21 -20h325q49 0 66.5 46t17.5 171l68 10l-4 -272l4 -252l-68 -11q0 121 -14 156t-70 35h-325q-20 0 -21 -18v-431 q0 -90 37 -113.5t162 -23.5h199q156 0 243.5 73t139.5 224l69 -12q0 -37 -53 -208t-76 -171l-522 -4q-53 0 -311 4l-228 -6l-16 90q115 12 140.5 23.5t29.5 56.5v1126q0 43 -28.5 57.5t-133.5 22.5zM362 1731q4 20 52.5 64t64.5 44l316 -223q0 -8 -12.5 -21.5t-34.5 -19.5z " />
<glyph unicode="&#xc9;" horiz-adv-x="1382" d="M76 1460l256 -6h330l505 -2q14 -31 14.5 -137.5t-10.5 -218.5l-65 6q-25 145 -90.5 203.5t-198.5 58.5l-231 -2q-143 -6 -144 -33v-512q0 -20 21 -20h325q49 0 66.5 46t17.5 171l68 10l-4 -272l4 -252l-68 -11q0 121 -14 156t-70 35h-325q-20 0 -21 -18v-431 q0 -90 37 -113.5t162 -23.5h199q156 0 243.5 73t139.5 224l69 -12q0 -37 -53 -208t-76 -171l-522 -4q-53 0 -311 4l-228 -6l-16 90q115 12 140.5 23.5t29.5 56.5v1126q0 43 -28.5 57.5t-133.5 22.5zM612 1620l316 223q18 0 63 -44t53 -64l-385 -156q-23 6 -35 19.5t-12 21.5 z" />
<glyph unicode="&#xca;" horiz-adv-x="1382" d="M76 1460l256 -6h330l505 -2q14 -31 14.5 -137.5t-10.5 -218.5l-65 6q-25 145 -90.5 203.5t-198.5 58.5l-231 -2q-143 -6 -144 -33v-512q0 -20 21 -20h325q49 0 66.5 46t17.5 171l68 10l-4 -272l4 -252l-68 -11q0 121 -14 156t-70 35h-325q-20 0 -21 -18v-431 q0 -90 37 -113.5t162 -23.5h199q156 0 243.5 73t139.5 224l69 -12q0 -37 -53 -208t-76 -171l-522 -4q-53 0 -311 4l-228 -6l-16 90q115 12 140.5 23.5t29.5 56.5v1126q0 43 -28.5 57.5t-133.5 22.5zM414 1622l217 285q98 4 141 4q4 0 12 -15l213 -274q0 -8 -12 -21.5 t-35 -19.5l-245 180l-244 -180q-23 6 -35 19.5t-12 21.5z" />
<glyph unicode="&#xcb;" horiz-adv-x="1382" d="M76 1460l256 -6h330l505 -2q14 -31 14.5 -137.5t-10.5 -218.5l-65 6q-25 145 -90.5 203.5t-198.5 58.5l-231 -2q-143 -6 -144 -33v-512q0 -20 21 -20h325q49 0 66.5 46t17.5 171l68 10l-4 -272l4 -252l-68 -11q0 121 -14 156t-70 35h-325q-20 0 -21 -18v-431 q0 -90 37 -113.5t162 -23.5h199q156 0 243.5 73t139.5 224l69 -12q0 -37 -53 -208t-76 -171l-522 -4q-53 0 -311 4l-228 -6l-16 90q115 12 140.5 23.5t29.5 56.5v1126q0 43 -28.5 57.5t-133.5 22.5zM387 1698q0 51 36 88t88 37t86 -32t34 -84t-35 -89t-88 -37t-87 33t-34 84 zM750 1698q0 51 34.5 88t87 37t86 -32t33.5 -84t-35.5 -89t-87 -37t-85 33t-33.5 84z" />
<glyph unicode="&#xcc;" horiz-adv-x="704" d="M45 1731q4 20 52.5 64t64.5 44l315 -223q0 -8 -12 -21.5t-35 -19.5zM70 84q129 12 157.5 23.5t28.5 56.5v1126q0 43 -28.5 57.5t-127.5 22.5l-18 90l258 -6q2 0 272 6l17 -90q-129 -12 -158 -23.5t-29 -56.5v-1126q0 -43 29 -57.5t127 -22.5l18 -90l-258 6q-2 0 -272 -6z " />
<glyph unicode="&#xcd;" horiz-adv-x="704" d="M70 84q129 12 157.5 23.5t28.5 56.5v1126q0 43 -28.5 57.5t-127.5 22.5l-18 90l258 -6q2 0 272 6l17 -90q-129 -12 -158 -23.5t-29 -56.5v-1126q0 -43 29 -57.5t127 -22.5l18 -90l-258 6q-2 0 -272 -6zM264 1620l316 223q18 0 63 -44t53 -64l-385 -156q-23 6 -35 19.5 t-12 21.5z" />
<glyph unicode="&#xce;" horiz-adv-x="704" d="M63 1622l218 285q98 4 141 4q4 0 12 -15l213 -274q0 -8 -12 -21.5t-35 -19.5l-246 180l-243 -180q-23 6 -35.5 19.5t-12.5 21.5zM70 84q129 12 157.5 23.5t28.5 56.5v1126q0 43 -28.5 57.5t-127.5 22.5l-18 90l258 -6q2 0 272 6l17 -90q-129 -12 -158 -23.5t-29 -56.5 v-1126q0 -43 29 -57.5t127 -22.5l18 -90l-258 6q-2 0 -272 -6z" />
<glyph unicode="&#xcf;" horiz-adv-x="704" d="M49 1698q0 51 36 88t88 37t86 -32t34 -84t-35 -89t-88 -37t-87 33t-34 84zM70 84q129 12 157.5 23.5t28.5 56.5v1126q0 43 -28.5 57.5t-127.5 22.5l-18 90l258 -6q2 0 272 6l17 -90q-129 -12 -158 -23.5t-29 -56.5v-1126q0 -43 29 -57.5t127 -22.5l18 -90l-258 6 q-2 0 -272 -6zM412 1698q0 51 34.5 88t87 37t86 -32t33.5 -84t-35.5 -89t-87 -37t-85 33t-33.5 84z" />
<glyph unicode="&#xd0;" horiz-adv-x="1650" d="M57 801h183v487q0 41 -30 56.5t-128 23.5l-19 90l252 -6l424 4q391 0 610.5 -186.5t219.5 -522t-225.5 -544.5t-638.5 -209q-1 0 -388 6l-227 -6l-16 90q115 12 140.5 23.5t25.5 56.5v543h-144q-16 2 -27.5 33.5t-11.5 60.5zM426 264q0 -41 3 -59.5t18.5 -44t50.5 -35.5 q90 -27 264 -27q289 0 440.5 160t151.5 464t-172 471t-494 167h-158q-104 0 -104 -41v-518l397 2q8 -8 18.5 -41t4.5 -55h-420v-443z" />
<glyph unicode="&#xd1;" horiz-adv-x="1705" d="M78 1462l252 -6q55 0 114 6q0 -33 424 -563q338 -414 422 -547v940q0 43 -31.5 57.5t-144.5 22.5l-18 90q-1 0 239 -6l232 6l16 -90q-117 -12 -143.5 -24.5t-26.5 -55.5l2 -1298q-14 2 -53 2t-53 -2l-932 1202v-1034q0 -43 30.5 -57.5t143.5 -22.5l18 -90l-237 6l-232 -6 l-16 90q117 12 143.5 24.5t26.5 55.5v1130q0 41 -29.5 56.5t-128.5 23.5zM481 1601.5q0 6.5 17.5 40t65.5 94t83 60.5l371 -8q70 0 119 61q14 0 47 -30q2 -4 2 -10.5t-4 -14.5q-96 -160 -160 -160l-344 8q-104 0 -150 -79h-6t-37 26q-4 6 -4 12.5z" />
<glyph unicode="&#xd2;" d="M98 700.5q0 323.5 222.5 551t546 227.5t528 -204t204.5 -529.5t-217 -548t-541.5 -222.5t-533.5 201t-209 524.5zM313 786q0 -283 138 -487q68 -102 183.5 -161.5t262.5 -59.5q227 0 357 167t130 421q0 424 -254 616q-131 100 -319 100q-227 0 -362.5 -172t-135.5 -424z M545 1839q0 14 78.5 43t113.5 29l219 -289q0 -8 -12 -21.5t-35 -19.5z" />
<glyph unicode="&#xd3;" d="M98 700.5q0 323.5 222.5 551t546 227.5t528 -204t204.5 -529.5t-217 -548t-541.5 -222.5t-533.5 201t-209 524.5zM313 786q0 -283 138 -487q68 -102 183.5 -161.5t262.5 -59.5q227 0 357 167t130 421q0 424 -254 616q-131 100 -319 100q-227 0 -362.5 -172t-135.5 -424z M725 1620l315 223q18 0 63.5 -44t53.5 -64l-385 -156q-23 6 -35 19.5t-12 21.5z" />
<glyph unicode="&#xd4;" d="M98 700.5q0 323.5 222.5 551t546 227.5t528 -204t204.5 -529.5t-217 -548t-541.5 -222.5t-533.5 201t-209 524.5zM313 786q0 -283 138 -487q68 -102 183.5 -161.5t262.5 -59.5q227 0 357 167t130 421q0 424 -254 616q-131 100 -319 100q-227 0 -362.5 -172t-135.5 -424z M547 1622l217 285q98 4 141 4q4 0 13 -15l212 -274q0 -8 -12 -21.5t-35 -19.5l-245 180l-244 -180q-23 6 -35 19.5t-12 21.5z" />
<glyph unicode="&#xd5;" d="M98 700.5q0 323.5 222.5 551t546 227.5t528 -204t204.5 -529.5t-217 -548t-541.5 -222.5t-533.5 201t-209 524.5zM313 786q0 -283 138 -487q68 -102 183.5 -161.5t262.5 -59.5q227 0 357 167t130 421q0 424 -254 616q-131 100 -319 100q-227 0 -362.5 -172t-135.5 -424z M508 1603.5q0 6.5 17.5 40t65.5 94t83 60.5l370 -8q70 0 119 61q14 0 47 -30q2 -4 2 -10.5t-4 -14.5q-96 -160 -159 -160l-344 9q-102 0 -150 -80h-6t-37 26q-4 6 -4 12.5z" />
<glyph unicode="&#xd6;" d="M98 700.5q0 323.5 222.5 551t546 227.5t528 -204t204.5 -529.5t-217 -548t-541.5 -222.5t-533.5 201t-209 524.5zM313 786q0 -283 138 -487q68 -102 183.5 -161.5t262.5 -59.5q227 0 357 167t130 421q0 424 -254 616q-131 100 -319 100q-227 0 -362.5 -172t-135.5 -424z M516 1696q0 51 36 88t88 37t86 -32t34 -84t-35 -89t-88 -37t-87 33t-34 84zM879 1696q0 51 34.5 88t87 37t86 -32t33.5 -84t-35.5 -89t-87 -37t-85 33t-33.5 84z" />
<glyph unicode="&#xd7;" horiz-adv-x="1122" d="M143 195l363 348l-309 295q0 92 43 112l329 -334l285 289q94 -6 125 -31l-344 -331l315 -303q0 -25 -9 -67t-21 -58q-18 14 -147.5 145t-203.5 211l-313 -319q-92 0 -113 43z" />
<glyph unicode="&#xd8;" horiz-adv-x="1665" d="M82 693.5q0 330.5 222 558t534 227.5q242 0 415 -109l117 150q76 0 103 -35l-136 -174q246 -207 246 -572q0 -319 -217 -541.5t-528 -222.5q-258 0 -445 121l-133 -172q-6 -6 -22 -6q-59 0 -93 29l164 211q-227 205 -227 535.5zM297 769q0 -269 129 -462l731 940 q-145 135 -367.5 135t-357.5 -172t-135 -441zM494 227q156 -150 385 -149.5t359 167.5t130 421q0 311 -141 503z" />
<glyph unicode="&#xd9;" horiz-adv-x="1609" d="M66 1460l239 -6l246 6l16 -90q-115 -12 -140.5 -23.5t-25.5 -56.5v-753q0 -459 461 -459q180 0 270.5 112.5t90.5 315.5v782q0 43 -32 57.5t-144 22.5l-19 90l240 -6l231 6l17 -90q-117 -12 -143.5 -24.5t-26.5 -55.5v-762q0 -551 -523 -551q-299 0 -453.5 128 t-154.5 409v778q0 41 -24.5 56.5t-106.5 23.5zM471 1731q4 20 52.5 64t64.5 44l315 -223q0 -8 -12 -21.5t-35 -19.5z" />
<glyph unicode="&#xda;" horiz-adv-x="1609" d="M66 1460l239 -6l246 6l16 -90q-115 -12 -140.5 -23.5t-25.5 -56.5v-753q0 -459 461 -459q180 0 270.5 112.5t90.5 315.5v782q0 43 -32 57.5t-144 22.5l-19 90l240 -6l231 6l17 -90q-117 -12 -143.5 -24.5t-26.5 -55.5v-762q0 -551 -523 -551q-299 0 -453.5 128 t-154.5 409v778q0 41 -24.5 56.5t-106.5 23.5zM690 1620l316 223q18 0 63 -44t53 -64l-385 -156q-23 6 -35 19.5t-12 21.5z" />
<glyph unicode="&#xdb;" horiz-adv-x="1609" d="M66 1460l239 -6l246 6l16 -90q-115 -12 -140.5 -23.5t-25.5 -56.5v-753q0 -459 461 -459q180 0 270.5 112.5t90.5 315.5v782q0 43 -32 57.5t-144 22.5l-19 90l240 -6l231 6l17 -90q-117 -12 -143.5 -24.5t-26.5 -55.5v-762q0 -551 -523 -551q-299 0 -453.5 128 t-154.5 409v778q0 41 -24.5 56.5t-106.5 23.5zM516 1622l217 285q98 4 141 4q4 0 13 -15l213 -274q0 -8 -12.5 -21.5t-34.5 -19.5l-246 180l-244 -180q-23 6 -35 19.5t-12 21.5z" />
<glyph unicode="&#xdc;" horiz-adv-x="1609" d="M66 1464l239 -6l246 6l16 -90q-115 -12 -140.5 -23.5t-25.5 -56.5v-757q0 -459 461 -459q180 0 270.5 112.5t90.5 315.5v782q0 43 -32 57.5t-144 22.5l-19 90l240 -6l231 6l17 -90q-117 -12 -143.5 -24.5t-26.5 -55.5v-762q0 -551 -523 -551q-299 0 -453.5 128 t-154.5 409v782q0 41 -24.5 56.5t-106.5 23.5zM492 1702q0 51 35.5 88t88 37t86 -32t33.5 -84t-34.5 -89t-88 -37t-87 33t-33.5 84zM854 1702q0 51 35 88t87 37t86 -32t34 -84t-36 -89t-87 -37t-85 33t-34 84z" />
<glyph unicode="&#xdd;" horiz-adv-x="1441" d="M0 1454q160 -10 288 -10t249 10l18 -90h-8q-147 0 -148 -53q0 -23 19 -54l352 -495l295 467q27 39 27 65q0 57 -140 70l-24 90l266 -8l227 8l21 -90h-12q-141 0 -203 -88l-402 -594v-518q0 -43 31 -57.5t137 -22.5l19 -90l-258 6q-2 0 -273 -6l-16 90q125 12 149.5 23.5 t24.5 56.5v481l-399 563q-61 90 -105.5 123t-111.5 33zM680 1620l315 223q18 0 63.5 -44t53.5 -64l-385 -156q-23 6 -35 19.5t-12 21.5z" />
<glyph unicode="&#xde;" horiz-adv-x="1161" d="M61 84q129 12 158 23.5t29 56.5v1126q0 43 -29 57.5t-127 22.5l-18 90l258 -6q2 0 272 6l17 -90q-129 -12 -158 -23.5t-29 -56.5v-153q160 4 201 4q227 0 366.5 -89t139.5 -285t-151.5 -295t-391.5 -99q-57 0 -88 10q-25 20 -25 70q0 12 7 18q18 -6 79 -6q172 0 277.5 87 t105.5 223t-96 202.5t-252 66.5q-133 0 -150.5 -11t-17.5 -23l-4 -2v-844q0 -43 29 -57.5t127 -22.5l18 -90l-258 6q-2 0 -272 -6z" />
<glyph unicode="&#xdf;" horiz-adv-x="1230" d="M82 819q100 12 135 25q10 2 10 26v45q0 262 140.5 451.5t371.5 189.5q129 0 232.5 -81.5t103.5 -227.5q0 -68 -39 -135.5t-86 -112.5q-127 -119 -127 -186q0 -76 115 -164q49 -37 98 -80t83 -109.5t34 -148.5q0 -127 -96 -231.5t-234.5 -104.5t-224.5 52q-8 8 -8 28 q0 92 39 123q8 8 15 4t26.5 -25.5t33 -31.5t35.5 -27q45 -33 113 -32.5t105.5 46.5t37.5 110.5t-57 132t-126 117.5t-126 118.5t-57 128t43 117t93 100.5t93 111.5t43 140.5q0 129 -66.5 197.5t-164.5 68.5q-266 0 -267 -475v-832q0 -37 17.5 -51t91.5 -18l18 -80l-180 4 q-2 0 -241 -6l-17 82q98 8 117.5 17t19.5 52v572q0 37 -22 37h-111q-14 25 -14 63z" />
<glyph unicode="&#xe0;" horiz-adv-x="944" d="M94 190.5q0 104.5 97.5 161t383.5 109.5v123q0 221 -165 221q-57 0 -109 -29v-139q0 -10 -54 -20.5t-71.5 -10.5t-34.5 4q-16 16 -16 73.5t33 94.5q31 41 147.5 84t181.5 43q258 0 258 -291v-409q0 -66 26 -84.5t65 -18.5h43q10 0 14 2q8 -53 14 -65q-25 -12 -111.5 -38 t-127.5 -26t-57.5 30t-24.5 106q-35 -49 -103.5 -90t-138.5 -46h-10q-98 0 -169 55.5t-71 160zM205 1395q0 14 78.5 42.5t113.5 28.5l178 -370q0 -8 -12 -21.5t-35 -19.5zM281 213q4 -63 43 -93t96 -30q104 0 155 70v229q-176 -31 -235 -68.5t-59 -107.5z" />
<glyph unicode="&#xe1;" horiz-adv-x="944" d="M94 190.5q0 104.5 97.5 161t383.5 109.5v123q0 221 -165 221q-57 0 -109 -29v-139q0 -10 -54 -20.5t-71.5 -10.5t-34.5 4q-16 16 -16 73.5t33 94.5q31 41 147.5 84t181.5 43q258 0 258 -291v-409q0 -66 26 -84.5t65 -18.5h43q10 0 14 2q8 -53 14 -65q-25 -12 -111.5 -38 t-127.5 -26t-57.5 30t-24.5 106q-35 -49 -103.5 -90t-138.5 -46h-10q-98 0 -169 55.5t-71 160zM281 213q4 -63 43 -93t96 -30q104 0 155 70v229q-176 -31 -235 -68.5t-59 -107.5zM322 1096l178 370q35 0 94 -20q98 -37 98 -51l-323 -340q-23 6 -35 19.5t-12 21.5z" />
<glyph unicode="&#xe2;" horiz-adv-x="944" d="M94 190.5q0 104.5 97.5 161t383.5 109.5v123q0 221 -165 221q-57 0 -109 -29v-139q0 -10 -54 -20.5t-71.5 -10.5t-34.5 4q-16 16 -16 73.5t33 94.5q31 41 147.5 84t181.5 43q258 0 258 -291v-409q0 -66 26 -84.5t65 -18.5h43q10 0 14 2q8 -53 14 -65q-25 -12 -111.5 -38 t-127.5 -26t-57.5 30t-24.5 106q-35 -49 -103.5 -90t-138.5 -46h-10q-98 0 -169 55.5t-71 160zM182 1077l197 367q98 4 141 4q4 0 12 -14l193 -357q0 -8 -12.5 -21.5t-34.5 -19.5l-225 256l-224 -256q-23 6 -35 19.5t-12 21.5zM281 213q4 -63 43 -93t96 -30q104 0 155 70 v229q-176 -31 -235 -68.5t-59 -107.5z" />
<glyph unicode="&#xe3;" horiz-adv-x="944" d="M94 190.5q0 104.5 97.5 161t383.5 109.5v123q0 221 -165 221q-57 0 -109 -29v-139q0 -10 -54 -20.5t-71.5 -10.5t-34.5 4q-16 16 -16 73.5t33 94.5q31 41 147.5 84t181.5 43q258 0 258 -291v-409q0 -66 26 -84.5t65 -18.5h43q10 0 14 2q8 -53 14 -65q-25 -12 -111.5 -38 t-127.5 -26t-57.5 30t-24.5 106q-35 -49 -103.5 -90t-138.5 -46h-10q-98 0 -169 55.5t-71 160zM102 1102q0 6 17.5 40t65.5 94t83 60l371 -8q70 0 119 62q14 0 47 -31q2 -4 2 -10t-4 -15q-96 -160 -160 -159l-344 8q-102 0 -149 -80h-6q-7 0 -38 27q-4 6 -4 12zM281 213 q4 -63 43 -93t96 -30q104 0 155 70v229q-176 -31 -235 -68.5t-59 -107.5z" />
<glyph unicode="&#xe4;" horiz-adv-x="944" d="M94 190.5q0 104.5 97.5 161t383.5 109.5v123q0 221 -165 221q-57 0 -109 -29v-139q0 -10 -54 -20.5t-71.5 -10.5t-34.5 4q-16 16 -16 73.5t33 94.5q31 41 147.5 84t181.5 43q258 0 258 -291v-409q0 -66 26 -84.5t65 -18.5h43q10 0 14 2q8 -53 14 -65q-25 -12 -111.5 -38 t-127.5 -26t-57.5 30t-24.5 106q-35 -49 -103.5 -90t-138.5 -46h-10q-98 0 -169 55.5t-71 160zM150 1225q0 51 35.5 88t88 37t86 -32t33.5 -84t-34.5 -89t-88 -37t-87 33t-33.5 84zM281 213q4 -63 43 -93t96 -30q104 0 155 70v229q-176 -31 -235 -68.5t-59 -107.5zM512 1225 q0 51 35 88t87 37t86 -32t34 -84t-36 -89t-87 -37t-85 33t-34 84z" />
<glyph unicode="&#xe5;" horiz-adv-x="921" d="M94 190.5q0 104.5 97.5 161t383.5 109.5v123q0 221 -165 221q-57 0 -109 -29v-139q0 -10 -54 -20.5t-71.5 -10.5t-34.5 4q-16 16 -16 73.5t33 94.5q31 41 147.5 84t181.5 43q258 0 258 -291v-409q0 -66 26 -84.5t65 -18.5h43q10 0 14 2q8 -53 14 -65q-25 -12 -111.5 -38 t-127.5 -26t-57.5 30t-24.5 106q-35 -49 -103.5 -90t-138.5 -46h-10q-98 0 -169 55.5t-71 160zM274 1228q0 75 52.5 132t132.5 57t134 -50t54 -126t-57.5 -135t-132 -59t-129 53t-54.5 128zM281 213q4 -63 43 -93t96 -30q104 0 155 70v229q-176 -31 -235 -68.5t-59 -107.5z M373 1235q0 -35 27.5 -58.5t65.5 -23.5t61.5 25.5t23.5 62.5q0 78 -84 78q-39 0 -66.5 -24.5t-27.5 -59.5z" />
<glyph unicode="&#xe6;" horiz-adv-x="1427" d="M94 190.5q0 104.5 100.5 163t383.5 115.5l-3 115q0 221 -165 221q-57 0 -109 -29v-139q0 -10 -54 -20.5t-79 -10.5q-43 0 -43 67.5t33 104.5q31 41 147.5 84t181.5 43q154 0 220 -127q125 129 301 129q113 0 192 -69q111 -94 146 -273q6 -20 -7 -24l-581 -105v-24 q18 -309 311 -310q59 0 121.5 27t99.5 64q6 6 10.5 6t10.5 -6l45 -52q-154 -166 -344 -166q-231 0 -344 160q-147 -160 -324 -160h-10q-98 0 -169 55.5t-71 160zM281 205q8 -117 151 -117q107 0 205 98q-47 88 -57 213q-172 -39 -235.5 -82t-63.5 -112zM762 510l383 84 q-18 121 -67.5 174t-110.5 53q-113 0 -166 -108q-39 -78 -39 -183v-20z" />
<glyph unicode="&#xe7;" horiz-adv-x="940" d="M102 422q0 238 132.5 360.5t330.5 122.5q86 0 175 -24.5t134 -61.5q2 -4 3 -8q0 -29 -64 -121q-8 -8 -21.5 -8t-49 34t-97 68.5t-141.5 34.5t-147.5 -87t-67.5 -244.5t82 -271.5t243 -114q129 0 213 84q4 4 10.5 4t10.5 -4l41 -47q-119 -129 -277 -157l4 -5l-45 -49 q88 -23 132.5 -74t44.5 -108q0 -178 -322 -178q-8 0 -8 19.5t6 19.5q205 20 205 121q0 45 -37 79.5t-123 40.5q-4 0 -14 27q0 23 53 100q-188 12 -297 136.5t-109 310.5z" />
<glyph unicode="&#xe8;" horiz-adv-x="964" d="M102 441q0 212 131.5 338t299 126t264 -101.5t96.5 -283.5q0 -22 -10 -22h-594v-27q0 -150 84 -259.5t223 -109.5t229 91q6 6 10.5 6t10.5 -6l45 -52q-154 -166 -355.5 -166t-317.5 127t-116 339zM274 1395q0 14 79 42.5t114 28.5l178 -370q0 -8 -12 -21.5t-35 -19.5z M295 594h393q0 225 -174 225q-92 0 -149.5 -64.5t-69.5 -160.5z" />
<glyph unicode="&#xe9;" horiz-adv-x="964" d="M102 441q0 212 131.5 338t299 126t264 -101.5t96.5 -283.5q0 -22 -10 -22h-594v-27q0 -150 84 -259.5t223 -109.5t229 91q6 6 10.5 6t10.5 -6l45 -52q-154 -166 -355.5 -166t-317.5 127t-116 339zM295 594h393q0 225 -174 225q-92 0 -149.5 -64.5t-69.5 -160.5zM410 1096 l178 370q35 0 92 -20q100 -37 100 -51l-323 -340q-23 6 -35 19.5t-12 21.5z" />
<glyph unicode="&#xea;" horiz-adv-x="964" d="M102 441q0 212 131.5 338t299 126t264 -101.5t96.5 -283.5q0 -22 -10 -22h-594v-27q0 -150 84 -259.5t223 -109.5t229 91q6 6 10.5 6t10.5 -6l45 -52q-154 -166 -355.5 -166t-317.5 127t-116 339zM248 1077l196 367q99 4 142 4q4 0 12 -14l193 -357q0 -8 -12.5 -21.5 t-35.5 -19.5l-225 256l-223 -256q-23 6 -35 19.5t-12 21.5zM295 594h393q0 225 -174 225q-92 0 -149.5 -64.5t-69.5 -160.5z" />
<glyph unicode="&#xeb;" horiz-adv-x="964" d="M102 441q0 212 131.5 338t299 126t264 -101.5t96.5 -283.5q0 -22 -10 -22h-594v-27q0 -150 84 -259.5t223 -109.5t229 91q6 6 10.5 6t10.5 -6l45 -52q-154 -166 -355.5 -166t-317.5 127t-116 339zM217 1227q0 51 36 88t88 37t86 -32t34 -84t-35 -89t-88 -37t-87 33 t-34 84zM295 594h393q0 225 -174 225q-92 0 -149.5 -64.5t-69.5 -160.5zM580 1227q0 51 34.5 88t87 37t86 -32t33.5 -84t-35.5 -89t-87 -37t-85 33t-33.5 84z" />
<glyph unicode="&#xec;" horiz-adv-x="614" d="M37 1395q0 14 78.5 42.5t113.5 28.5l179 -370q0 -8 -12.5 -21.5t-35.5 -19.5zM72 825q133 33 170 47l125 50q27 0 33 -5.5t6 -27.5v-744q0 -37 18 -50t90 -19l18 -82l-200 6l-221 -6l-17 82q98 8 117.5 17t19.5 52v521q0 102 -102 102q-25 0 -39 -2z" />
<glyph unicode="&#xed;" horiz-adv-x="614" d="M72 825q133 33 170 47l125 50q27 0 33 -5.5t6 -27.5v-744q0 -37 18 -50t90 -19l18 -82l-200 6l-221 -6l-17 82q98 8 117.5 17t19.5 52v521q0 102 -102 102q-25 0 -39 -2zM201 1096l178 370q35 0 92 -20q100 -37 100 -51l-323 -340q-23 6 -35 19.5t-12 21.5z" />
<glyph unicode="&#xee;" horiz-adv-x="614" d="M14 1077l197 367q98 4 141 4q4 0 13 -14l192 -357q0 -8 -12.5 -21.5t-34.5 -19.5l-225 256l-224 -256q-23 6 -35 19.5t-12 21.5zM72 825q133 33 170 47l125 50q27 0 33 -5.5t6 -27.5v-744q0 -37 18 -50t90 -19l18 -82l-200 6l-221 -6l-17 82q98 8 117.5 17t19.5 52v521 q0 102 -102 102q-25 0 -39 -2z" />
<glyph unicode="&#xef;" horiz-adv-x="614" d="M-4 1229q0 51 36 88t88 37t86 -32t34 -84t-35 -89t-88.5 -37t-87 33t-33.5 84zM72 825q133 33 170 47l125 50q27 0 33 -5.5t6 -27.5v-744q0 -37 18 -50t90 -19l18 -82l-200 6l-221 -6l-17 82q98 8 117.5 17t19.5 52v521q0 102 -102 102q-25 0 -39 -2zM358 1229 q0 51 35 88t87 37t86 -32t34 -84t-36 -89t-87 -37t-85 33t-34 84z" />
<glyph unicode="&#xf0;" horiz-adv-x="1060" d="M78 425q0 202 132 341t327 139q109 0 192 -33q-45 139 -125 269q-188 -119 -217 -142q-12 0 -34.5 24t-28.5 46q203 125 231 143q-92 125 -197 215q-10 10 5.5 29t29.5 25q141 -88 254 -209l221 147q18 -4 36 -23.5t24 -39.5q-8 -4 -91 -62.5t-130 -87.5 q276 -382 276 -747q0 -211 -124 -347.5t-323.5 -136.5t-328.5 124t-129 326zM264 468q0 -161 79 -280.5t218 -119.5q113 0 180.5 105.5t67.5 270t-80 270t-211 105.5t-192.5 -95t-61.5 -256z" />
<glyph unicode="&#xf1;" horiz-adv-x="1181" d="M59 813q143 35 211 70t76 39q27 0 31 -4q8 -8 12 -132q98 59 173 89t163 30q285 0 285 -305v-455q0 -37 18.5 -50t89.5 -19l19 -82l-201 6l-221 -6l-17 82q98 8 118 17t20 52v385q0 131 -51.5 182.5t-162 51.5t-229.5 -57v-562q0 -37 18.5 -50t90.5 -19l18 -82l-201 6 l-221 -6l-16 82q98 8 117.5 17t19.5 52v480q0 74 -26.5 102.5t-83.5 28.5l-31 -2zM283 1102q0 6 17 40t65.5 94t83.5 60l370 -8q70 0 119 62q14 0 47 -31q2 -4 2 -10t-4 -15q-96 -160 -160 -159l-344 8q-102 0 -149 -80h-6q-7 0 -37 27q-4 6 -4 12z" />
<glyph unicode="&#xf2;" horiz-adv-x="1132" d="M102 425q0 202 132.5 341t334 139t331.5 -126t130 -327.5t-134 -339t-335 -137.5t-330 124t-129 326zM289 468q0 -161 78.5 -280.5t213 -119.5t199 92t64.5 259t-85 283.5t-216 116.5t-192.5 -95t-61.5 -256zM289 1395q0 14 78.5 42.5t113.5 28.5l178 -370 q0 -8 -12 -21.5t-35 -19.5z" />
<glyph unicode="&#xf3;" horiz-adv-x="1132" d="M102 425q0 202 132.5 341t334 139t331.5 -126t130 -327.5t-134 -339t-335 -137.5t-330 124t-129 326zM289 468q0 -161 78.5 -280.5t213 -119.5t199 92t64.5 259t-85 283.5t-216 116.5t-192.5 -95t-61.5 -256zM446 1096l179 370q35 0 92 -20q100 -37 100 -51l-323 -340 q-23 6 -35.5 19.5t-12.5 21.5z" />
<glyph unicode="&#xf4;" horiz-adv-x="1132" d="M102 425q0 202 132.5 341t334 139t331.5 -126t130 -327.5t-134 -339t-335 -137.5t-330 124t-129 326zM289 468q0 -161 78.5 -280.5t213 -119.5t199 92t64.5 259t-85 283.5t-216 116.5t-192.5 -95t-61.5 -256zM301 1077l197 367q98 4 141 4q4 0 12 -14l193 -357 q0 -8 -12.5 -21.5t-34.5 -19.5l-226 256l-223 -256q-23 6 -35 19.5t-12 21.5z" />
<glyph unicode="&#xf5;" horiz-adv-x="1132" d="M102 425q0 202 132.5 341t334 139t331.5 -126t130 -327.5t-134 -339t-335 -137.5t-330 124t-129 326zM219 1102q0 6 17.5 40t65.5 94t83 60l371 -8q70 0 118 62q14 0 48 -31q2 -4 2 -10t-4 -15q-96 -160 -160 -159l-344 8q-102 0 -150 -80h-6t-37 27q-4 6 -4 12zM289 468 q0 -161 78.5 -280.5t213 -119.5t199 92t64.5 259t-85 283.5t-216 116.5t-192.5 -95t-61.5 -256z" />
<glyph unicode="&#xf6;" horiz-adv-x="1132" d="M102 425q0 202 132.5 341t334 139t331.5 -126t130 -327.5t-134 -339t-335 -137.5t-330 124t-129 326zM272 1225q0 51 36 88t88.5 37t86 -32t33.5 -84t-35 -89t-88 -37t-87 33t-34 84zM289 468q0 -161 78.5 -280.5t213 -119.5t199 92t64.5 259t-85 283.5t-216 116.5 t-192.5 -95t-61.5 -256zM635 1225q0 51 35 88t87 37t86 -32t34 -84t-36 -89t-87.5 -37t-85 33t-33.5 84z" />
<glyph unicode="&#xf7;" horiz-adv-x="1163" d="M75.5 551q0.5 37 4.5 53l493 -4l453 4q35 -35 35 -110l-488 4l-473 -4q-25 20 -24.5 57zM451 233.5q0 51.5 35.5 88t88 36.5t86 -31.5t33.5 -84t-34.5 -89t-88 -36.5t-87 32.5t-33.5 84zM451 844q0 51 35.5 88t88 37t86 -32t33.5 -84t-34.5 -89t-88 -37t-87 33t-33.5 84z " />
<glyph unicode="&#xf8;" horiz-adv-x="1083" d="M78 414q0 213 132 352t327 139q125 0 239 -55l82 119q49 0 74 -35l-88 -127q162 -129 162 -343t-134.5 -351.5t-326.5 -137.5q-133 0 -240 56l-74 -107q-8 -6 -18 -6q-37 0 -68 29l91 129q-158 125 -158 338zM264 475.5q0 -153.5 66 -266.5l368 532q-78 78 -178 78 q-133 0 -194.5 -95t-61.5 -248.5zM381 141q74 -74 191.5 -73.5t182 92.5t64.5 243.5t-67 270.5z" />
<glyph unicode="&#xf9;" horiz-adv-x="1214" d="M68 887q55 -6 150 -6t151 6v-533q0 -238 217 -237q57 0 116.5 23.5t94.5 58.5v540q0 37 -19.5 49.5t-89.5 20.5l-18 78q51 -6 150.5 -6t150.5 6v-658q0 -68 21.5 -98.5t70.5 -30.5h74l14 -65q-25 -4 -89.5 -13.5t-89 -13.5t-68.5 -17.5t-66 -17.5q-27 0 -27 15l-6 127 q-33 -33 -45 -42.5t-33.5 -25.5t-45.5 -26.5t-54 -20.5q-62 -25 -140 -25q-293 0 -292 310v454q0 35 -20.5 48.5t-92.5 21.5zM281 1395q0 14 78.5 42.5t113.5 28.5l178 -370q0 -8 -12 -21.5t-35 -19.5z" />
<glyph unicode="&#xfa;" horiz-adv-x="1214" d="M68 887q55 -6 150 -6t151 6v-533q0 -238 217 -237q57 0 116.5 23.5t94.5 58.5v540q0 37 -19.5 49.5t-89.5 20.5l-18 78q51 -6 150.5 -6t150.5 6v-658q0 -68 21.5 -98.5t70.5 -30.5h74l14 -65q-25 -4 -89.5 -13.5t-89 -13.5t-68.5 -17.5t-66 -17.5q-27 0 -27 15l-6 127 q-33 -33 -45 -42.5t-33.5 -25.5t-45.5 -26.5t-54 -20.5q-62 -25 -140 -25q-293 0 -292 310v454q0 35 -20.5 48.5t-92.5 21.5zM475 1096l178 370q35 0 92 -20q100 -37 101 -51l-324 -340q-23 6 -35 19.5t-12 21.5z" />
<glyph unicode="&#xfb;" horiz-adv-x="1214" d="M68 887q55 -6 150 -6t151 6v-533q0 -238 217 -237q57 0 116.5 23.5t94.5 58.5v540q0 37 -19.5 49.5t-89.5 20.5l-18 78q51 -6 150.5 -6t150.5 6v-658q0 -68 21.5 -98.5t70.5 -30.5h74l14 -65q-25 -4 -89.5 -13.5t-89 -13.5t-68.5 -17.5t-66 -17.5q-27 0 -27 15l-6 127 q-33 -33 -45 -42.5t-33.5 -25.5t-45.5 -26.5t-54 -20.5q-62 -25 -140 -25q-293 0 -292 310v454q0 35 -20.5 48.5t-92.5 21.5zM301 1077l197 367q98 4 141 4q4 0 12 -14l193 -357q0 -8 -12.5 -21.5t-34.5 -19.5l-226 256l-223 -256q-23 6 -35 19.5t-12 21.5z" />
<glyph unicode="&#xfc;" horiz-adv-x="1214" d="M68 887q55 -6 150 -6t151 6v-533q0 -238 217 -237q57 0 116.5 23.5t94.5 58.5v540q0 37 -19.5 49.5t-89.5 20.5l-18 78q51 -6 150.5 -6t150.5 6v-658q0 -68 21.5 -98.5t70.5 -30.5h74l14 -65q-25 -4 -89.5 -13.5t-89 -13.5t-68.5 -17.5t-66 -17.5q-27 0 -27 15l-6 127 q-33 -33 -45 -42.5t-33.5 -25.5t-45.5 -26.5t-54 -20.5q-62 -25 -140 -25q-293 0 -292 310v454q0 35 -20.5 48.5t-92.5 21.5zM272 1227q0 51 36 88t88.5 37t86 -32t33.5 -84t-35 -89t-88 -37t-87 33t-34 84zM635 1227q0 51 35 88t87 37t86 -32t34 -84t-36 -89t-87.5 -37 t-85 33t-33.5 84z" />
<glyph unicode="&#xfd;" horiz-adv-x="968" d="M-41 889q106 -8 235.5 -8t235.5 8l16 -74h-8q-137 -2 -137 -49q0 -18 12 -43l203 -510l211 514q12 29 12 39q0 41 -106 43l-19 78l191 -6l141 6l17 -76h-9q-59 -8 -86.5 -31.5t-52.5 -87.5l-414 -983q-92 -190 -172 -233q-43 -23 -111.5 -23t-109.5 35q0 29 26.5 85 t35.5 56q31 -6 99.5 -6t140 123t120.5 260l-295 670q-39 86 -66.5 111.5t-91.5 25.5zM489 1096l179 370q35 0 94 -20q98 -37 98 -51l-323 -340q-23 6 -35.5 19.5t-12.5 21.5z" />
<glyph unicode="&#xfe;" horiz-adv-x="1112" d="M31 1352q59 14 157.5 50t128.5 56q35 0 39 -16v-668q37 51 115 91t174 40q176 0 283.5 -119.5t107.5 -306.5q0 -231 -112.5 -367.5t-323.5 -136.5q-131 0 -233 58v-410q0 -37 30.5 -53t126.5 -16l19 -82l-238 6l-233 -6l-17 82q98 8 118 17t20 52v1538q0 72 -29 101.5 t-86 29.5l-31 -2zM367 260q0 -92 63.5 -143t182 -51t178 98t59.5 261t-77 265.5t-189.5 102.5t-216.5 -86v-447z" />
<glyph unicode="&#xff;" horiz-adv-x="1024" d="M12 889q106 -8 235.5 -8t235.5 8l17 -74h-8q-137 -2 -138 -49q0 -18 13 -43l202 -510l211 514q12 29 13 39q0 41 -107 43l-18 78l190 -6l141 6l17 -76h-8q-59 -8 -87 -31.5t-53 -87.5l-413 -983q-92 -190 -172 -233q-43 -23 -112 -23t-110 35q0 29 27 85t35 56 q31 -6 99.5 -6t140 123t120.5 260l-295 670q-39 86 -66.5 111.5t-90.5 25.5zM256 1225q0 51 36 88t88 37t86 -32t34 -84t-35 -89t-88 -37t-87 33t-34 84zM618 1225q0 51 35 88t87.5 37t86 -32t33.5 -84t-36 -89t-87 -37t-85 33t-34 84z" />
<glyph unicode="&#x152;" horiz-adv-x="2287" d="M102 700.5q0 323.5 222.5 551t533.5 227.5q63 0 200.5 -12.5t217.5 -12.5h330l505 -2q14 -31 14.5 -137.5t-9.5 -218.5l-66 6q-25 145 -90.5 203.5t-198.5 58.5l-231 -2q-143 -6 -144 -33v-512q0 -20 21 -20h326q49 0 66.5 46t17.5 171l67 10l-4 -272l4 -252l-67 -11 q0 121 -14.5 156t-69.5 35h-326q-20 0 -21 -18v-431q0 -90 37 -113.5t162 -23.5h199q156 0 244 73t139 224l69 -12q0 -37 -53 -208t-76 -171l-522 -4q-53 0 -311 4q-29 0 -188.5 -12.5t-227.5 -12.5q-338 0 -547 201t-209 524.5zM317 733q0 -244 138 -442 q68 -96 183.5 -154.5t292.5 -59t236 28.5q29 12 33 58v1065q0 72 -16.5 96.5t-65.5 36.5q-131 20 -229 20q-260 0 -416 -180t-156 -469z" />
<glyph unicode="&#x153;" horiz-adv-x="1681" d="M78 425q0 202 132 341t327 139q246 0 376 -168q129 168 336 168q168 0 264.5 -101.5t96.5 -283.5q-1 -22 -11 -22h-593v-41q4 -145 87 -250t221 -105t228 91q6 6 10 6t11 -6l45 -52q-154 -166 -373 -166t-336 170q-137 -170 -350 -170t-342 124t-129 326zM264 468 q0 -161 79 -280.5t213 -119.5t198.5 92t64.5 259t-85 283.5t-216 116.5t-192.5 -95t-61.5 -256zM1012 594h393q0 227 -174 227q-92 0 -149.5 -65.5t-69.5 -161.5z" />
<glyph unicode="&#x178;" horiz-adv-x="1441" d="M0 1454q160 -10 288 -10t249 10l18 -90h-8q-147 0 -148 -53q0 -23 19 -54l352 -495l295 467q27 39 27 65q0 57 -140 70l-24 90l266 -8l227 8l21 -90h-12q-141 0 -203 -88l-402 -594v-518q0 -43 31 -57.5t137 -22.5l19 -90l-258 6q-2 0 -273 -6l-16 90q125 12 149.5 23.5 t24.5 56.5v481l-399 563q-61 90 -105.5 123t-111.5 33zM461 1698q0 51 35.5 88t88 37t86.5 -32t34 -84t-35 -89t-88.5 -37t-87 33t-33.5 84zM823 1698q0 51 35 88t87 37t86 -32t34 -84t-36 -89t-87 -37t-85 33t-34 84z" />
<glyph unicode="&#x2c6;" horiz-adv-x="1087" d="M276 1077l197 367q98 4 141 4q4 0 13 -14l192 -357q0 -8 -12 -21.5t-35 -19.5l-225 256l-223 -256q-23 6 -35.5 19.5t-12.5 21.5z" />
<glyph unicode="&#x2dc;" horiz-adv-x="862" d="M98 1122q0 6 17.5 40t65.5 94.5t83 60.5l371 -8q70 0 119 61q14 0 47 -31q2 -4 2 -10t-4 -14q-96 -160 -160 -160l-344 8q-102 0 -150 -80h-6t-37 27q-4 6 -4 12z" />
<glyph unicode="&#x2000;" horiz-adv-x="955" />
<glyph unicode="&#x2001;" horiz-adv-x="1911" />
<glyph unicode="&#x2002;" horiz-adv-x="955" />
<glyph unicode="&#x2003;" horiz-adv-x="1911" />
<glyph unicode="&#x2004;" horiz-adv-x="637" />
<glyph unicode="&#x2005;" horiz-adv-x="477" />
<glyph unicode="&#x2006;" horiz-adv-x="318" />
<glyph unicode="&#x2007;" horiz-adv-x="318" />
<glyph unicode="&#x2008;" horiz-adv-x="238" />
<glyph unicode="&#x2009;" horiz-adv-x="382" />
<glyph unicode="&#x200a;" horiz-adv-x="106" />
<glyph unicode="&#x2010;" horiz-adv-x="768" d="M131 442q0 38 6 56l273 -2l196 2q16 -18 28.5 -57.5t12.5 -65.5l-239 2l-248 -2q-29 29 -29 67z" />
<glyph unicode="&#x2011;" horiz-adv-x="768" d="M131 442q0 38 6 56l273 -2l196 2q16 -18 28.5 -57.5t12.5 -65.5l-239 2l-248 -2q-29 29 -29 67z" />
<glyph unicode="&#x2012;" horiz-adv-x="768" d="M131 442q0 38 6 56l273 -2l196 2q16 -18 28.5 -57.5t12.5 -65.5l-239 2l-248 -2q-29 29 -29 67z" />
<glyph unicode="&#x2013;" horiz-adv-x="1024" d="M-8.5 442q0.5 38 6.5 56l522 -4l488 4q16 -18 28.5 -57.5t12.5 -65.5l-531 4l-498 -4q-29 29 -28.5 67z" />
<glyph unicode="&#x2014;" horiz-adv-x="2300" d="M131 442q0 38 24 56l1083 -2l778 2q64 -18 113.5 -57.5t49.5 -65.5l-949 2l-984 -2q-115 29 -115 67z" />
<glyph unicode="&#x2022;" horiz-adv-x="1064" d="M248 462.5q0 110.5 74.5 189.5t185 79t182.5 -65.5t72 -176t-77 -194.5t-186.5 -84t-180 70.5t-70.5 181z" />
<glyph unicode="&#x2026;" horiz-adv-x="1372" d="M117 102.5q0 49.5 34.5 85t86 35.5t83 -29.5t31.5 -80t-34.5 -87t-85 -36.5t-83 31.5t-32.5 81zM567 102.5q0 49.5 35 85t86 35.5t83 -29.5t32 -80t-35 -87t-85 -36.5t-83 31.5t-33 81zM1018 102.5q0 49.5 34.5 85t86 35.5t83 -29.5t31.5 -80t-34.5 -87t-85 -36.5 t-83 31.5t-32.5 81z" />
<glyph unicode="&#x202f;" horiz-adv-x="382" />
<glyph unicode="&#x2039;" horiz-adv-x="808" d="M119 454q0 35 2 40q72 27 281.5 146.5t244.5 143.5q4 -10 4 -48t-4 -58l-346 -221v-4l358 -224q2 -10 -3 -52t-9 -54q-25 25 -234.5 143.5t-275.5 134.5q-18 18 -18 53z" />
<glyph unicode="&#x203a;" horiz-adv-x="808" d="M160 229l358 224v4l-346 221q-6 18 -6 57t6 49q35 -25 244.5 -144t281.5 -146q2 -4 2 -13.5t-6 -38t-12 -41.5q-66 -16 -275.5 -135t-234.5 -143q-4 12 -9 54t-3 52z" />
<glyph unicode="&#x205f;" horiz-adv-x="477" />
<glyph unicode="&#x20ac;" horiz-adv-x="1200" d="M-20 649h147v21q0 63 2 94h-111q-16 2 -27 33.5t-11 60.5h161q43 262 202 411.5t376 149.5q109 0 212 -24.5t150 -46.5q12 -27 12.5 -114t-8.5 -155l-61 6q-82 240 -317 240q-162 0 -253.5 -130t-113.5 -337h405v2q8 -8 18.5 -41t4.5 -55h-434v-31q0 -57 2 -84h409v2 q8 -8 18.5 -40.5t4.5 -55.5h-422q31 -221 138.5 -351t279.5 -130q96 0 173 60.5t114 160.5l67 -10q0 -12 -28.5 -101.5t-45.5 -115.5q-96 -92 -303 -93q-250 0 -414.5 160t-193.5 420h-115q-16 2 -27 34t-11 60z" />
<glyph unicode="&#xe000;" horiz-adv-x="890" d="M0 0v891h891v-891h-891z" />
</font>
</defs>
</svg>
