<?xml version="1.0" standalone="no"?>
<!DOCTYPE svg PUBLIC "-//W3C//DTD SVG 1.1//EN" "http://www.w3.org/Graphics/SVG/1.1/DTD/svg11.dtd" >
<svg xmlns="http://www.w3.org/2000/svg">
<metadata></metadata>
<defs>
<font id="varela_roundregular" horiz-adv-x="1286" >
<font-face units-per-em="2048" ascent="1638" descent="-410" />
<missing-glyph horiz-adv-x="532" />
<glyph unicode="&#xfb01;" horiz-adv-x="1312" d="M39 965q0 34 23 56.5t57 22.5h121v119q0 93 27 163.5t72.5 110.5t98 59.5t109.5 19.5q98 0 178 -41q47 -23 47 -72q0 -30 -22.5 -54t-53.5 -24q-16 0 -49 6t-53 6q-83 0 -125.5 -39t-42.5 -141v-113h629q38 -3 63 -29.5t25 -64.5v-868q0 -38 -27 -65t-67 -27 q-38 0 -65.5 27t-27.5 65v803h-530v-803q0 -38 -27 -65t-67 -27q-38 0 -65 27t-27 65v803h-121q-34 0 -57 23t-23 57zM940 1362v8q0 43 30.5 74t73.5 31h13q43 0 73.5 -31t30.5 -74v-8q0 -43 -30.5 -74t-73.5 -31h-13q-43 0 -73.5 31t-30.5 74z" />
<glyph unicode="&#xfb02;" horiz-adv-x="1318" d="M39 965q0 34 23 56.5t57 22.5h121v119q0 93 27 163.5t72.5 110.5t98 59.5t109.5 19.5q98 0 178 -41q47 -23 47 -72q0 -30 -22.5 -54t-53.5 -24q-16 0 -49 6t-53 6q-83 0 -125.5 -39t-42.5 -141v-113h256q34 0 57 -22.5t23 -56.5t-23 -57t-57 -23h-256v-803q0 -38 -27 -65 t-67 -27q-38 0 -65 27t-27 65v803h-121q-34 0 -57 23t-23 57zM954 82v1329q0 39 27 66.5t66 27.5q40 0 67 -27t27 -67v-1329q0 -38 -27 -65t-67 -27q-38 0 -65.5 27t-27.5 65z" />
<glyph unicode="&#xfb03;" horiz-adv-x="2119" d="M39 965q0 34 23 56.5t57 22.5h121v119q0 93 27 163.5t72.5 110.5t98 59.5t109.5 19.5q98 0 178 -41q47 -23 47 -72q0 -30 -22.5 -54t-53.5 -24q-16 0 -49 6t-53 6q-83 0 -125.5 -39t-42.5 -141v-113h621v119q0 93 27 163.5t72.5 110.5t98 59.5t109.5 19.5q98 0 178 -41 q47 -23 47 -72q0 -30 -22.5 -54t-53.5 -24q-16 0 -49 6t-53 6q-83 0 -125.5 -39t-42.5 -141v-113h622q40 0 67.5 -27t27.5 -67v-868q0 -38 -27.5 -65t-67.5 -27q-38 0 -65 27t-27 65v803h-530v-803q0 -38 -27 -65t-67 -27q-38 0 -65 27t-27 65v803h-621v-803q0 -38 -27 -65 t-67 -27q-38 0 -65 27t-27 65v803h-121q-34 0 -57 23t-23 57zM1747 1362v8q0 43 30.5 74t73.5 31h13q43 0 73.5 -31t30.5 -74v-8q0 -43 -30.5 -74t-73.5 -31h-13q-43 0 -73.5 31t-30.5 74z" />
<glyph unicode="&#xfb04;" horiz-adv-x="2125" d="M39 965q0 34 23 56.5t57 22.5h121v119q0 93 27 163.5t72.5 110.5t98 59.5t109.5 19.5q98 0 178 -41q47 -23 47 -72q0 -30 -22.5 -54t-53.5 -24q-16 0 -49 6t-53 6q-83 0 -125.5 -39t-42.5 -141v-113h621v119q0 93 27 163.5t72.5 110.5t98 59.5t109.5 19.5q98 0 178 -41 q47 -23 47 -72q0 -30 -22.5 -54t-53.5 -24q-16 0 -49 6t-53 6q-83 0 -125.5 -39t-42.5 -141v-113h256q34 0 57 -22.5t23 -56.5t-23 -57t-57 -23h-256v-803q0 -38 -27 -65t-67 -27q-38 0 -65 27t-27 65v803h-621v-803q0 -38 -27 -65t-67 -27q-38 0 -65 27t-27 65v803h-121 q-34 0 -57 23t-23 57zM1761 82v1329q0 40 27 67t65 27q40 0 67.5 -27t27.5 -67v-1329q0 -38 -27.5 -65t-67.5 -27q-38 0 -65 27t-27 65z" />
<glyph horiz-adv-x="2048" />
<glyph horiz-adv-x="2048" />
<glyph unicode="&#xd;" horiz-adv-x="2048" />
<glyph unicode=" "  horiz-adv-x="532" />
<glyph unicode="&#x09;" horiz-adv-x="532" />
<glyph unicode="&#xa0;" horiz-adv-x="532" />
<glyph unicode="!" horiz-adv-x="575" d="M168 115q0 49 36 85t85 36q51 0 87 -35.5t36 -85.5q0 -51 -36 -87t-87 -36q-50 0 -85.5 36t-35.5 87zM182 1130v203q0 44 31.5 75.5t75.5 31.5t74 -31t30 -76v-203l-37 -675q-2 -27 -19 -43.5t-48 -16.5q-32 0 -50 16.5t-20 43.5z" />
<glyph unicode="&#x22;" horiz-adv-x="841" d="M123 1427q1 43 32 73t72 30t72.5 -30t32.5 -73q6 -114 -45 -368q-5 -22 -20.5 -36.5t-39.5 -14.5q-23 0 -38.5 14.5t-20.5 36.5q-51 254 -45 368zM510 1427q1 43 32 73t72 30t72.5 -30t32.5 -73q6 -114 -45 -368q-5 -22 -20.5 -36.5t-39.5 -14.5q-23 0 -38.5 14.5 t-20.5 36.5q-51 254 -45 368z" />
<glyph unicode="#" horiz-adv-x="1253" d="M74 444q0 29 21 50.5t50 21.5h181l49 311h-158q-29 0 -50.5 21.5t-21.5 50.5t21.5 50.5t50.5 21.5h180l52 323q3 24 23 41t48 17q32 0 52 -20.5t20 -51.5q0 -14 -49 -309h260l51 323q3 24 23.5 41t48.5 17q32 0 51.5 -20.5t19.5 -51.5q0 -14 -49 -309h158 q29 0 50.5 -21.5t21.5 -50.5t-21.5 -50.5t-50.5 -21.5h-180l-49 -311h2h155q29 0 50.5 -21.5t21.5 -50.5t-21.5 -50t-50.5 -21h-180l-51 -324q-5 -24 -25 -41.5t-47 -17.5q-29 0 -50.5 20.5t-21.5 50.5q0 3 50 312h-260l-52 -324q-5 -24 -24.5 -41.5t-46.5 -17.5 q-29 0 -50.5 20.5t-21.5 50.5q0 9 49 312h-158q-29 0 -50 21t-21 50zM471 516h260l49 311h-260z" />
<glyph unicode="$" horiz-adv-x="1253" d="M96 158q0 35 23.5 59.5t60.5 24.5q18 0 39 -9q163 -74 373 -79v469q-60 16 -100 27.5t-95.5 32.5t-91.5 41t-76.5 51.5t-63.5 66.5t-38.5 83.5t-15.5 104.5q0 170 126.5 288t354.5 130v160q0 20 12.5 33.5t32.5 13.5t33.5 -13.5t13.5 -33.5v-158q196 -6 365 -68 q57 -20 57 -82q0 -33 -22.5 -58t-59.5 -25q-13 0 -33 8q-148 52 -307 55v-487q61 -14 100.5 -25t95 -30.5t91.5 -39.5t76.5 -52t63.5 -68.5t38.5 -87.5t15.5 -111q0 -167 -131.5 -277t-349.5 -122v-160q0 -20 -13.5 -32.5t-33.5 -12.5t-32.5 12.5t-12.5 32.5v160 q-235 10 -438 98q-24 9 -41 31t-17 49zM295 1044q0 -40 16 -73t40.5 -55.5t65.5 -42t80 -32t95 -26.5v461q-134 -12 -215.5 -73t-81.5 -159zM684 156q297 21 297 235q0 35 -16 63.5t-41 49t-66.5 39t-79.5 30.5t-94 27v-444z" />
<glyph unicode="%" horiz-adv-x="1667" d="M88 1098q0 160 86.5 263t243.5 103t243.5 -103t86.5 -263q0 -161 -86.5 -264t-243.5 -103t-243.5 103t-86.5 264zM231 1098q0 -102 49.5 -168t137.5 -66t137 66t49 168t-49 167.5t-137 65.5t-137.5 -65.5t-49.5 -167.5zM350 47q0 18 10 35l834 1333q20 33 57 33 q31 0 50.5 -16.5t19.5 -45.5q0 -23 -14 -45l-828 -1325q-22 -36 -61 -36q-27 0 -47.5 19.5t-20.5 47.5zM920 330q0 161 86 263.5t243 102.5t243.5 -103t86.5 -263q0 -161 -86.5 -264t-243.5 -103t-243 103t-86 264zM1063 330q0 -102 49 -168t137 -66t137.5 66t49.5 168 t-49.5 167.5t-137.5 65.5t-137 -65.5t-49 -167.5z" />
<glyph unicode="&#x26;" horiz-adv-x="1499" d="M145 401q0 74 24 142t63 116.5t74 80.5t71 55q-62 74 -93.5 141t-31.5 156q0 150 104.5 254t278.5 104q136 0 272 -90q15 -8 26 -25.5t11 -36.5q0 -28 -21 -49.5t-51 -21.5q-16 0 -36 10q-97 53 -193 53q-102 0 -160.5 -56t-58.5 -132q0 -46 9.5 -80t40 -74.5t59.5 -70.5 t96 -93l428 -403q29 43 67 125q9 22 31.5 36.5t48.5 14.5q37 0 61.5 -23.5t24.5 -60.5q0 -21 -10 -41q-45 -95 -98 -168l137 -131q33 -30 33 -65q0 -34 -23 -59t-61 -25q-37 0 -64 24l-137 131q-188 -159 -420 -159q-130 0 -230 36.5t-157.5 98.5t-86 134t-28.5 152z M322 395q0 -114 89 -186t220 -72q173 0 315 115l-457 428q-68 -45 -117.5 -117t-49.5 -168z" />
<glyph unicode="'" horiz-adv-x="487" d="M129 1038q0 33 31 52q52 31 78 71.5t26 118.5h-8q-47 0 -81 34t-34 81v12q0 47 34 81t81 34h20q47 0 81 -34t34 -81v-12v-109q0 -196 -168 -299q-15 -10 -35 -10q-26 0 -42.5 18t-16.5 43z" />
<glyph unicode="(" horiz-adv-x="638" d="M104 629q0 265 72.5 501t216.5 406q15 20 29.5 28.5t38.5 8.5q33 0 57.5 -23t24.5 -57q0 -22 -13 -45q-239 -400 -239 -819t239 -819q13 -23 13 -46q0 -34 -24.5 -56.5t-57.5 -22.5q-24 0 -38.5 8.5t-29.5 27.5q-144 170 -216.5 406.5t-72.5 501.5z" />
<glyph unicode=")" horiz-adv-x="638" d="M98 -236q0 23 13 46q239 400 239 819t-239 819q-13 23 -13 45q0 34 24.5 57t57.5 23q24 0 38.5 -8.5t29.5 -28.5q144 -170 216.5 -406t72.5 -501t-72.5 -501.5t-216.5 -406.5q-15 -19 -29.5 -27.5t-38.5 -8.5q-33 0 -57.5 22.5t-24.5 56.5z" />
<glyph unicode="*" horiz-adv-x="854" d="M136.5 995.5q5.5 25.5 27.5 36.5q8 4 205 80q-197 76 -205 80q-22 13 -27.5 38.5t6.5 45.5q12 21 35 28t47 -6q8 -4 172 -137q-32 203 -32 217q0 25 18.5 42.5t42.5 17.5t42.5 -17.5t18.5 -42.5q0 -14 -32 -217q164 133 172 137q22 13 46 6t36 -28q11 -20 5.5 -45.5 t-26.5 -38.5q-8 -4 -205 -80q197 -76 205 -80q21 -12 26.5 -37t-5.5 -45q-12 -21 -36 -28.5t-46 4.5q-8 4 -172 137q32 -203 32 -217q0 -25 -18.5 -42.5t-42.5 -17.5t-42.5 17.5t-18.5 42.5q0 14 32 217q-164 -133 -172 -137q-24 -11 -47 -4t-35 28q-12 20 -6.5 45.5z" />
<glyph unicode="+" horiz-adv-x="1150" d="M82 707q0 34 22 56.5t56 22.5h336v336q0 34 22.5 57t56.5 23t57 -23t23 -57v-336h334q34 0 57 -22.5t23 -56.5t-23 -56t-57 -22h-334v-336q0 -34 -23 -57t-57 -23t-56.5 23t-22.5 57v336h-336q-34 0 -56 22t-22 56z" />
<glyph unicode="," horiz-adv-x="532" d="M129 -248q0 32 31 51q51 30 77.5 71.5t26.5 119.5h-8q-47 0 -81 34t-34 81v12q0 47 34 81t81 34h20q47 0 81 -34t34 -81v-12v-109q0 -196 -168 -299q-15 -10 -35 -10q-26 0 -42.5 18t-16.5 43z" />
<glyph unicode="-" horiz-adv-x="835" d="M141 573q0 35 23.5 59.5t58.5 24.5h387q35 0 59.5 -24.5t24.5 -59.5t-24 -58t-60 -23h-387q-35 0 -58.5 23t-23.5 58z" />
<glyph unicode="." horiz-adv-x="532" d="M141 109v12q0 47 34 81t81 34h20q47 0 81 -34t34 -81v-12q0 -47 -34 -81t-81 -34h-20q-47 0 -81 34t-34 81z" />
<glyph unicode="/" horiz-adv-x="907" d="M98 -111q0 13 6 31l543 1587q8 26 29 42t51 16q36 0 60 -24t24 -60q0 -13 -6 -31l-543 -1587q-8 -26 -29 -42t-51 -16q-36 0 -60 24t-24 60z" />
<glyph unicode="0" d="M88 715q0 222 61 385.5t187 256.5t307 93q180 0 306 -93t187.5 -257t61.5 -385t-61.5 -385t-187.5 -257t-306 -93q-181 0 -307 93t-187 256.5t-61 385.5zM274 715q0 -264 95 -413.5t274 -149.5t274 149.5t95 413.5q0 262 -95 411.5t-274 149.5t-274 -149.5t-95 -411.5z " />
<glyph unicode="1" d="M262 1186q0 58 53 84l279 145q30 15 57 15h43q40 0 69.5 -29.5t29.5 -69.5v-1157h202q37 0 62.5 -25.5t25.5 -62.5t-25.5 -61.5t-62.5 -24.5h-633q-37 0 -61.5 24.5t-24.5 61.5t24.5 62.5t61.5 25.5h244v1038l-209 -102q-28 -12 -47 -12q-38 0 -63 25t-25 63z" />
<glyph unicode="2" d="M133 106q0 69 28 134t75.5 117.5t109 103t129 95t135.5 88t129.5 87.5t109 88.5t75.5 96t28 104.5q0 117 -77 185.5t-246 68.5q-184 0 -350 -74q-20 -10 -39 -10q-34 0 -56 23t-22 57q0 53 45 76q210 104 455 104q200 0 335.5 -116t135.5 -300q0 -86 -39 -167 t-103.5 -146.5t-143 -126t-162 -115t-156.5 -103.5t-130.5 -101.5t-79.5 -100.5h713q37 0 62.5 -25.5t25.5 -62.5t-25.5 -61.5t-62.5 -24.5h-790q-48 0 -78.5 29.5t-30.5 76.5z" />
<glyph unicode="3" d="M121 139q0 34 23.5 60t58.5 26q19 0 39 -8q147 -59 325 -59q73 0 135.5 10.5t120 35t90.5 71t33 110.5q0 258 -452 258h-33q-35 0 -60.5 25.5t-25.5 60.5t25.5 60.5t60.5 25.5h12q204 0 313 62.5t109 185.5q0 98 -82 155.5t-242 57.5q-171 0 -317 -68q-20 -8 -37 -8 q-31 0 -53.5 21.5t-22.5 54.5q0 49 41 70q196 104 406 104q236 0 364.5 -97t128.5 -272q0 -251 -247 -342q39 -9 75.5 -23.5t79 -44t73 -67.5t51 -97.5t20.5 -131.5q0 -126 -71 -217t-189.5 -134.5t-270.5 -43.5q-230 0 -428 81q-53 21 -53 78z" />
<glyph unicode="4" d="M51 477v19q0 41 25 73l643 822q39 49 102 49h41q53 0 86 -34t33 -85v-795h156q35 0 59.5 -24.5t24.5 -59.5t-24.5 -58.5t-59.5 -23.5h-156v-278q0 -38 -28 -65t-66 -27t-65 27t-27 65v278h-625q-50 0 -84.5 34t-34.5 83zM250 526h545v703z" />
<glyph unicode="5" d="M131 172q0 36 23 62t59 26q23 0 43 -10q161 -86 328 -86q95 0 165.5 14.5t124.5 47t81.5 89.5t27.5 138q0 126 -85 200t-232 74q-170 0 -316 -88q-1 -1 -10.5 -6.5t-13.5 -7t-12.5 -5t-17 -5t-17.5 -1.5q-59 0 -97.5 32.5t-38.5 86.5q0 25 4 49l93 545q6 47 35.5 75 t72.5 28h658q37 0 62.5 -26t25.5 -63t-25.5 -61.5t-62.5 -24.5h-594l-66 -434q157 84 346 84q226 0 351.5 -128.5t125.5 -334.5q0 -100 -33.5 -183t-100.5 -146t-176 -98t-251 -35q-254 0 -436 118q-13 9 -20.5 16t-14 22.5t-6.5 35.5z" />
<glyph unicode="6" d="M121 713q0 71 9 141.5t30 144t52.5 138.5t79.5 123t107.5 100t140.5 66t175 24q194 0 362 -88q19 -9 31 -30t12 -44q0 -34 -23.5 -59t-60.5 -25q-20 0 -35 6q-127 60 -272 60q-73 0 -134 -20t-103.5 -52t-76 -77.5t-54 -91.5t-34.5 -100t-20 -97t-8 -87q143 181 420 181 q210 0 339.5 -131.5t129.5 -350.5q0 -199 -138.5 -331.5t-367.5 -132.5q-561 0 -561 733zM309 530q55 -376 375 -376q142 0 229.5 86t87.5 209q0 140 -78 223.5t-227 83.5q-266 0 -387 -226z" />
<glyph unicode="7" d="M123 1339q0 37 26 64t62 27h836q49 0 81.5 -31.5t32.5 -77.5q0 -45 -20 -90l-582 -1190q-12 -23 -36 -37t-52 -14q-40 0 -66 26t-26 66q0 25 12 49l563 1120h-743q-37 0 -62.5 25.5t-25.5 62.5z" />
<glyph unicode="8" d="M96 379q0 285 305 387q-104 35 -170.5 114t-66.5 197q0 51 15 100.5t51 99.5t89 88t137 61.5t187 23.5t187 -23.5t137 -61.5t89 -88t51 -99.5t15 -100.5q0 -118 -66.5 -197t-170.5 -114q305 -102 305 -387q0 -57 -17 -111.5t-58.5 -107.5t-102.5 -92.5t-156 -63.5 t-213 -24t-213 24t-156 63.5t-102.5 92.5t-58.5 107.5t-17 111.5zM283 399q0 -30 10.5 -62t37.5 -67.5t66.5 -63t103.5 -45.5t142 -18q97 0 171 26.5t113 67.5t58 82.5t19 79.5q0 88 -52 152.5t-132 94.5t-177 30q-151 0 -255.5 -73t-104.5 -204zM350 1065q0 -38 15 -74.5 t47 -70.5t92 -55t139 -21t139 21t92 55t47 70.5t15 74.5q0 96 -75 158.5t-218 62.5t-218 -62.5t-75 -158.5z" />
<glyph unicode="9" d="M98 985q0 199 138.5 332t367.5 133q561 0 561 -733q0 -71 -9 -141.5t-30 -144t-52.5 -138.5t-79.5 -123t-107.5 -100t-140.5 -66t-175 -24q-194 0 -362 88q-19 9 -31 29.5t-12 43.5q0 34 23.5 59t60.5 25q20 0 35 -6q125 -59 272 -59q73 0 134 19.5t103.5 51.5t76 77.5 t54 91.5t34.5 100t20 97t8 87q-142 -180 -420 -180q-210 0 -339.5 131t-129.5 350zM285 981q0 -140 78 -223.5t227 -83.5q266 0 387 225q-55 377 -375 377q-142 0 -229.5 -86t-87.5 -209z" />
<glyph unicode=":" horiz-adv-x="532" d="M141 109v12q0 47 34 81t81 34h20q47 0 81 -34t34 -81v-12q0 -47 -34 -81t-81 -34h-20q-47 0 -81 34t-34 81zM141 924v12q0 47 34 81t81 34h20q47 0 81 -34t34 -81v-12q0 -47 -34 -81t-81 -34h-20q-47 0 -81 34t-34 81z" />
<glyph unicode=";" horiz-adv-x="532" d="M129 -248q0 32 31 51q51 30 77.5 71.5t26.5 119.5h-8q-47 0 -81 34t-34 81v12q0 47 34 81t81 34h20q47 0 81 -34t34 -81v-12v-109q0 -196 -168 -299q-15 -10 -35 -10q-26 0 -42.5 18t-16.5 43zM141 924v12q0 47 34 81t81 34h20q47 0 81 -34t34 -81v-12q0 -47 -34 -81 t-81 -34h-20q-47 0 -81 34t-34 81z" />
<glyph unicode="&#x3c;" horiz-adv-x="1187" d="M72 598v16q0 35 19.5 63.5t53.5 43.5l818 366q18 7 32 7q34 0 58 -23.5t24 -58.5q0 -25 -15 -46t-40 -32l-737 -328l737 -327q25 -11 40 -32t15 -46q0 -35 -24 -58.5t-58 -23.5q-17 0 -32 6l-818 367q-34 15 -53.5 43t-19.5 63z" />
<glyph unicode="=" horiz-adv-x="1458" d="M150 449q0 34 22.5 56.5t56.5 22.5h1000q34 0 57 -22.5t23 -56.5t-23 -57t-57 -23h-1000q-34 0 -56.5 23t-22.5 57zM150 907q0 34 22.5 57t56.5 23h1000q34 0 57 -23t23 -57t-23 -57t-57 -23h-1000q-34 0 -56.5 23t-22.5 57z" />
<glyph unicode="&#x3e;" horiz-adv-x="1187" d="M111 201q0 25 15 46t40 32l737 327l-737 328q-25 11 -40 32t-15 46q0 35 24 58.5t58 23.5q15 0 32 -7l817 -366q34 -15 54 -43.5t20 -63.5v-16q0 -35 -20 -63t-54 -43l-817 -367q-15 -6 -32 -6q-34 0 -58 23.5t-24 58.5z" />
<glyph unicode="?" horiz-adv-x="1017" d="M53 1274q0 48 51 78q157 98 361 98q210 0 335.5 -104.5t125.5 -282.5q0 -66 -21 -122t-55 -95.5t-75 -74.5t-81.5 -67t-74.5 -66t-55 -79t-21 -98q0 -33 -27 -56.5t-63 -23.5q-38 0 -64.5 23.5t-26.5 56.5q0 71 21 131.5t54.5 103.5t73.5 80.5t80.5 69t74 62.5t54.5 68 t21 77q0 223 -292 223q-154 0 -263 -68q-24 -16 -51 -16q-34 0 -58 24t-24 58zM328 115q0 49 36 85t85 36q51 0 86.5 -35.5t35.5 -85.5q0 -51 -35.5 -87t-86.5 -36q-50 0 -85.5 36t-35.5 87z" />
<glyph unicode="@" horiz-adv-x="1839" d="M100 537q0 173 70 333.5t186.5 278.5t277.5 189t335 71q157 -1 299.5 -53.5t249 -144t169 -224.5t62.5 -287q0 -94 -21.5 -180.5t-65 -161t-119.5 -119t-175 -44.5q-102 0 -159.5 44.5t-69.5 106.5q-127 -153 -338 -153q-164 0 -256 100.5t-92 259.5q0 116 41.5 212 t110 157.5t154.5 95t179 33.5q153 0 262 -105l6 35q4 27 26 45t50 18q31 0 52.5 -21.5t21.5 -53.5q0 -11 -2 -23l-68 -389q-14 -77 -14 -133q0 -58 25 -95.5t77 -37.5q127 0 195.5 110.5t68.5 298.5q0 143 -58.5 259.5t-154.5 189.5t-213.5 112t-242.5 39q-152 0 -293 -61.5 t-243.5 -164.5t-164 -244t-61.5 -293q0 -89 25 -175.5t76.5 -163t123 -135t171.5 -92.5t216 -34q88 0 168.5 14.5t130.5 31t129 48.5q12 4 23 4q22 0 36.5 -13.5t14.5 -35.5q0 -32 -29 -47q-220 -109 -473 -109q-160 0 -296.5 58.5t-228 156t-143 225.5t-51.5 267zM610 573 q0 -120 66 -179.5t170 -59.5q250 0 299 287l33 190q-90 94 -232 94q-88 0 -163 -36.5t-124 -114t-49 -181.5z" />
<glyph unicode="A" horiz-adv-x="1427" d="M53 82q0 18 10 41l523 1233q15 36 45.5 60t73.5 24h20q43 0 73.5 -24t45.5 -60l522 -1233q10 -23 10 -41q0 -39 -25 -65.5t-67 -26.5q-63 0 -88 57l-133 320h-696l-134 -320q-25 -57 -88 -57q-42 0 -67 26.5t-25 65.5zM438 537h553l-276 665z" />
<glyph unicode="B" horiz-adv-x="1419" d="M199 92v1243q0 39 27 67t65 28h483q220 0 339.5 -100.5t119.5 -270.5q0 -118 -56.5 -197t-144.5 -119q58 -18 106.5 -47t88.5 -70.5t63 -99t23 -125.5q0 -189 -127 -295t-400 -106h-495q-38 0 -65 27t-27 65zM385 174h383q199 0 282 61.5t83 174.5q0 233 -363 233h-385 v-469zM385 811h340q181 0 255.5 61.5t74.5 171.5q0 96 -78.5 153.5t-216.5 57.5h-375v-444z" />
<glyph unicode="C" horiz-adv-x="1429" d="M115 715q0 223 94 391.5t255.5 256t366.5 87.5q140 0 249.5 -33t217.5 -94q42 -22 45 -74v-5q0 -30 -21 -52q-23 -24 -60 -25q-19 0 -37 9q-91 48 -177 72t-198 24q-176 0 -302 -74.5t-186.5 -198.5t-60.5 -284t60.5 -284t186.5 -198.5t302 -74.5q112 0 198 24t177 72 q16 8 37 8q37 0 60 -24q21 -23 21 -53v-5q-3 -52 -45 -74q-107 -61 -217 -93.5t-250 -32.5q-205 0 -366.5 87.5t-255.5 256t-94 391.5z" />
<glyph unicode="D" horiz-adv-x="1536" d="M199 92v1243q0 39 27 67t65 28h411q142 0 262.5 -41t204 -111t142.5 -162t86.5 -193.5t27.5 -207.5q0 -105 -27.5 -206.5t-86.5 -194t-142.5 -162t-204 -111t-262.5 -41.5h-411q-38 0 -65 27t-27 65zM385 174h295q255 0 408 150t153 391t-153 390.5t-408 149.5h-295 v-1081z" />
<glyph unicode="E" horiz-adv-x="1306" d="M199 92v1243q0 39 27 67t65 28h821q37 0 62.5 -26t25.5 -63t-25.5 -61.5t-62.5 -24.5h-727v-452h653q37 0 62.5 -25.5t25.5 -62.5t-25.5 -61.5t-62.5 -24.5h-653v-455h727q37 0 62.5 -25.5t25.5 -62.5t-25.5 -61.5t-62.5 -24.5h-821q-38 0 -65 27t-27 65z" />
<glyph unicode="F" horiz-adv-x="1249" d="M199 82v1253q0 39 27 67t65 28h796q37 0 63 -26t26 -63q0 -36 -26 -61t-63 -25h-702v-452h631q37 0 62.5 -25.5t25.5 -62.5t-25.5 -61.5t-62.5 -24.5h-631v-547q0 -38 -28 -65t-66 -27t-65 27t-27 65z" />
<glyph unicode="G" horiz-adv-x="1523" d="M113 713q0 163 55.5 302t151.5 233.5t226.5 148t278.5 53.5q160 0 280 -38.5t230 -108.5q16 -9 28.5 -29t12.5 -45q0 -34 -24 -59t-62 -25q-23 0 -43 10q-193 115 -401 115q-156 0 -278.5 -63.5t-195.5 -191.5t-73 -302q0 -159 65 -284t192.5 -199t299.5 -74 q192 0 358 90v370h-337q-35 0 -59.5 24.5t-24.5 59.5t24.5 59.5t59.5 24.5h403q41 0 69.5 -28.5t28.5 -69.5v-465q0 -42 -21 -75.5t-57 -51.5q-226 -114 -469 -114q-159 0 -293.5 54.5t-227.5 151t-145 232.5t-52 295z" />
<glyph unicode="H" horiz-adv-x="1546" d="M199 82v1264q0 38 27 66t65 28t66 -28t28 -66v-545h776v545q0 38 27 66t65 28t66.5 -28t28.5 -66v-1264q0 -38 -28 -65t-67 -27q-38 0 -65 27t-27 65v545h-776v-545q0 -38 -28 -65t-66 -27t-65 27t-27 65z" />
<glyph unicode="I" horiz-adv-x="583" d="M199 82v1264q0 38 27 66t65 28t66 -28t28 -66v-1264q0 -38 -28 -65t-66 -27t-65 27t-27 65z" />
<glyph unicode="J" horiz-adv-x="954" d="M25 125q0 34 21.5 59t55.5 25q21 0 37 -8q92 -45 191 -45q41 0 73.5 6.5t66.5 26t56.5 52t37 88t14.5 130.5v887q0 38 27 66t65 28t66 -28t28 -66v-875q0 -113 -24 -200.5t-63.5 -141.5t-96 -88.5t-114 -47.5t-124.5 -13q-150 0 -272 69q-45 25 -45 76z" />
<glyph unicode="K" horiz-adv-x="1372" d="M199 82v1264q0 38 27 66t65 28t66 -28t28 -66v-652l700 713q29 33 70 33q37 0 63 -26q23 -23 23 -55v-7q-3 -39 -22 -58l-474 -471l543 -684q23 -30 23 -62q1 -35 -25 -61t-65 -26q-48 0 -74 37l-529 673l-233 -235v-383q0 -38 -28 -65t-66 -27t-65 27t-27 65z" />
<glyph unicode="L" horiz-adv-x="1179" d="M199 129v1217q0 38 27 66t65 28t66 -28t28 -66v-1160h670q38 0 66 -28t28 -66t-28 -65t-66 -27h-727q-54 0 -91.5 37.5t-37.5 91.5z" />
<glyph unicode="M" horiz-adv-x="1978" d="M199 82v1223q0 56 39 95.5t94 39.5h67q41 0 75.5 -24.5t49.5 -61.5l465 -1159l465 1159q15 37 49.5 61.5t75.5 24.5h68q55 0 94 -39.5t39 -95.5v-1223q0 -38 -27 -65t-65 -27q-39 0 -67 27t-28 65v1163l-473 -1169q-18 -39 -53 -62.5t-78 -23.5t-78 23.5t-53 62.5 l-473 1169v-1163q0 -38 -28 -65t-66 -27t-65 27t-27 65z" />
<glyph unicode="N" horiz-adv-x="1644" d="M199 82v1223q0 56 39 95.5t94 39.5h26q64 0 113 -62l789 -1138v1106q0 38 27 66t65 28t66 -28t28 -66v-1223q0 -55 -39.5 -94t-95.5 -39h-25q-66 0 -108 55l-793 1145v-1108q0 -38 -28 -65t-66 -27t-65 27t-27 65z" />
<glyph unicode="O" horiz-adv-x="1660" d="M113 715q4 214 91 380t249.5 260.5t377.5 94.5q214 0 377 -94.5t250.5 -260.5t91.5 -380q-4 -214 -91.5 -380t-250.5 -260.5t-377 -94.5q-215 0 -377.5 94.5t-249.5 260.5t-91 380zM299 715q0 -159 61 -285t183.5 -201t287.5 -75q124 0 225.5 43.5t168.5 119t103 178 t36 220.5t-36 220.5t-103 178t-168.5 119t-225.5 43.5q-165 0 -287.5 -75t-183.5 -201t-61 -285z" />
<glyph unicode="P" horiz-adv-x="1370" d="M199 82v1253q0 39 27 67t65 28h467q120 0 215.5 -27t156.5 -70.5t101.5 -103.5t57 -123t16.5 -131t-16.5 -131t-57 -123t-101.5 -103.5t-156.5 -70.5t-215.5 -27h-373v-438q0 -38 -28 -65t-66 -27t-65 27t-27 65zM385 696h354q88 0 156 16.5t109.5 43t67.5 64t36 75 t10 80.5q0 54 -17 100t-57 88t-118 66t-187 24h-354v-557z" />
<glyph unicode="Q" horiz-adv-x="1662" d="M113 715q4 214 91 380t249.5 260.5t377.5 94.5q214 0 377 -94.5t250.5 -260.5t91.5 -380q-5 -240 -116.5 -419t-307.5 -261l181 -199q24 -24 24 -62q0 -33 -25 -58q-26 -27 -63 -27q-39 0 -65 32l-224 267q-52 -8 -123 -8q-215 0 -377.5 94.5t-249.5 260.5t-91 380z M299 715q0 -159 61 -285t183.5 -201t287.5 -75q124 0 225.5 43.5t168.5 119t103 178t36 220.5t-36 220.5t-103 178t-168.5 119t-225.5 43.5q-165 0 -287.5 -75t-183.5 -201t-61 -285z" />
<glyph unicode="R" horiz-adv-x="1458" d="M199 82v1253q0 39 27 67t65 28h477q279 0 418 -114.5t139 -301.5q0 -124 -69 -225.5t-199 -145.5q54 -14 97.5 -46.5t70 -76t45.5 -89.5t27.5 -96.5t12 -87.5t3.5 -71v-94q0 -38 -27 -65t-65 -27q-43 0 -69 25.5t-26 66.5v61q0 33 -1 57t-5 64t-13 70t-23.5 66t-38.5 62 t-56 49t-78 34.5t-102 11.5h-424v-475q0 -38 -28 -65t-66 -27t-65 27t-27 65zM385 733h371q176 0 279.5 69t103.5 197q0 60 -19.5 104.5t-63.5 79t-122 52.5t-189 18h-360v-520z" />
<glyph unicode="S" horiz-adv-x="1261" d="M104 162q0 35 23.5 60.5t60.5 25.5q20 0 39 -8q188 -84 404 -84q358 0 358 235q0 48 -30 84.5t-80 60.5t-115.5 43t-137.5 37.5t-144 39t-137.5 52.5t-115.5 73t-80 104.5t-30 144.5q0 179 140.5 299.5t389.5 120.5q224 0 408 -68q57 -20 57 -82q0 -33 -23 -59.5 t-59 -26.5q-10 0 -33 9q-157 55 -329 55q-161 0 -263 -61t-102 -173q0 -56 29.5 -97.5t80 -67t115.5 -44.5t137.5 -36t144.5 -36.5t137 -50t115.5 -72t80 -108t29.5 -153.5q0 -175 -145 -287t-380 -112q-258 0 -487 98q-24 9 -41 33t-17 51z" />
<glyph unicode="T" horiz-adv-x="1251" d="M29 1341q0 37 25 63t61 26h1020q37 0 62.5 -26t25.5 -63t-25.5 -61.5t-62.5 -24.5h-416v-1173q0 -38 -28 -65t-66 -27t-65.5 27t-27.5 65v1173h-417q-37 0 -61.5 24.5t-24.5 61.5z" />
<glyph unicode="U" horiz-adv-x="1552" d="M188 537v809q0 38 27.5 66t65.5 28t66 -28t28 -66v-816q0 -93 34 -167t91.5 -119.5t128 -69.5t147.5 -24t148 24t128 69.5t91.5 119.5t34.5 167v816q0 38 27 66t65 28t66 -28t28 -66v-809q0 -112 -35 -205.5t-93 -157.5t-134.5 -108.5t-159 -65t-166.5 -20.5t-166.5 20.5 t-159 65t-134.5 108.5t-93 157.5t-35 205.5z" />
<glyph unicode="V" horiz-adv-x="1421" d="M49 1346q0 42 25 68t67 26q28 0 52 -17.5t36 -46.5l482 -1200l481 1200q12 29 36 46.5t52 17.5q42 0 67 -26t25 -68q0 -20 -6 -35l-506 -1227q-43 -94 -127 -94h-45q-84 0 -127 94l-506 1227q-6 15 -6 35z" />
<glyph unicode="W" horiz-adv-x="2062" d="M53 1350v8q-1 33 23 56q26 26 67 26q33 0 58.5 -20.5t34.5 -53.5l344 -1130l346 1126q11 34 40.5 56t65.5 22q37 0 66.5 -22t40.5 -56l346 -1126l344 1130q9 33 34 53.5t58 20.5q41 0 67 -26q24 -23 23 -56v-8q0 -14 -6 -35l-401 -1233q-34 -92 -121 -92q-41 0 -75 26 t-46 66l-330 1044l-330 -1044q-12 -40 -45.5 -66t-74.5 -26q-87 0 -121 92l-402 1233q-6 21 -6 35z" />
<glyph unicode="X" horiz-adv-x="1370" d="M88 76q0 33 18 57l474 582l-469 577q-19 25 -19 58q0 38 26 64t64 26q50 0 76 -37l432 -549l432 553q23 33 68 33q37 0 63.5 -25.5t26.5 -62.5q0 -30 -16 -52l-473 -583l473 -582q18 -21 18 -53q0 -38 -25.5 -65t-66.5 -27q-47 0 -74 39l-438 551l-432 -553 q-29 -37 -72 -37q-35 0 -60.5 25.5t-25.5 60.5z" />
<glyph unicode="Y" horiz-adv-x="1320" d="M61 1346v5q0 36 25 61q27 28 66 28q51 0 81 -47l429 -623l428 623q30 47 81 47q39 0 66 -28q25 -25 25 -61v-5q0 -29 -17 -56l-491 -686v-522q0 -38 -27 -65t-65 -27q-39 0 -67 27t-28 65v522l-489 686q-17 27 -17 56z" />
<glyph unicode="Z" horiz-adv-x="1306" d="M96 119q0 45 25 76l856 1056h-789q-37 0 -62.5 25.5t-25.5 62.5t26 64t62 27h889q57 0 91 -37t34 -90q0 -44 -33 -82l-845 -1047h802q37 0 62.5 -25.5t25.5 -62.5t-25.5 -61.5t-62.5 -24.5h-911q-49 0 -84 35t-35 84z" />
<glyph unicode="[" horiz-adv-x="659" d="M178 -180v1589q0 37 26.5 63.5t63.5 26.5h260q31 0 52.5 -21.5t21.5 -52.5t-21.5 -52t-52.5 -21h-188v-1477h188q31 0 52.5 -21.5t21.5 -50.5t-22 -51t-52 -22h-260q-37 0 -63.5 26.5t-26.5 63.5z" />
<glyph unicode="\" horiz-adv-x="907" d="M96 1481q0 36 24 60t60 24q30 0 51 -16t29 -42l543 -1587q6 -18 6 -31q0 -36 -24 -60t-60 -24q-30 0 -51 16t-29 42l-543 1587q-6 18 -6 31z" />
<glyph unicode="]" horiz-adv-x="659" d="M57 -197q0 29 21.5 50.5t52.5 21.5h188v1477h-188q-31 0 -52.5 21t-21.5 52t21.5 52.5t52.5 21.5h260q37 0 63.5 -26.5t26.5 -63.5v-1589q0 -37 -26.5 -63.5t-63.5 -26.5h-260q-31 0 -52.5 22t-21.5 51z" />
<glyph unicode="^" horiz-adv-x="1073" d="M168 924q0 13 12 37l215 407q36 70 101 70h77q65 0 101 -70l215 -407q12 -24 12 -37q0 -30 -21 -52t-53 -22q-34 0 -53 22q-1 1 -10 16q-68 113 -229 374l-240 -390q-19 -22 -53 -22q-32 0 -53 22t-21 52z" />
<glyph unicode="_" horiz-adv-x="1357" d="M106 -233q0 28 20 47.5t48 19.5h1010q28 0 47.5 -19.5t19.5 -47.5t-19.5 -48t-47.5 -20h-1010q-28 0 -48 20t-20 48z" />
<glyph unicode="`" horiz-adv-x="503" d="M141 1403q0 34 21 55t55 21q48 0 68 -39l104 -185q14 -21 14 -38q0 -25 -15 -40.5t-40 -15.5t-45 23l-141 168q-21 24 -21 51z" />
<glyph unicode="a" horiz-adv-x="1136" d="M78 287q0 151 120 241t351 90h248v17q0 134 -67 194t-208 60q-123 0 -272 -49q-16 -4 -27 -4q-31 0 -53.5 22t-22.5 55q0 56 54 78q173 74 354 74q108 0 192.5 -34.5t134.5 -92.5t75.5 -128t25.5 -148v-580q0 -38 -28 -65t-66 -27t-65 27t-27 65v53q-151 -155 -385 -155 q-139 0 -236.5 83.5t-97.5 223.5zM264 307q0 -74 50.5 -119t166.5 -45q90 0 174.5 44.5t141.5 109.5v172h-224q-309 0 -309 -162z" />
<glyph unicode="b" horiz-adv-x="1292" d="M162 82v1329q0 40 27 67t65 27q40 0 67 -27t27 -67v-502q150 156 350 156q94 0 182 -36.5t158.5 -103.5t113 -172t42.5 -231t-42.5 -230.5t-113 -171.5t-158.5 -103.5t-182 -36.5q-201 0 -350 155v-53q0 -38 -27 -65t-67 -27q-38 0 -65 27t-27 65zM348 307 q139 -153 324 -153q151 0 243.5 96t92.5 272q0 177 -92.5 273t-243.5 96q-184 0 -324 -154v-430z" />
<glyph unicode="c" horiz-adv-x="1097" d="M94 522q0 125 44.5 228.5t120 171.5t174 105.5t208.5 37.5q182 0 334 -98q41 -26 41 -72q0 -30 -23.5 -56t-54.5 -26q-23 0 -45 12q-45 23 -71.5 34.5t-70.5 21.5t-94 10q-176 0 -276 -101t-100 -268t100 -267.5t276 -100.5q72 0 121 15.5t115 49.5q22 12 45 12 q31 0 54.5 -25.5t23.5 -55.5q0 -46 -41 -72q-152 -98 -334 -98q-110 0 -208.5 37t-174 105t-120 171.5t-44.5 228.5z" />
<glyph unicode="d" horiz-adv-x="1292" d="M98 522q0 126 42.5 231t113 172t158.5 103.5t182 36.5q200 0 350 -156v502q0 40 27 67t67 27q38 0 65 -27t27 -67v-1329q0 -38 -27 -65t-65 -27q-40 0 -67 27t-27 65v53q-149 -155 -350 -155q-94 0 -182 36.5t-158.5 103.5t-113 171.5t-42.5 230.5zM285 522 q0 -176 92.5 -272t243.5 -96q184 0 323 153v430q-140 154 -323 154q-151 0 -243.5 -96t-92.5 -273z" />
<glyph unicode="e" horiz-adv-x="1167" d="M100 522q0 85 18 163t57 147.5t95.5 121t138.5 81.5t181 30q115 0 208.5 -42t153.5 -114t92.5 -164.5t32.5 -195.5q0 -39 -26 -65.5t-68 -26.5h-694q15 -142 105.5 -222.5t252.5 -80.5q154 0 277 63q16 8 37 8q33 0 57 -23t24 -57q0 -46 -53 -75q-79 -45 -157.5 -67.5 t-200.5 -22.5q-251 0 -391 142.5t-140 399.5zM289 608h604q-4 76 -33.5 136t-74 94t-94.5 51.5t-101 17.5t-101 -17.5t-94 -51.5t-73 -94t-33 -136z" />
<glyph unicode="f" horiz-adv-x="778" d="M39 965q0 34 23 56.5t57 22.5h121v119q0 93 27 163.5t72.5 110.5t98 59.5t109.5 19.5q98 0 178 -41q47 -23 47 -72q0 -30 -22.5 -54t-53.5 -24q-16 0 -49 6t-53 6q-83 0 -125.5 -39t-42.5 -141v-113h256q34 0 57 -22.5t23 -56.5t-23 -57t-57 -23h-256v-803q0 -38 -27 -65 t-67 -27q-38 0 -65 27t-27 65v803h-121q-34 0 -57 23t-23 57z" />
<glyph unicode="g" horiz-adv-x="1292" d="M98 532q0 105 30 194t79.5 150.5t114 105t133.5 63.5t139 20q204 0 350 -156v52q0 38 27 66t65 28t66 -28t28 -66v-916q0 -258 -125.5 -397.5t-355.5 -139.5q-118 0 -239.5 31.5t-198.5 75.5q-37 22 -37 72q0 32 24 58t58 26q14 0 37 -9q154 -77 338 -77q313 0 313 333 v138q-146 -156 -350 -156q-70 0 -139 20t-133.5 63.5t-114 104.5t-79.5 150t-30 194zM285 532q0 -177 97 -269.5t251 -92.5q96 0 169 41t142 111v421q-69 70 -142 111t-169 41q-154 0 -251 -93t-97 -270z" />
<glyph unicode="h" horiz-adv-x="1247" d="M162 82v1329q0 40 27 67t65 27q39 0 66.5 -27.5t27.5 -66.5v-534q79 86 168 137t213 51q169 0 268 -115t99 -286v-582q0 -38 -28 -65t-67 -27q-38 0 -65 27t-27 65v561q0 250 -225 250q-178 0 -336 -197v-614q0 -38 -28 -65t-66 -27t-65 27t-27 65z" />
<glyph unicode="i" horiz-adv-x="526" d="M154 1362v8q0 43 30.5 74t73.5 31h12q43 0 74 -31t31 -74v-8q0 -43 -31 -74t-74 -31h-12q-43 0 -73.5 31t-30.5 74zM170 82v879q0 40 27 67t65 27q40 0 67 -27t27 -67v-879q0 -38 -27 -65t-67 -27q-38 0 -65 27t-27 65z" />
<glyph unicode="j" horiz-adv-x="526" d="M-94 -399q0 31 22.5 54t55.5 23q8 0 28 -3t33 -3q64 0 94.5 22.5t30.5 98.5v1165q0 40 27 67.5t65 27.5q40 0 67 -27.5t27 -67.5v-1169q0 -128 -64 -204.5t-204 -76.5q-70 0 -129 19q-25 7 -39 27.5t-14 46.5zM154 1362v8q0 43 30.5 74t73.5 31h12q43 0 74 -31t31 -74v-8 q0 -43 -31 -74t-74 -31h-12q-43 0 -73.5 31t-30.5 74z" />
<glyph unicode="k" horiz-adv-x="1118" d="M162 82v1329q0 38 27 66t65 28t66 -28t28 -66v-838l488 451q31 27 61 27q48 0 69 -26.5t21 -63.5q0 -35 -35 -70l-295 -264l371 -492q21 -28 21 -55q0 -41 -26.5 -65.5t-68.5 -24.5q-44 0 -75 39l-353 479l-178 -162v-264q0 -38 -28 -65t-66 -27t-65 27t-27 65z" />
<glyph unicode="l" horiz-adv-x="542" d="M178 82v1329q0 40 27 67t65 27q40 0 67.5 -27t27.5 -67v-1329q0 -38 -27.5 -65t-67.5 -27q-38 0 -65 27t-27 65z" />
<glyph unicode="m" horiz-adv-x="1882" d="M162 82v879q0 38 27 66t65 28t66 -28t28 -66v-84q26 36 52.5 64t68.5 59t100 48t127 17q115 0 196.5 -61.5t117.5 -149.5q127 211 376 211q87 0 155 -35.5t108 -93.5t60 -125.5t20 -138.5v-590q0 -38 -28 -65t-67 -27q-38 0 -65 27t-27 65v553q0 133 -47.5 195.5 t-161.5 62.5q-56 0 -103.5 -17t-83 -48t-60 -61.5t-48.5 -70.5v-614q0 -38 -28 -65t-66 -27t-65 27t-27 65v553q0 133 -47.5 195.5t-161.5 62.5q-56 0 -103.5 -17t-83 -48t-60 -61.5t-48.5 -70.5v-614q0 -38 -28 -65t-66 -27t-65 27t-27 65z" />
<glyph unicode="n" horiz-adv-x="1247" d="M162 82v879q0 40 27 67t65 27q39 0 66.5 -27.5t27.5 -66.5v-84q79 86 168 137t213 51q169 0 268 -115t99 -286v-582q0 -38 -28 -65t-67 -27q-38 0 -65 27t-27 65v561q0 250 -225 250q-178 0 -336 -197v-614q0 -38 -28 -65t-66 -27t-65 27t-27 65z" />
<glyph unicode="o" horiz-adv-x="1245" d="M98 522q0 244 144 393.5t381 149.5q236 0 380 -150t144 -393t-144 -392.5t-380 -149.5q-237 0 -381 149t-144 393zM285 524q0 -98 30 -172.5t80 -117t108 -63.5t120 -21t119.5 21t107.5 63.5t80.5 117.5t30.5 172t-30.5 171t-80.5 116.5t-107.5 63t-119.5 20.5 t-120 -20.5t-108 -63t-80 -116.5t-30 -171z" />
<glyph unicode="p" horiz-adv-x="1292" d="M162 -387v1350q0 38 27 65t65 27q40 0 67 -27t27 -65v-54q150 156 350 156q94 0 182 -36.5t158.5 -103.5t113 -172t42.5 -231t-42.5 -230.5t-113 -171.5t-158.5 -103.5t-182 -36.5q-201 0 -350 155v-522q0 -40 -27 -67t-67 -27q-38 0 -65 27t-27 67zM348 307 q139 -153 324 -153q151 0 243.5 96t92.5 272q0 177 -92.5 273t-243.5 96q-184 0 -324 -154v-430z" />
<glyph unicode="q" horiz-adv-x="1292" d="M98 522q0 126 42.5 231t113 172t158.5 103.5t182 36.5q200 0 350 -156v54q0 38 27 65t67 27q38 0 65 -27t27 -65v-1350q0 -40 -27 -67t-65 -27q-40 0 -67 27t-27 67v522q-149 -155 -350 -155q-94 0 -182 36.5t-158.5 103.5t-113 171.5t-42.5 230.5zM285 522 q0 -176 92.5 -272t243.5 -96q184 0 323 153v430q-140 154 -323 154q-151 0 -243.5 -96t-92.5 -273z" />
<glyph unicode="r" horiz-adv-x="792" d="M162 82v879q0 38 27 66t65 28t66 -28t28 -66v-89q146 193 322 193h10q38 0 64 -27t26 -65q0 -39 -27 -63.5t-67 -24.5h-10q-98 0 -180 -48.5t-138 -131.5v-623q0 -38 -28 -65t-66 -27t-65 27t-27 65z" />
<glyph unicode="s" horiz-adv-x="983" d="M98 139q0 32 23 57t57 25q18 0 37 -8q137 -61 279 -61q227 0 227 145q0 35 -34 60t-88 40.5t-119.5 30.5t-131.5 37.5t-120 54.5t-88 88.5t-34 132.5q0 144 103.5 234t296.5 90q159 0 297 -51q28 -9 43.5 -31t15.5 -47q0 -33 -23.5 -57.5t-58.5 -24.5q-10 0 -26 4 q-122 37 -234 37q-111 0 -173 -40t-62 -103q0 -34 21 -59t56.5 -40.5t82 -27.5t97.5 -24.5t102 -27t97.5 -38.5t82 -55.5t56.5 -82t21 -114.5q0 -131 -103 -217t-292 -86q-205 0 -373 92q-35 24 -35 67z" />
<glyph unicode="t" horiz-adv-x="786" d="M45 924q0 19 18 34l279 273q18 18 35 18t28 -12t11 -29v-164h231q34 0 57 -22.5t23 -56.5t-23 -57t-57 -23h-231v-619q0 -35 9.5 -59.5t22 -36.5t33.5 -18.5t34 -7.5t34 -1q37 0 73 9.5t50 9.5q29 0 51 -21.5t22 -52.5q0 -49 -47 -72q-77 -36 -170 -36q-299 0 -299 270 v635h-145q-17 0 -28 11t-11 28z" />
<glyph unicode="u" horiz-adv-x="1249" d="M154 381v582q0 38 28 65t66 27t65 -27t27 -65v-562q0 -249 225 -249q178 0 336 196v615q0 38 28 65t66 27t65 -27t27 -65v-879q0 -40 -27 -67t-65 -27q-39 0 -66.5 27.5t-27.5 66.5v84q-79 -86 -168 -137t-213 -51q-169 0 -267.5 115t-98.5 286z" />
<glyph unicode="v" horiz-adv-x="1085" d="M53 961q0 38 27 66t65 28q28 0 51.5 -15.5t32.5 -38.5l314 -794l313 794q9 23 32.5 38.5t51.5 15.5q38 0 65 -28t27 -66q0 -20 -10 -43l-356 -852q-14 -32 -45 -54t-68 -22h-21q-37 0 -67.5 22t-44.5 54l-357 852q-10 23 -10 43z" />
<glyph unicode="w" horiz-adv-x="1607" d="M51 963q0 38 27 65t65 27q29 0 53 -15.5t31 -40.5l240 -788l238 770q9 32 37 53t63 21t63 -21t37 -53l238 -770l239 788q7 25 31 40.5t53 15.5q38 0 65.5 -27t27.5 -65q0 -14 -7 -35l-290 -852q-12 -36 -45.5 -61t-73.5 -25t-73.5 25t-47.5 63l-217 678l-217 -678 q-14 -38 -47.5 -63t-73.5 -25t-73.5 25t-45.5 61l-291 852q-6 18 -6 35z" />
<glyph unicode="x" horiz-adv-x="1110" d="M104 963q0 42 27 67t66 25q49 0 73 -35l287 -354l285 354q24 35 71 35q41 0 68 -25.5t27 -62.5q0 -30 -21 -58l-323 -381l319 -385q23 -26 23 -59q0 -38 -25 -66t-70 -28t-71 37l-291 348l-275 -344q-30 -41 -79 -41q-40 0 -64.5 25.5t-24.5 68.5q0 30 21 57l317 375 l-317 387q-23 30 -23 60z" />
<glyph unicode="y" horiz-adv-x="1091" d="M49 961q0 38 27 66t65 28q29 0 52 -16.5t34 -41.5l316 -782l321 778q27 62 86 62q38 0 65 -28t27 -66q0 -20 -6 -35l-559 -1344q-27 -63 -86 -63q-37 0 -62.5 26.5t-25.5 63.5q0 18 6 33l133 342l-385 938q-8 20 -8 39z" />
<glyph unicode="z" horiz-adv-x="1021" d="M80 109q0 46 33 84l589 677h-518q-37 0 -61.5 24.5t-24.5 61.5t24.5 62.5t61.5 25.5h621q53 0 86 -32t33 -84q0 -45 -29 -82l-573 -672h526q37 0 62.5 -25.5t25.5 -62.5t-25.5 -61.5t-62.5 -24.5h-639q-56 0 -92.5 28.5t-36.5 80.5z" />
<glyph unicode="{" horiz-adv-x="704" d="M6 629q0 32 18 54t52 28q53 9 89.5 23t55.5 28.5t29 36t12 37.5t2 41v432q0 73 21 122.5t62 75.5t89.5 36.5t114.5 10.5h24q29 0 50.5 -21t21.5 -50t-21.5 -50.5t-50.5 -21.5h-30q-41 0 -67.5 -8t-37 -23t-13.5 -26.5t-3 -28.5v-455q0 -175 -184 -241q184 -66 184 -242 v-455q0 -17 3 -28.5t13.5 -26.5t37 -23t67.5 -8h30q29 0 50.5 -21t21.5 -50t-21.5 -50.5t-50.5 -21.5h-24q-66 0 -114.5 10.5t-89.5 36.5t-62 76t-21 123v432q0 25 -2 41t-12 37.5t-29 36t-55.5 28.5t-89.5 23q-34 6 -52 28t-18 54z" />
<glyph unicode="|" horiz-adv-x="518" d="M176 -319v1753q0 35 23.5 59.5t58.5 24.5t59.5 -24.5t24.5 -59.5v-1753q0 -35 -24.5 -58.5t-59.5 -23.5t-58.5 23.5t-23.5 58.5z" />
<glyph unicode="}" horiz-adv-x="704" d="M57 -225q0 29 21.5 50t50.5 21h31q41 0 67.5 8t37 23t13.5 26.5t3 28.5v455q0 176 184 242q-184 66 -184 241v455q0 17 -3 28.5t-13.5 26.5t-37 23t-67.5 8h-31q-29 0 -50.5 21.5t-21.5 50.5t21.5 50t50.5 21h25q66 0 114.5 -10.5t89 -36.5t61.5 -75.5t21 -122.5v-432 q0 -25 2 -41t12 -37.5t29.5 -36t56 -28.5t89.5 -23q69 -12 69 -82t-69 -82q-53 -9 -89.5 -23t-56 -28.5t-29.5 -36t-12 -37.5t-2 -41v-432q0 -73 -21 -123t-61.5 -76t-89 -36.5t-114.5 -10.5h-25q-29 0 -50.5 21.5t-21.5 50.5z" />
<glyph unicode="~" horiz-adv-x="1306" d="M152 481q0 100 78.5 185.5t181.5 85.5q74 0 150.5 -24.5t129 -53.5t115 -53.5t111.5 -24.5q30 0 50.5 4.5t34.5 18.5t20.5 23.5t19.5 36.5t20 40q15 31 49 31q23 0 39 -16.5t10 -47.5q-24 -130 -93.5 -197t-166.5 -67q-73 0 -149 24.5t-128.5 53.5t-115 53.5t-111.5 24.5 q-113 0 -143 -111q-10 -39 -49 -39q-22 0 -37.5 15.5t-15.5 37.5z" />
<glyph unicode="&#xa1;" horiz-adv-x="530" d="M145 930q0 51 35.5 87t85.5 36q51 0 87 -36t36 -87q0 -50 -36 -85.5t-87 -35.5q-50 0 -85.5 35.5t-35.5 85.5zM160 -86l37 676q2 27 19.5 43t49.5 16q31 0 48.5 -16t19.5 -43l37 -676v-203q0 -44 -30.5 -75t-74.5 -31t-75 31t-31 75v203z" />
<glyph unicode="&#xa2;" horiz-adv-x="1128" d="M90 522q0 125 44.5 228.5t120 171.5t174 105.5t208.5 37.5q40 0 106 -8l60 174q14 39 55 39q25 0 41 -18t16 -42q0 -8 -4 -20l-55 -164q52 -19 115 -59q41 -26 41 -72q0 -30 -23.5 -56t-54.5 -26q-23 0 -45 12l-88 41l-242 -704q39 -8 94 -8q72 0 121 15.5t115 49.5 q22 12 45 12q31 0 54.5 -25.5t23.5 -55.5q0 -46 -41 -72q-152 -98 -334 -98q-66 0 -135 16l-72 -211q-12 -37 -55 -37q-25 0 -41.5 17t-16.5 40q0 13 7 27l67 199q-138 63 -219.5 189.5t-81.5 301.5zM276 522q0 -110 45 -193.5t130 -127.5l235 688q-10 2 -33 2 q-176 0 -276.5 -101t-100.5 -268z" />
<glyph unicode="&#xa3;" horiz-adv-x="1236" d="M80 674q0 20 12.5 33.5t32.5 13.5h197q-4 11 -15 45t-15.5 49.5t-13 47t-12.5 53.5t-7 52.5t-3 59.5q0 197 136.5 309.5t361.5 112.5q153 0 295 -59q61 -24 61 -82q0 -36 -24 -61t-62 -25q-15 0 -39 8q-119 39 -223 39q-91 0 -156.5 -20.5t-99.5 -55.5t-49 -74t-15 -84 q0 -37 8 -82t15.5 -72.5t25 -84t23.5 -76.5h363q20 0 33.5 -13.5t13.5 -33.5t-13.5 -32.5t-33.5 -12.5h-342q8 -41 8 -94q0 -157 -86 -293q8 0 25 1t26 1q82 0 206.5 -42t196.5 -42q65 0 129 22q24 8 33 8q36 0 60 -23t24 -58q0 -48 -47 -74q-99 -55 -217 -55 q-72 0 -137.5 23t-131.5 46t-139 23q-119 0 -221 -70q-22 -16 -47 -16q-31 0 -53.5 21t-22.5 50q0 38 29 64q77 73 132.5 179t55.5 222q0 54 -12 107h-221q-20 0 -32.5 12.5t-12.5 32.5z" />
<glyph unicode="&#xa4;" horiz-adv-x="1368" d="M135 242q0 30 23 53l133 133q-92 132 -92 287q0 154 92 286l-133 134q-23 23 -23 53q0 31 21.5 53.5t54.5 22.5q27 0 53 -23l135 -133q129 92 285 92t285 -92l135 133q26 23 53 23q33 0 54.5 -22.5t21.5 -53.5q0 -30 -23 -53l-133 -134q92 -132 92 -286q0 -155 -92 -287 l133 -133q23 -23 23 -53q0 -31 -21.5 -53.5t-54.5 -22.5q-28 0 -53 22l-135 134q-131 -93 -285 -93t-285 93l-135 -134q-25 -22 -53 -22q-33 0 -54.5 22.5t-21.5 53.5zM365 715q0 -132 93.5 -226t225.5 -94t226 94t94 226t-94 225.5t-226 93.5t-225.5 -93.5t-93.5 -225.5z " />
<glyph unicode="&#xa5;" horiz-adv-x="1347" d="M133 1362q0 42 28.5 69t69.5 27q57 0 88 -57l355 -621l354 621q31 57 88 57q41 0 69.5 -27t28.5 -69q0 -27 -16 -53l-344 -561h201q32 0 53.5 -22.5t21.5 -55.5t-21 -54.5t-54 -21.5h-289v-186h289q32 0 53.5 -22.5t21.5 -55.5t-21 -54.5t-54 -21.5h-289v-174 q0 -38 -27.5 -65t-64.5 -27t-64.5 27t-27.5 65v174h-289q-33 0 -54.5 21.5t-21.5 54.5q0 32 22 55t54 23h289v186h-289q-33 0 -54.5 21.5t-21.5 54.5q0 32 22 55t54 23h201l-344 561q-17 27 -17 53z" />
<glyph unicode="&#xa7;" horiz-adv-x="1083" d="M96 -51q0 34 23 58t57 24q17 0 43 -13q114 -57 285 -57q231 0 231 143q0 40 -34 72.5t-88.5 56.5t-120.5 48t-132 55t-120.5 69.5t-88.5 99t-34 136.5q0 191 200 258q-131 95 -131 248q0 131 103.5 217t292.5 86q173 0 307 -55q24 -9 39.5 -30.5t15.5 -49.5 q0 -32 -26 -57t-58 -25q-16 0 -31 6q-103 39 -235 39q-232 0 -232 -143q0 -36 26.5 -65.5t70 -50.5t99 -44t114 -44t114 -52.5t99 -67.5t70 -91t26.5 -122q0 -193 -203 -260q133 -90 133 -246q0 -131 -103 -217t-292 -86q-241 0 -387 92q-33 20 -33 68zM289 653 q0 -33 16 -61t39.5 -47t64 -39t74.5 -33t86 -33t86 -34q154 36 154 180q0 33 -16.5 61t-40 47.5t-64.5 39.5t-75 33t-86.5 33t-86.5 34q-151 -36 -151 -181z" />
<glyph unicode="&#xa8;" horiz-adv-x="819" d="M129 1282q0 43 30.5 73.5t73.5 30.5t74 -30.5t31 -73.5t-31 -73.5t-74 -30.5t-73.5 30.5t-30.5 73.5zM475 1282q0 43 31 73.5t74 30.5t73.5 -30.5t30.5 -73.5t-30.5 -73.5t-73.5 -30.5t-74 30.5t-31 73.5z" />
<glyph unicode="&#xa9;" horiz-adv-x="1677" d="M104 715q0 148 58.5 284t157 234t235 156.5t285.5 58.5t285 -58.5t234.5 -156.5t156.5 -233.5t59 -284.5q-1 -149 -59 -284.5t-156.5 -233.5t-234.5 -156.5t-285 -58.5t-285.5 58.5t-235 156.5t-157 234t-58.5 284zM211 715q0 -169 84.5 -313.5t229 -229t313.5 -84.5 q128 0 245 50t201 134t134 200t50 243q0 169 -84.5 313.5t-229.5 228.5t-316 84q-169 0 -313.5 -84t-229 -228.5t-84.5 -313.5zM457 715q0 188 109.5 301.5t285.5 113.5q119 0 207 -56.5t139 -158.5q6 -12 6 -26q0 -28 -18.5 -47t-46.5 -19q-40 0 -64 45q-78 138 -223 138 q-123 0 -190.5 -84t-67.5 -207t67.5 -207t190.5 -84q146 0 223 137q24 45 64 45q28 0 46.5 -18.5t18.5 -46.5q0 -15 -6 -27q-51 -102 -139 -158.5t-207 -56.5q-176 0 -285.5 114t-109.5 302z" />
<glyph unicode="&#xaa;" horiz-adv-x="993" d="M135 526q0 23 17.5 40.5t40.5 17.5h579q23 0 40 -17.5t17 -40.5t-17 -40t-40 -17h-579q-23 0 -40.5 17t-17.5 40zM166 913q0 104 83 162t247 58h155v4q0 92 -43 133t-131 41q-93 0 -186 -33q-12 -4 -21 -4q-27 0 -46 19t-19 46q0 20 13 37t34 25q127 49 248 49 q75 0 134 -24.5t94 -65.5t53 -90.5t18 -104.5v-391q0 -31 -21.5 -52.5t-52.5 -21.5t-52.5 21.5t-21.5 52.5v19q-87 -99 -248 -99q-99 0 -168 60t-69 159zM313 926q0 -44 32.5 -71.5t105.5 -27.5q56 0 108.5 27.5t91.5 69.5v98h-139q-98 0 -148.5 -22t-50.5 -74z" />
<glyph unicode="&#xab;" horiz-adv-x="1198" d="M111 522q0 47 36 88l336 371q20 23 58 23q34 0 57 -22.5t23 -57.5q0 -32 -19 -54l-328 -348l328 -348q19 -22 19 -53q0 -35 -23 -57.5t-57 -22.5q-39 0 -58 22l-336 371q-36 41 -36 88zM537 522q0 47 36 88l336 371q20 23 58 23q34 0 57 -22.5t23 -57.5q0 -32 -19 -54 l-328 -348l328 -348q19 -22 19 -53q0 -35 -23 -57.5t-57 -22.5q-39 0 -58 22l-336 371q-36 41 -36 88z" />
<glyph unicode="&#xac;" horiz-adv-x="1185" d="M150 711q0 31 21 52t52 21h707q35 0 60.5 -25.5t25.5 -60.5v-278q0 -32 -23 -54t-55 -22t-54 22t-22 54v217h-639q-31 0 -52 21.5t-21 52.5z" />
<glyph unicode="&#xad;" horiz-adv-x="835" d="M141 573q0 35 23.5 59.5t58.5 24.5h387q35 0 59.5 -24.5t24.5 -59.5t-24 -58t-60 -23h-387q-35 0 -58.5 23t-23.5 58z" />
<glyph unicode="&#xae;" horiz-adv-x="1677" d="M104 715q0 150 58.5 286t157 234.5t234.5 156.5t286 58q200 0 369 -98.5t267.5 -267.5t98.5 -369t-98.5 -369t-267.5 -267.5t-369 -98.5q-150 0 -286 58t-234.5 156.5t-157 234.5t-58.5 286zM211 717q0 -171 84.5 -316.5t229 -230t313.5 -84.5q171 0 316 84.5t229.5 230 t84.5 316.5q0 169 -84.5 313.5t-229.5 228.5t-316 84q-169 0 -313.5 -84t-229 -228.5t-84.5 -313.5zM535 365v663q0 38 27 66t65 28h245q161 0 241.5 -67.5t80.5 -177.5q0 -73 -42.5 -123t-109.5 -76q59 -21 100.5 -83t41.5 -173v-55q0 -29 -20.5 -49.5t-49.5 -20.5 t-49.5 20.5t-20.5 49.5v36v29.5t-1.5 32t-5.5 36t-10.5 32.5t-17.5 31.5t-26.5 24t-37.5 18t-50 5.5h-223v-247q0 -29 -20.5 -48.5t-49.5 -19.5t-48 19.5t-19 48.5zM672 733h194q88 0 140.5 36t52.5 103q0 63 -45 97.5t-152 34.5h-190v-271z" />
<glyph unicode="&#xaf;" horiz-adv-x="638" d="M16 1266q0 26 18 43.5t44 17.5h479q26 0 43.5 -17.5t17.5 -43.5t-17.5 -44t-43.5 -18h-479q-26 0 -44 18t-18 44z" />
<glyph unicode="&#xb0;" horiz-adv-x="774" d="M106 1169q0 117 82.5 199t198.5 82q117 0 199 -82t82 -199q0 -116 -82 -198t-199 -82q-116 0 -198.5 82.5t-82.5 197.5zM213 1169q0 -72 51 -123t123 -51t123 51t51 123t-51 123t-123 51t-123 -51t-51 -123z" />
<glyph unicode="&#xb1;" horiz-adv-x="1241" d="M127 78q0 34 22 57t56 23h829q34 0 57 -23t23 -57t-23 -56t-57 -22h-829q-34 0 -56 22t-22 56zM127 778q0 34 22 57t56 23h336v324q0 34 23 57t57 23t56.5 -23t22.5 -57v-324h334q34 0 57 -23t23 -57t-23 -56t-57 -22h-334v-323q0 -34 -22.5 -57t-56.5 -23t-57 23t-23 57 v323h-336q-34 0 -56 22t-22 56z" />
<glyph unicode="&#xb2;" horiz-adv-x="757" d="M78 1006q0 63 47 121.5t113.5 102.5t133 85.5t113.5 87t47 90.5q0 55 -38 89t-121 34q-114 0 -195 -45q-12 -6 -26 -6q-25 0 -41.5 15.5t-16.5 41.5q0 34 29 51q106 68 266 68q119 0 196 -69t77 -171q0 -64 -38 -123.5t-96.5 -105t-119 -84.5t-115 -77t-74.5 -67h389 q26 0 44 -17.5t18 -43.5t-17.5 -42.5t-44.5 -16.5h-450q-34 0 -57 25t-23 57z" />
<glyph unicode="&#xb3;" horiz-adv-x="757" d="M74 1018q0 24 17.5 41.5t41.5 17.5q7 0 23 -4q117 -35 186 -35q85 0 136.5 26.5t51.5 80.5q0 127 -229 127h-22q-26 0 -44 17.5t-18 43.5t18 44t44 18h10q215 0 215 118q0 38 -25.5 62t-59.5 32.5t-75 8.5q-92 0 -176 -39q-12 -6 -27 -6q-23 0 -40 15.5t-17 39.5 q0 33 39 53q117 62 229 62q142 0 210.5 -60t68.5 -157q0 -74 -37 -119t-90 -66q155 -48 155 -198q0 -98 -73 -164t-226 -66q-158 0 -251 52q-35 19 -35 55z" />
<glyph unicode="&#xb4;" horiz-adv-x="491" d="M98 1217q0 15 15 38l104 185q20 39 68 39q34 0 54.5 -21t20.5 -55q0 -28 -20 -51l-141 -168q-20 -23 -45 -23t-40.5 15.5t-15.5 40.5z" />
<glyph unicode="&#xb5;" horiz-adv-x="1236" d="M172 -354v1317q0 38 28 65t66 27t65 -27t27 -65v-562q0 -249 226 -249q178 0 336 196v615q0 38 28 65t66 27t65 -27t27 -65v-879q0 -40 -27 -67t-65 -27q-39 0 -66.5 27.5t-27.5 66.5v84q-38 -42 -70 -70t-78 -58t-102 -45t-121 -15q-111 0 -191 55v-389q0 -38 -28 -65 t-66 -27t-65 27t-27 65z" />
<glyph unicode="&#xb6;" horiz-adv-x="1499" d="M80 903q0 143 70.5 264.5t191.5 192t264 70.5h721q34 0 58 -24t24 -58t-24 -57t-58 -23h-94v-1645q0 -34 -24 -58t-58 -24t-57 24t-23 58v1645h-229v-1645q0 -34 -24 -58t-58 -24t-57 24t-23 58v754h-74q-143 0 -264 70.5t-191.5 191.5t-70.5 264z" />
<glyph unicode="&#xb7;" horiz-adv-x="532" d="M141 578v12q0 47 34 81t81 34h20q47 0 81 -34t34 -81v-12q0 -47 -34 -81t-81 -34h-20q-47 0 -81 34t-34 81z" />
<glyph unicode="&#xb8;" horiz-adv-x="628" d="M92 -365q0 17 10 29t29 12q9 0 21 -6q63 -35 120 -35q117 0 117 95q0 30 -21 46.5t-53 16.5q-45 0 -90 -22q-14 -7 -20 -7q-14 0 -25.5 10t-11.5 23q0 17 8 29l131 209h86l-94 -164q33 8 70 8q69 0 113 -39.5t44 -103.5q0 -94 -58.5 -141.5t-168.5 -47.5q-96 0 -184 54 q-23 14 -23 34z" />
<glyph unicode="&#xb9;" horiz-adv-x="757" d="M160 1595q0 39 39 58l147 76q20 10 41 10q39 0 63.5 -25.5t24.5 -62.5v-607h103q26 0 43.5 -17.5t17.5 -43.5t-17.5 -42.5t-43.5 -16.5h-357q-26 0 -42.5 16.5t-16.5 42.5t16.5 43.5t42.5 17.5h123v543l-92 -45q-20 -8 -31 -8q-25 0 -43 17.5t-18 43.5z" />
<glyph unicode="&#xba;" horiz-adv-x="1052" d="M143 526q0 23 17.5 40.5t40.5 17.5h651q23 0 40 -17.5t17 -40.5t-17 -40t-40 -17h-651q-23 0 -40.5 17t-17.5 40zM162 1073q0 169 99.5 273t264.5 104t265 -104t100 -273q0 -170 -100 -274.5t-265 -104.5t-264.5 104.5t-99.5 274.5zM309 1075q0 -124 65.5 -187t151.5 -63 q39 0 75.5 14.5t69 42.5t52.5 78.5t20 114.5t-20 113t-52.5 77t-69 42t-75.5 14q-86 0 -151.5 -61.5t-65.5 -184.5z" />
<glyph unicode="&#xbb;" horiz-adv-x="1198" d="M152 121q0 32 18 53l328 348l-328 348q-18 21 -18 54q0 35 22.5 57.5t56.5 22.5q38 0 58 -23l336 -371q37 -43 37 -88t-37 -88l-336 -371q-19 -22 -58 -22q-34 0 -56.5 22.5t-22.5 57.5zM578 121q0 32 18 53l328 348l-328 348q-18 21 -18 54q0 35 22.5 57.5t56.5 22.5 q38 0 58 -23l336 -371q36 -41 36 -88t-36 -88l-336 -371q-19 -22 -58 -22q-34 0 -56.5 22.5t-22.5 57.5z" />
<glyph unicode="&#xbc;" horiz-adv-x="1925" d="M174 1307q0 38 39 57l147 76q20 10 41 10q39 0 63.5 -25.5t24.5 -62.5v-606h103q26 0 43.5 -18t17.5 -44t-17.5 -42.5t-43.5 -16.5h-356q-26 0 -43 16.5t-17 42.5t17 44t43 18h122v542l-92 -45q-20 -8 -30 -8q-25 0 -43.5 18t-18.5 44zM467 20q0 17 10 37l848 1397 q17 29 57 29q28 0 49 -20t21 -50q0 -17 -10 -37l-848 -1396q-17 -29 -57 -29q-29 0 -49.5 19.5t-20.5 49.5zM1104 283q0 31 22 59l338 426q34 43 74 43h16q36 0 61 -25t25 -61v-408h74q26 0 44 -17.5t18 -43.5t-17.5 -42.5t-44.5 -16.5h-74v-142q0 -28 -18.5 -46.5 t-46.5 -18.5t-47 18.5t-19 46.5v142h-319q-35 0 -60.5 25.5t-25.5 60.5zM1249 317h260v332z" />
<glyph unicode="&#xbd;" horiz-adv-x="1925" d="M162 1307q0 38 39 57l147 76q20 10 41 10q39 0 63.5 -25.5t24.5 -62.5v-606h103q26 0 43.5 -18t17.5 -44t-17.5 -42.5t-43.5 -16.5h-357q-26 0 -42.5 16.5t-16.5 42.5q0 27 16.5 44.5t42.5 17.5h123v542l-92 -45q-20 -8 -31 -8q-25 0 -43 18t-18 44zM455 20q0 17 10 37 l848 1397q17 29 57 29q28 0 49 -20t21 -50q0 -17 -10 -37l-848 -1396q-17 -29 -58 -29q-28 0 -48.5 19.5t-20.5 49.5zM1180 82q0 63 47 121.5t113.5 102.5t133 85.5t113.5 87t47 90.5q0 55 -38 89t-121 34q-114 0 -195 -45q-12 -6 -27 -6q-25 0 -41 15.5t-16 41.5 q0 35 29 52q105 67 266 67q119 0 195.5 -68.5t76.5 -170.5q0 -64 -38 -123.5t-96.5 -105t-118.5 -84.5t-114.5 -77t-74.5 -67h389q26 0 44 -18t18 -44t-17.5 -42.5t-44.5 -16.5h-450q-34 0 -57 25t-23 57z" />
<glyph unicode="&#xbe;" horiz-adv-x="1925" d="M129 729q0 24 17.5 41.5t41.5 17.5q7 0 23 -4q114 -34 186 -34q85 0 137 26t52 80q0 127 -230 127h-22q-26 0 -44 17.5t-18 43.5t18 44t44 18h10q215 0 215 119q0 38 -25.5 62t-59.5 32t-75 8q-92 0 -176 -39q-12 -6 -26 -6q-23 0 -40.5 15.5t-17.5 39.5q0 34 39 54 q115 61 230 61q142 0 210 -60t68 -157q0 -133 -127 -184q66 -21 111 -68.5t45 -130.5q0 -98 -73 -163.5t-226 -65.5q-161 0 -252 51q-35 19 -35 55zM496 20q0 17 10 37l848 1397q17 29 57 29q28 0 49 -20t21 -50q0 -15 -11 -37l-847 -1396q-17 -29 -58 -29q-28 0 -48.5 19.5 t-20.5 49.5zM1133 283q0 31 22 59l338 426q34 43 74 43h16q36 0 61 -25t25 -61v-408h74q26 0 43.5 -17.5t17.5 -43.5t-17.5 -42.5t-43.5 -16.5h-74v-142q0 -28 -18.5 -46.5t-46.5 -18.5t-47 18.5t-19 46.5v142h-319q-35 0 -60.5 25.5t-25.5 60.5zM1278 317h260v332z" />
<glyph unicode="&#xbf;" horiz-adv-x="999" d="M82 -18q0 66 21 122t55 95.5t75 74.5t81.5 67t74.5 66t55 79t21 98q0 33 27 56.5t63 23.5q38 0 64 -23.5t26 -56.5q0 -71 -21 -131.5t-54.5 -103.5t-73.5 -80.5t-80.5 -69t-74 -62.5t-54.5 -68t-21 -77q0 -223 293 -223q155 0 262 67q25 17 51 17q34 0 58 -24t24 -58 q0 -48 -51 -78q-158 -99 -360 -99q-210 0 -335.5 105t-125.5 283zM436 930q0 51 36 87t87 36q50 0 85.5 -36t35.5 -87q0 -50 -36 -85.5t-85 -35.5q-51 0 -87 35.5t-36 85.5z" />
<glyph unicode="&#xc0;" horiz-adv-x="1427" d="M53 82q0 18 10 41l523 1233q15 36 45.5 60t73.5 24h20q43 0 73.5 -24t45.5 -60l522 -1233q10 -23 10 -41q0 -39 -25 -65.5t-67 -26.5q-63 0 -88 57l-133 320h-696l-134 -320q-25 -57 -88 -57q-42 0 -67 26.5t-25 65.5zM438 537h553l-276 665zM526 1755q0 34 21 55t55 21 q48 0 68 -39l104 -184q14 -21 14 -39q0 -25 -15 -40.5t-40 -15.5t-45 23l-141 168q-21 24 -21 51z" />
<glyph unicode="&#xc1;" horiz-adv-x="1427" d="M53 82q0 18 10 41l523 1233q15 36 45.5 60t73.5 24h20q43 0 73.5 -24t45.5 -60l522 -1233q10 -23 10 -41q0 -39 -25 -65.5t-67 -26.5q-63 0 -88 57l-133 320h-696l-134 -320q-25 -57 -88 -57q-42 0 -67 26.5t-25 65.5zM438 537h553l-276 665zM639 1569q0 18 14 39 l105 184q20 39 67 39q34 0 55 -21t21 -55q0 -28 -20 -51l-142 -168q-20 -23 -45 -23t-40 15.5t-15 40.5z" />
<glyph unicode="&#xc2;" horiz-adv-x="1427" d="M53 82q0 18 10 41l523 1233q15 36 45.5 60t73.5 24h20q43 0 73.5 -24t45.5 -60l522 -1233q10 -23 10 -41q0 -39 -25 -65.5t-67 -26.5q-63 0 -88 57l-133 320h-696l-134 -320q-25 -57 -88 -57q-42 0 -67 26.5t-25 65.5zM438 537h553l-276 665zM438 1573q0 22 17 39 l139 143q36 41 82 41h78q46 0 82 -41l139 -143q16 -16 16 -39q2 -24 -16.5 -43t-44.5 -19q-22 0 -37 15l-178 151l-178 -151q-15 -15 -37 -15q-26 0 -45 19t-17 43z" />
<glyph unicode="&#xc3;" horiz-adv-x="1427" d="M53 82q0 18 10 41l523 1233q15 36 45.5 60t73.5 24h20q43 0 73.5 -24t45.5 -60l522 -1233q10 -23 10 -41q0 -39 -25 -65.5t-67 -26.5q-63 0 -88 57l-133 320h-696l-134 -320q-25 -57 -88 -57q-42 0 -67 26.5t-25 65.5zM387 1569q0 68 49 131t123 63q50 0 105.5 -24 t109.5 -48t100 -24q57 0 76 55q15 43 51 43q21 0 33.5 -12.5t14.5 -32.5q0 -71 -49.5 -132.5t-122.5 -61.5q-51 0 -107.5 24.5t-110.5 49t-98 24.5q-53 0 -80 -65q-12 -37 -47 -37q-19 0 -33 13.5t-14 33.5zM438 537h553l-276 665z" />
<glyph unicode="&#xc4;" horiz-adv-x="1427" d="M53 82q0 18 10 41l523 1233q15 36 45.5 60t73.5 24h20q43 0 73.5 -24t45.5 -60l522 -1233q10 -23 10 -41q0 -39 -25 -65.5t-67 -26.5q-63 0 -88 57l-133 320h-696l-134 -320q-25 -57 -88 -57q-42 0 -67 26.5t-25 65.5zM438 537h553l-276 665zM438 1634q0 43 30.5 73.5 t73.5 30.5t74 -30.5t31 -73.5t-31 -73.5t-74 -30.5t-73.5 30.5t-30.5 73.5zM784 1634q0 43 31 73.5t74 30.5t73.5 -30.5t30.5 -73.5t-30.5 -73.5t-73.5 -30.5t-74 30.5t-31 73.5z" />
<glyph unicode="&#xc5;" horiz-adv-x="1427" d="M53 82q0 18 10 41l523 1233q15 36 45.5 60t73.5 24h20q43 0 73.5 -24t45.5 -60l522 -1233q10 -23 10 -41q0 -39 -25 -65.5t-67 -26.5q-63 0 -88 57l-133 320h-696l-134 -320q-25 -57 -88 -57q-42 0 -67 26.5t-25 65.5zM438 537h553l-276 665zM522 1688q0 79 56.5 135.5 t136.5 56.5q79 0 135.5 -56t56.5 -136t-56.5 -136.5t-135.5 -56.5t-136 56.5t-57 136.5zM614 1688q0 -41 30 -71t71 -30t70.5 30t29.5 71t-29.5 70.5t-70.5 29.5t-71 -29.5t-30 -70.5z" />
<glyph unicode="&#xc6;" horiz-adv-x="2129" d="M4 82q0 25 21 57l817 1239q34 52 94 52h999q37 0 62.5 -26t25.5 -63t-25.5 -61.5t-62.5 -24.5h-727v-452h654q37 0 62.5 -25.5t25.5 -62.5t-25.5 -61.5t-62.5 -24.5h-654v-455h727q37 0 62.5 -25.5t25.5 -62.5t-25.5 -61.5t-62.5 -24.5h-821q-38 0 -65 27t-27 65v275 h-631l-209 -324q-33 -53 -84 -53q-40 0 -67 27t-27 65zM502 537h520v718h-51z" />
<glyph unicode="&#xc7;" horiz-adv-x="1429" d="M115 715q0 223 94 391.5t255.5 256t366.5 87.5q140 0 249.5 -33t217.5 -94q42 -22 45 -74q2 -33 -21 -57.5t-60 -24.5q-19 0 -37 9q-91 48 -177 72t-198 24q-176 0 -302 -74.5t-186.5 -198.5t-60.5 -284t60.5 -284t186.5 -198.5t302 -74.5q112 0 198 24t177 72q16 8 37 8 q37 0 60 -24.5t21 -57.5q-3 -52 -45 -74q-214 -124 -456 -126l-62 -109q33 8 70 8q70 0 114 -39.5t44 -103.5q0 -94 -59 -141.5t-169 -47.5q-96 0 -184 54q-23 14 -23 34q0 17 10 29t29 12q9 0 21 -6q63 -35 121 -35q116 0 116 95q0 30 -20.5 46.5t-52.5 16.5q-45 0 -90 -22 q-14 -7 -21 -7q-14 0 -25.5 10t-11.5 23q0 17 8 29l99 158q-186 17 -330.5 108t-227.5 252.5t-83 370.5z" />
<glyph unicode="&#xc8;" horiz-adv-x="1306" d="M199 92v1243q0 39 27 67t65 28h821q37 0 62.5 -26t25.5 -63t-25.5 -61.5t-62.5 -24.5h-727v-452h653q37 0 62.5 -25.5t25.5 -62.5t-25.5 -61.5t-62.5 -24.5h-653v-455h727q37 0 62.5 -25.5t25.5 -62.5t-25.5 -61.5t-62.5 -24.5h-821q-38 0 -65 27t-27 65zM516 1755 q0 34 21 55t55 21q48 0 68 -39l104 -185q14 -21 14 -38q0 -25 -15 -40.5t-40 -15.5t-45 23l-141 168q-21 24 -21 51z" />
<glyph unicode="&#xc9;" horiz-adv-x="1306" d="M199 92v1243q0 39 27 67t65 28h821q37 0 62.5 -26t25.5 -63t-25.5 -61.5t-62.5 -24.5h-727v-452h653q37 0 62.5 -25.5t25.5 -62.5t-25.5 -61.5t-62.5 -24.5h-653v-455h727q37 0 62.5 -25.5t25.5 -62.5t-25.5 -61.5t-62.5 -24.5h-821q-38 0 -65 27t-27 65zM618 1569 q0 17 15 39l104 184q20 39 68 39q34 0 55 -21t21 -55q0 -27 -21 -51l-141 -168q-20 -23 -45 -23t-40.5 15.5t-15.5 40.5z" />
<glyph unicode="&#xca;" horiz-adv-x="1306" d="M199 92v1243q0 39 27 67t65 28h821q37 0 62.5 -26t25.5 -63t-25.5 -61.5t-62.5 -24.5h-727v-452h653q37 0 62.5 -25.5t25.5 -62.5t-25.5 -61.5t-62.5 -24.5h-653v-455h727q37 0 62.5 -25.5t25.5 -62.5t-25.5 -61.5t-62.5 -24.5h-821q-38 0 -65 27t-27 65zM438 1573 q0 22 17 39l139 143q36 41 82 41h78q46 0 82 -41l139 -143q16 -16 16 -39q2 -24 -16.5 -43t-44.5 -19q-22 0 -37 15l-178 151l-178 -151q-15 -15 -37 -15q-26 0 -45 19t-17 43z" />
<glyph unicode="&#xcb;" horiz-adv-x="1306" d="M199 92v1243q0 39 27 67t65 28h821q37 0 62.5 -26t25.5 -63t-25.5 -61.5t-62.5 -24.5h-727v-452h653q37 0 62.5 -25.5t25.5 -62.5t-25.5 -61.5t-62.5 -24.5h-653v-455h727q37 0 62.5 -25.5t25.5 -62.5t-25.5 -61.5t-62.5 -24.5h-821q-38 0 -65 27t-27 65zM416 1634 q0 43 30.5 74t73.5 31t74 -31t31 -74t-31 -73.5t-74 -30.5t-73.5 30.5t-30.5 73.5zM762 1634q0 43 30.5 74t73.5 31t74 -31t31 -74t-31 -73.5t-74 -30.5t-73.5 30.5t-30.5 73.5z" />
<glyph unicode="&#xcc;" horiz-adv-x="583" d="M114 1755q0 34 21 55t55 21q48 0 68 -39l104 -185q14 -21 14 -38q0 -25 -15 -40.5t-40 -15.5t-45 23l-141 168q-21 24 -21 51zM199 82v1264q0 38 27 66t65 28t66 -28t28 -66v-1264q0 -38 -28 -65t-66 -27t-65 27t-27 65z" />
<glyph unicode="&#xcd;" horiz-adv-x="583" d="M199 82v1264q0 38 27 66t65 28t66 -28t28 -66v-1264q0 -38 -28 -65t-66 -27t-65 27t-27 65zM207 1569q0 18 14 39l105 184q20 39 67 39q34 0 55 -21t21 -55q0 -28 -20 -51l-142 -168q-20 -23 -45 -23t-40 15.5t-15 40.5z" />
<glyph unicode="&#xce;" horiz-adv-x="583" d="M14 1573q0 22 17 39l139 143q36 41 82 41h78q46 0 82 -41l139 -143q16 -16 16 -39q2 -24 -16.5 -43t-44.5 -19q-22 0 -37 15l-178 151l-178 -151q-15 -15 -37 -15q-26 0 -45 19t-17 43zM199 82v1264q0 38 27 66t65 28t66 -28t28 -66v-1264q0 -38 -28 -65t-66 -27t-65 27 t-27 65z" />
<glyph unicode="&#xcf;" horiz-adv-x="583" d="M14 1634q0 43 31 74t74 31t73.5 -31t30.5 -74t-30.5 -73.5t-73.5 -30.5t-74 30.5t-31 73.5zM199 82v1264q0 38 27 66t65 28t66 -28t28 -66v-1264q0 -38 -28 -65t-66 -27t-65 27t-27 65zM360 1634q0 43 31 74t74 31t73.5 -31t30.5 -74t-30.5 -73.5t-73.5 -30.5t-74 30.5 t-31 73.5z" />
<glyph unicode="&#xd0;" horiz-adv-x="1550" d="M35 713q0 29 19 49t48 20h111v553q0 39 27 67t65 28h412q142 0 262.5 -41t204 -111t142.5 -162t86.5 -193.5t27.5 -207.5q0 -105 -27.5 -206.5t-86.5 -194t-142.5 -162t-204 -111t-262.5 -41.5h-412q-38 0 -65 27t-27 65v553h-111q-29 0 -48 19.5t-19 48.5zM399 174h295 q255 0 408 150t153 391t-153 390.5t-408 149.5h-295v-473h240q29 0 49.5 -20t20.5 -49t-20.5 -48.5t-49.5 -19.5h-240v-471z" />
<glyph unicode="&#xd1;" horiz-adv-x="1644" d="M199 82v1223q0 56 39 95.5t94 39.5h26q64 0 113 -62l789 -1138v1106q0 38 27 66t65 28t66 -28t28 -66v-1223q0 -55 -39.5 -94t-95.5 -39h-25q-66 0 -108 55l-793 1145v-1108q0 -38 -28 -65t-66 -27t-65 27t-27 65zM502 1569q0 68 49 131t123 63q60 0 160 -48t155 -48 q57 0 76 55q15 43 51 43q21 0 33 -12.5t14 -32.5q0 -71 -49.5 -132.5t-122.5 -61.5q-51 0 -107.5 24.5t-110 49t-97.5 24.5q-53 0 -80 -66q-12 -37 -47 -37q-19 0 -33 14t-14 34z" />
<glyph unicode="&#xd2;" horiz-adv-x="1660" d="M113 715q4 214 91 380t249.5 260.5t377.5 94.5q214 0 377 -94.5t250.5 -260.5t91.5 -380q-4 -214 -91.5 -380t-250.5 -260.5t-377 -94.5q-215 0 -377.5 94.5t-249.5 260.5t-91 380zM299 715q0 -159 61 -285t183.5 -201t287.5 -75q124 0 225.5 43.5t168.5 119t103 178 t36 220.5t-36 220.5t-103 178t-168.5 119t-225.5 43.5q-165 0 -287.5 -75t-183.5 -201t-61 -285zM659 1755q0 34 21 55t55 21q48 0 68 -39l104 -185q14 -21 14 -38q0 -25 -15 -40.5t-40 -15.5t-45 23l-141 168q-21 24 -21 51z" />
<glyph unicode="&#xd3;" horiz-adv-x="1660" d="M113 715q4 214 91 380t249.5 260.5t377.5 94.5q214 0 377 -94.5t250.5 -260.5t91.5 -380q-4 -214 -91.5 -380t-250.5 -260.5t-377 -94.5q-215 0 -377.5 94.5t-249.5 260.5t-91 380zM299 715q0 -159 61 -285t183.5 -201t287.5 -75q124 0 225.5 43.5t168.5 119t103 178 t36 220.5t-36 220.5t-103 178t-168.5 119t-225.5 43.5q-165 0 -287.5 -75t-183.5 -201t-61 -285zM741 1569q0 17 15 39l104 184q20 39 68 39q34 0 55 -21t21 -55q0 -27 -21 -51l-141 -168q-20 -23 -45 -23t-40.5 15.5t-15.5 40.5z" />
<glyph unicode="&#xd4;" horiz-adv-x="1660" d="M113 715q4 214 91 380t249.5 260.5t377.5 94.5q214 0 377 -94.5t250.5 -260.5t91.5 -380q-4 -214 -91.5 -380t-250.5 -260.5t-377 -94.5q-215 0 -377.5 94.5t-249.5 260.5t-91 380zM299 715q0 -159 61 -285t183.5 -201t287.5 -75q124 0 225.5 43.5t168.5 119t103 178 t36 220.5t-36 220.5t-103 178t-168.5 119t-225.5 43.5q-165 0 -287.5 -75t-183.5 -201t-61 -285zM555 1573q0 22 17 39l139 143q36 41 82 41h78q46 0 82 -41l139 -143q16 -16 16 -39q2 -24 -16.5 -43t-44.5 -19q-22 0 -37 15l-178 151l-178 -151q-15 -15 -37 -15 q-26 0 -45 19t-17 43z" />
<glyph unicode="&#xd5;" horiz-adv-x="1660" d="M113 715q4 214 91 380t249.5 260.5t377.5 94.5q214 0 377 -94.5t250.5 -260.5t91.5 -380q-4 -214 -91.5 -380t-250.5 -260.5t-377 -94.5q-215 0 -377.5 94.5t-249.5 260.5t-91 380zM299 715q0 -159 61 -285t183.5 -201t287.5 -75q124 0 225.5 43.5t168.5 119t103 178 t36 220.5t-36 220.5t-103 178t-168.5 119t-225.5 43.5q-165 0 -287.5 -75t-183.5 -201t-61 -285zM502 1569q0 68 49 131t123 63q60 0 160 -48t155 -48q57 0 76 55q15 43 51 43q21 0 33 -12.5t14 -32.5q0 -71 -49.5 -132.5t-122.5 -61.5q-51 0 -107.5 24.5t-110 49 t-97.5 24.5q-53 0 -80 -65q-12 -37 -47 -37q-19 0 -33 13.5t-14 33.5z" />
<glyph unicode="&#xd6;" horiz-adv-x="1660" d="M113 715q4 214 91 380t249.5 260.5t377.5 94.5q214 0 377 -94.5t250.5 -260.5t91.5 -380q-4 -214 -91.5 -380t-250.5 -260.5t-377 -94.5q-215 0 -377.5 94.5t-249.5 260.5t-91 380zM299 715q0 -159 61 -285t183.5 -201t287.5 -75q124 0 225.5 43.5t168.5 119t103 178 t36 220.5t-36 220.5t-103 178t-168.5 119t-225.5 43.5q-165 0 -287.5 -75t-183.5 -201t-61 -285zM555 1634q0 43 30.5 73.5t73.5 30.5t74 -30.5t31 -73.5t-31 -73.5t-74 -30.5t-73.5 30.5t-30.5 73.5zM901 1634q0 43 31 73.5t74 30.5t73.5 -30.5t30.5 -73.5t-30.5 -73.5 t-73.5 -30.5t-74 30.5t-31 73.5z" />
<glyph unicode="&#xd7;" horiz-adv-x="1153" d="M121 152q0 31 24 55l322 321l-322 322q-24 24 -24 55t22.5 54.5t55.5 23.5q30 0 55 -25l321 -321l322 321q25 25 55 25q33 0 55.5 -23.5t22.5 -54.5t-24 -55l-322 -322l322 -321q24 -24 24 -55t-22.5 -54.5t-55.5 -23.5q-31 0 -55 24l-322 322l-321 -322q-24 -24 -55 -24 q-33 0 -55.5 23.5t-22.5 54.5z" />
<glyph unicode="&#xd8;" horiz-adv-x="1660" d="M113 715q4 214 91 380t249.5 260.5t377.5 94.5q218 0 386 -100l81 118q15 21 43 21q23 0 37.5 -14t14.5 -35q0 -16 -13 -35l-80 -115q117 -98 181.5 -246t68.5 -329q-4 -214 -91.5 -380t-250.5 -260.5t-377 -94.5q-215 0 -382 96l-82 -117q-14 -20 -43 -20 q-23 0 -37.5 14t-14.5 35q0 15 13 35l80 112q-119 98 -184 247.5t-68 332.5zM299 715q0 -133 43.5 -243.5t126.5 -186.5l643 919q-125 72 -281 72q-165 0 -287.5 -75t-183.5 -201t-61 -285zM551 223q120 -69 280 -69q124 0 225.5 43.5t168.5 119t103 178t36 220.5 q0 130 -43.5 241t-124.5 187z" />
<glyph unicode="&#xd9;" horiz-adv-x="1552" d="M188 537v809q0 38 27.5 66t65.5 28t66 -28t28 -66v-816q0 -93 34 -167t91.5 -119.5t128 -69.5t147.5 -24t148 24t128 69.5t91.5 119.5t34.5 167v816q0 38 27 66t65 28t66 -28t28 -66v-809q0 -112 -35 -205.5t-93 -157.5t-134.5 -108.5t-159 -65t-166.5 -20.5t-166.5 20.5 t-159 65t-134.5 108.5t-93 157.5t-35 205.5zM616 1755q0 34 21 55t55 21q48 0 68 -39l104 -185q14 -21 14 -38q0 -25 -15 -40.5t-40 -15.5t-45 23l-141 168q-21 24 -21 51z" />
<glyph unicode="&#xda;" horiz-adv-x="1552" d="M188 537v809q0 38 27.5 66t65.5 28t66 -28t28 -66v-816q0 -93 34 -167t91.5 -119.5t128 -69.5t147.5 -24t148 24t128 69.5t91.5 119.5t34.5 167v816q0 38 27 66t65 28t66 -28t28 -66v-809q0 -112 -35 -205.5t-93 -157.5t-134.5 -108.5t-159 -65t-166.5 -20.5t-166.5 20.5 t-159 65t-134.5 108.5t-93 157.5t-35 205.5zM674 1569q0 18 14 39l105 184q20 39 67 39q34 0 55 -21t21 -55q0 -27 -21 -51l-141 -168q-20 -23 -45 -23t-40 15.5t-15 40.5z" />
<glyph unicode="&#xdb;" horiz-adv-x="1552" d="M188 537v809q0 38 27.5 66t65.5 28t66 -28t28 -66v-816q0 -93 34 -167t91.5 -119.5t128 -69.5t147.5 -24t148 24t128 69.5t91.5 119.5t34.5 167v816q0 38 27 66t65 28t66 -28t28 -66v-809q0 -112 -35 -205.5t-93 -157.5t-134.5 -108.5t-159 -65t-166.5 -20.5t-166.5 20.5 t-159 65t-134.5 108.5t-93 157.5t-35 205.5zM499 1573q0 22 17 39l139 143q36 41 82 41h78q46 0 82 -41l139 -143q16 -16 16 -39q2 -24 -16.5 -43t-44.5 -19q-22 0 -37 15l-178 151l-178 -151q-15 -15 -37 -15q-26 0 -45 19t-17 43z" />
<glyph unicode="&#xdc;" horiz-adv-x="1552" d="M188 537v809q0 38 27.5 66t65.5 28t66 -28t28 -66v-816q0 -93 34 -167t91.5 -119.5t128 -69.5t147.5 -24t148 24t128 69.5t91.5 119.5t34.5 167v816q0 38 27 66t65 28t66 -28t28 -66v-809q0 -112 -35 -205.5t-93 -157.5t-134.5 -108.5t-159 -65t-166.5 -20.5t-166.5 20.5 t-159 65t-134.5 108.5t-93 157.5t-35 205.5zM500 1634q0 43 30.5 74t73.5 31t74 -31t31 -74t-31 -73.5t-74 -30.5t-73.5 30.5t-30.5 73.5zM846 1634q0 43 30.5 74t73.5 31t74 -31t31 -74t-31 -73.5t-74 -30.5t-73.5 30.5t-30.5 73.5z" />
<glyph unicode="&#xdd;" horiz-adv-x="1320" d="M61 1346q-2 39 25 66.5t66 27.5q51 0 81 -47l429 -623l428 623q30 47 81 47q39 0 66 -27.5t25 -66.5q0 -29 -17 -56l-491 -686v-522q0 -38 -27 -65t-65 -27q-39 0 -67 27t-28 65v522l-489 686q-17 27 -17 56zM577 1569q0 15 15 38l104 185q20 39 68 39q34 0 54.5 -21 t20.5 -55q0 -28 -20 -51l-141 -168q-20 -23 -45 -23t-40.5 15.5t-15.5 40.5z" />
<glyph unicode="&#xde;" horiz-adv-x="1374" d="M199 82v1264q0 38 27 66t65 28t66 -28t28 -66v-146h373q120 0 215.5 -27t156.5 -70.5t101.5 -103.5t57 -123t16.5 -131t-16.5 -130.5t-57 -122.5t-101.5 -104t-156.5 -70.5t-215.5 -26.5h-373v-209q0 -38 -28 -65t-66 -27t-65 27t-27 65zM385 467h354q109 0 187 24 t118 66t57 88t17 100q0 43 -10 80.5t-36 75t-67.5 64t-109.5 43t-156 16.5h-354v-557z" />
<glyph unicode="&#xdf;" horiz-adv-x="1249" d="M162 84v911q0 215 127.5 335t335.5 120q64 0 126.5 -14.5t121 -46.5t103 -78t71 -113.5t26.5 -148.5q0 -256 -225 -328q42 -10 81 -26.5t81 -46t72.5 -68t50.5 -96.5t20 -128q0 -93 -33 -166.5t-88.5 -118t-124 -68t-143.5 -23.5q-127 0 -227 34q-66 21 -66 78 q0 34 22.5 57t57.5 23q16 0 31 -6q64 -21 151 -21q26 0 54.5 5.5t61.5 21.5t58.5 41t42.5 68t17 98q0 117 -99 185.5t-254 68.5q-36 0 -56.5 21t-20.5 55q0 30 21.5 50t55.5 25q126 13 199.5 79.5t73.5 164.5q0 116 -70.5 182t-193.5 66q-54 0 -99.5 -13.5t-87 -45.5 t-65 -94.5t-23.5 -149.5v-889q0 -38 -28 -65t-66 -27t-65 27t-27 65z" />
<glyph unicode="&#xe0;" horiz-adv-x="1136" d="M78 287q0 151 120 241t351 90h248v17q0 134 -67 194t-208 60q-123 0 -272 -49q-16 -4 -27 -4q-31 0 -53.5 22t-22.5 55q0 56 54 78q173 74 354 74q108 0 192.5 -34.5t134.5 -92.5t75.5 -128t25.5 -148v-580q0 -38 -28 -65t-66 -27t-65 27t-27 65v53q-151 -155 -385 -155 q-139 0 -236.5 83.5t-97.5 223.5zM264 307q0 -74 50.5 -119t166.5 -45q90 0 174.5 44.5t141.5 109.5v172h-224q-309 0 -309 -162zM387 1403q0 34 21 55t55 21q48 0 68 -39l104 -185q14 -21 14 -38q0 -25 -15 -40.5t-40 -15.5t-45 23l-141 168q-21 24 -21 51z" />
<glyph unicode="&#xe1;" horiz-adv-x="1136" d="M78 287q0 151 120 241t351 90h248v17q0 134 -67 194t-208 60q-123 0 -272 -49q-16 -4 -27 -4q-31 0 -53.5 22t-22.5 55q0 56 54 78q173 74 354 74q108 0 192.5 -34.5t134.5 -92.5t75.5 -128t25.5 -148v-580q0 -38 -28 -65t-66 -27t-65 27t-27 65v53q-151 -155 -385 -155 q-139 0 -236.5 83.5t-97.5 223.5zM264 307q0 -74 50.5 -119t166.5 -45q90 0 174.5 44.5t141.5 109.5v172h-224q-309 0 -309 -162zM459 1217q0 17 14 38l105 185q20 39 67 39q34 0 55 -21t21 -55q0 -27 -21 -51l-141 -168q-20 -23 -45 -23t-40 15.5t-15 40.5z" />
<glyph unicode="&#xe2;" horiz-adv-x="1136" d="M78 287q0 151 120 241t351 90h248v17q0 134 -67 194t-208 60q-123 0 -272 -49q-16 -4 -27 -4q-31 0 -53.5 22t-22.5 55q0 56 54 78q173 74 354 74q108 0 192.5 -34.5t134.5 -92.5t75.5 -128t25.5 -148v-580q0 -38 -28 -65t-66 -27t-65 27t-27 65v53q-151 -155 -385 -155 q-139 0 -236.5 83.5t-97.5 223.5zM264 307q0 -74 50.5 -119t166.5 -45q90 0 174.5 44.5t141.5 109.5v172h-224q-309 0 -309 -162zM282 1221q0 22 17 39l139 143q36 41 82 41h78q46 0 82 -41l139 -143q16 -16 16 -39q2 -24 -16.5 -43t-44.5 -19q-22 0 -37 15l-178 151 l-178 -151q-15 -15 -37 -15q-26 0 -45 19t-17 43z" />
<glyph unicode="&#xe3;" horiz-adv-x="1136" d="M78 287q0 151 120 241t351 90h248v17q0 134 -67 194t-208 60q-123 0 -272 -49q-16 -4 -27 -4q-31 0 -53.5 22t-22.5 55q0 56 54 78q173 74 354 74q108 0 192.5 -34.5t134.5 -92.5t75.5 -128t25.5 -148v-580q0 -38 -28 -65t-66 -27t-65 27t-27 65v53q-151 -155 -385 -155 q-139 0 -236.5 83.5t-97.5 223.5zM223 1217q0 68 49 131t123 63q61 0 161 -48t155 -48q56 0 75 55q15 43 52 43q21 0 33 -12.5t14 -32.5q0 -71 -49.5 -132.5t-122.5 -61.5q-51 0 -107.5 24.5t-110.5 49t-98 24.5q-53 0 -80 -66q-12 -37 -47 -37q-19 0 -33 14t-14 34z M264 307q0 -74 50.5 -119t166.5 -45q90 0 174.5 44.5t141.5 109.5v172h-224q-309 0 -309 -162z" />
<glyph unicode="&#xe4;" horiz-adv-x="1136" d="M78 287q0 151 120 241t351 90h248v17q0 134 -67 194t-208 60q-123 0 -272 -49q-16 -4 -27 -4q-31 0 -53.5 22t-22.5 55q0 56 54 78q173 74 354 74q108 0 192.5 -34.5t134.5 -92.5t75.5 -128t25.5 -148v-580q0 -38 -28 -65t-66 -27t-65 27t-27 65v53q-151 -155 -385 -155 q-139 0 -236.5 83.5t-97.5 223.5zM264 307q0 -74 50.5 -119t166.5 -45q90 0 174.5 44.5t141.5 109.5v172h-224q-309 0 -309 -162zM285 1282q0 43 30.5 73.5t73.5 30.5t74 -30.5t31 -73.5t-31 -73.5t-74 -30.5t-73.5 30.5t-30.5 73.5zM631 1282q0 43 31 73.5t74 30.5 t73.5 -30.5t30.5 -73.5t-30.5 -73.5t-73.5 -30.5t-74 30.5t-31 73.5z" />
<glyph unicode="&#xe5;" horiz-adv-x="1136" d="M78 287q0 151 120 241t351 90h248v17q0 134 -67 194t-208 60q-123 0 -272 -49q-16 -4 -27 -4q-31 0 -53.5 22t-22.5 55q0 56 54 78q173 74 354 74q108 0 192.5 -34.5t134.5 -92.5t75.5 -128t25.5 -148v-580q0 -38 -28 -65t-66 -27t-65 27t-27 65v53q-151 -155 -385 -155 q-139 0 -236.5 83.5t-97.5 223.5zM264 307q0 -74 50.5 -119t166.5 -45q90 0 174.5 44.5t141.5 109.5v172h-224q-309 0 -309 -162zM358 1321q0 79 56.5 135.5t136.5 56.5q79 0 135.5 -56.5t56.5 -135.5q0 -80 -56.5 -136.5t-135.5 -56.5t-136 57t-57 136zM451 1321 q0 -41 29.5 -70.5t70.5 -29.5t70.5 29.5t29.5 70.5t-29.5 70.5t-70.5 29.5t-70.5 -29.5t-29.5 -70.5z" />
<glyph unicode="&#xe6;" horiz-adv-x="1851" d="M76 287q0 150 119.5 237.5t351.5 87.5h248v23q0 134 -67 194t-208 60q-123 0 -272 -49q-16 -4 -27 -4q-31 0 -53.5 22t-22.5 55q0 56 54 78q173 74 354 74q245 0 350 -172q129 172 371 172q224 0 356.5 -144t132.5 -370q0 -36 -24.5 -62t-65.5 -26h-704q34 -309 362 -309 q154 0 277 63q16 8 37 8q33 0 57 -23t24 -57q0 -46 -53 -75q-79 -45 -157.5 -67.5t-200.5 -22.5q-280 0 -416 178q-116 -178 -422 -178q-169 0 -285 83.5t-116 223.5zM262 307q0 -70 66.5 -117t185.5 -47q53 0 98.5 9t89 30t68.5 63t25 101v117h-224q-153 0 -231 -36 t-78 -120zM969 612h610q-4 76 -33.5 135t-74.5 93t-95 50.5t-102 16.5t-102 -16.5t-95 -50.5t-74.5 -93t-33.5 -135z" />
<glyph unicode="&#xe7;" horiz-adv-x="1099" d="M94 522q0 125 44.5 228.5t120 171.5t174 105.5t208.5 37.5q182 0 334 -98q41 -26 41 -72q0 -30 -23.5 -56t-54.5 -26q-23 0 -45 12q-45 23 -71.5 34.5t-70.5 21.5t-94 10q-176 0 -276 -101t-100 -268t100 -267.5t276 -100.5q72 0 121 15.5t115 49.5q22 12 45 12 q31 0 54.5 -25.5t23.5 -55.5q0 -46 -41 -72q-149 -96 -330 -98l-61 -109q33 8 69 8q70 0 114 -39.5t44 -103.5q0 -94 -58.5 -141.5t-168.5 -47.5q-97 0 -185 54q-22 13 -22 34q0 17 10 29t29 12q8 0 20 -6q63 -35 121 -35q117 0 117 95q0 30 -21 46.5t-53 16.5 q-45 0 -90 -22q-14 -7 -21 -7q-14 0 -25 10t-11 23q0 17 8 29l98 160q-130 17 -234 83.5t-167.5 184t-63.5 268.5z" />
<glyph unicode="&#xe8;" horiz-adv-x="1167" d="M100 522q0 85 18 163t57 147.5t95.5 121t138.5 81.5t181 30q115 0 208.5 -42t153.5 -114t92.5 -164.5t32.5 -195.5q0 -39 -26 -65.5t-68 -26.5h-694q15 -142 105.5 -222.5t252.5 -80.5q154 0 277 63q16 8 37 8q33 0 57 -23t24 -57q0 -46 -53 -75q-79 -45 -157.5 -67.5 t-200.5 -22.5q-251 0 -391 142.5t-140 399.5zM289 608h604q-4 76 -33.5 136t-74 94t-94.5 51.5t-101 17.5t-101 -17.5t-94 -51.5t-73 -94t-33 -136zM428 1403q0 34 21 55t55 21q48 0 68 -39l104 -185q14 -21 14 -38q0 -25 -15 -40.5t-40 -15.5t-45 23l-141 168 q-21 24 -21 51z" />
<glyph unicode="&#xe9;" horiz-adv-x="1167" d="M100 522q0 85 18 163t57 147.5t95.5 121t138.5 81.5t181 30q115 0 208.5 -42t153.5 -114t92.5 -164.5t32.5 -195.5q0 -39 -26 -65.5t-68 -26.5h-694q15 -142 105.5 -222.5t252.5 -80.5q154 0 277 63q16 8 37 8q33 0 57 -23t24 -57q0 -46 -53 -75q-79 -45 -157.5 -67.5 t-200.5 -22.5q-251 0 -391 142.5t-140 399.5zM289 608h604q-4 76 -33.5 136t-74 94t-94.5 51.5t-101 17.5t-101 -17.5t-94 -51.5t-73 -94t-33 -136zM487 1217q0 15 15 38l104 185q20 39 68 39q34 0 55 -21t21 -55q0 -27 -21 -51l-141 -168q-20 -23 -45 -23t-40.5 15.5 t-15.5 40.5z" />
<glyph unicode="&#xea;" horiz-adv-x="1167" d="M100 522q0 85 18 163t57 147.5t95.5 121t138.5 81.5t181 30q115 0 208.5 -42t153.5 -114t92.5 -164.5t32.5 -195.5q0 -39 -26 -65.5t-68 -26.5h-694q15 -142 105.5 -222.5t252.5 -80.5q154 0 277 63q16 8 37 8q33 0 57 -23t24 -57q0 -46 -53 -75q-79 -45 -157.5 -67.5 t-200.5 -22.5q-251 0 -391 142.5t-140 399.5zM289 608h604q-4 76 -33.5 136t-74 94t-94.5 51.5t-101 17.5t-101 -17.5t-94 -51.5t-73 -94t-33 -136zM311 1221q0 22 17 39l139 143q36 41 82 41h78q46 0 82 -41l139 -143q16 -16 16 -39q2 -24 -16.5 -43t-44.5 -19 q-22 0 -37 15l-178 151l-178 -151q-15 -15 -37 -15q-26 0 -45 19t-17 43z" />
<glyph unicode="&#xeb;" horiz-adv-x="1167" d="M100 522q0 85 18 163t57 147.5t95.5 121t138.5 81.5t181 30q115 0 208.5 -42t153.5 -114t92.5 -164.5t32.5 -195.5q0 -39 -26 -65.5t-68 -26.5h-694q15 -142 105.5 -222.5t252.5 -80.5q154 0 277 63q16 8 37 8q33 0 57 -23t24 -57q0 -46 -53 -75q-79 -45 -157.5 -67.5 t-200.5 -22.5q-251 0 -391 142.5t-140 399.5zM289 608h604q-4 76 -33.5 136t-74 94t-94.5 51.5t-101 17.5t-101 -17.5t-94 -51.5t-73 -94t-33 -136zM311 1282q0 43 31 73.5t74 30.5t73.5 -30.5t30.5 -73.5t-30.5 -73.5t-73.5 -30.5t-74 30.5t-31 73.5zM657 1282 q0 43 31 73.5t74 30.5t73.5 -30.5t30.5 -73.5t-30.5 -73.5t-73.5 -30.5t-74 30.5t-31 73.5z" />
<glyph unicode="&#xec;" horiz-adv-x="526" d="M86 1403q0 34 21 55t55 21q47 0 67 -39l105 -185q14 -21 14 -38q0 -25 -15 -40.5t-40 -15.5t-45 23l-142 168q-20 23 -20 51zM170 82v879q0 40 27 67t65 27q40 0 67 -27t27 -67v-879q0 -38 -27 -65t-67 -27q-38 0 -65 27t-27 65z" />
<glyph unicode="&#xed;" horiz-adv-x="526" d="M170 82v879q0 40 27 67t65 27q40 0 67 -27t27 -67v-879q0 -38 -27 -65t-67 -27q-38 0 -65 27t-27 65zM178 1217q0 15 15 38l104 185q20 39 68 39q34 0 54.5 -21t20.5 -55q0 -28 -20 -51l-141 -168q-20 -23 -46 -23q-25 0 -40 15.5t-15 40.5z" />
<glyph unicode="&#xee;" horiz-adv-x="526" d="M-14 1221q0 23 16 39l139 143q36 41 82 41h78q46 0 82 -41l139 -143q17 -17 17 -39q2 -24 -17 -43t-45 -19q-22 0 -37 15l-178 151l-178 -151q-15 -15 -37 -15q-26 0 -44.5 19t-16.5 43zM170 82v879q0 40 27 67t65 27q40 0 67 -27t27 -67v-879q0 -38 -27 -65t-67 -27 q-38 0 -65 27t-27 65z" />
<glyph unicode="&#xef;" horiz-adv-x="526" d="M-14 1282q0 43 30.5 73.5t73.5 30.5t74 -30.5t31 -73.5t-31 -73.5t-74 -30.5t-73.5 30.5t-30.5 73.5zM170 82v879q0 40 27 67t65 27q40 0 67 -27t27 -67v-879q0 -38 -27 -65t-67 -27q-38 0 -65 27t-27 65zM332 1282q0 43 30.5 73.5t73.5 30.5t74 -30.5t31 -73.5 t-31 -73.5t-74 -30.5t-73.5 30.5t-30.5 73.5z" />
<glyph unicode="&#xf0;" horiz-adv-x="1226" d="M100 508q0 103 32.5 197t92 167.5t151.5 117.5t204 44q122 0 231 -57q-83 124 -219 240l-172 -101q-20 -12 -35 -12q-22 0 -36.5 14.5t-14.5 36.5q0 30 31 47l139 82q-91 62 -156 98q-18 9 -29.5 29.5t-11.5 42.5q0 36 25 61t61 25q24 0 45 -12q127 -78 221 -154l140 84 q17 10 30 10q22 0 37 -14.5t15 -36.5q0 -29 -25 -45l-115 -67q77 -69 140 -145.5t118.5 -170t87 -203.5t31.5 -225q0 -122 -29 -224.5t-88 -183.5t-159.5 -127t-233.5 -46q-230 0 -369 145.5t-139 382.5zM281 516q0 -97 29 -171.5t78 -117t104.5 -63.5t115.5 -21t116 21 t105.5 63.5t79 117t29.5 171.5q0 95 -29.5 168.5t-79 115.5t-105.5 62.5t-116 20.5t-115.5 -20.5t-104.5 -62.5t-78 -115.5t-29 -168.5z" />
<glyph unicode="&#xf1;" horiz-adv-x="1247" d="M162 82v879q0 40 27 67t65 27q39 0 66.5 -27.5t27.5 -66.5v-84q79 86 168 137t213 51q169 0 268 -115t99 -286v-582q0 -38 -28 -65t-67 -27q-38 0 -65 27t-27 65v561q0 250 -225 250q-178 0 -336 -197v-614q0 -38 -28 -65t-66 -27t-65 27t-27 65zM306 1217q0 68 49 131 t123 63q60 0 160 -48t155 -48q57 0 76 55q15 43 51 43q21 0 33 -12.5t14 -32.5q0 -71 -49.5 -132.5t-122.5 -61.5q-51 0 -107.5 24.5t-110 49t-97.5 24.5q-53 0 -80 -66q-12 -37 -47 -37q-19 0 -33 14t-14 34z" />
<glyph unicode="&#xf2;" horiz-adv-x="1245" d="M98 522q0 244 144 393.5t381 149.5q236 0 380 -150t144 -393t-144 -392.5t-380 -149.5q-237 0 -381 149t-144 393zM285 524q0 -98 30 -172.5t80 -117t108 -63.5t120 -21t119.5 21t107.5 63.5t80.5 117.5t30.5 172t-30.5 171t-80.5 116.5t-107.5 63t-119.5 20.5 t-120 -20.5t-108 -63t-80 -116.5t-30 -171zM446 1403q0 34 21 55t55 21q48 0 68 -39l104 -185q14 -21 14 -38q0 -25 -15 -40.5t-40 -15.5t-45 23l-141 168q-21 24 -21 51z" />
<glyph unicode="&#xf3;" horiz-adv-x="1245" d="M98 522q0 244 144 393.5t381 149.5q236 0 380 -150t144 -393t-144 -392.5t-380 -149.5q-237 0 -381 149t-144 393zM285 524q0 -98 30 -172.5t80 -117t108 -63.5t120 -21t119.5 21t107.5 63.5t80.5 117.5t30.5 172t-30.5 171t-80.5 116.5t-107.5 63t-119.5 20.5 t-120 -20.5t-108 -63t-80 -116.5t-30 -171zM537 1217q0 17 14 38l104 185q20 39 68 39q34 0 55 -21t21 -55q0 -27 -21 -51l-141 -168q-20 -23 -45 -23t-40 15.5t-15 40.5z" />
<glyph unicode="&#xf4;" horiz-adv-x="1245" d="M98 522q0 244 144 393.5t381 149.5q236 0 380 -150t144 -393t-144 -392.5t-380 -149.5q-237 0 -381 149t-144 393zM285 524q0 -98 30 -172.5t80 -117t108 -63.5t120 -21t119.5 21t107.5 63.5t80.5 117.5t30.5 172t-30.5 171t-80.5 116.5t-107.5 63t-119.5 20.5 t-120 -20.5t-108 -63t-80 -116.5t-30 -171zM346 1221q0 22 17 39l139 143q36 41 82 41h78q46 0 82 -41l139 -143q16 -16 16 -39q2 -24 -16.5 -43t-44.5 -19q-22 0 -37 15l-178 151l-178 -151q-15 -15 -37 -15q-26 0 -45 19t-17 43z" />
<glyph unicode="&#xf5;" horiz-adv-x="1245" d="M98 522q0 244 144 393.5t381 149.5q236 0 380 -150t144 -393t-144 -392.5t-380 -149.5q-237 0 -381 149t-144 393zM285 524q0 -98 30 -172.5t80 -117t108 -63.5t120 -21t119.5 21t107.5 63.5t80.5 117.5t30.5 172t-30.5 171t-80.5 116.5t-107.5 63t-119.5 20.5 t-120 -20.5t-108 -63t-80 -116.5t-30 -171zM295 1217q0 68 49 131t123 63q50 0 105.5 -24t109.5 -48t100 -24q57 0 76 55q15 43 51 43q21 0 33 -12.5t14 -32.5q0 -71 -49.5 -132.5t-122.5 -61.5q-51 0 -107.5 24.5t-110 49t-97.5 24.5q-53 0 -80 -66q-12 -37 -47 -37 q-19 0 -33 14t-14 34z" />
<glyph unicode="&#xf6;" horiz-adv-x="1245" d="M98 522q0 244 144 393.5t381 149.5q236 0 380 -150t144 -393t-144 -392.5t-380 -149.5q-237 0 -381 149t-144 393zM285 524q0 -98 30 -172.5t80 -117t108 -63.5t120 -21t119.5 21t107.5 63.5t80.5 117.5t30.5 172t-30.5 171t-80.5 116.5t-107.5 63t-119.5 20.5 t-120 -20.5t-108 -63t-80 -116.5t-30 -171zM346 1282q0 43 30.5 73.5t73.5 30.5t74 -30.5t31 -73.5t-31 -73.5t-74 -30.5t-73.5 30.5t-30.5 73.5zM692 1282q0 43 31 73.5t74 30.5t73.5 -30.5t30.5 -73.5t-30.5 -73.5t-73.5 -30.5t-74 30.5t-31 73.5z" />
<glyph unicode="&#xf7;" horiz-adv-x="1458" d="M150 678q0 36 23 60t58 24h994q35 0 59.5 -24.5t24.5 -59.5t-24.5 -58.5t-59.5 -23.5h-994q-35 0 -58 23.5t-23 58.5zM625 299q0 43 30.5 73.5t73.5 30.5t74 -30.5t31 -73.5t-31 -73.5t-74 -30.5t-73.5 30.5t-30.5 73.5zM625 1057q0 43 30.5 73.5t73.5 30.5t74 -30.5 t31 -73.5t-31 -74t-74 -31t-73.5 31t-30.5 74z" />
<glyph unicode="&#xf8;" horiz-adv-x="1245" d="M98 522q0 244 144 393.5t381 149.5q144 0 270 -66l59 84q15 21 43 21q23 0 37.5 -14t14.5 -35q0 -15 -13 -35l-57 -82q82 -71 126 -178t44 -238q0 -243 -144 -392.5t-380 -149.5q-155 0 -273 65l-61 -88q-14 -20 -43 -20q-23 0 -37 14t-14 35q0 16 12 34l59 84 q-80 73 -124 180.5t-44 237.5zM285 524q0 -170 88 -268l418 596q-79 43 -168 43q-62 0 -120 -20.5t-108 -63t-80 -116.5t-30 -171zM455 193q74 -43 168 -43q62 0 119.5 21t107.5 63.5t80.5 117.5t30.5 172q0 161 -89 264z" />
<glyph unicode="&#xf9;" horiz-adv-x="1249" d="M154 381v582q0 38 28 65t66 27t65 -27t27 -65v-562q0 -249 225 -249q178 0 336 196v615q0 38 28 65t66 27t65 -27t27 -65v-879q0 -40 -27 -67t-65 -27q-39 0 -66.5 27.5t-27.5 66.5v84q-79 -86 -168 -137t-213 -51q-169 0 -267.5 115t-98.5 286zM444 1403q0 34 21 55 t55 21q48 0 68 -39l104 -185q14 -21 14 -38q0 -25 -15 -40.5t-40 -15.5t-45 23l-141 168q-21 24 -21 51z" />
<glyph unicode="&#xfa;" horiz-adv-x="1249" d="M154 381v582q0 38 28 65t66 27t65 -27t27 -65v-562q0 -249 225 -249q178 0 336 196v615q0 38 28 65t66 27t65 -27t27 -65v-879q0 -40 -27 -67t-65 -27q-39 0 -66.5 27.5t-27.5 66.5v84q-79 -86 -168 -137t-213 -51q-169 0 -267.5 115t-98.5 286zM535 1217q0 17 14 38 l104 185q20 39 68 39q34 0 55 -21t21 -55q0 -27 -21 -51l-141 -168q-20 -23 -45 -23t-40 15.5t-15 40.5z" />
<glyph unicode="&#xfb;" horiz-adv-x="1249" d="M154 381v582q0 38 28 65t66 27t65 -27t27 -65v-562q0 -249 225 -249q178 0 336 196v615q0 38 28 65t66 27t65 -27t27 -65v-879q0 -40 -27 -67t-65 -27q-39 0 -66.5 27.5t-27.5 66.5v84q-79 -86 -168 -137t-213 -51q-169 0 -267.5 115t-98.5 286zM344 1221q0 22 17 39 l139 143q36 41 82 41h78q46 0 82 -41l139 -143q16 -16 16 -39q2 -24 -16.5 -43t-44.5 -19q-22 0 -37 15l-178 151l-178 -151q-15 -15 -37 -15q-26 0 -45 19t-17 43z" />
<glyph unicode="&#xfc;" horiz-adv-x="1249" d="M154 381v582q0 38 28 65t66 27t65 -27t27 -65v-562q0 -249 225 -249q178 0 336 196v615q0 38 28 65t66 27t65 -27t27 -65v-879q0 -40 -27 -67t-65 -27q-39 0 -66.5 27.5t-27.5 66.5v84q-79 -86 -168 -137t-213 -51q-169 0 -267.5 115t-98.5 286zM344 1282q0 43 31 73.5 t74 30.5t73.5 -30.5t30.5 -73.5t-30.5 -73.5t-73.5 -30.5t-74 30.5t-31 73.5zM690 1282q0 43 31 73.5t74 30.5t73.5 -30.5t30.5 -73.5t-30.5 -73.5t-73.5 -30.5t-74 30.5t-31 73.5z" />
<glyph unicode="&#xfd;" horiz-adv-x="1091" d="M49 961q0 38 27 66t65 28q29 0 52 -16.5t34 -41.5l316 -782l321 778q27 62 86 62q38 0 65 -28t27 -66q0 -20 -6 -35l-559 -1344q-27 -63 -86 -63q-37 0 -62.5 26.5t-25.5 63.5q0 18 6 33l133 342l-385 938q-8 20 -8 39zM458 1217q0 15 15 38l104 185q20 39 68 39 q34 0 54.5 -21t20.5 -55q0 -28 -20 -51l-141 -168q-20 -23 -45 -23t-40.5 15.5t-15.5 40.5z" />
<glyph unicode="&#xfe;" horiz-adv-x="1292" d="M162 -387v1798q0 40 27 67t65 27q40 0 67 -27t27 -67v-502q150 156 350 156q94 0 182 -36.5t158.5 -103.5t113 -172t42.5 -231t-42.5 -230.5t-113 -171.5t-158.5 -103.5t-182 -36.5q-201 0 -350 155v-522q0 -40 -27 -67t-67 -27q-38 0 -65 27t-27 67zM348 307 q139 -153 324 -153q151 0 243.5 96t92.5 272q0 177 -92.5 273t-243.5 96q-184 0 -324 -154v-430z" />
<glyph unicode="&#xff;" horiz-adv-x="1091" d="M49 961q0 38 27 66t65 28q29 0 52 -16.5t34 -41.5l316 -782l321 778q27 62 86 62q38 0 65 -28t27 -66q0 -20 -6 -35l-559 -1344q-27 -63 -86 -63q-37 0 -62.5 26.5t-25.5 63.5q0 18 6 33l133 342l-385 938q-8 20 -8 39zM266 1282q0 43 31 73.5t74 30.5t73.5 -30.5 t30.5 -73.5t-30.5 -73.5t-73.5 -30.5t-74 30.5t-31 73.5zM612 1282q0 43 31 73.5t74 30.5t73.5 -30.5t30.5 -73.5t-30.5 -73.5t-73.5 -30.5t-74 30.5t-31 73.5z" />
<glyph unicode="&#x2c6;" horiz-adv-x="837" d="M139 1221q0 22 17 39l139 143q36 41 82 41h78q46 0 82 -41l139 -143q16 -16 16 -39q2 -24 -16.5 -43t-44.5 -19q-22 0 -37 15l-178 151l-178 -151q-15 -15 -37 -15q-26 0 -45 19t-17 43z" />
<glyph unicode="&#x2dc;" horiz-adv-x="884" d="M113 1217q0 68 49 131t123 63q50 0 105.5 -24t109.5 -48t100 -24q57 0 76 55q15 43 51 43q21 0 33 -12.5t14 -32.5q0 -71 -49.5 -132.5t-122.5 -61.5q-51 0 -107.5 24.5t-110 49t-97.5 24.5q-53 0 -80 -66q-12 -37 -47 -37q-19 0 -33 14t-14 34z" />
<glyph unicode="&#x2000;" horiz-adv-x="940" />
<glyph unicode="&#x2001;" horiz-adv-x="1880" />
<glyph unicode="&#x2002;" horiz-adv-x="940" />
<glyph unicode="&#x2003;" horiz-adv-x="1880" />
<glyph unicode="&#x2004;" horiz-adv-x="626" />
<glyph unicode="&#x2005;" horiz-adv-x="470" />
<glyph unicode="&#x2006;" horiz-adv-x="313" />
<glyph unicode="&#x2007;" horiz-adv-x="313" />
<glyph unicode="&#x2008;" horiz-adv-x="235" />
<glyph unicode="&#x2009;" horiz-adv-x="376" />
<glyph unicode="&#x200a;" horiz-adv-x="104" />
<glyph unicode="&#x2010;" horiz-adv-x="835" d="M141 573q0 35 23.5 59.5t58.5 24.5h387q35 0 59.5 -24.5t24.5 -59.5t-24 -58t-60 -23h-387q-35 0 -58.5 23t-23.5 58z" />
<glyph unicode="&#x2011;" horiz-adv-x="835" d="M141 573q0 35 23.5 59.5t58.5 24.5h387q35 0 59.5 -24.5t24.5 -59.5t-24 -58t-60 -23h-387q-35 0 -58.5 23t-23.5 58z" />
<glyph unicode="&#x2012;" horiz-adv-x="835" d="M141 573q0 35 23.5 59.5t58.5 24.5h387q35 0 59.5 -24.5t24.5 -59.5t-24 -58t-60 -23h-387q-35 0 -58.5 23t-23.5 58z" />
<glyph unicode="&#x2013;" horiz-adv-x="1400" d="M141 573q0 35 23.5 59.5t58.5 24.5h953q35 0 59.5 -24.5t24.5 -59.5t-24 -58t-60 -23h-953q-35 0 -58.5 23t-23.5 58z" />
<glyph unicode="&#x2014;" horiz-adv-x="1824" d="M141 573q0 35 23.5 59.5t58.5 24.5h1376q35 0 59.5 -24.5t24.5 -59.5t-24 -58t-60 -23h-1376q-35 0 -58.5 23t-23.5 58z" />
<glyph unicode="&#x2018;" horiz-adv-x="522" d="M135 1092v12v108q0 196 168 299q17 11 35 11q26 0 42.5 -18.5t16.5 -43.5q0 -33 -30 -51q-52 -31 -78.5 -71.5t-26.5 -118.5h8q47 0 81 -34t34 -81v-12q0 -47 -34 -81t-81 -34h-20q-47 0 -81 34t-34 81z" />
<glyph unicode="&#x2019;" horiz-adv-x="487" d="M129 1038q0 33 31 52q52 31 78 71.5t26 118.5h-8q-47 0 -81 34t-34 81v12q0 47 34 81t81 34h20q47 0 81 -34t34 -81v-12v-109q0 -196 -168 -299q-15 -10 -35 -10q-26 0 -42.5 18t-16.5 43z" />
<glyph unicode="&#x201a;" horiz-adv-x="532" d="M129 -248q0 32 31 51q51 30 77.5 71.5t26.5 119.5h-8q-47 0 -81 34t-34 81v12q0 47 34 81t81 34h20q47 0 81 -34t34 -81v-12v-109q0 -196 -168 -299q-15 -10 -35 -10q-26 0 -42.5 18t-16.5 43z" />
<glyph unicode="&#x201c;" horiz-adv-x="894" d="M135 1092v12v108q0 196 168 299q17 11 35 11q26 0 42.5 -18.5t16.5 -43.5q0 -33 -30 -51q-52 -31 -78.5 -71.5t-26.5 -118.5h8q47 0 81 -34t34 -81v-12q0 -47 -34 -81t-81 -34h-20q-47 0 -81 34t-34 81zM506 1092v12v108q0 196 168 299q16 11 35 11q26 0 42.5 -18.5 t16.5 -43.5q0 -32 -31 -51q-52 -31 -78 -71.5t-26 -118.5h8q47 0 81 -34t34 -81v-12q0 -47 -34 -81t-81 -34h-20q-47 0 -81 34t-34 81z" />
<glyph unicode="&#x201d;" horiz-adv-x="860" d="M129 1038q0 33 31 52q52 31 78 71.5t26 118.5h-8q-47 0 -81 34t-34 81v12q0 47 34 81t81 34h20q47 0 81 -34t34 -81v-12v-109q0 -196 -168 -299q-15 -10 -35 -10q-26 0 -42.5 18t-16.5 43zM500 1038q0 34 30 52q52 31 78.5 71.5t26.5 118.5h-8q-47 0 -81 34t-34 81v12 q0 47 34 81t81 34h20q47 0 81 -34t34 -81v-12v-109q0 -196 -168 -299q-15 -10 -35 -10q-26 0 -42.5 18t-16.5 43z" />
<glyph unicode="&#x201e;" horiz-adv-x="905" d="M129 -248q0 32 31 51q51 30 77.5 71.5t26.5 119.5h-8q-47 0 -81 34t-34 81v12q0 47 34 81t81 34h20q47 0 81 -34t34 -81v-12v-109q0 -196 -168 -299q-15 -10 -35 -10q-26 0 -42.5 18t-16.5 43zM500 -248q0 33 30 51q52 31 78.5 72t26.5 119h-8q-47 0 -81 34t-34 81v12 q0 47 34 81t81 34h20q47 0 81 -34t34 -81v-12v-109q0 -196 -168 -299q-15 -10 -35 -10q-26 0 -42.5 18t-16.5 43z" />
<glyph unicode="&#x2022;" horiz-adv-x="772" d="M115 805q0 114 79 193t193 79q113 0 191.5 -79t78.5 -193t-78.5 -193.5t-191.5 -79.5q-114 0 -193 79.5t-79 193.5z" />
<glyph unicode="&#x2026;" horiz-adv-x="1982" d="M141 109v12q0 47 34 81t81 34h20q47 0 81 -34t34 -81v-12q0 -47 -34 -81t-81 -34h-20q-47 0 -81 34t-34 81zM868 109v12q0 47 34 81t81 34h21q47 0 80.5 -34t33.5 -81v-12q0 -47 -33.5 -81t-80.5 -34h-21q-47 0 -81 34t-34 81zM1589 109v12q0 47 34 81t81 34h20 q47 0 81 -34t34 -81v-12q0 -47 -34 -81t-81 -34h-20q-47 0 -81 34t-34 81z" />
<glyph unicode="&#x202f;" horiz-adv-x="376" />
<glyph unicode="&#x2039;" horiz-adv-x="772" d="M111 522q0 47 36 88l336 371q20 23 58 23q34 0 57 -22.5t23 -57.5q0 -32 -19 -54l-328 -348l328 -348q19 -22 19 -53q0 -35 -23 -57.5t-57 -22.5q-39 0 -58 22l-336 371q-36 41 -36 88z" />
<glyph unicode="&#x203a;" horiz-adv-x="772" d="M152 121q0 32 18 53l328 348l-328 348q-18 21 -18 54q0 35 22.5 57.5t56.5 22.5q38 0 58 -23l336 -371q37 -43 37 -88t-37 -88l-336 -371q-19 -22 -58 -22q-34 0 -56.5 22.5t-22.5 57.5z" />
<glyph unicode="&#x205f;" horiz-adv-x="470" />
<glyph unicode="&#x20ac;" horiz-adv-x="1396" d="M86 543q0 31 21.5 53t52.5 22h112q-8 62 -8 97q0 30 8 96h-112q-31 0 -52.5 21.5t-21.5 52.5t21.5 52t52.5 21h145q70 221 242.5 356.5t410.5 135.5q164 0 299 -66q48 -23 48 -73q0 -34 -25 -58t-59 -24q-14 0 -39 10q-93 35 -224 35q-151 0 -274.5 -85t-183.5 -231h587 q31 0 52.5 -21t21.5 -52q0 -30 -22 -52t-52 -22h-630q-6 -47 -6 -96q0 -51 6 -97h528q31 0 53.5 -22t22.5 -53q0 -32 -21 -53t-55 -21h-485q60 -145 183.5 -229t274.5 -84q134 0 224 34q28 11 39 11q34 0 59 -24t25 -58q0 -51 -48 -74q-133 -65 -299 -65q-238 0 -410.5 135 t-242.5 354h-145q-31 0 -52.5 21.5t-21.5 52.5z" />
<glyph unicode="&#x2122;" horiz-adv-x="1951" d="M117 1370q0 25 17 42.5t42 17.5h541q25 0 42 -17.5t17 -42.5t-17 -42t-42 -17h-207v-598q0 -28 -19 -46t-47 -18t-45.5 18t-17.5 46v598h-205q-25 0 -42 17t-17 42zM889 715v633q0 36 25 61t61 25h35q26 0 48.5 -15.5t31.5 -38.5l237 -587l238 587q9 23 31.5 38.5 t48.5 15.5h34q36 0 61 -25t25 -61v-633q0 -28 -18.5 -47t-46.5 -19t-47 19t-19 47v536l-227 -551q-9 -23 -30.5 -37t-49.5 -14t-49.5 14t-30.5 37l-227 551v-536q0 -28 -19 -47t-47 -19t-46.5 19t-18.5 47z" />
<glyph unicode="&#xe000;" horiz-adv-x="1054" d="M0 0v1055h1055v-1055h-1055z" />
</font>
</defs>
</svg>
